<svg xmlns="http://www.w3.org/2000/svg" xmlns:xlink="http://www.w3.org/1999/xlink" width="152" height="152" viewBox="0 0 152 152">
  <defs>
    <clipPath id="clip-path">
      <rect id="Rectángulo_357372" data-name="Rectángulo 357372" width="75.125" height="79.286" fill="none"/>
    </clipPath>
  </defs>
  <g id="Grupo_1020671" data-name="Grupo 1020671" transform="translate(7.173 7)">
    <g id="Grupo_1020472" data-name="Grupo 1020472">
      <circle id="Elipse_8460" data-name="Elipse 8460" cx="76" cy="76" r="76" transform="translate(-7.173 -7)" fill="#91b3fa" opacity="0.45"/>
      <circle id="Elipse_8461" data-name="Elipse 8461" cx="62" cy="62" r="62" transform="translate(6.827 7)" fill="#fff"/>
      <g id="Grupo_1020672" data-name="Grupo 1020672" transform="translate(27.265 25.185)">
        <g id="Grupo_1020486" data-name="Grupo 1020486" clip-path="url(#clip-path)">
          <path id="Trazado_748318" data-name="Trazado 748318" d="M32.013,257.383c2.173.579,4.377,1.068,6.508,1.775,1.1.364,2.224.556,3.313.9,1.794.562,3.68,1.169,4.09,3.337.16.844.738,1.784-.034,2.733-.147.181-.084.816-.276,1.219a3.32,3.32,0,0,1-1.314,1.528,16.885,16.885,0,0,0,3.286,1.028c.484.129.861.475,1.382.5a4.925,4.925,0,0,0,2.461-.823,36.3,36.3,0,0,1,3.464-1.842c.437-.162.675-.681,1.135-.871,1.236-.51,2.278-1.4,3.492-1.91,1.24-.518,2.266-1.37,3.465-1.954a18.481,18.481,0,0,1,2.786-1.546,4.814,4.814,0,0,1,5.983,2.747,6.328,6.328,0,0,1,.691,2.1,4.672,4.672,0,0,1-.985,3.211,10.318,10.318,0,0,1-3.052,2.231c-.672.413-1.37.783-2.264,1.289,1.021.173,1.84.292,2.652.453,1.924.383,3.891.669,5.457,2.016A1.869,1.869,0,0,1,74.826,277c0,.19-.02.47.3.2v9.582c-.12-.137-.279-.206-.286.042q-.036,1.193,0,2.388c.007.248.166.179.286.042v2.473c-.283.009-.316.012-.3.271a2.023,2.023,0,0,1-1.007,1.849,8.945,8.945,0,0,1-2.849,1.279A53.5,53.5,0,0,1,60.6,296.54c-.211.019-.463-.162-.618.128H58.9a.918.918,0,0,0-1.082,0H51.947a1.173,1.173,0,0,0-1.236,0H49.32a.19.19,0,0,0-.22-.157,49.7,49.7,0,0,1-5.572-.444,32.818,32.818,0,0,1-5.952-1.284c0-.26-.131-.213-.283-.128a2.948,2.948,0,0,0-.439-.276,2.631,2.631,0,0,1-1.836-2.868c.113-2.131.016-4.272.038-6.409,0-.483-.116-.6-.628-.67-1.711-.227-3.4-.622-5.113-.838-1-.126-1.989-.551-3.034-.218a13.63,13.63,0,0,0-1.955,1.054c-.416.21-.273.378-.145.617.342.639.717,1.261,1.031,1.913a3.173,3.173,0,0,1-1.155,4.008c-1.734,1.173-3.615,2.094-5.394,3.19a8.089,8.089,0,0,1-2.271,1.066,3.321,3.321,0,0,1-3.372-1.666q-1.091-1.883-2.179-3.769-2.628-4.545-5.257-9.089C4.219,278.34,2.813,276,1.5,273.616c-.592-1.075-1.507-2.029-1.5-3.378a3.322,3.322,0,0,1,2.189-3.278c.127.025.26.065.312-.114a4.49,4.49,0,0,1,1.542-.964c.257.075.374-.075.454-.283a5.39,5.39,0,0,1,1.709-.956c.127.022.26.064.312-.116.976-.674,1.884-1.509,3.2-1.4a2.884,2.884,0,0,1,1.51.5l.023.026a.481.481,0,0,0,.5.4.489.489,0,0,0,.474.32c.053.366.372.587.5.912-.033.11.032.143.123.155l.338.615c-.066.248.042.384.281.435,1.05-.6,2.084-1.232,3.152-1.8,2.116-1.128,4.11-2.461,6.212-3.617,1.411-.776,2.813-1.6,4.179-2.467a5.286,5.286,0,0,1,.673-.309c.127.023.26.064.312-.116a3.809,3.809,0,0,1,3.705-.808h.31M68.8,275.478a5.518,5.518,0,0,1-.6-.036,25.856,25.856,0,0,0-4.726-.564.978.978,0,0,0-.584.1c-.716.451-1.456.865-2.187,1.293a.175.175,0,0,0-.093.1,26.653,26.653,0,0,0-4.406,2.576c5.608-.137,11.2-.243,16.56-2.215a14.885,14.885,0,0,0-3.66-1.112c-.035-.188-.077-.362-.3-.144m-13.14-6.137-.155,0a.254.254,0,0,0-.362.209l-.02.026c-.707.459-1.4.95-2.126,1.369-1.3.745-2.576,1.535-4.2,1.318a10.574,10.574,0,0,1-1.866-.512c-.973-.316-2.066-.336-2.892-1.056.026-.1-.017-.14-.117-.122a.793.793,0,0,1-.772-.2c-.056-.169-.186-.137-.313-.114-.333.005-.707.223-.96-.187.025-.1-.018-.142-.119-.123a1.149,1.149,0,0,1-.877.087c-1.12-.338-2.246-.659-3.361-1.012-1.24-.393-2.466-.83-3.709-1.213-.421-.13-1.054.056-1.223-.405-.13-.354.177-.847.188-1.28.012-.476.29-.438.555-.344A12.229,12.229,0,0,1,36.03,266.8l.155,0c.114-.042.264-.152.338-.114a15.311,15.311,0,0,0,2.153.615c.676.229,1.353.454,2.019.708a2.65,2.65,0,0,0,2.433-.718c.343.041.508-.1.475-.455a2.916,2.916,0,0,0,.5-1.4l.116-.107c.244-1.762-1-2.869-2.5-3.339-.874-.274-1.954-.026-2.632-.882.025-.1-.018-.142-.119-.123-.181-.138-.381.012-.55.02-1.137.055-2.035-.764-3.168-.766a11.332,11.332,0,0,1-3.094-.86,3.671,3.671,0,0,0-3.091.273q-3.353,1.98-6.712,3.951-3.678,2.159-7.357,4.315c-.318.187-.482.326-.231.818.422.828.924,1.605,1.362,2.421a.475.475,0,0,0,.281.618c.844,1.034,1.28,2.314,2.037,3.4a.475.475,0,0,0,.282.617,5.524,5.524,0,0,1,.664.908c.873,1.9,2.151,3.562,3.071,5.43-.027.227-.1.483.284.451.127.243.2.444.548.159a6.862,6.862,0,0,1,6.067-1.179c2.015.394,4.048.694,6.073,1.033,1.757.294,3.51.606,5.272.87,1.313.2,2.609.482,3.9-.273,3.584-2.087,7.184-4.15,10.827-6.13,2.632-1.431,5.19-2.985,7.8-4.447a39.911,39.911,0,0,1,3.7-2.115c.1.022.139-.006.1-.109.456-.349.95-.638,1.433-.945,1.37-.873,2.4-1.84,1.839-3.633-.731-2.351-2.514-3.276-4.9-2.066-.953.483-1.867,1.044-2.8,1.569-.349-.063-.658-.064-.637.426-.933.507-1.906.954-2.788,1.538-1.14.754-2.335,1.4-3.529,2.054M9.512,265.12a2.437,2.437,0,0,0-.511.155c-2.156,1.134-4.257,2.367-6.327,3.651a1.286,1.286,0,0,0-.425,1.916c.757,1.328,1.533,2.646,2.3,3.97q3.83,6.634,7.657,13.269c.779,1.35,1.563,2.7,2.327,4.056.649,1.153,1.2,1.385,2.334.756,1.989-1.107,3.951-2.265,5.905-3.435a1.327,1.327,0,0,0,.479-2.082q-3.969-6.869-7.923-13.746c-1.49-2.581-3-5.152-4.486-7.733a1.52,1.52,0,0,0-1.326-.776m27.543,24.189a20.506,20.506,0,0,1-.018,2.26,1.13,1.13,0,0,0,.912,1.355c.168.054.33.125.5.165a57.734,57.734,0,0,0,11.567,1.533,109.8,109.8,0,0,0,12.014-.144c.683-.055,1.373-.071,2.053-.167,1.351-.19,2.707-.358,4.05-.594a16.907,16.907,0,0,0,4.174-1.06c.217-.1.5-.132.5-.47,0-.876,0-1.751,0-2.627,0-.3-.1-.317-.383-.2a25.261,25.261,0,0,1-6.313,1.455,63.457,63.457,0,0,1-7.218.59q-4.44.069-8.882-.007c-.992-.016-1.994-.071-2.981-.165-1.933-.183-3.858-.467-5.78-.752a20.627,20.627,0,0,1-4.2-1.168m35.76-3.748c-.073-.443.218-1.077-.148-1.456-.132-.137-.832.277-1.274.435-.1.034-.2.051-.295.077a45.069,45.069,0,0,1-4.889.955,46.693,46.693,0,0,1-5.826.551c-3.708.1-7.421.155-11.132.034-.2-.007-.409-.014-.612-.032-1.641-.144-3.282-.3-4.924-.428a10.521,10.521,0,0,1-1.33.052c-1.315-.235-2.633-.471-3.956-.662-1.37-.2-1.332-.157-1.391,1.276-.033.805.249,1.13,1.028,1.359a45.794,45.794,0,0,0,11.367,1.626,100.134,100.134,0,0,0,13.834-.234,60.615,60.615,0,0,0,7.762-1.243c1.784-.424,1.786-.415,1.786-2.311M57.09,284.146a54.458,54.458,0,0,0,7.948-.448,51.71,51.71,0,0,0,6.83-1.27c.619-.157,1.092-.481.962-1.287a10.08,10.08,0,0,1-.015-1.543c0-.813-.053-.836-.808-.548a26.121,26.121,0,0,1-6.493,1.389c-1.387.154-2.771.4-4.161.431-1.407.036-2.814.226-4.216.151-1.49-.079-2.979.014-4.467-.066a1.2,1.2,0,0,0-.636.233q-2.019,1.185-4.061,2.332c-.136.077-.323.124-.285.285.033.143.224.156.382.19a20.511,20.511,0,0,0,4.334.246c1.53,0,3.075.037,4.687-.1" transform="translate(0 -217.381)" fill="#12263f"/>
          <path id="Trazado_748319" data-name="Trazado 748319" d="M167.2,5.125c.926-.518,1.587-1.388,2.538-1.882a32.663,32.663,0,0,1,4.489-2.056C175.364.8,176.559.737,177.674.32c.178-.066.467-.008.189-.32h.309c-.25.417.122.3.282.3.849.013,1.7.009,2.548.006a19.108,19.108,0,0,1,4.572.7,20.38,20.38,0,0,1,5.775,2.528,18.659,18.659,0,0,1,3.658,3.136,18.768,18.768,0,0,1,3.173,4.643,10.951,10.951,0,0,1,1.158,3.206l-.11.109.114.016a8.948,8.948,0,0,1,.751,3.381,19.327,19.327,0,0,1-1.225,9.232,19.779,19.779,0,0,1-5.829,8.061,20.646,20.646,0,0,1-7.546,3.969,15.828,15.828,0,0,1-3.391.587,15.518,15.518,0,0,1-2.2.159,21.99,21.99,0,0,1-7.123-1.538,20.055,20.055,0,0,1-7.462-5.4,15.868,15.868,0,0,1-2.947-4.67,14.5,14.5,0,0,1-1.036-2.609l.111-.111-.114-.055a9.666,9.666,0,0,1-.723-2.939,7.446,7.446,0,0,1-.185-3.028,20.556,20.556,0,0,0,.358-2.7,11.773,11.773,0,0,1,.733-3.35,18.3,18.3,0,0,1,3.615-6.381c.186-.2.224-.524.521-.628.485.275.246-.168.309-.312a6.144,6.144,0,0,1,1.07-1.07l.171-.124m3.863-.49h0c-.114.034-.256.008-.315.154a.518.518,0,0,0-.3.313c-.123.01-.271-.034-.312.148a.308.308,0,0,0-.328.316l-.446.351c-.108-.038-.138.01-.122.11-.122.088-.251.168-.365.266a20.206,20.206,0,0,0-5.809,8.745c-.082.231.051.385.092.574-.307.031-.282.258-.279.472a12.091,12.091,0,0,0-.187,2.465.271.271,0,0,0-.275.321,17.691,17.691,0,0,0,.943,6.918,17.3,17.3,0,0,0,5.205,7.748c.032.082.071.154.18.133a13.012,13.012,0,0,0,4.143,2.675,5.318,5.318,0,0,0,2.5.743.3.3,0,0,0,.119.078,9.4,9.4,0,0,0,4.072.835,16.336,16.336,0,0,0,6.686-1.067,10.078,10.078,0,0,0,3.073-1.533c.192.115.285.066.271-.163h0c.142.056.3.16.311-.123a15.352,15.352,0,0,0,2.806-2.187.454.454,0,0,0,.448-.436,19.91,19.91,0,0,0,3.3-4.746,16.813,16.813,0,0,0,1.353-4.253c.216-.042.361-.109.111-.316a16.712,16.712,0,0,0,.007-6.277,13.564,13.564,0,0,0-1.517-4.542c-.03-.114.007-.262-.155-.31a14.408,14.408,0,0,0-4.017-5.254,1.059,1.059,0,0,0-.474-.477,12.489,12.489,0,0,0-3.4-2.161c-.048-.162-.2-.125-.31-.154a13.38,13.38,0,0,0-4.535-1.5c-.321-.063-.518-.335-.828-.327-1.638.044-3.284.018-4.912.178a12.284,12.284,0,0,0-2.847.645,18.951,18.951,0,0,0-3.572,1.516c-.13-.023-.262-.055-.312.124" transform="translate(-135.497)" fill="#12263f"/>
          <path id="Trazado_748320" data-name="Trazado 748320" d="M327.352,510.858a1.173,1.173,0,0,1,1.236,0Z" transform="translate(-276.642 -431.571)" fill="#3c817d"/>
          <path id="Trazado_748321" data-name="Trazado 748321" d="M373.237,510.857a.919.919,0,0,1,1.082,0Z" transform="translate(-315.419 -431.571)" fill="#3c817d"/>
          <path id="Trazado_748322" data-name="Trazado 748322" d="M387.82,510.79c0,.042,0,.085,0,.128H387.2c.155-.289.407-.109.618-.128" transform="translate(-327.221 -431.631)" fill="#fff"/>
          <path id="Trazado_748323" data-name="Trazado 748323" d="M26.554,311.263c-.081.208-.2.358-.454.283.026-.3.245-.281.454-.283" transform="translate(-22.057 -263.045)" fill="#fdfdfd"/>
          <path id="Trazado_748324" data-name="Trazado 748324" d="M194.95,40.792c-.062.144.176.586-.309.312l.309-.312" transform="translate(-164.489 -34.473)" fill="#060606"/>
          <path id="Trazado_748325" data-name="Trazado 748325" d="M85.317,314.71c-.239-.051-.347-.187-.281-.435.286.021.283.228.281.435" transform="translate(-71.847 -265.591)" fill="#fdfdfd"/>
          <path id="Trazado_748326" data-name="Trazado 748326" d="M76.342,301.654a.489.489,0,0,1-.474-.32c.236-.009.47-.016.474.32" transform="translate(-64.115 -254.652)" fill="#fdfdfd"/>
          <path id="Trazado_748327" data-name="Trazado 748327" d="M14.441,318.634c-.053.18-.185.139-.312.114.042-.209.106-.355.312-.114" transform="translate(-11.94 -269.169)" fill="#fdfdfd"/>
          <path id="Trazado_748328" data-name="Trazado 748328" d="M204.965,257.046h-.31c.016-.1.028-.217.155-.217s.139.118.155.217" transform="translate(-172.952 -217.044)" fill="#fdfdfd"/>
          <path id="Trazado_748329" data-name="Trazado 748329" d="M179.031,262.765c-.052.18-.185.138-.312.116.041-.209.1-.357.312-.116" transform="translate(-151.034 -221.955)" fill="#fdfdfd"/>
          <path id="Trazado_748330" data-name="Trazado 748330" d="M40.377,303.669c-.052.18-.185.138-.312.116.041-.208.1-.357.312-.116" transform="translate(-33.859 -256.523)" fill="#fdfdfd"/>
          <path id="Trazado_748331" data-name="Trazado 748331" d="M166.758,165.6l.114.055-.111.111q0-.083,0-.166" transform="translate(-140.926 -139.949)" fill="#fdfdfd"/>
          <path id="Trazado_748332" data-name="Trazado 748332" d="M411.525,93.856l-.114-.016.11-.109q0,.062,0,.125" transform="translate(-347.679 -79.211)" fill="#fdfdfd"/>
          <path id="Trazado_748333" data-name="Trazado 748333" d="M82.236,309.456c-.091-.012-.156-.045-.123-.155l.123.155" transform="translate(-69.386 -261.387)" fill="#fdfdfd"/>
          <path id="Trazado_748334" data-name="Trazado 748334" d="M203.716,33.045l-.171.124c.025-.085.061-.155.171-.124" transform="translate(-172.014 -27.919)" fill="#070706"/>
          <path id="Trazado_748335" data-name="Trazado 748335" d="M72.484,298.057l.089-.1c.093.1-.043.083-.066.125l-.024-.026" transform="translate(-61.256 -251.802)" fill="#fdfdfd"/>
          <path id="Trazado_748336" data-name="Trazado 748336" d="M96.006,281.784c-.437-.816-.939-1.592-1.362-2.421-.251-.492-.087-.631.231-.818q3.675-2.164,7.357-4.315,3.358-1.972,6.712-3.951a3.671,3.671,0,0,1,3.091-.273,11.328,11.328,0,0,0,3.094.86c1.133,0,2.031.821,3.168.766.169-.008.369-.159.55-.02l.119.123c.678.856,1.758.608,2.631.882,1.5.47,2.741,1.577,2.5,3.339-.106-.038-.136.008-.116.107a2.915,2.915,0,0,1-.5,1.4l-.475.455a2.65,2.65,0,0,1-2.433.718c-.666-.253-1.344-.478-2.019-.708a15.32,15.32,0,0,1-2.153-.615c-.074-.038-.223.073-.338.114-.034-.1.074-.245-.1-.293l-.052.288a12.232,12.232,0,0,0-2.706-1.013c-.265-.094-.542-.132-.555.344-.011.434-.318.926-.188,1.28.169.461.8.276,1.223.405,1.243.383,2.469.821,3.709,1.213,1.115.353,2.241.673,3.361,1.012a1.149,1.149,0,0,0,.877-.087l.119.123c.252.41.627.192.96.187.018.131-.043.316.135.356s.15-.135.178-.242a.793.793,0,0,0,.772.2l.117.122c.827.72,1.919.74,2.892,1.056a10.574,10.574,0,0,0,1.866.512c1.627.217,2.9-.573,4.2-1.318.73-.419,1.419-.91,2.126-1.368.043.013.04.155.127.048l-.107-.075a.254.254,0,0,1,.362-.209l.08.18.075-.184c1.194-.653,2.389-1.3,3.529-2.053.882-.584,1.855-1.03,2.788-1.538a.791.791,0,0,0,.637-.426c.931-.525,1.845-1.087,2.8-1.569,2.391-1.21,4.173-.285,4.9,2.066.558,1.793-.469,2.76-1.839,3.633-.483.308-.977.6-1.433.945a.193.193,0,0,0-.1.109,39.915,39.915,0,0,0-3.7,2.115c-2.612,1.462-5.17,3.017-7.8,4.447-3.643,1.981-7.243,4.044-10.827,6.13-1.3.755-2.591.47-3.9.273-1.761-.264-3.515-.576-5.272-.87-2.025-.339-4.058-.639-6.073-1.033a6.862,6.862,0,0,0-6.067,1.179c-.345.285-.421.084-.548-.159,0-.208.009-.426-.284-.451-.92-1.868-2.2-3.533-3.071-5.43a5.522,5.522,0,0,0-.664-.908c.249-.363.016-.5-.282-.617-.756-1.087-1.192-2.366-2.036-3.4.251-.363.016-.5-.282-.618" transform="translate(-79.88 -227.999)" fill="#f5ce9d"/>
          <path id="Trazado_748337" data-name="Trazado 748337" d="M20.4,308.174a1.52,1.52,0,0,1,1.326.776c1.49,2.581,3,5.152,4.486,7.733q3.966,6.87,7.923,13.746a1.327,1.327,0,0,1-.479,2.082c-1.954,1.17-3.916,2.328-5.905,3.435-1.131.629-1.685.4-2.334-.756-.765-1.358-1.549-2.706-2.327-4.056q-3.827-6.635-7.656-13.269c-.764-1.324-1.54-2.641-2.3-3.969a1.286,1.286,0,0,1,.425-1.916c2.07-1.283,4.171-2.516,6.327-3.65a2.444,2.444,0,0,1,.511-.155" transform="translate(-10.887 -260.435)" fill="#57dbd8"/>
          <path id="Trazado_748338" data-name="Trazado 748338" d="M239.032,464.233a20.627,20.627,0,0,0,4.2,1.168c1.922.285,3.847.569,5.78.752.987.094,1.989.148,2.981.165q4.44.073,8.882.007a63.415,63.415,0,0,0,7.218-.59,25.248,25.248,0,0,0,6.313-1.455c.279-.113.382-.092.383.2,0,.876,0,1.751,0,2.627,0,.338-.288.371-.5.47a16.92,16.92,0,0,1-4.174,1.06c-1.343.236-2.7.4-4.05.594-.68.1-1.371.111-2.053.167a109.825,109.825,0,0,1-12.014.144,57.73,57.73,0,0,1-11.567-1.533c-.171-.04-.333-.112-.5-.166a1.13,1.13,0,0,1-.912-1.355,20.55,20.55,0,0,0,.018-2.26" transform="translate(-201.977 -392.305)" fill="#e6b046"/>
          <path id="Trazado_748339" data-name="Trazado 748339" d="M274.847,432.035c0,1.9,0,1.887-1.786,2.311a60.632,60.632,0,0,1-7.762,1.243,100.153,100.153,0,0,1-13.834.234A45.788,45.788,0,0,1,240.1,434.2c-.779-.228-1.061-.553-1.028-1.358.06-1.433.022-1.474,1.391-1.277,1.323.191,2.642.427,3.956.662a10.55,10.55,0,0,0,1.33-.052c1.643.126,3.283.284,4.924.428.2.018.408.025.612.032,3.711.121,7.424.071,11.132-.034a46.7,46.7,0,0,0,5.826-.551,45.113,45.113,0,0,0,4.889-.955c.1-.027.2-.043.295-.077.442-.158,1.142-.572,1.274-.435.366.379.075,1.013.148,1.456" transform="translate(-202.033 -363.855)" fill="#e6b046"/>
          <path id="Trazado_748340" data-name="Trazado 748340" d="M317.21,402.279c-1.612.133-3.157.1-4.687.1a20.509,20.509,0,0,1-4.334-.246c-.158-.034-.348-.048-.382-.19-.038-.161.15-.209.286-.285q2.04-1.15,4.061-2.332a1.2,1.2,0,0,1,.636-.233c1.488.08,2.976-.013,4.466.066,1.4.074,2.809-.116,4.216-.151,1.39-.035,2.774-.277,4.161-.431a26.12,26.12,0,0,0,6.493-1.389c.755-.288.8-.264.808.548a10.075,10.075,0,0,0,.015,1.543c.13.806-.343,1.131-.962,1.287a51.711,51.711,0,0,1-6.83,1.27,54.458,54.458,0,0,1-7.948.448" transform="translate(-260.121 -335.514)" fill="#e6b046"/>
          <path id="Trazado_748341" data-name="Trazado 748341" d="M367.279,372.552c.731-.428,1.471-.841,2.187-1.293a.978.978,0,0,1,.584-.1,25.859,25.859,0,0,1,4.726.564,5.52,5.52,0,0,0,.6.036c.039.178.168.169.3.144a14.888,14.888,0,0,1,3.66,1.112c-5.356,1.971-10.953,2.078-16.56,2.215a26.673,26.673,0,0,1,4.406-2.576c.09.022.128-.006.093-.1" transform="translate(-306.582 -313.661)" fill="#e6b046"/>
          <path id="Trazado_748342" data-name="Trazado 748342" d="M400.684,309.328a.791.791,0,0,1-.637.426c-.021-.49.287-.489.637-.426" transform="translate(-338.075 -261.385)" fill="#f3cc9c"/>
          <path id="Trazado_748343" data-name="Trazado 748343" d="M103.967,347.2c.3.113.532.255.282.618a.475.475,0,0,1-.282-.618" transform="translate(-87.84 -293.414)" fill="#f3cc9c"/>
          <path id="Trazado_748344" data-name="Trazado 748344" d="M118.931,373.14c.3.113.531.255.282.617a.475.475,0,0,1-.282-.617" transform="translate(-100.487 -315.337)" fill="#f3cc9c"/>
          <path id="Trazado_748345" data-name="Trazado 748345" d="M144.865,418.036c.293.025.281.243.284.451-.385.033-.311-.223-.284-.451" transform="translate(-122.404 -353.278)" fill="#f3cc9c"/>
          <path id="Trazado_748346" data-name="Trazado 748346" d="M278.41,319.753l.475-.455c.033.352-.132.5-.475.455" transform="translate(-235.282 -269.836)" fill="#090909"/>
          <path id="Trazado_748347" data-name="Trazado 748347" d="M276.789,341.419c-.027.107-.013.278-.178.242s-.117-.224-.135-.355c.127-.023.256-.055.313.114" transform="translate(-233.647 -288.417)" fill="#f3cc9c"/>
          <path id="Trazado_748348" data-name="Trazado 748348" d="M444.4,374.628c-.136.025-.264.035-.3-.144.227-.218.269-.044.3.144" transform="translate(-375.302 -316.387)" fill="#090909"/>
          <path id="Trazado_748349" data-name="Trazado 748349" d="M241.02,498.594c-.118.009-.269.093-.283-.127.152-.086.287-.132.283.127" transform="translate(-203.444 -421.192)" fill="#090909"/>
          <path id="Trazado_748350" data-name="Trazado 748350" d="M232.585,317.473l.052-.288c.177.047.069.195.1.293l-.155,0" transform="translate(-196.555 -268.05)" fill="#f3cc9c"/>
          <path id="Trazado_748351" data-name="Trazado 748351" d="M358.427,335.421l-.075.184-.08-.18.155,0" transform="translate(-302.772 -283.461)" fill="#f3cc9c"/>
          <path id="Trazado_748352" data-name="Trazado 748352" d="M284.651,309.617c-.019-.1.01-.144.116-.107l-.116.107" transform="translate(-240.551 -261.553)" fill="#090909"/>
          <path id="Trazado_748353" data-name="Trazado 748353" d="M269.632,339.506l-.119-.123c.1-.019.144.019.119.123" transform="translate(-227.763 -286.805)" fill="#f3cc9c"/>
          <path id="Trazado_748354" data-name="Trazado 748354" d="M432.112,342.355a.193.193,0,0,1,.1-.109c.038.1,0,.131-.1.109" transform="translate(-365.174 -289.229)" fill="#f3cc9c"/>
          <path id="Trazado_748355" data-name="Trazado 748355" d="M283.595,343.5l-.117-.122c.1-.018.143.019.117.122" transform="translate(-239.564 -290.184)" fill="#f3cc9c"/>
          <path id="Trazado_748356" data-name="Trazado 748356" d="M391.315,380.165c.034.094,0,.122-.093.1a.175.175,0,0,1,.093-.1" transform="translate(-330.618 -321.274)" fill="#090909"/>
          <path id="Trazado_748357" data-name="Trazado 748357" d="M251.677,281.639l-.119-.123c.1-.019.144.019.119.123" transform="translate(-212.589 -237.902)" fill="#f3cc9c"/>
          <path id="Trazado_748358" data-name="Trazado 748358" d="M186.5,48.932a5.318,5.318,0,0,1-2.5-.743,13.014,13.014,0,0,1-4.143-2.675l-.18-.134a17.3,17.3,0,0,1-5.205-7.748,17.691,17.691,0,0,1-.943-6.918c.194-.02.346-.075.275-.321a12.094,12.094,0,0,1,.187-2.465c.166-.114.339-.224.279-.472-.041-.189-.173-.343-.092-.574a20.207,20.207,0,0,1,5.809-8.745c.113-.1.243-.178.365-.266l.122-.11.446-.351c.21,0,.327-.1.328-.316.041-.182.189-.138.312-.148.17-.005.353.027.465-.154a.315.315,0,0,0,.152-.313h0c.143.058.3.16.312-.124a18.949,18.949,0,0,1,3.572-1.516,12.292,12.292,0,0,1,2.847-.645c1.627-.16,3.273-.134,4.912-.178.31-.008.507.264.828.327a13.38,13.38,0,0,1,4.535,1.5c.027.2.052.413.31.154a12.479,12.479,0,0,1,3.4,2.161c-.045.361.111.521.474.477a14.408,14.408,0,0,1,4.017,5.254c-.258.259-.05.283.155.31a13.566,13.566,0,0,1,1.517,4.542,16.713,16.713,0,0,1-.007,6.277c-.163.061-.138.188-.111.316a16.816,16.816,0,0,1-1.353,4.254,19.917,19.917,0,0,1-3.3,4.746c-.314-.024-.455.13-.448.436a15.353,15.353,0,0,1-2.806,2.187c-.129-.022-.261-.054-.311.123h0c-.1.046-.26-.023-.271.163a10.078,10.078,0,0,1-3.073,1.533,16.339,16.339,0,0,1-6.686,1.067,9.4,9.4,0,0,1-4.072-.835c-.012-.065-.023-.13-.034-.194l-.085.116m-5.1-5.426a13.151,13.151,0,0,0,2.959,2.08,14.4,14.4,0,0,0,3.589,1.319,12.321,12.321,0,0,0,4.249.5,15.728,15.728,0,0,0,5.1-1.253l.176-.113a15.333,15.333,0,0,0,5.827-4.375,14.681,14.681,0,0,0,3.438-8.779,18.03,18.03,0,0,0-.123-3.58c.21-.274-.017-.274-.192-.306a7.085,7.085,0,0,0-.91-2.97c0-.036,0-.073,0-.109a13.011,13.011,0,0,0-2.79-4.471c-.024-.778-.071-.824-.619-.619l-.924-.819-.169-.119a13.358,13.358,0,0,0-2.738-1.709,15.66,15.66,0,0,0-11.04-.986,14.814,14.814,0,0,0-5.765,3.026,14.6,14.6,0,0,0-4.152,5.711,8.7,8.7,0,0,0-.829,2.811,7.114,7.114,0,0,0-.209,2.4c-.2.053-.338.129-.119.332-.241,4.785,1.7,8.642,5.062,11.891.032.082.071.155.18.136" transform="translate(-146.614 -11.846)" fill="#e6b046"/>
          <path id="Trazado_748359" data-name="Trazado 748359" d="M369.406,210.165c-.006-.306.134-.46.448-.436a.454.454,0,0,1-.448.436" transform="translate(-312.181 -177.238)" fill="#060606"/>
          <path id="Trazado_748360" data-name="Trazado 748360" d="M363.742,41.254c-.362.044-.519-.116-.474-.477a1.059,1.059,0,0,1,.474.477" transform="translate(-306.988 -34.46)" fill="#f3ab24"/>
          <path id="Trazado_748361" data-name="Trazado 748361" d="M177.016,100.766c.06.248-.113.358-.279.472,0-.214-.028-.441.279-.472" transform="translate(-149.357 -85.156)" fill="#090909"/>
          <path id="Trazado_748362" data-name="Trazado 748362" d="M226.07,31.065c-.112.181-.295.149-.465.154a.517.517,0,0,1,.3-.313l.163.159" transform="translate(-190.657 -26.118)" fill="#f3ab24"/>
          <path id="Trazado_748363" data-name="Trazado 748363" d="M402.226,149.928c-.027-.128-.052-.255.111-.316.25.206.105.274-.111.316" transform="translate(-339.9 -126.436)" fill="#060606"/>
          <path id="Trazado_748364" data-name="Trazado 748364" d="M174.035,119.721c.071.246-.081.3-.275.321a.272.272,0,0,1,.275-.321" transform="translate(-146.843 -101.175)" fill="#090909"/>
          <path id="Trazado_748365" data-name="Trazado 748365" d="M221.806,33.877c0,.218-.118.315-.328.316a.308.308,0,0,1,.328-.316" transform="translate(-187.169 -28.629)" fill="#efa824"/>
          <path id="Trazado_748366" data-name="Trazado 748366" d="M339.671,25.984c-.258.258-.283.05-.31-.154.114.03.262-.007.31.154" transform="translate(-286.791 -21.829)" fill="#f3ab24"/>
          <path id="Trazado_748367" data-name="Trazado 748367" d="M391.8,78.084c-.2-.026-.413-.051-.155-.31.162.048.125.2.155.31" transform="translate(-330.873 -65.726)" fill="#f3ab24"/>
          <path id="Trazado_748368" data-name="Trazado 748368" d="M349.285,226.7c.05-.177.182-.145.311-.123-.008.283-.169.179-.311.123" transform="translate(-295.177 -191.463)" fill="#060606"/>
          <path id="Trazado_748369" data-name="Trazado 748369" d="M227.715,30.225l-.163-.159c.059-.146.2-.12.315-.154a.315.315,0,0,1-.152.313" transform="translate(-192.302 -25.278)" fill="#efa824"/>
          <path id="Trazado_748370" data-name="Trazado 748370" d="M347.539,227.625c.011-.186.176-.117.271-.163.014.229-.079.278-.271.163" transform="translate(-293.702 -192.226)" fill="#060606"/>
          <path id="Trazado_748371" data-name="Trazado 748371" d="M229.892,29.022c-.008.284-.169.181-.312.124.05-.178.182-.147.312-.124" transform="translate(-194.016 -24.511)" fill="#efa824"/>
          <path id="Trazado_748372" data-name="Trazado 748372" d="M213.452,216.471l.18.133c-.108.021-.147-.052-.18-.133" transform="translate(-180.386 -182.937)" fill="#efa824"/>
          <path id="Trazado_748373" data-name="Trazado 748373" d="M217.909,38.111l-.122.11c-.016-.1.014-.148.122-.11" transform="translate(-184.046 -32.196)" fill="#efa824"/>
          <path id="Trazado_748374" data-name="Trazado 748374" d="M355.823,336.8l.107.074c-.088.108-.084-.034-.127-.048l.02-.027" transform="translate(-300.686 -284.626)" fill="#f3cc9c"/>
          <path id="Trazado_748375" data-name="Trazado 748375" d="M195.7,57.534c-3.366-3.249-5.3-7.106-5.062-11.891.194-.055.141-.2.119-.332a7.11,7.11,0,0,1,.209-2.4A8.694,8.694,0,0,1,191.8,40.1a14.6,14.6,0,0,1,4.152-5.711,14.814,14.814,0,0,1,5.765-3.026,15.659,15.659,0,0,1,11.04.986,13.348,13.348,0,0,1,2.738,1.709c.027.081.065.147.169.119l.924.819.619.619a13.012,13.012,0,0,1,2.79,4.471l-.125.067.123.042a7.085,7.085,0,0,1,.91,2.97c-.177.254.091.228.192.306a18.032,18.032,0,0,1,.123,3.58,14.68,14.68,0,0,1-3.438,8.779A15.332,15.332,0,0,1,211.95,60.2c-.1-.032-.146.03-.176.113a15.727,15.727,0,0,1-5.1,1.253,12.318,12.318,0,0,1-4.249-.5,14.389,14.389,0,0,1-3.589-1.319,13.15,13.15,0,0,1-2.959-2.08l-.18-.136m6.659-24.42a30.471,30.471,0,0,0-4.625,2.212c-.1-.029-.137.007-.109.108a16.979,16.979,0,0,0-3.843,4.983,8.713,8.713,0,0,0-.969,3.221c-.179.037-.174.165-.149.3-.124.362.144.788-.184,1.116-.105-.028-.142.015-.121.117a5.075,5.075,0,0,1,.269,1.879,12.154,12.154,0,0,0,.438,2.659,13.262,13.262,0,0,0,6.492,8.117,12.322,12.322,0,0,0,8.155,1.534,13.86,13.86,0,0,0,7.375-3.608,13.094,13.094,0,0,0,3.955-12.088,12.588,12.588,0,0,0-4.9-8.12,12.9,12.9,0,0,0-7.689-2.75c-1.268-.037-2.511.2-3.77.2-.133-.028-.262-.046-.324.119" transform="translate(-161.09 -26.011)" fill="#12263f"/>
          <path id="Trazado_748376" data-name="Trazado 748376" d="M358.849,58.028l-.619-.619c.548-.205.594-.159.619.619" transform="translate(-302.737 -48.428)" fill="#f3ab24"/>
          <path id="Trazado_748377" data-name="Trazado 748377" d="M385.965,111.017c-.1-.078-.369-.052-.192-.306.175.032.4.032.192.306" transform="translate(-325.963 -93.561)" fill="#f3ab24"/>
          <path id="Trazado_748378" data-name="Trazado 748378" d="M190.258,124.584c.022.133.075.277-.119.332-.219-.2-.081-.279.119-.332" transform="translate(-160.59 -105.285)" fill="#efa824"/>
          <path id="Trazado_748379" data-name="Trazado 748379" d="M327.189,220.771c.029-.083.072-.145.176-.113l-.176.113" transform="translate(-276.504 -186.469)" fill="#f3ab24"/>
          <path id="Trazado_748380" data-name="Trazado 748380" d="M223.422,203.491l.18.136c-.109.019-.147-.054-.18-.136" transform="translate(-188.812 -171.968)" fill="#070706"/>
          <path id="Trazado_748381" data-name="Trazado 748381" d="M379.55,90.945l-.123-.042.125-.067c0,.036,0,.073,0,.109" transform="translate(-320.65 -76.765)" fill="#f3ab24"/>
          <path id="Trazado_748382" data-name="Trazado 748382" d="M257.481,238.763l.085-.117c.011.065.022.13.034.195a.3.3,0,0,1-.119-.078" transform="translate(-217.595 -201.677)" fill="#060606"/>
          <path id="Trazado_748383" data-name="Trazado 748383" d="M351.345,52.038c-.1.027-.142-.038-.169-.119l.169.119" transform="translate(-296.775 -43.876)" fill="#f3ab24"/>
          <path id="Trazado_748384" data-name="Trazado 748384" d="M202.311,54.623a8.713,8.713,0,0,1,.969-3.221,16.979,16.979,0,0,1,3.843-4.983l.109-.108a30.443,30.443,0,0,1,4.625-2.212c.141.051.31.178.324-.119,1.259,0,2.5-.235,3.77-.2a12.9,12.9,0,0,1,7.689,2.75,12.587,12.587,0,0,1,4.9,8.12,13.094,13.094,0,0,1-3.955,12.088,13.859,13.859,0,0,1-7.375,3.608,12.323,12.323,0,0,1-8.155-1.534,13.262,13.262,0,0,1-6.492-8.117,12.167,12.167,0,0,1-.438-2.66,5.073,5.073,0,0,0-.269-1.879l.122-.117c.327-.328.059-.755.183-1.116.184-.034.361-.072.149-.3m11.725,1.039c0-.249-.125-.213-.275-.126-.119-.132-.232-.27-.357-.4a2.359,2.359,0,0,1-.6-3.051,3.247,3.247,0,0,1,1.573-1.642c.152.087.282.124.278-.128a3.41,3.41,0,0,0,.884.11,2.2,2.2,0,0,1,2.023.8,2.082,2.082,0,0,1,.662,1.693,1.118,1.118,0,0,0,1.059,1.242c.632,0,.958-.388.93-1.2a4.153,4.153,0,0,0-2.687-4.019A1.531,1.531,0,0,1,216.352,47c.007-.051,0-.1,0-.154a.87.87,0,0,0-.85-1.039.926.926,0,0,0-1.145.917,4.367,4.367,0,0,0,.038,1.458c.069.311.094.378-.243.418a3.5,3.5,0,0,0-1.816.864,4.788,4.788,0,0,0-1.668,5.028,3.931,3.931,0,0,0,1.92,2.669,18.3,18.3,0,0,0,3.636,1.164,2.555,2.555,0,0,1,1.916,1.553,4.687,4.687,0,0,1,.061,1.6,2.931,2.931,0,0,1-3.149,2.3,2.892,2.892,0,0,1-2.442-2.543c-.139-.831-.538-1.06-1.381-.9-.655.125-.616.673-.584,1.157a4.174,4.174,0,0,0,2.323,3.584c1.013.519,1.6,1,1.4,2.226-.089.552.576,1.089,1.078,1.065.591-.027.911-.44.9-1.162,0-.309.019-.62-.006-.927-.034-.419.1-.62.541-.755a4.863,4.863,0,0,0,2.37-1.583,5.3,5.3,0,0,0,.931-4.2,3.5,3.5,0,0,0-2.7-3.1c-1.149-.338-2.3-.657-3.456-.984" transform="translate(-170.587 -36.996)" fill="#e6b046"/>
          <path id="Trazado_748385" data-name="Trazado 748385" d="M203.905,113.788c.213.23.036.268-.149.3-.025-.137-.031-.265.149-.3" transform="translate(-172.182 -96.161)" fill="#efa824"/>
          <path id="Trazado_748386" data-name="Trazado 748386" d="M266.735,44.981c-.013.3-.183.17-.324.119.062-.165.191-.147.324-.119" transform="translate(-225.141 -37.997)" fill="#efa824"/>
          <path id="Trazado_748387" data-name="Trazado 748387" d="M201.95,122.9l-.121.117c-.02-.1.016-.145.121-.117" transform="translate(-170.559 -103.851)" fill="#efa824"/>
          <path id="Trazado_748388" data-name="Trazado 748388" d="M235.907,60.08l-.109.108c-.029-.1.008-.137.109-.108" transform="translate(-199.263 -50.765)" fill="#efa824"/>
          <path id="Trazado_748389" data-name="Trazado 748389" d="M261.638,61.42a3.248,3.248,0,0,0-1.573,1.642,2.359,2.359,0,0,0,.6,3.051c.125.126.238.264.357.4.022.2.163.129.275.126,1.152.327,2.307.646,3.456.984a3.5,3.5,0,0,1,2.7,3.1,5.3,5.3,0,0,1-.931,4.2,4.862,4.862,0,0,1-2.37,1.583c-.444.136-.575.336-.541.755.025.307,0,.618.006.927.007.722-.313,1.135-.9,1.162-.5.023-1.167-.513-1.078-1.065.2-1.223-.391-1.708-1.4-2.226a4.174,4.174,0,0,1-2.323-3.584c-.032-.483-.071-1.031.584-1.157.844-.162,1.243.067,1.381.9a2.892,2.892,0,0,0,2.442,2.543,2.931,2.931,0,0,0,3.149-2.3,4.69,4.69,0,0,0-.061-1.6,2.555,2.555,0,0,0-1.915-1.553,18.3,18.3,0,0,1-3.636-1.164,3.931,3.931,0,0,1-1.92-2.669,4.788,4.788,0,0,1,1.669-5.028,3.5,3.5,0,0,1,1.816-.864c.337-.039.312-.106.243-.418a4.368,4.368,0,0,1-.038-1.458.926.926,0,0,1,1.145-.917.87.87,0,0,1,.85,1.039c0,.051.006.1,0,.154a1.531,1.531,0,0,0,1.172,1.947,4.153,4.153,0,0,1,2.687,4.019c.028.812-.3,1.2-.93,1.2a1.118,1.118,0,0,1-1.059-1.242,2.082,2.082,0,0,0-.662-1.693,2.2,2.2,0,0,0-2.023-.8,3.4,3.4,0,0,1-.884-.11c-.116-.007-.259-.073-.278.128" transform="translate(-217.851 -47.969)" fill="#12263f"/>
          <path id="Trazado_748390" data-name="Trazado 748390" d="M278.97,119.451c-.112,0-.253.069-.275-.126.151-.087.278-.124.275.126" transform="translate(-235.522 -100.785)" fill="#efa824"/>
          <path id="Trazado_748391" data-name="Trazado 748391" d="M282.666,86.049c.02-.2.163-.135.278-.128,0,.252-.126.215-.278.128" transform="translate(-238.878 -72.597)" fill="#efa824"/>
        </g>
      </g>
    </g>
  </g>
</svg>
