<svg id="Grupo_1021533" data-name="Grupo 1021533" xmlns="http://www.w3.org/2000/svg" xmlns:xlink="http://www.w3.org/1999/xlink" width="89.918" height="90.039" viewBox="0 0 89.918 90.039">
  <defs>
    <clipPath id="clip-path">
      <rect id="Rectángulo_357871" data-name="Rectángulo 357871" width="89.918" height="90.039" fill="#fff"/>
    </clipPath>
  </defs>
  <g id="Grupo_1021532" data-name="Grupo 1021532" clip-path="url(#clip-path)">
    <path id="Trazado_750177" data-name="Trazado 750177" d="M24.086,0h33.4a.877.877,0,0,0,.633.352A6.044,6.044,0,0,1,60.831,1.5a24.3,24.3,0,0,1,3.325,3.293c1.928,2.073,3.94,4.066,5.892,6.116a7.953,7.953,0,0,1,1.875,3.3,15.849,15.849,0,0,1,.488,4.344c.038,3.369.029,6.739,0,10.109-.006.619.158.778.771.764,1.845-.043,3.693-.063,5.537,0a11.2,11.2,0,0,1,7.668,3.075,11.6,11.6,0,0,1,3.523,8.792q.024,18.24,0,36.48a14.686,14.686,0,0,1-.093,2.536,11.413,11.413,0,0,1-2.983,6.2,10.327,10.327,0,0,1-7.454,3.485c-8.7.08-17.4,0-26.106.051a9.416,9.416,0,0,1-3.939-.926,10.851,10.851,0,0,1-6.7-9.987c-.044-.831-.25-1.268-1.144-1.059-.253.059-.654-.243-.713.34a3.916,3.916,0,0,1-.951,2.317.54.54,0,0,0-.059.825,5,5,0,0,1,1.053,3.169c.126,2.2-2.476,4.625-4.613,4.613-8.028-.043-16.057-.01-24.085-.029a10.105,10.105,0,0,1-2.156-.134A12.111,12.111,0,0,1,.394,80.294C.22,79.737.371,79.1,0,78.589V76.128c.055-.056.154-.108.159-.168a10.916,10.916,0,0,1,1.655-4.927,11.392,11.392,0,0,1,8.454-5.615c.466-.068.518-.165.479-.62a4.4,4.4,0,0,1,.826-3.078c.444-.575.427-.8.029-1.377a4.641,4.641,0,0,1,.945-6.405,4.976,4.976,0,0,1,3.781-1c.846.063,1.006-.246,1-1.025-.033-5.124,0-10.247-.02-15.371-.038-9.511.1-19.023-.065-28.534a6.553,6.553,0,0,1,.264-1.86A8.313,8.313,0,0,1,22.857.431c.406-.156.94.054,1.229-.431m18.6,70.314c0-.057,0-.113,0-.17.008-9.666.038-19.331-.008-29a12.546,12.546,0,0,1,.246-3.113,10.892,10.892,0,0,1,4.029-6.317A12.151,12.151,0,0,1,54.612,29.4c4.716.032,9.432-.008,14.147.026.713.005.871-.21.855-.882-.045-1.962.013-3.925-.029-5.887a53.417,53.417,0,0,0-.159-7.178c.013-.123-.032-.182-.162-.146q-4.7-.011-9.4-.022c-1.835,0-2.076-.247-2.077-2.12,0-3.162-.026-6.324.019-9.485.011-.746-.207-.9-.923-.9-8.2.026-16.394,0-24.591.025a62.043,62.043,0,0,0-8.21.2,5.648,5.648,0,0,0-3.972,5.685c.081,14.315.036,28.63.035,42.946a6.757,6.757,0,0,1-.01.7c-.044.417.113.565.541.55,1.023-.035,2.048-.026,3.072-.034H24.1l11.407.024a8.763,8.763,0,0,1,1.71.176c3.448.687,4.6,4.88,2.66,7.486-.3.409-.245.561.012.91a4.886,4.886,0,0,1-.152,5.945c-.155.179-.269.341-.039.506.827.592.832,1.56,1.121,2.4a5.3,5.3,0,0,1-.944,3.645c-.465.58-.122,1.214.644,1.255.552.03,1.107-.016,1.659.013.428.023.548-.147.541-.556-.026-1.455-.023-2.911-.03-4.367M15.462,86.52a4.743,4.743,0,0,0,2.567.122C23.6,85.7,26.7,81.458,26.215,76.071a8.92,8.92,0,0,0-4.746-6.99,9.658,9.658,0,0,0-5.641-1.059c-.531-.521-.9.13-1.319.228a9.336,9.336,0,0,0-3.426,16.392,6.164,6.164,0,0,0,4.378,1.878M48.518,33.914a6.128,6.128,0,0,0-1.368,1.348,6.913,6.913,0,0,0-1.76,4.068c-.048,13.09-.022,26.181-.045,39.271a8.5,8.5,0,0,0,1.394,5.024,7.642,7.642,0,0,0,6.243,3.715c8.872.1,17.746.065,26.619.016a6.557,6.557,0,0,0,4.445-1.89,6.063,6.063,0,0,0,1.729-1.773,9.206,9.206,0,0,0,1.47-5.688q.012-18.4,0-36.8a10.918,10.918,0,0,0-.537-3.587,8.165,8.165,0,0,0-7.539-5.5c-8.4-.079-16.805-.057-25.208-.037a7.9,7.9,0,0,0-5.445,1.836M25.711,59.6c3.427,0,6.854.006,10.281,0a1.836,1.836,0,0,0,1.983-2.016c0-1.162-.812-1.86-2.2-1.86q-9.974-.007-19.947,0a4.407,4.407,0,0,0-.527.017,1.958,1.958,0,0,0-1.762,1.9,1.935,1.935,0,0,0,1.98,1.956q5.1.006,10.193,0m.057,2.815c-3.336,0-6.673,0-10.009,0a1.9,1.9,0,0,0-2.1,1.519c-.307.906-.039,1.305.879,1.313a17.97,17.97,0,0,1,4.506.278,17.606,17.606,0,0,0,6.06.788c.784-.067,1.579-.011,2.37-.011,2.839,0,5.678.01,8.517-.006a1.8,1.8,0,0,0,1.987-1.978,1.882,1.882,0,0,0-2.11-1.9c-3.366-.012-6.731,0-10.1,0M24.746,86.508c4.094,0,7.957,0,11.82,0a.889.889,0,0,0,.589-.3,2.2,2.2,0,0,0,.8-2.354,1.958,1.958,0,0,0-1.921-1.255c-2.608-.017-5.216-.007-7.823-.006-.259,0-.506-.024-.654.3a12.912,12.912,0,0,1-2.813,3.611m6.6-17.382c-1.581,0-3.163.013-4.744-.008-.523-.007-.692.241-.364.588a11.524,11.524,0,0,1,1.663,2.8.756.756,0,0,0,.721.511c2.547-.008,5.1.032,7.642-.041a1.727,1.727,0,0,0,1.71-1.359,1.959,1.959,0,0,0-2.059-2.486c-1.522-.031-3.045-.007-4.568-.007m1.3,10.645c1.051,0,2.1.012,3.154,0a2.093,2.093,0,0,0,2.312-1.973,2.054,2.054,0,0,0-2.252-1.947c-2.131-.033-4.264,0-6.4-.02-.5-.006-.652.165-.639.655a13.143,13.143,0,0,1-.067,2.7c-.106.573.058.587.471.586,1.139,0,2.278,0,3.417,0M60.618,5.148c0,2.368,0,4.635,0,6.9,0,.267.048.444.375.442,2.145-.007,4.289,0,6.584,0-2.313-2.552-4.539-4.946-6.957-7.34M5.253,74.278c-1.928-.289-2.2-.162-2.424,1.182-.079.484-.073.879.668.863,1.443-.032,1.441.016,1.612-1.47a4.434,4.434,0,0,1,.143-.575m.195,6.732A5.06,5.06,0,0,1,5.3,80.5c-.281-1.609-.279-1.591-1.877-1.568-.506.007-.6.057-.448.613.418,1.531.372,1.544,1.921,1.512.171,0,.342-.027.552-.045m2.9-12.186a8.709,8.709,0,0,0-3.357,2.233c-.2.19-.206.428.044.454.473.049,1.067.275,1.407-.173a25.689,25.689,0,0,1,1.906-2.514M7.991,85.6c-.711-1.369-1.618-2.405-2.486-1.582A7.321,7.321,0,0,0,7.991,85.6" fill="#fff"/>
    <path id="Trazado_750178" data-name="Trazado 750178" d="M134.787,299.4l.337-.137a.3.3,0,0,1,.009.138h-.346" transform="translate(-111.034 -246.529)" fill="#fff"/>
    <path id="Trazado_750179" data-name="Trazado 750179" d="M393.207,87.092l-.162-.146c.13-.035.175.023.162.146" transform="translate(-323.781 -71.616)" fill="#fff"/>
    <path id="Trazado_750180" data-name="Trazado 750180" d="M241.552,398.211l-.074,0-.073-.009.146-.163c0,.057,0,.113,0,.17" transform="translate(-198.864 -327.897)" fill="#fff"/>
    <path id="Trazado_750181" data-name="Trazado 750181" d="M162.8,174.141a3.824,3.824,0,0,1,2.962-4.08c.628-.221.345-.727.367-1.111.053-.964.387-1.346,1.276-1.34.833.006,1.222.365,1.187,1.209-.029.712.037,1.1.962,1.1a3.067,3.067,0,0,1,2.17.888,1.125,1.125,0,0,1,.041,1.612,1.026,1.026,0,0,1-1.443.282,4.748,4.748,0,0,0-3.465-.559c-.881.194-1.437.578-1.579,1.45a1.889,1.889,0,0,0,1.1,2.29,15.826,15.826,0,0,0,2.729,1.191,4.863,4.863,0,0,1,3.234,5.691c-.387,2.062-1.268,3.494-3.369,4.011-.382.094-.362.385-.374.685a1.68,1.68,0,0,1-.211,1.075,1.122,1.122,0,0,1-1.357.474c-.453-.17-.987-.51-.875-1.142.142-.8-.29-1.079-.94-1.21a5.365,5.365,0,0,1-2.193-1.337,1.7,1.7,0,0,1-.589-1.581c.151-.917,1.223-1.056,2.007-.338a3.33,3.33,0,0,0,2.621,1.255c1.041-.115,2.194-.16,2.7-1.276a2.756,2.756,0,0,0-1.269-3.828c-1.039-.516-2.137-.912-3.195-1.393a3.88,3.88,0,0,1-2.493-4.021" transform="translate(-133.788 -138.073)" fill="#fff"/>
    <path id="Trazado_750182" data-name="Trazado 750182" d="M222.139,142.725h-11.16c-.467,0-1.418-.809-1.4-1.261a1.256,1.256,0,0,1,1.119-1.321,6.217,6.217,0,0,1,.955-.078q10.632-.006,21.265,0a2.022,2.022,0,0,1,1.2.164c.456.319.9.745.736,1.367a1.4,1.4,0,0,1-1.209,1.1,6.007,6.007,0,0,1-.789.023h-10.72Z" transform="translate(-172.648 -115.37)" fill="#fff"/>
    <path id="Trazado_750183" data-name="Trazado 750183" d="M168.651,105.437q-5.749,0-11.5,0c-.918,0-1.52-.514-1.515-1.26a1.329,1.329,0,0,1,1.518-1.377q11.411-.006,22.822,0c.627,0,1.311.062,1.594.72a1.392,1.392,0,0,1-.246,1.538,1.281,1.281,0,0,1-1.088.369H168.651v.01" transform="translate(-128.21 -84.679)" fill="#fff"/>
    <path id="Trazado_750184" data-name="Trazado 750184" d="M159.052,142.713c-.674,0-1.35.032-2.021-.008-.939-.055-1.395-.513-1.393-1.318a1.189,1.189,0,0,1,1.314-1.294c1.4-.058,2.813-.05,4.218-.011a1.369,1.369,0,0,1,1.323,1.274c.1.583-.628,1.3-1.331,1.345s-1.406.009-2.109.009v0" transform="translate(-128.21 -115.371)" fill="#fff"/>
    <path id="Trazado_750185" data-name="Trazado 750185" d="M322.033,105.353c-.555,0-1.111.01-1.666,0a1.236,1.236,0,0,1-1.249-1.071,1.134,1.134,0,0,1,.993-1.507,24.464,24.464,0,0,1,3.848.009,1.182,1.182,0,0,1,1.1,1.388,1.255,1.255,0,0,1-1.357,1.186c-.555.015-1.111,0-1.667,0v0" transform="translate(-262.846 -84.601)" fill="#fff"/>
    <path id="Trazado_750186" data-name="Trazado 750186" d="M293.712,211.546a1.517,1.517,0,0,1,1.737-1.306c4.449-.006,8.9-.054,13.348.024,1.67.029,2.757-.735,2.619-2.625-.094-1.281,0-2.575-.024-3.863a1.8,1.8,0,0,0-2.018-1.986q-12.294-.006-24.588.018a1.72,1.72,0,0,0-1.944,1.936c-.011,1.581-.013,3.161.006,4.742a1.567,1.567,0,0,0,1.742,1.73c1.493.011,2.986.023,4.478.015a3.892,3.892,0,0,1,1.223.342c.605.192.132.755.47.982-.515,1.242-.65,1.329-2.076,1.328s-2.869.009-4.3-.01a4.281,4.281,0,0,1-4.067-3.283,6.628,6.628,0,0,1-.137-1.3c.008-1.7-.022-3.4.023-5.094a4.223,4.223,0,0,1,3.814-4.016c.349-.032.7-.046,1.052-.046q12.033,0,24.066-.007a4.761,4.761,0,0,1,3.813,1.567,4.609,4.609,0,0,1,1.11,3.035c.071,1.519.063,3.046.006,4.566a4.58,4.58,0,0,1-4.817,4.586c-4.538,0-9.076-.013-13.614.012-1.007.006-1.685-.323-1.919-1.35" transform="translate(-230.801 -164.039)" fill="#fff"/>
    <path id="Trazado_750187" data-name="Trazado 750187" d="M416.016,367.988c0-2.315-.027-4.63.014-6.944a4.361,4.361,0,0,1,.741-2.418,2.343,2.343,0,0,1,1.415-1.037,11.789,11.789,0,0,1,5.265-.053c1.9.39,2.628,1.984,2.629,3.725,0,3.575.023,7.15-.01,10.724a15.168,15.168,0,0,1-.194,4,3.881,3.881,0,0,1-3.354,2.683c-.937.014-1.877-.036-2.812.01a3.691,3.691,0,0,1-3.694-3.66c.017-2.344,0-4.688,0-7.032Zm7.376,5.962c.021-4.423.029-8.846.086-13.269,0-.343-.216-.333-.323-.381-1.281-.576-2.63-.306-3.952-.234-.42.023-.551.448-.549.874q.026,6.5.038,13.007c-.01.175-.03.35-.03.524,0,1.173.379,1.55,1.574,1.558.41,0,.823-.036,1.229.007,1.546.163,2.207-.646,1.926-2.087" transform="translate(-342.696 -294.306)" fill="#fff"/>
    <path id="Trazado_750188" data-name="Trazado 750188" d="M352.258,431.333c-.673,0-1.346,0-2.019,0a2.487,2.487,0,0,1-2.663-2.449,37.384,37.384,0,0,1,.019-5.349,2.591,2.591,0,0,1,2.109-2.207,30.227,30.227,0,0,1,5.259-.048,2.654,2.654,0,0,1,2.6,2.56,20.541,20.541,0,0,1-.1,5.148,2.68,2.68,0,0,1-2.84,2.346c-.79.01-1.58,0-2.37,0m.389-7.39c-.586,0-1.173.02-1.757-.006-.476-.021-.692.13-.68.643.028,1.171.027,2.343.01,3.515-.007.459.174.618.623.611q1.757-.029,3.515,0c.444.007.644-.137.625-.6-.025-.614-.005-1.23,0-1.845,0-2.313,0-2.313-2.332-2.313" transform="translate(-286.253 -346.965)" fill="#fff"/>
    <path id="Trazado_750189" data-name="Trazado 750189" d="M352.136,367.354c-.7,0-1.4,0-2.1,0a2.418,2.418,0,0,1-2.525-2.259c-.1-1.826-.155-3.657-.139-5.485a2.9,2.9,0,0,1,2.435-2.286,26.909,26.909,0,0,1,5.164-.007,2.825,2.825,0,0,1,2.534,2.916,33.3,33.3,0,0,1-.129,4.971,2.81,2.81,0,0,1-2.691,2.148c-.847.026-1.7,0-2.544,0Zm.279-2.627c.643,0,1.286-.008,1.928,0,.362.006.535-.13.533-.511q-.013-1.841.007-3.682c0-.41-.155-.575-.568-.571-1.2.014-2.4.017-3.594,0-.457-.007-.616.169-.613.619a16.482,16.482,0,0,1-.13,3.048c-.143.8.149,1.214,1.036,1.107a11.948,11.948,0,0,1,1.4-.011" transform="translate(-286.151 -294.251)" fill="#fff"/>
    <path id="Trazado_750190" data-name="Trazado 750190" d="M283.546,431.506a14.337,14.337,0,0,1-2.151-.147,3.2,3.2,0,0,1-2.029-3.592,10.487,10.487,0,0,0,.1-3.288,2.868,2.868,0,0,1,3.055-3.115c1.316.015,2.633-.025,3.948.009a2.883,2.883,0,0,1,3.077,3.177q.013,1.93,0,3.86a2.9,2.9,0,0,1-3.111,3.066c-.964.008-1.929.02-2.893.031m1.034-7.423c-.586,0-1.173.021-1.757-.007-.472-.022-.7.117-.685.636.028,1.171.026,2.343.009,3.514-.007.45.15.628.61.619q1.757-.031,3.515,0c.447.008.644-.148.633-.606-.015-.615.01-1.23.009-1.845,0-2.312-.006-2.312-2.333-2.312" transform="translate(-230.118 -347.105)" fill="#fff"/>
    <path id="Trazado_750191" data-name="Trazado 750191" d="M279.9,362.247c0-.814.008-1.629,0-2.443a2.787,2.787,0,0,1,2.078-2.461,22.089,22.089,0,0,1,5.938.012,2.375,2.375,0,0,1,1.979,2.153,17.623,17.623,0,0,1-.079,5.741,2.557,2.557,0,0,1-2.657,2.064c-1.464.026-2.928.034-4.391,0a2.694,2.694,0,0,1-2.813-2.868c-.013-.732,0-1.464,0-2.2h-.05m7.462.168c0-2.485,0-2.495-2.365-2.48-.753,0-1.718-.316-2.2.135-.539.5-.174,1.491-.181,2.265-.023,2.352,0,2.363,2.356,2.346.752-.005,1.714.319,2.2-.14.535-.5.091-1.494.193-2.127" transform="translate(-230.577 -294.21)" fill="#fff"/>
    <path id="Trazado_750192" data-name="Trazado 750192" d="M352.6,300.122c-.789,0-1.581-.039-2.368.009a2.725,2.725,0,0,1-2.486-2.4c-.045-1.667-.005-3.333-.019-5a2.54,2.54,0,0,1,2.205-2.573,23.711,23.711,0,0,1,5.412.017c1.826.254,2.319,1.262,2.437,2.76a36.639,36.639,0,0,1,.012,4.384,2.836,2.836,0,0,1-2.914,2.817c-.76.018-1.521,0-2.281,0v-.017m.162-2.656c.613,0,1.226-.014,1.838,0,.405.012.58-.138.575-.557-.013-1.2-.013-2.392.007-3.588.007-.442-.137-.631-.6-.623q-1.793.033-3.588,0c-.479-.008-.592.217-.585.641.018,1.167.03,2.334.005,3.5-.011.524.225.648.687.628.553-.025,1.108-.006,1.663-.007" transform="translate(-286.444 -238.904)" fill="#fff"/>
    <path id="Trazado_750193" data-name="Trazado 750193" d="M416.042,295.126c0-.673,0-1.345,0-2.018,0-1.734.875-2.894,2.562-2.978a21.208,21.208,0,0,1,5.227.116,2.622,2.622,0,0,1,2.26,2.55q.068,2.323,0,4.649a2.68,2.68,0,0,1-2.726,2.693c-1.695.036-3.392.013-5.087-.023a2.565,2.565,0,0,1-2.235-2.356c-.011-.877,0-1.755,0-2.632m7.2-2.378c-1.305-.008-2.611,0-3.915-.032-.487-.013-.68.14-.654.639.041.781.035,1.564.049,2.347a8.326,8.326,0,0,1-.041.956c-.108.706.191.91.867.861.752-.055,1.511-.013,2.266-.013,1.734,0,1.734,0,1.6-1.8a18.536,18.536,0,0,0,0-2.812c.006-.124-.054-.169-.173-.144" transform="translate(-342.723 -238.917)" fill="#fff"/>
    <path id="Trazado_750194" data-name="Trazado 750194" d="M285.074,300.2c-.791,0-1.583.025-2.373-.005a2.59,2.59,0,0,1-2.609-2.675c-.023-1.435.056-2.875-.026-4.306a2.629,2.629,0,0,1,2.487-3.016,23.79,23.79,0,0,1,5.236.085,2.461,2.461,0,0,1,2.3,2.414,23.008,23.008,0,0,1-.113,5.494,2.806,2.806,0,0,1-2.267,1.991c-.088.008-.175.019-.263.02q-1.186,0-2.373,0v0m-.032-2.664c.613,0,1.227-.018,1.839.006.446.017.625-.14.617-.6q-.032-1.751.006-3.5c.011-.486-.145-.677-.648-.665-1.138.027-2.278.029-3.416,0-.521-.014-.75.139-.714.69.038.581.008,1.167.009,1.751.005,2.325.005,2.325,2.306,2.325" transform="translate(-230.707 -238.975)" fill="#fff"/>
    <path id="Trazado_750195" data-name="Trazado 750195" d="M80.374,397.995a1.019,1.019,0,0,1,1.263.924c.047.333.2.407.483.5a3.735,3.735,0,0,1,1.148.546,1.1,1.1,0,0,1,.34,1.543c-.323.479-.734,1.08-1.537.7a2.958,2.958,0,0,0-1.663-.353c-.3.037-.6-.007-.7.364a.674.674,0,0,0,.385.807c.635.33,1.31.584,1.95.907a3.679,3.679,0,0,1,.857,5.918,3.432,3.432,0,0,1-.8.474c-.237.128-.464.219-.462.62,0,.7-.569.984-1.15,1.1a1.016,1.016,0,0,1-1.222-.724A1.689,1.689,0,0,0,78.1,410.2a2.933,2.933,0,0,1-1.1-.967,1.206,1.206,0,0,1,.259-1.828,1.152,1.152,0,0,1,1.7.11c.35.348.681.718,1.247.677.439-.032.952-.045,1.052-.551s.168-1.11-.531-1.4c-.718-.3-1.42-.633-2.115-.98a2.992,2.992,0,0,1-1.685-2.738,3.022,3.022,0,0,1,1.591-2.79.925.925,0,0,0,.523-.685c.158-.632.538-1.191,1.338-1.054" transform="translate(-63.171 -327.841)" fill="#fff"/>
    <path id="Trazado_750196" data-name="Trazado 750196" d="M457.09,305.585l-.173-.144c.118-.025.179.02.173.144" transform="translate(-376.397 -251.61)" fill="#fff"/>
  </g>
</svg>
