<svg xmlns="http://www.w3.org/2000/svg" xmlns:xlink="http://www.w3.org/1999/xlink" width="50.168" height="46.001" viewBox="0 0 50.168 46.001">
  <defs>
    <clipPath id="clip-path">
      <rect id="Rectángulo_358170" data-name="Rectángulo 358170" width="45.168" height="42.372" fill="#12263f"/>
    </clipPath>
  </defs>
  <g id="Grupo_1022339" data-name="Grupo 1022339" transform="translate(-413.832 -2286)">
    <g id="Grupo_77443" data-name="Grupo 77443" transform="translate(177)">
      <rect id="Rectángulo_32442" data-name="Rectángulo 32442" width="31" height="31" transform="translate(256 2286)" fill="#57dbd8"/>
    </g>
    <rect id="Rectángulo_33680" data-name="Rectángulo 33680" width="43" height="46" transform="translate(421 2286)" fill="none"/>
    <g id="Grupo_1022348" data-name="Grupo 1022348" transform="translate(413.832 2289.629)">
      <g id="Grupo_1022347" data-name="Grupo 1022347" clip-path="url(#clip-path)">
        <path id="Trazado_751165" data-name="Trazado 751165" d="M5.1,416.2H8.5c.5,0,.667.17.668.664,0,.47,0,.941,0,1.439a2.112,2.112,0,0,0,.215-.059,9.2,9.2,0,0,1,8.032.418c1.427.747,2.795,1.608,4.189,2.418,2.308,1.34,4.61,2.689,6.927,4.014A3.055,3.055,0,0,1,30.108,427a.7.7,0,0,0,.051.106l2.388-.639c2.444-.655,4.887-1.316,7.334-1.963a3.36,3.36,0,0,1,2.485,6.192,5.717,5.717,0,0,1-1.207.429c-3.554.986-7.115,1.948-10.665,2.948-1.419.4-2.813.891-4.226,1.314a6.329,6.329,0,0,1-3.073.268,8.5,8.5,0,0,1-2.485-.969c-1.417-.789-2.836-1.575-4.219-2.421a11.017,11.017,0,0,0-3.927-1.4,10.764,10.764,0,0,0-3.049-.163c-.267.03-.362.119-.35.4.023.514.007,1.03.007,1.545,0,.491-.168.66-.668.66q-1.545,0-3.09,0H5.1c0,.311,0,.591,0,.871a.527.527,0,0,1-.6.6q-1.944,0-3.889,0c-.416,0-.609-.2-.609-.621q0-9.4,0-18.8c0-.429.185-.618.608-.618q1.944,0,3.889,0c.427,0,.6.182.6.618,0,.265,0,.53,0,.842m4.07,13.516a11.967,11.967,0,0,1,3.971.226,11.862,11.862,0,0,1,3.863,1.431c1.483.9,3,1.737,4.521,2.568a5.383,5.383,0,0,0,2.617.766,7.779,7.779,0,0,0,2.244-.42c2-.616,3.987-1.28,6-1.85,2.963-.839,5.946-1.61,8.918-2.414a2.333,2.333,0,1,0-1.176-4.514c-3.259.863-6.514,1.741-9.772,2.61a.3.3,0,0,0-.248.247,2.834,2.834,0,0,1-4.249,1.754q-2.7-1.555-5.4-3.114c-.163-.094-.333-.181-.488-.287a.512.512,0,0,1,.513-.885c.093.043.181.1.27.15q2.809,1.621,5.618,3.244a1.851,1.851,0,0,0,1.054.278,1.806,1.806,0,0,0,1.688-1.415,1.826,1.826,0,0,0-.911-1.987c-2.117-1.225-4.239-2.441-6.352-3.672-1.52-.885-3.011-1.82-4.546-2.677a8.44,8.44,0,0,0-7.891-.42.35.35,0,0,0-.255.376q.011,4.842.005,9.683v.321M4.054,415.788h-3v17.949h3Zm4.076,1.446h-.3c-.807,0-1.613.01-2.419-.006-.246,0-.316.061-.316.311q.011,7.22.005,14.44v.287H8.13Z" transform="translate(0 -393.378)" fill="#12263f"/>
        <path id="Trazado_751166" data-name="Trazado 751166" d="M510.767,9.822a1.717,1.717,0,0,1-1.53-.6,1.5,1.5,0,0,1-.323-1.007c.029-.851.624-1.377,1.717-1.491-.034-.09-.06-.174-.1-.253a10.466,10.466,0,0,0-2.368-3.306c-.05-.047-.1-.092-.151-.14a.527.527,0,0,1-.1-.677c.132-.205-1.381-2.422-1.116-2.348.3.082,2.345,2.326,2.648,2.359.356.039.427-.054.48-.406s.11-.677.188-1.01a1.637,1.637,0,0,1,.2-.445.832.832,0,0,1,1.368-.233c.774.743,1.658.5,2.537.351.094-.016.179-.124.254-.2A.9.9,0,0,1,516.1.688a5.753,5.753,0,0,1,.289,1.245c.06.365.123.465.489.43a4.192,4.192,0,0,0,.824-.182c.331-.1.578-.049.721.2s.08.468-.176.705a10.547,10.547,0,0,0-2.409,3.278c-.054.114-.1.231-.165.383a1.625,1.625,0,0,1,1.415.6,1.488,1.488,0,0,1,.325.982c-.02.863-.546,1.318-1.836,1.539a1.94,1.94,0,0,0,.306.462,2.971,2.971,0,0,0,.7.431,6.466,6.466,0,0,1,3.217,3.425,11.349,11.349,0,0,1,1.05,5.324c-.03,1.166-.031,2.334-.042,3.5,0,.2,0,.395.016.592a1.012,1.012,0,0,0,.4.77,4.615,4.615,0,0,1,1.3,1.481,1.814,1.814,0,0,1-.635,2.524,4.369,4.369,0,0,1-4.348.3,1.62,1.62,0,0,0-1.142-.116,14.75,14.75,0,0,1-6.911-.105.421.421,0,0,0-.306.019,3.513,3.513,0,0,1-1.912.606,4.765,4.765,0,0,1-2.5-.49,1.934,1.934,0,0,1-.757-3.058,5.378,5.378,0,0,1,1-1.064,1.3,1.3,0,0,0,.511-1.117c-.012-.987-.038-1.973-.044-2.96,0-.652.033-1.3.024-1.957a10.1,10.1,0,0,1,1.223-4.633,6.12,6.12,0,0,1,1.788-2.294,15.348,15.348,0,0,1,1.37-.81,3.566,3.566,0,0,0,.578-.38,2.292,2.292,0,0,0,.307-.486m.969.017a2.122,2.122,0,0,1-1.431,1.791c-.16.082-.319.168-.482.244a3.545,3.545,0,0,0-1.231.956,8.909,8.909,0,0,0-1.916,4.19,18.173,18.173,0,0,0-.16,2.951c-.015,1.141.033,2.282.038,3.423a2.127,2.127,0,0,1-.862,1.834,4.044,4.044,0,0,0-.77.789c-.561.733-.414,1.3.417,1.69a3.766,3.766,0,0,0,1.881.333A2.125,2.125,0,0,0,508.8,27.4a.493.493,0,0,1,.551-.089,12.972,12.972,0,0,0,7.631,0,.6.6,0,0,1,.651.168,1.512,1.512,0,0,0,.525.356,3.611,3.611,0,0,0,3.012-.228.869.869,0,0,0,.339-1.435,5.9,5.9,0,0,0-.964-1.025,1.892,1.892,0,0,1-.709-1.212,7.536,7.536,0,0,1-.057-1c0-1.321.029-2.643.025-3.964a15.035,15.035,0,0,0-.093-1.7,9.675,9.675,0,0,0-1.167-3.28,4.7,4.7,0,0,0-2.4-2.306,3.7,3.7,0,0,1-.409-.217,1.986,1.986,0,0,1-1.147-1.6c0-.013-.021-.024-.046-.051h-2.663a1.147,1.147,0,0,0-.141.019m4.776-6.448-.2-.058a1.33,1.33,0,0,1-.948-1.273c-.029-.288-.091-.573-.145-.9a2.757,2.757,0,0,1-2.077.631,2.734,2.734,0,0,1-2.05-.63c-.055.331-.121.606-.142.885a1.341,1.341,0,0,1-1.079,1.33c-.012,0-.019.026-.038.055.059.076.12.158.184.237a10.583,10.583,0,0,1,1.653,2.863c.086.229.209.254.444.181-.043-.343-.07-.684-.132-1.018a1.467,1.467,0,0,0-.629-1.074.482.482,0,0,1-.115-.647.468.468,0,0,1,.619-.208,2.392,2.392,0,0,1,.625.516,2.913,2.913,0,0,1,.562,1.473c.046.31.068.623.1.935a.665.665,0,0,0,.058-.24c.084-.489.138-.986.268-1.463a1.876,1.876,0,0,1,.891-1.183.5.5,0,0,1,.7.146.511.511,0,0,1-.151.722,1.1,1.1,0,0,0-.283.256,3.532,3.532,0,0,0-.408,1.788c.249.086.351.009.431-.2a10.344,10.344,0,0,1,1.363-2.471c.155-.211.317-.418.492-.647m-3.345,4.386c-.875,0-1.75,0-2.626,0-.364,0-.595.193-.6.492s.226.51.606.516c.223,0,.446,0,.669,0,1.51,0,3.02,0,4.53,0a.861.861,0,0,0,.456-.127.432.432,0,0,0,.155-.528.494.494,0,0,0-.513-.35c-.892,0-1.785,0-2.677,0" transform="translate(-477.612 -0.001)" fill="#12263f"/>
        <path id="Trazado_751167" data-name="Trazado 751167" d="M170.98,73.41a8.053,8.053,0,1,1-8.019-8.081,8.068,8.068,0,0,1,8.019,8.081m-1.029,0a7.024,7.024,0,1,0-7.066,6.992,7.044,7.044,0,0,0,7.066-6.992" transform="translate(-146.896 -61.964)" fill="#12263f"/>
        <path id="Trazado_751168" data-name="Trazado 751168" d="M649.393,270.886A2.108,2.108,0,0,1,647.832,273c-.231.073-.326.167-.3.408a2.967,2.967,0,0,1,0,.514.514.514,0,0,1-.511.508.507.507,0,0,1-.511-.505c-.01-.206.01-.413-.011-.617a.283.283,0,0,0-.152-.206,2.125,2.125,0,0,1-1.585-2.249.5.5,0,0,1,.5-.536.51.51,0,0,1,.522.521c0,.017,0,.034,0,.051.03.68.263,1.056.741,1.193a1.661,1.661,0,0,0,1.672-.535,1.011,1.011,0,0,0-.1-1.2,3.14,3.14,0,0,0-1.269-.848,8.6,8.6,0,0,1-1.272-.664,1.662,1.662,0,0,1-.783-1.457,2.474,2.474,0,0,1,1.642-2.25c.189-.062.262-.144.243-.342a3.713,3.713,0,0,1,0-.566.511.511,0,0,1,1.021,0c.013.257-.079.567.035.757s.435.221.647.353a2.205,2.205,0,0,1,1.07,1.989.5.5,0,0,1-.511.556.5.5,0,0,1-.512-.551,1.247,1.247,0,0,0-1.833-1.159,1.385,1.385,0,0,0-.756,1.234.767.767,0,0,0,.276.544,4.075,4.075,0,0,0,.935.524,4.964,4.964,0,0,1,1.649.978,2.109,2.109,0,0,1,.7,1.435" transform="translate(-611.552 -250.151)" fill="#12263f"/>
        <path id="Trazado_751169" data-name="Trazado 751169" d="M267.675,119.081c0-.237,0-.485,0-.732a.515.515,0,0,1,.5-.57.494.494,0,0,1,.523.566.834.834,0,0,0,.587,1.005,2.036,2.036,0,0,1,1.167,2.019.515.515,0,1,1-1.027,0,1.211,1.211,0,0,0-1.262-1.291,1.4,1.4,0,0,0-1.338,1.346.71.71,0,0,0,.365.643,8.449,8.449,0,0,0,1.007.506,4.65,4.65,0,0,1,1.486.9,2.052,2.052,0,0,1-.7,3.524c-.434.174-.434.174-.434.636,0,.12.007.241,0,.36a.518.518,0,0,1-.513.481.51.51,0,0,1-.506-.485c-.014-.214.009-.43-.013-.643a.281.281,0,0,0-.157-.2,2.122,2.122,0,0,1-1.584-2.225.517.517,0,1,1,1.031-.038c0,.009,0,.017,0,.026a1.215,1.215,0,0,0,1.984,1.045,1,1,0,0,0,.28-1.624,3.143,3.143,0,0,0-1.222-.785,7.313,7.313,0,0,1-.975-.461,1.911,1.911,0,0,1-.69-2.9,2.49,2.49,0,0,1,1.495-1.1" transform="translate(-252.081 -111.711)" fill="#12263f"/>
      </g>
    </g>
  </g>
</svg>
