<svg xmlns="http://www.w3.org/2000/svg" xmlns:xlink="http://www.w3.org/1999/xlink" width="152" height="152" viewBox="0 0 152 152">
  <defs>
    <clipPath id="clip-path">
      <rect id="Rectángulo_357890" data-name="Rectángulo 357890" width="77.595" height="77.571" fill="#12263f"/>
    </clipPath>
    <linearGradient id="linear-gradient" x1="0.5" x2="0.5" y2="1" gradientUnits="objectBoundingBox">
      <stop offset="0" stop-color="#fff"/>
      <stop offset="0.463" stop-color="#e9fffe"/>
      <stop offset="1" stop-color="#fff"/>
    </linearGradient>
  </defs>
  <g id="Grupo_1020669" data-name="Grupo 1020669" transform="translate(7.173 7)">
    <g id="Grupo_1020472" data-name="Grupo 1020472">
      <circle id="Elipse_8460" data-name="Elipse 8460" cx="76" cy="76" r="76" transform="translate(-7.173 -7)" fill="#57dbd8" opacity="0.45"/>
      <circle id="Elipse_8461" data-name="Elipse 8461" cx="62" cy="62" r="62" transform="translate(6.827 7)" fill="#fff"/>
      <g id="Grupo_1021553" data-name="Grupo 1021553" transform="translate(31.2 29.045)">
        <g id="Grupo_1021552" data-name="Grupo 1021552" clip-path="url(#clip-path)">
          <path id="Trazado_750254" data-name="Trazado 750254" d="M0,42.386c.128-.608.237-1.22.386-1.822A13.743,13.743,0,0,1,12.14,30.16a1.688,1.688,0,0,0,.781-.3,5.307,5.307,0,0,1-.661-.461A10.362,10.362,0,0,1,9.672,25.63a.834.834,0,0,0-.909-.617,4.987,4.987,0,0,1-2.93-9.036,1.2,1.2,0,0,0,.4-.812c.037-1.693.012-3.387.02-5.08A10.016,10.016,0,0,1,16.335.011q3.713-.018,7.427,0A10.012,10.012,0,0,1,33.782,10.063q.015,2.5,0,5a1.041,1.041,0,0,0,.454.972,4.867,4.867,0,0,1,1.794,5.547A4.955,4.955,0,0,1,31.3,25.015a.829.829,0,0,0-.925.594,11.289,11.289,0,0,1-3.246,4.407c.693.116,1.265.2,1.832.309A13.737,13.737,0,0,1,40.034,43.559c.022,1.667.013,3.335,0,5-.006,1.021-.462,1.484-1.482,1.484q-18.527.007-37.054.014A1.856,1.856,0,0,1,0,49.267V42.386M20.021,39.3c-1.746,1.749-3.421,3.421-5.087,5.1a1.448,1.448,0,0,1-1.507.588,1.444,1.444,0,0,1-.957-1.3c-.384-2.018-.8-4.03-1.209-6.044-.3-1.5-.6-2.992-.916-4.531-.234.068-.381.1-.522.154A11.246,11.246,0,0,0,3.8,38.559c-1.566,2.835-1.327,5.9-1.26,8.925H37.51c.392-7.792-2.53-13.182-7.788-14.331-.055.216-.122.432-.167.653-.659,3.263-1.322,6.525-1.964,9.792-.122.622-.3,1.173-.964,1.385-.684.217-1.129-.188-1.565-.627-1.65-1.662-3.307-3.317-5.042-5.056M8.889,15.007c2.172,0,4.361.066,6.543-.017a6.132,6.132,0,0,0,5.684-4.957c.151-.806.155-1.639.227-2.465h2.43c0,1.666-.012,3.277,0,4.888a2.324,2.324,0,0,0,1.956,2.467c1.825.136,3.668.036,5.54.036,0-1.763.036-3.479-.007-5.193a7.467,7.467,0,0,0-7.276-7.241q-3.983-.076-7.969,0A7.256,7.256,0,0,0,8.935,8.715a52.334,52.334,0,0,0-.046,6.293m2.38,2.515c0,1.424-.061,2.752.012,4.073a8.4,8.4,0,0,0,4.77,7.453,8.317,8.317,0,0,0,9.017-.646c3.177-2.2,4.636-6.734,3.575-10.92-2.819.245-5.514.077-6.989-3.012a9.229,9.229,0,0,1-7.795,3.058c-.829-.044-1.661-.007-2.59-.007m1.538,15.117L14.5,41.1l3.749-3.762c-1-1.247-2.113-2.52-3.078-3.9a1.935,1.935,0,0,0-2.366-.8m14.423.006c-1.039-.273-1.831-.154-2.339.794a4.8,4.8,0,0,1-.528.674L21.78,37.347l3.751,3.761,1.7-8.463M8.746,17.546A2.493,2.493,0,0,0,6.259,20.1a2.434,2.434,0,0,0,2.487,2.369ZM31.3,22.487a2.458,2.458,0,1,0,0-4.916ZM22.385,32.579H17.658l2.363,2.953,2.364-2.953" transform="translate(0 -0.001)" fill="#12263f"/>
          <path id="Trazado_750255" data-name="Trazado 750255" d="M240.29,225.631a1.884,1.884,0,0,1-.792-1.813,59.759,59.759,0,0,1,.345-7.161,13.478,13.478,0,0,1,11.765-10.912c.229-.027.455-.08.673-.119-.725-.878-1.488-1.694-2.121-2.6-.471-.675-.612-1.67-1.2-2.147-.542-.438-1.516-.3-2.254-.547a4.744,4.744,0,0,1-3.365-3.944,4.682,4.682,0,0,1,1.875-4.683,1.3,1.3,0,0,0,.564-1.158,57.4,57.4,0,0,1,.164-6.553,9.858,9.858,0,0,1,9.481-8.391q4.1-.073,8.21,0a10.006,10.006,0,0,1,9.648,9.625c.043,1.823-.009,3.648.032,5.472a1.3,1.3,0,0,0,.432.875,5,5,0,0,1,1.8,5.57,5.068,5.068,0,0,1-4.793,3.482,1,1,0,0,0-.758.419,12.1,12.1,0,0,1-3.068,4.285,1.864,1.864,0,0,0-.2.265c.836.159,1.634.271,2.412.465a13.718,13.718,0,0,1,10.413,13.221c.013,1.511-.032,3.024.017,4.534a1.923,1.923,0,0,1-.8,1.814Zm36.7-2.528c.962-9.033-3.45-13.064-7.766-14.34-.051.2-.113.391-.153.59-.673,3.34-1.351,6.679-2.008,10.022-.116.592-.377,1.132-.965,1.17a2.788,2.788,0,0,1-1.377-.489,4.118,4.118,0,0,1-.782-.758l-4.377-4.389c-.245.227-.437.394-.617.573-1.512,1.508-3,3.046-4.552,4.509a2.146,2.146,0,0,1-1.422.556c-.624-.033-.864-.623-.984-1.239-.649-3.318-1.325-6.631-1.995-9.945-.044-.218-.115-.43-.211-.781-.922.475-1.791.836-2.57,1.337a12.5,12.5,0,0,0-5.093,13.185Zm-6.2-32.5c0-1.793.033-3.506-.007-5.217a7.473,7.473,0,0,0-7.321-7.279q-3.945-.068-7.891,0a7.142,7.142,0,0,0-6.967,5.554,51.9,51.9,0,0,0-.458,6.94c2.3,0,4.376.025,6.454-.006a6.249,6.249,0,0,0,6.182-6.18c.009-.43,0-.86,0-1.276h2.505c0,1.675-.017,3.31.005,4.944a2.464,2.464,0,0,0,2.459,2.511c1.639.031,3.279.007,5.037.007m-2.36,2.454c-3.059.239-5.773.1-7.234-2.954a3.319,3.319,0,0,0-.283.228,8.86,8.86,0,0,1-6.881,2.78c-1.061-.025-2.122,0-3.253,0,0,1.346-.021,2.616,0,3.886a8.785,8.785,0,0,0,7.868,8.586,8.6,8.6,0,0,0,9.321-6.618,42.349,42.349,0,0,0,.459-5.9M257.748,212.9c-1.007-1.259-2.158-2.569-3.155-3.989a1.909,1.909,0,0,0-2.277-.7L254,216.647l3.744-3.749m9.027-4.857c-.692.1-1.458-.026-1.738.285-1.345,1.5-2.558,3.112-3.673,4.5l3.709,3.708,1.7-8.5m-18.532-14.9a2.485,2.485,0,0,0-2.476,2.658,2.38,2.38,0,0,0,2.476,2.213Zm22.553,4.928a2.487,2.487,0,0,0,2.49-2.656,2.353,2.353,0,0,0-2.49-2.211Zm-13.648,10.068,2.384,2.967,2.378-2.967Z" transform="translate(-201.97 -148.06)" fill="#12263f"/>
          <path id="Trazado_750256" data-name="Trazado 750256" d="M66.376,360.34a31.523,31.523,0,0,1-4.244-1.214,14.659,14.659,0,0,1-9.075-11.9c-.031-.2-.08-.4-.129-.646-1.173,0-2.317-.012-3.461,0a1.343,1.343,0,0,1-1.452-.815,1.329,1.329,0,0,1,.47-1.53q4.177-4.166,8.348-8.338c.8-.8,1.4-.8,2.209.012q4.151,4.137,8.292,8.284a1.311,1.311,0,0,1-.962,2.387c-1.09-.017-2.18,0-3.465,0,.285,1.089.469,2.1.815,3.063a12.467,12.467,0,0,0,11.244,8.183c.718.019,1.371.084,1.656.87.276.76-.213,1.206-.7,1.646H66.376m-8.371-21.774-5.526,5.511c.39,0,.851,0,1.312,0,1.2.007,1.6.4,1.641,1.569a12.314,12.314,0,0,0,4.732,9.465,12.1,12.1,0,0,0,6.847,2.678c-.329-.264-.505-.406-.683-.547a14.883,14.883,0,0,1-5.884-11.5c-.052-1.226.393-1.661,1.6-1.669.479,0,.959,0,1.463,0l-5.5-5.511" transform="translate(-40.412 -282.77)" fill="#12263f"/>
          <path id="Trazado_750257" data-name="Trazado 750257" d="M33.387,217.534c1.735,1.739,3.392,3.394,5.042,5.056.436.439.881.844,1.565.627.668-.212.842-.763.964-1.385.642-3.267,1.305-6.529,1.964-9.792.044-.221.111-.437.167-.653,5.258,1.149,8.18,6.539,7.788,14.331H15.9c-.067-3.022-.306-6.09,1.26-8.925a11.247,11.247,0,0,1,6.026-5.29c.14-.053.288-.086.521-.154.311,1.539.614,3.035.916,4.531.406,2.014.825,4.026,1.209,6.044a1.328,1.328,0,0,0,2.465.712c1.667-1.681,3.342-3.353,5.087-5.1" transform="translate(-13.366 -178.236)" fill="#e6b046"/>
          <path id="Trazado_750258" data-name="Trazado 750258" d="M56.313,28.393a52.335,52.335,0,0,1,.046-6.293,7.256,7.256,0,0,1,7.087-6.188q3.983-.075,7.969,0a7.467,7.467,0,0,1,7.276,7.241c.043,1.714.007,3.431.007,5.193-1.872,0-3.715.1-5.54-.036A2.324,2.324,0,0,1,71.2,25.843c-.016-1.611,0-3.223,0-4.888h-2.43c-.072.826-.076,1.659-.227,2.465a6.132,6.132,0,0,1-5.684,4.957c-2.183.083-4.371.017-6.543.017" transform="translate(-47.423 -13.387)" fill="#d2e1f1"/>
          <path id="Trazado_750260" data-name="Trazado 750260" d="M81.75,207.725a1.935,1.935,0,0,1,2.366.8c.965,1.378,2.082,2.651,3.078,3.9l-3.749,3.762-1.7-8.458" transform="translate(-68.942 -175.087)" fill="#f0dcc0"/>
          <path id="Trazado_750261" data-name="Trazado 750261" d="M144.463,207.666l-1.7,8.463-3.751-3.761,2.585-3.235a4.8,4.8,0,0,0,.528-.674c.507-.948,1.3-1.067,2.339-.794" transform="translate(-117.232 -175.022)" fill="#f0dcc0"/>
          <path id="Trazado_750264" data-name="Trazado 750264" d="M117.432,207.936l-2.364,2.953-2.363-2.953Z" transform="translate(-95.047 -175.357)" fill="url(#linear-gradient)"/>
          <path id="Trazado_750265" data-name="Trazado 750265" d="M289.541,400.8H254.668a12.5,12.5,0,0,1,5.093-13.185c.778-.5,1.648-.863,2.57-1.337.1.351.167.563.211.781.67,3.314,1.346,6.627,1.995,9.945.12.616.36,1.206.984,1.239a2.146,2.146,0,0,0,1.422-.556c1.555-1.463,3.04-3,4.552-4.509.18-.179.372-.347.617-.573l4.377,4.389a4.117,4.117,0,0,0,.782.758,2.786,2.786,0,0,0,1.377.489c.587-.038.849-.578.965-1.17.657-3.343,1.335-6.682,2.008-10.022.04-.2.1-.393.153-.59,4.316,1.276,8.728,5.307,7.766,14.34" transform="translate(-214.524 -325.757)" fill="#57dbd8"/>
          <path id="Trazado_750266" data-name="Trazado 750266" d="M317.329,204.081c-1.757,0-3.4.024-5.037-.007a2.465,2.465,0,0,1-2.459-2.511c-.023-1.634-.005-3.268-.005-4.944h-2.505c0,.416.007.846,0,1.276a6.249,6.249,0,0,1-6.182,6.18c-2.078.031-4.157.006-6.454.006a51.925,51.925,0,0,1,.458-6.94,7.142,7.142,0,0,1,6.967-5.554q3.945-.066,7.891,0a7.473,7.473,0,0,1,7.321,7.279c.04,1.711.007,3.424.007,5.217" transform="translate(-248.515 -161.54)" fill="#d2e1f1"/>
          <path id="Trazado_750268" data-name="Trazado 750268" d="M326.767,388.089l-3.744,3.749-1.688-8.435a1.909,1.909,0,0,1,2.277.7c1,1.419,2.148,2.73,3.155,3.989" transform="translate(-270.989 -323.251)" fill="#aeeae8"/>
          <path id="Trazado_750269" data-name="Trazado 750269" d="M384.5,382.835l-1.7,8.5-3.709-3.708c1.115-1.392,2.329-3.007,3.674-4.5.28-.312,1.045-.187,1.738-.285" transform="translate(-319.691 -322.854)" fill="#aeeae8"/>
          <path id="Trazado_750273" data-name="Trazado 750273" d="M82.546,356.129l5.5,5.511c-.5,0-.984,0-1.463,0-1.207.008-1.652.443-1.6,1.669a14.883,14.883,0,0,0,5.884,11.5c.177.141.353.283.683.547a12.1,12.1,0,0,1-6.847-2.678,12.314,12.314,0,0,1-4.732-9.465c-.046-1.167-.446-1.562-1.641-1.569-.461,0-.922,0-1.312,0l5.526-5.511" transform="translate(-64.953 -300.332)" fill="#91b3fa"/>
        </g>
      </g>
    </g>
  </g>
</svg>
