<svg xmlns="http://www.w3.org/2000/svg" xmlns:xlink="http://www.w3.org/1999/xlink" width="84.239" height="169.689" viewBox="0 0 84.239 169.689">
  <defs>
    <clipPath id="clip-path">
      <rect id="Rectángulo_357356" data-name="Rectángulo 357356" width="62.073" height="56.7" fill="none"/>
    </clipPath>
    <clipPath id="clip-path-3">
      <rect id="Rectángulo_357353" data-name="Rectángulo 357353" width="23.022" height="28.607" fill="none"/>
    </clipPath>
    <clipPath id="clip-path-4">
      <rect id="Rectángulo_357354" data-name="Rectángulo 357354" width="15.124" height="17.42" fill="none"/>
    </clipPath>
    <clipPath id="clip-path-5">
      <rect id="Rectángulo_357345" data-name="Rectángulo 357345" width="44.333" height="41.994" fill="none"/>
    </clipPath>
  </defs>
  <g id="Grupo_1022379" data-name="Grupo 1022379" transform="translate(12638.993 12014.708)">
    <g id="Grupo_1020467" data-name="Grupo 1020467" transform="translate(-12616.827 -11901.719)">
      <g id="Grupo_1020458" data-name="Grupo 1020458" clip-path="url(#clip-path)">
        <g id="Grupo_1020457" data-name="Grupo 1020457" transform="translate(0 0)">
          <g id="Grupo_1020456" data-name="Grupo 1020456" clip-path="url(#clip-path)">
            <path id="Trazado_748117" data-name="Trazado 748117" d="M6.941,28.653C-11.232,42.994,9.978,69.935,28.181,55.57,46.354,41.23,25.145,14.29,6.941,28.653" transform="translate(0 -2.964)" fill="#ffc727"/>
            <path id="Trazado_748118" data-name="Trazado 748118" d="M6.941,28.653C-11.232,42.994,9.978,69.935,28.181,55.57,46.354,41.23,25.145,14.29,6.941,28.653" transform="translate(0 -2.964)" fill="#cca040"/>
            <path id="Trazado_748119" data-name="Trazado 748119" d="M8.951,27.166c-17.32,13.667,3.891,40.607,21.24,26.917C47.51,40.417,26.3,13.477,8.951,27.166" transform="translate(-0.303 -2.823)" fill="#e6b046"/>
            <g id="Grupo_1020452" data-name="Grupo 1020452" transform="translate(10.07 23.848)" opacity="0.1">
              <g id="Grupo_1020451" data-name="Grupo 1020451">
                <g id="Grupo_1020450" data-name="Grupo 1020450" clip-path="url(#clip-path-3)">
                  <path id="Trazado_748120" data-name="Trazado 748120" d="M11.566,52.087c4.5,3.992,11.156,5.37,17.348.681C43.534,41.7,26.332,19.026,11.734,30.08c-.1.072-.191.144-.282.222C25.4,20.175,41.6,41.711,27.661,52.268a12.53,12.53,0,0,1-16.094-.181" transform="translate(-11.452 -27.12)"/>
                </g>
              </g>
            </g>
            <g id="Grupo_1020455" data-name="Grupo 1020455" transform="translate(10.359 29.558)" opacity="0.1">
              <g id="Grupo_1020454" data-name="Grupo 1020454">
                <g id="Grupo_1020453" data-name="Grupo 1020453" clip-path="url(#clip-path-4)">
                  <path id="Trazado_748121" data-name="Trazado 748121" d="M13.914,33.706a.58.58,0,0,1,.792.164l.525.8a7.793,7.793,0,0,1,4.469-.936.668.668,0,0,1,.581.276.612.612,0,0,1-.193.839.579.579,0,0,1-.451.1,6.809,6.809,0,0,0-3.844.669L19.463,41.2c3.452-1.354,5.476-1.055,6.76.9,1.389,2.115.6,4.776-1.845,6.495L25.4,50.15a.573.573,0,0,1-.958.629L23.407,49.2a8.977,8.977,0,0,1-5.76,1.013.6.6,0,0,1-.324-1.1.606.606,0,0,1,.451-.1,7.709,7.709,0,0,0,5.083-.74l-3.734-5.686C15.7,43.9,13.74,43.615,12.43,41.62c-1.323-2.015-.577-4.7,1.818-6.363l-.5-.759a.58.58,0,0,1,.164-.793m4.541,7.87-3.578-5.447c-1.908,1.311-2.426,3.306-1.482,4.743.891,1.357,2.08,1.775,5.06.7m1.677.64,3.616,5.506c1.971-1.351,2.506-3.36,1.511-4.876-.9-1.376-2.153-1.756-5.126-.63" transform="translate(-11.781 -33.615)"/>
                </g>
              </g>
            </g>
            <path id="Trazado_748122" data-name="Trazado 748122" d="M45.36,9.991c-.152-.055-.3-.113-.448-.156L47.2,4.78c.146.044.3.1.448.156.354.127.7.256,1.043.387a34.415,34.415,0,0,1,9.747,5.522q-1.145,2.527-2.29,5.054A34.415,34.415,0,0,0,46.4,10.378q-.513-.2-1.043-.387" transform="translate(-5.42 -0.576)" fill="#ffc727"/>
            <path id="Trazado_748123" data-name="Trazado 748123" d="M62.757,28.26c1.378-3.043-.259-7.508-5.065-11.529q1.145-2.527,2.289-5.054c4.806,4.021,6.443,8.485,5.064,11.528-.686,1.517-1.6,3.539-2.288,5.055" transform="translate(-6.962 -1.409)" fill="#ffc727"/>
            <path id="Trazado_748124" data-name="Trazado 748124" d="M62,21.357l-2.288,5.055C61.7,22.015,57.13,14.53,45.5,10.056c-.193-.075-.389-.149-.585-.221L47.2,4.781c.2.072.392.146.585.22C59.419,9.476,63.988,16.96,62,21.357" transform="translate(-5.42 -0.577)" fill="#ffc727"/>
            <path id="Trazado_748125" data-name="Trazado 748125" d="M45.164,12.723l-.011,0,2.289-5.054.011,0c-.686,1.517-1.6,3.538-2.288,5.055" transform="translate(-5.449 -0.925)" fill="#ffc727"/>
            <path id="Trazado_748126" data-name="Trazado 748126" d="M48.088,8.318,45.8,13.372c.044-.2-.249-.5-.634-.649l2.289-5.055c.384.152.678.451.633.65" transform="translate(-5.451 -0.925)" fill="#ffc727"/>
            <path id="Trazado_748127" data-name="Trazado 748127" d="M46.414,8.348,44.126,13.4l.13-.58,2.288-5.055Z" transform="translate(-5.325 -0.937)" fill="#ffc727"/>
            <path id="Trazado_748128" data-name="Trazado 748128" d="M45.049,12.706c-.361-.136-.688-.111-.761.052L46.576,7.7c.074-.163.4-.188.761-.053q-1.144,2.528-2.288,5.055" transform="translate(-5.345 -0.912)" fill="#ffc727"/>
            <path id="Trazado_748129" data-name="Trazado 748129" d="M44.286,12.777l2.288-5.055a.215.215,0,0,0-.012.04l-2.288,5.054a.189.189,0,0,1,.012-.04" transform="translate(-5.343 -0.932)" fill="#ffc727"/>
            <path id="Trazado_748130" data-name="Trazado 748130" d="M48.021,9.015,45.733,14.07l.135-.608,2.288-5.054Z" transform="translate(-5.519 -1.014)" fill="#ffc727"/>
            <path id="Trazado_748131" data-name="Trazado 748131" d="M43.688,13.364A14.963,14.963,0,0,0,40.5,12.5Q41.646,9.977,42.79,7.45a14.929,14.929,0,0,1,3.186.859c-.686,1.517-1.6,3.538-2.288,5.055" transform="translate(-4.888 -0.899)" fill="#ffc727"/>
            <path id="Trazado_748132" data-name="Trazado 748132" d="M40.642,12.077l2.1-4.635.044.006L40.5,12.5l-.044-.006c.006-.015.015-.035.022-.049L40.5,12.4l.047-.1.1-.216" transform="translate(-4.882 -0.898)" fill="#ffc727"/>
            <path id="Trazado_748133" data-name="Trazado 748133" d="M53.051,12.251l-2.288,5.055a19.45,19.45,0,0,0-5.031-3.153L48.021,9.1a19.453,19.453,0,0,1,5.03,3.153" transform="translate(-5.519 -1.098)" fill="#ffc727"/>
            <path id="Trazado_748134" data-name="Trazado 748134" d="M51.787,18.253c.037-.151-.091-.3-.335-.514l2.289-5.055c.244.213.371.363.335.514q-1.144,2.528-2.289,5.055" transform="translate(-6.209 -1.53)" fill="#ffc727"/>
            <path id="Trazado_748135" data-name="Trazado 748135" d="M51.82,18.36a.166.166,0,0,0,.012-.037l2.288-5.054a.2.2,0,0,1-.012.037L51.82,18.36" transform="translate(-6.254 -1.601)" fill="#ffc727"/>
            <path id="Trazado_748136" data-name="Trazado 748136" d="M52,12.62l-2.288,5.055a16.749,16.749,0,0,0-4.223-2.745l2.289-5.055A16.792,16.792,0,0,1,52,12.62" transform="translate(-5.49 -1.191)" fill="#ffc727"/>
            <path id="Trazado_748137" data-name="Trazado 748137" d="M53.923,13.272l-2.288,5.055c-.081.178-.437.2-.821.048a1.452,1.452,0,0,1-.523-.324L52.58,13a1.43,1.43,0,0,0,.522.324c.384.149.74.13.821-.048" transform="translate(-6.069 -1.568)" fill="#ffc727"/>
            <path id="Trazado_748138" data-name="Trazado 748138" d="M40.086,12.486a5.374,5.374,0,0,0-2.659.17q1.144-2.527,2.288-5.055a5.375,5.375,0,0,1,2.659-.17q-1.144,2.528-2.288,5.055" transform="translate(-4.517 -0.887)" fill="#ffc727"/>
            <path id="Trazado_748139" data-name="Trazado 748139" d="M37.451,12.613,39.7,7.64l.012-.005q-1.144,2.528-2.289,5.055l-.012.005.038-.083" transform="translate(-4.515 -0.921)" fill="#ffc727"/>
            <path id="Trazado_748140" data-name="Trazado 748140" d="M38.164,14.148l2.288-5.055c.423-.933,2.436-1,5.152.042L43.316,14.19c-2.717-1.041-4.729-.976-5.152-.042" transform="translate(-4.606 -1.01)" fill="#ffc727"/>
            <path id="Trazado_748141" data-name="Trazado 748141" d="M37.3,12.7a1.507,1.507,0,0,0-.842.75l2.288-5.055a1.516,1.516,0,0,1,.842-.75l-1.462,3.232-.8,1.762c-.01.02-.011.045-.028.062" transform="translate(-4.399 -0.922)" fill="#ffc727"/>
            <path id="Trazado_748142" data-name="Trazado 748142" d="M45.9,9.135l-.925,4.174c-3.715-1.983-4.516-3-4.286-4.038.242-1.1,2.33-1.24,5.211-.136" transform="translate(-4.907 -1.01)" fill="#ffc727"/>
            <path id="Trazado_748143" data-name="Trazado 748143" d="M45.259,13.414l-2.288,5.055.925-4.175,2.288-5.054Z" transform="translate(-5.186 -1.115)" fill="#ffc727"/>
            <path id="Trazado_748144" data-name="Trazado 748144" d="M38.151,14.246l2.288-5.055a.923.923,0,0,0-.059.179c-.23,1.04.571,2.056,4.286,4.039l-2.288,5.054c-3.715-1.983-4.516-3-4.286-4.038a.923.923,0,0,1,.059-.179" transform="translate(-4.593 -1.109)" fill="#ffc727"/>
            <path id="Trazado_748145" data-name="Trazado 748145" d="M46.7,14.156l-2.288,5.055.944-4.281,2.288-5.054Z" transform="translate(-5.36 -1.191)" fill="#ffc727"/>
            <path id="Trazado_748146" data-name="Trazado 748146" d="M48.8,22.536A23.489,23.489,0,0,0,44.415,19.8L46.7,14.744a23.493,23.493,0,0,1,4.383,2.736q-1.144,2.528-2.288,5.055" transform="translate(-5.36 -1.779)" fill="#ffc727"/>
            <path id="Trazado_748147" data-name="Trazado 748147" d="M36.438,13.548l2.288-5.055a1.274,1.274,0,0,0-.084.255c-.336,1.528,1.31,3.1,5.646,5.357L42,19.159c-4.336-2.26-5.983-3.828-5.646-5.357a1.266,1.266,0,0,1,.084-.254" transform="translate(-4.382 -1.025)" fill="#ffc727"/>
            <path id="Trazado_748148" data-name="Trazado 748148" d="M49.507,23.005c-.035-.032-.071-.062-.108-.094l2.288-5.055.108.094q-1.144,2.528-2.288,5.055" transform="translate(-5.961 -2.155)" fill="#ffc727"/>
            <path id="Trazado_748149" data-name="Trazado 748149" d="M50.487,20.885q.661-1.46,1.323-2.921a5.369,5.369,0,0,1,.907,1l-2.289,5.055a5.256,5.256,0,0,0-.908-1q.485-1.067.966-2.134" transform="translate(-5.976 -2.168)" fill="#ffc727"/>
            <path id="Trazado_748150" data-name="Trazado 748150" d="M50.922,19.7l-2.288,5.055c.233-1.057-.667-2.109-4.418-4.072L46.5,15.629c3.751,1.964,4.651,3.016,4.417,4.072" transform="translate(-5.336 -1.886)" fill="#ffc727"/>
            <path id="Trazado_748151" data-name="Trazado 748151" d="M50.555,24.161q1.144-2.527,2.288-5.055a1.962,1.962,0,0,1,.364,1.549,1.341,1.341,0,0,1-.09.271l-2.289,5.055a1.441,1.441,0,0,0,.091-.271,1.967,1.967,0,0,0-.364-1.549" transform="translate(-6.101 -2.305)" fill="#ffc727"/>
            <path id="Trazado_748152" data-name="Trazado 748152" d="M51.456,20.45l-2.289,5.055a1,1,0,0,0,.063-.19l2.289-5.055a.963.963,0,0,1-.063.19" transform="translate(-5.933 -2.445)" fill="#ffc727"/>
            <path id="Trazado_748153" data-name="Trazado 748153" d="M37.689,15.613,35.4,20.669a1.494,1.494,0,0,0-.507-.318L37.181,15.3a1.5,1.5,0,0,1,.508.318" transform="translate(-4.211 -1.845)" fill="#ffc727"/>
            <path id="Trazado_748154" data-name="Trazado 748154" d="M34.781,20.337c-.371-.142-.738-.112-.815.057l2.289-5.053c.076-.17.44-.2.809-.061q-1.138,2.515-2.277,5.031,1.138-2.517,2.277-5.031l.005,0c-.686,1.518-1.6,3.539-2.288,5.055" transform="translate(-4.099 -1.833)" fill="#ffc727"/>
            <path id="Trazado_748155" data-name="Trazado 748155" d="M50.731,20.471l-2.289,5.055c-.443.98-2.486,1.032-5.279-.038l2.288-5.054c2.794,1.07,4.836,1.017,5.28.037" transform="translate(-5.209 -2.466)" fill="#ffc727"/>
            <path id="Trazado_748156" data-name="Trazado 748156" d="M45.451,19.854l-2.288,5.055.926-4.225,2.288-5.054Z" transform="translate(-5.209 -1.886)" fill="#ffc727"/>
            <path id="Trazado_748157" data-name="Trazado 748157" d="M43.97,19.233l-2.288,5.055.966-4.358,2.288-5.054Z" transform="translate(-5.03 -1.795)" fill="#ffc727"/>
            <path id="Trazado_748158" data-name="Trazado 748158" d="M43.22,19.326l-2.288,5.055a18.368,18.368,0,0,1-5.461-3.67l2.288-5.055a18.379,18.379,0,0,0,5.461,3.67" transform="translate(-4.281 -1.889)" fill="#ffc727"/>
            <path id="Trazado_748159" data-name="Trazado 748159" d="M52.212,21.176,49.924,26.23c-.615,1.358-3.374,1.373-6.871.055l2.289-5.055c3.5,1.317,6.255,1.3,6.87-.055" transform="translate(-5.196 -2.555)" fill="#ffc727"/>
            <path id="Trazado_748160" data-name="Trazado 748160" d="M33.964,20.415l2.288-5.055a.146.146,0,0,0-.01.032c-.034.14.07.277.257.45a21.831,21.831,0,0,0,6.328,4.113L40.538,25.01A21.812,21.812,0,0,1,34.211,20.9c-.186-.174-.291-.311-.258-.45a.167.167,0,0,1,.011-.032" transform="translate(-4.097 -1.853)" fill="#ffc727"/>
            <path id="Trazado_748161" data-name="Trazado 748161" d="M45.047,22.433l-2.288,5.055.259-1.195,2.288-5.055Z" transform="translate(-5.16 -2.563)" fill="#ffc727"/>
            <path id="Trazado_748162" data-name="Trazado 748162" d="M45.034,22.63l-2.289,5.055a.157.157,0,0,0,.011-.034L45.045,22.6a.214.214,0,0,1-.011.033" transform="translate(-5.158 -2.727)" fill="#ffc727"/>
            <path id="Trazado_748163" data-name="Trazado 748163" d="M43.433,21.8l-2.288,5.055.261-1.211L43.7,20.585Z" transform="translate(-4.965 -2.484)" fill="#ffc727"/>
            <path id="Trazado_748164" data-name="Trazado 748164" d="M44.927,22.635,42.638,27.69c-.076.169-.419.193-.781.055l2.288-5.055c.362.14.705.114.782-.055" transform="translate(-5.051 -2.731)" fill="#ffc727"/>
            <path id="Trazado_748165" data-name="Trazado 748165" d="M44.058,22.608,41.77,27.663c-.385-.153-.671-.448-.626-.647l2.288-5.055c-.044.2.241.5.626.647" transform="translate(-4.965 -2.65)" fill="#ffc727"/>
            <path id="Trazado_748166" data-name="Trazado 748166" d="M64.037,24.018l-2.288,5.055c-1.979,4.371-9.119,6.313-21.1,2.031-.426-.152-.846-.308-1.257-.466-14.617-5.623-20.356-15.026-17.855-20.55l2.288-5.055c-2.5,5.524,3.239,14.927,17.856,20.55.411.158.831.314,1.256.466,11.983,4.282,19.123,2.34,21.1-2.031" transform="translate(-2.531 -0.607)" fill="#cca040"/>
            <path id="Trazado_748167" data-name="Trazado 748167" d="M46.494,2.862C72.679,12.934,70.375,35.134,43.25,25.441c-.426-.152-.846-.308-1.257-.466C15.808,14.9,18.113-7.3,45.238,2.4c.425.152.846.309,1.256.466M43.422,23.481c22.5,8.044,24.415-10.379,2.694-18.736-.342-.131-.689-.26-1.043-.386-.15-.055-.3-.113-.448-.157.2.073.392.147.585.221,20.843,8.016,19.011,25.693-2.592,17.97-.337-.12-.669-.244-.995-.369C33.348,18.842,28.636,14.132,27.334,10.1c1.08,4.323,6.022,9.522,15.035,12.989.346.133.7.263,1.053.39M35.815,13.449c-.392-.151-.782-.108-.825.089-.034.139.07.276.257.45A21.836,21.836,0,0,0,41.573,18.1l-.261,1.211c-.045.2.241.494.626.646s.748.111.792-.088l.259-1.195c3.717,1.4,6.6,1.3,6.96-.325.332-1.5-1.371-3.121-5.762-5.385l.944-4.281a16.792,16.792,0,0,1,4.222,2.745,1.412,1.412,0,0,0,.508.318c.424.164.8.132.849-.08.035-.151-.091-.3-.336-.514A19.459,19.459,0,0,0,45.346,8l.135-.608c.045-.2-.249-.5-.633-.65s-.748-.112-.784.088l-.13.579c-3.623-1.381-6.49-1.231-6.829.313s1.31,3.1,5.646,5.357l-.965,4.358a18.361,18.361,0,0,1-5.462-3.67,1.5,1.5,0,0,0-.508-.318" transform="translate(-2.844 0)" fill="#e6b046"/>
            <path id="Trazado_748168" data-name="Trazado 748168" d="M51.109,19.7c-.26,1.161-2.379,1.288-5.343.153l.926-4.225c3.751,1.964,4.651,3.016,4.417,4.072" transform="translate(-5.523 -1.886)" fill="#ffc727"/>
            <path id="Trazado_748169" data-name="Trazado 748169" d="M45.754,13.851c4.391,2.265,6.094,3.884,5.762,5.385-.361,1.621-3.244,1.726-6.96.326L44.3,20.757c-.044.2-.407.237-.792.088s-.671-.448-.626-.647l.262-1.21a21.831,21.831,0,0,1-6.328-4.113c-.186-.173-.291-.31-.257-.45.043-.2.432-.24.812-.093a1.546,1.546,0,0,1,.521.323,18.368,18.368,0,0,0,5.461,3.67l.966-4.357c-4.336-2.26-5.983-3.829-5.646-5.357.339-1.545,3.206-1.694,6.828-.313l.131-.58c.036-.2.391-.238.771-.092.4.157.691.456.646.655l-.135.608a19.459,19.459,0,0,1,5.031,3.153c.244.212.37.362.335.514-.047.212-.425.243-.834.085a1.452,1.452,0,0,1-.523-.324A16.792,16.792,0,0,0,46.7,9.57ZM50,18.7c.234-1.056-.666-2.109-4.417-4.072l-.926,4.225C47.616,19.99,49.735,19.862,50,18.7m-5.512-5.517.925-4.174c-2.881-1.1-4.969-.965-5.211.135-.23,1.041.571,2.056,4.286,4.039" transform="translate(-4.411 -0.887)" fill="#cca040"/>
            <path id="Trazado_748170" data-name="Trazado 748170" d="M50.491,18.825c.234-1.056-.666-2.109-4.417-4.072l-.926,4.225c2.963,1.135,5.082,1.007,5.343-.153M44.98,13.309,45.9,9.134c-2.881-1.1-4.969-.965-5.211.135-.23,1.041.571,2.056,4.286,4.039" transform="translate(-4.907 -1.01)" fill="#e6b046"/>
            <path id="Trazado_748171" data-name="Trazado 748171" d="M46.632,5.323c21.721,8.356,19.808,26.78-2.694,18.736-.358-.128-.708-.258-1.053-.39C33.872,20.2,28.93,15,27.85,10.678c1.3,4.03,6.015,8.74,14.289,11.923.325.126.658.249.995.369,21.6,7.723,23.434-9.954,2.592-17.97-.193-.075-.389-.149-.585-.221.146.043.3.1.448.156.354.127.7.255,1.043.387" transform="translate(-3.361 -0.576)" fill="#cca040"/>
          </g>
        </g>
      </g>
    </g>
    <g id="Grupo_1020468" data-name="Grupo 1020468" transform="translate(-12638.993 -12014.708)">
      <g id="Grupo_1020423" data-name="Grupo 1020423" transform="translate(0 0)" clip-path="url(#clip-path-5)">
        <path id="Trazado_748052" data-name="Trazado 748052" d="M22.167,0c-29.532,0-29.581,41.994,0,41.994C51.7,41.994,51.746,0,22.167,0" transform="translate(0 0)" fill="#e6b046"/>
        <path id="Trazado_748053" data-name="Trazado 748053" d="M40.972,25.736C39.4,32.961,33.406,39.227,23.011,39.227c-24.546,0-24.509-34.855,0-34.855.16,0,.321,0,.481.009C.426,4.8.54,37.811,23.945,37.811c9.546,0,15.235-5.524,17.027-12.076" transform="translate(-0.847 -0.802)" fill="#cca040"/>
        <path id="Trazado_748054" data-name="Trazado 748054" d="M25.5,10a.748.748,0,0,1,.767.7v1.169a10.987,10.987,0,0,1,5.687,2.046c.287.2.447.38.447.673a.788.788,0,0,1-.83.73.823.823,0,0,1-.576-.2,9.547,9.547,0,0,0-4.792-1.9V21.4c4.857.935,6.9,2.6,6.9,5.466,0,3.1-2.843,5.292-6.836,5.408v2.28a.77.77,0,0,1-1.534,0v-2.31a12.576,12.576,0,0,1-7.188-2.836.744.744,0,0,1-.352-.614.8.8,0,0,1,.8-.731.848.848,0,0,1,.575.2,10.754,10.754,0,0,0,6.231,2.66V22.6C20,21.636,18.02,20.027,18.02,17.1c0-2.952,2.811-5.2,6.709-5.291V10.7A.747.747,0,0,1,25.5,10m-.7,11.109v-7.98c-3.1.058-5.144,1.754-5.144,3.858,0,1.988,1.022,3.216,5.144,4.122M26.2,22.892v8.069c3.2-.059,5.272-1.754,5.272-3.976,0-2.018-1.119-3.246-5.272-4.093" transform="translate(-3.154 -1.835)" fill="#cca040"/>
      </g>
    </g>
  </g>
</svg>
