<svg id="Grupo_1021528" data-name="Grupo 1021528" xmlns="http://www.w3.org/2000/svg" xmlns:xlink="http://www.w3.org/1999/xlink" width="138.935" height="137.969" viewBox="0 0 138.935 137.969">
  <defs>
    <clipPath id="clip-path">
      <rect id="Rectángulo_352916" data-name="Rectángulo 352916" width="73.223" height="72.373" fill="#12263f"/>
    </clipPath>
  </defs>
  <g id="Grupo_156356" data-name="Grupo 156356" transform="translate(0 56.015)">
    <g id="Grupo_156332" data-name="Grupo 156332" transform="translate(0 0)">
      <path id="Trazado_99257" data-name="Trazado 99257" d="M419.381,105.248a2.586,2.586,0,1,1-2.585-2.469A2.529,2.529,0,0,1,419.381,105.248Z" transform="translate(-414.214 -102.779)" fill="#12263f"/>
      <path id="Trazado_116526" data-name="Trazado 116526" d="M419.381,105.248a2.586,2.586,0,1,1-2.585-2.469A2.529,2.529,0,0,1,419.381,105.248Z" transform="translate(-355.713 -102.779)" fill="#12263f"/>
      <path id="Trazado_99258" data-name="Trazado 99258" d="M427.827,105.248a2.586,2.586,0,1,1-2.582-2.469A2.528,2.528,0,0,1,427.827,105.248Z" transform="translate(-410.96 -102.779)" fill="#12263f"/>
      <path id="Trazado_116527" data-name="Trazado 116527" d="M427.827,105.248a2.586,2.586,0,1,1-2.582-2.469A2.528,2.528,0,0,1,427.827,105.248Z" transform="translate(-352.458 -102.779)" fill="#12263f"/>
      <path id="Trazado_99259" data-name="Trazado 99259" d="M436.273,105.248a2.586,2.586,0,1,1-2.582-2.469A2.528,2.528,0,0,1,436.273,105.248Z" transform="translate(-407.706 -102.779)" fill="#12263f"/>
      <path id="Trazado_116531" data-name="Trazado 116531" d="M436.273,105.248a2.586,2.586,0,1,1-2.582-2.469A2.528,2.528,0,0,1,436.273,105.248Z" transform="translate(-349.205 -102.779)" fill="#12263f"/>
      <path id="Trazado_99260" data-name="Trazado 99260" d="M444.72,105.248a2.586,2.586,0,1,1-2.585-2.469A2.529,2.529,0,0,1,444.72,105.248Z" transform="translate(-404.453 -102.779)" fill="#12263f"/>
      <path id="Trazado_116532" data-name="Trazado 116532" d="M444.72,105.248a2.586,2.586,0,1,1-2.585-2.469A2.529,2.529,0,0,1,444.72,105.248Z" transform="translate(-345.951 -102.779)" fill="#12263f"/>
      <path id="Trazado_99261" data-name="Trazado 99261" d="M453.166,105.248a2.586,2.586,0,1,1-2.582-2.469A2.528,2.528,0,0,1,453.166,105.248Z" transform="translate(-401.198 -102.779)" fill="#12263f"/>
    </g>
    <g id="Grupo_156331" data-name="Grupo 156331" transform="translate(0 12.834)">
      <ellipse id="Elipse_3975" data-name="Elipse 3975" cx="2.583" cy="2.471" rx="2.583" ry="2.471" transform="translate(0 0.001)" fill="#12263f"/>
      <ellipse id="Elipse_4742" data-name="Elipse 4742" cx="2.583" cy="2.471" rx="2.583" ry="2.471" transform="translate(58.502 0.001)" fill="#12263f"/>
      <path id="Trazado_99268" data-name="Trazado 99268" d="M427.827,112.756a2.586,2.586,0,1,1-2.582-2.469A2.53,2.53,0,0,1,427.827,112.756Z" transform="translate(-410.96 -110.287)" fill="#12263f"/>
      <path id="Trazado_116528" data-name="Trazado 116528" d="M427.827,112.756a2.586,2.586,0,1,1-2.582-2.469A2.53,2.53,0,0,1,427.827,112.756Z" transform="translate(-352.458 -110.287)" fill="#12263f"/>
      <ellipse id="Elipse_3976" data-name="Elipse 3976" cx="2.583" cy="2.471" rx="2.583" ry="2.471" transform="translate(23.4 0.001)" fill="#12263f"/>
      <ellipse id="Elipse_4743" data-name="Elipse 4743" cx="2.583" cy="2.471" rx="2.583" ry="2.471" transform="translate(81.902 0.001)" fill="#12263f"/>
      <path id="Trazado_99269" data-name="Trazado 99269" d="M444.72,112.756a2.586,2.586,0,1,1-2.585-2.469A2.53,2.53,0,0,1,444.72,112.756Z" transform="translate(-404.453 -110.287)" fill="#12263f"/>
      <path id="Trazado_116533" data-name="Trazado 116533" d="M444.72,112.756a2.586,2.586,0,1,1-2.585-2.469A2.53,2.53,0,0,1,444.72,112.756Z" transform="translate(-345.951 -110.287)" fill="#12263f"/>
      <path id="Trazado_99270" data-name="Trazado 99270" d="M453.166,112.756a2.586,2.586,0,1,1-2.582-2.469A2.53,2.53,0,0,1,453.166,112.756Z" transform="translate(-401.198 -110.287)" fill="#12263f"/>
    </g>
    <g id="Grupo_156330" data-name="Grupo 156330" transform="translate(0 25.67)">
      <path id="Trazado_99274" data-name="Trazado 99274" d="M419.381,120.266a2.586,2.586,0,1,1-2.585-2.472A2.531,2.531,0,0,1,419.381,120.266Z" transform="translate(-414.214 -117.794)" fill="#12263f"/>
      <path id="Trazado_116529" data-name="Trazado 116529" d="M419.381,120.266a2.586,2.586,0,1,1-2.585-2.472A2.531,2.531,0,0,1,419.381,120.266Z" transform="translate(-355.713 -117.794)" fill="#12263f"/>
      <path id="Trazado_99275" data-name="Trazado 99275" d="M427.827,120.266a2.586,2.586,0,1,1-2.582-2.472A2.53,2.53,0,0,1,427.827,120.266Z" transform="translate(-410.96 -117.794)" fill="#12263f"/>
      <path id="Trazado_116530" data-name="Trazado 116530" d="M427.827,120.266a2.586,2.586,0,1,1-2.582-2.472A2.53,2.53,0,0,1,427.827,120.266Z" transform="translate(-352.458 -117.794)" fill="#12263f"/>
      <path id="Trazado_99276" data-name="Trazado 99276" d="M436.273,120.266a2.586,2.586,0,1,1-2.582-2.472A2.53,2.53,0,0,1,436.273,120.266Z" transform="translate(-407.706 -117.794)" fill="#12263f"/>
      <path id="Trazado_116534" data-name="Trazado 116534" d="M436.273,120.266a2.586,2.586,0,1,1-2.582-2.472A2.53,2.53,0,0,1,436.273,120.266Z" transform="translate(-349.205 -117.794)" fill="#12263f"/>
      <path id="Trazado_99277" data-name="Trazado 99277" d="M444.72,120.266a2.586,2.586,0,1,1-2.585-2.472A2.53,2.53,0,0,1,444.72,120.266Z" transform="translate(-404.453 -117.794)" fill="#12263f"/>
      <path id="Trazado_116535" data-name="Trazado 116535" d="M444.72,120.266a2.586,2.586,0,1,1-2.585-2.472A2.53,2.53,0,0,1,444.72,120.266Z" transform="translate(-345.951 -117.794)" fill="#12263f"/>
      <path id="Trazado_99278" data-name="Trazado 99278" d="M453.166,120.266a2.586,2.586,0,1,1-2.582-2.472A2.53,2.53,0,0,1,453.166,120.266Z" transform="translate(-401.198 -117.794)" fill="#12263f"/>
    </g>
    <g id="Grupo_156327" data-name="Grupo 156327" transform="translate(0 64.175)">
      <path id="Trazado_116550" data-name="Trazado 116550" d="M419.381,120.266a2.586,2.586,0,1,1-2.585-2.472A2.531,2.531,0,0,1,419.381,120.266Z" transform="translate(-414.214 -117.794)" fill="#12263f"/>
      <path id="Trazado_116551" data-name="Trazado 116551" d="M419.381,120.266a2.586,2.586,0,1,1-2.585-2.472A2.531,2.531,0,0,1,419.381,120.266Z" transform="translate(-355.713 -117.794)" fill="#12263f"/>
      <path id="Trazado_116552" data-name="Trazado 116552" d="M427.827,120.266a2.586,2.586,0,1,1-2.582-2.472A2.53,2.53,0,0,1,427.827,120.266Z" transform="translate(-410.96 -117.794)" fill="#12263f"/>
      <path id="Trazado_116553" data-name="Trazado 116553" d="M427.827,120.266a2.586,2.586,0,1,1-2.582-2.472A2.53,2.53,0,0,1,427.827,120.266Z" transform="translate(-352.458 -117.794)" fill="#12263f"/>
      <path id="Trazado_116554" data-name="Trazado 116554" d="M436.273,120.266a2.586,2.586,0,1,1-2.582-2.472A2.53,2.53,0,0,1,436.273,120.266Z" transform="translate(-407.706 -117.794)" fill="#12263f"/>
      <path id="Trazado_116555" data-name="Trazado 116555" d="M436.273,120.266a2.586,2.586,0,1,1-2.582-2.472A2.53,2.53,0,0,1,436.273,120.266Z" transform="translate(-349.205 -117.794)" fill="#12263f"/>
      <path id="Trazado_116556" data-name="Trazado 116556" d="M444.72,120.266a2.586,2.586,0,1,1-2.585-2.472A2.53,2.53,0,0,1,444.72,120.266Z" transform="translate(-404.453 -117.794)" fill="#12263f"/>
      <path id="Trazado_116557" data-name="Trazado 116557" d="M444.72,120.266a2.586,2.586,0,1,1-2.585-2.472A2.53,2.53,0,0,1,444.72,120.266Z" transform="translate(-345.951 -117.794)" fill="#12263f"/>
      <path id="Trazado_116558" data-name="Trazado 116558" d="M453.166,120.266a2.586,2.586,0,1,1-2.582-2.472A2.53,2.53,0,0,1,453.166,120.266Z" transform="translate(-401.198 -117.794)" fill="#12263f"/>
    </g>
    <g id="Grupo_156329" data-name="Grupo 156329" transform="translate(0 38.505)">
      <ellipse id="Elipse_3980" data-name="Elipse 3980" cx="2.583" cy="2.471" rx="2.583" ry="2.471" transform="translate(0 0.002)" fill="#12263f"/>
      <ellipse id="Elipse_4744" data-name="Elipse 4744" cx="2.583" cy="2.471" rx="2.583" ry="2.471" transform="translate(58.502 0.002)" fill="#12263f"/>
      <path id="Trazado_99285" data-name="Trazado 99285" d="M427.827,127.774a2.586,2.586,0,1,1-2.582-2.472A2.528,2.528,0,0,1,427.827,127.774Z" transform="translate(-410.96 -125.302)" fill="#12263f"/>
      <path id="Trazado_116536" data-name="Trazado 116536" d="M427.827,127.774a2.586,2.586,0,1,1-2.582-2.472A2.528,2.528,0,0,1,427.827,127.774Z" transform="translate(-352.458 -125.302)" fill="#12263f"/>
      <ellipse id="Elipse_3981" data-name="Elipse 3981" cx="2.583" cy="2.471" rx="2.583" ry="2.471" transform="translate(23.4 0.002)" fill="#12263f"/>
      <ellipse id="Elipse_4745" data-name="Elipse 4745" cx="2.583" cy="2.471" rx="2.583" ry="2.471" transform="translate(81.902 0.002)" fill="#12263f"/>
      <path id="Trazado_99286" data-name="Trazado 99286" d="M444.72,127.774a2.586,2.586,0,1,1-2.585-2.472A2.528,2.528,0,0,1,444.72,127.774Z" transform="translate(-404.453 -125.302)" fill="#12263f"/>
      <path id="Trazado_116537" data-name="Trazado 116537" d="M444.72,127.774a2.586,2.586,0,1,1-2.585-2.472A2.528,2.528,0,0,1,444.72,127.774Z" transform="translate(-345.951 -125.302)" fill="#12263f"/>
      <path id="Trazado_99287" data-name="Trazado 99287" d="M453.166,127.774a2.586,2.586,0,1,1-2.582-2.472A2.528,2.528,0,0,1,453.166,127.774Z" transform="translate(-401.198 -125.302)" fill="#12263f"/>
    </g>
    <g id="Grupo_156326" data-name="Grupo 156326" transform="translate(0 77.012)">
      <ellipse id="Elipse_4754" data-name="Elipse 4754" cx="2.583" cy="2.471" rx="2.583" ry="2.471" transform="translate(0 0.001)" fill="#12263f"/>
      <ellipse id="Elipse_4750" data-name="Elipse 4750" cx="2.583" cy="2.471" rx="2.583" ry="2.471" transform="translate(58.502 0.001)" fill="#12263f"/>
      <path id="Trazado_116548" data-name="Trazado 116548" d="M427.827,127.774a2.586,2.586,0,1,1-2.582-2.472A2.528,2.528,0,0,1,427.827,127.774Z" transform="translate(-410.96 -125.302)" fill="#12263f"/>
      <path id="Trazado_116542" data-name="Trazado 116542" d="M427.827,127.774a2.586,2.586,0,1,1-2.582-2.472A2.528,2.528,0,0,1,427.827,127.774Z" transform="translate(-352.458 -125.302)" fill="#12263f"/>
      <ellipse id="Elipse_4751" data-name="Elipse 4751" cx="2.583" cy="2.471" rx="2.583" ry="2.471" transform="translate(23.4 0.001)" fill="#12263f"/>
      <ellipse id="Elipse_4752" data-name="Elipse 4752" cx="2.583" cy="2.471" rx="2.583" ry="2.471" transform="translate(81.902 0.001)" fill="#12263f"/>
      <path id="Trazado_116543" data-name="Trazado 116543" d="M444.72,127.774a2.586,2.586,0,1,1-2.585-2.472A2.528,2.528,0,0,1,444.72,127.774Z" transform="translate(-404.453 -125.302)" fill="#12263f"/>
      <path id="Trazado_116544" data-name="Trazado 116544" d="M444.72,127.774a2.586,2.586,0,1,1-2.585-2.472A2.528,2.528,0,0,1,444.72,127.774Z" transform="translate(-345.951 -125.302)" fill="#12263f"/>
      <path id="Trazado_116545" data-name="Trazado 116545" d="M453.166,127.774a2.586,2.586,0,1,1-2.582-2.472A2.528,2.528,0,0,1,453.166,127.774Z" transform="translate(-401.198 -125.302)" fill="#12263f"/>
    </g>
    <g id="Grupo_156328" data-name="Grupo 156328" transform="translate(0 51.341)">
      <ellipse id="Elipse_3985" data-name="Elipse 3985" cx="2.583" cy="2.471" rx="2.583" ry="2.471" transform="translate(0 0.001)" fill="#12263f"/>
      <ellipse id="Elipse_4746" data-name="Elipse 4746" cx="2.583" cy="2.471" rx="2.583" ry="2.471" transform="translate(58.502 0.001)" fill="#12263f"/>
      <path id="Trazado_99291" data-name="Trazado 99291" d="M427.827,135.282a2.586,2.586,0,1,1-2.582-2.472A2.528,2.528,0,0,1,427.827,135.282Z" transform="translate(-410.96 -132.81)" fill="#12263f"/>
      <path id="Trazado_116538" data-name="Trazado 116538" d="M427.827,135.282a2.586,2.586,0,1,1-2.582-2.472A2.528,2.528,0,0,1,427.827,135.282Z" transform="translate(-352.458 -132.81)" fill="#12263f"/>
      <ellipse id="Elipse_3986" data-name="Elipse 3986" cx="2.583" cy="2.471" rx="2.583" ry="2.471" transform="translate(23.4 0.001)" fill="#12263f"/>
      <ellipse id="Elipse_4747" data-name="Elipse 4747" cx="2.583" cy="2.471" rx="2.583" ry="2.471" transform="translate(81.902 0.001)" fill="#12263f"/>
      <path id="Trazado_99292" data-name="Trazado 99292" d="M444.72,135.282a2.586,2.586,0,1,1-2.585-2.472A2.528,2.528,0,0,1,444.72,135.282Z" transform="translate(-404.453 -132.81)" fill="#12263f"/>
      <path id="Trazado_116539" data-name="Trazado 116539" d="M444.72,135.282a2.586,2.586,0,1,1-2.585-2.472A2.528,2.528,0,0,1,444.72,135.282Z" transform="translate(-345.951 -132.81)" fill="#12263f"/>
      <path id="Trazado_99293" data-name="Trazado 99293" d="M453.166,135.282a2.586,2.586,0,1,1-2.582-2.472A2.528,2.528,0,0,1,453.166,135.282Z" transform="translate(-401.198 -132.81)" fill="#12263f"/>
    </g>
  </g>
  <g id="Grupo_1015138" data-name="Grupo 1015138" transform="translate(14.774 0)">
    <circle id="Elipse_8447" data-name="Elipse 8447" cx="62.08" cy="62.08" r="62.08" transform="translate(0)" fill="#fe7062"/>
    <circle id="Elipse_8448" data-name="Elipse 8448" cx="52.013" cy="52.013" r="52.013" transform="translate(10.067 10.067)" fill="#fff"/>
    <g id="Grupo_1019277" data-name="Grupo 1019277" transform="translate(24.654 26.371)">
      <g id="Grupo_1019277-2" data-name="Grupo 1019277" clip-path="url(#clip-path)">
        <path id="Trazado_735598" data-name="Trazado 735598" d="M0,2.866A3.858,3.858,0,0,1,2.732.124,5.037,5.037,0,0,1,3.86.01Q17.469,0,31.077.007A3.646,3.646,0,0,1,35,3.933q.02,8.108,0,16.216a3.714,3.714,0,0,1-4.026,4c-8.739.006-17.478-.035-26.217.028C2.495,24.19.815,23.547,0,21.31ZM2.424,9.722v.792q0,4.717,0,9.434c0,1.393.37,1.757,1.8,1.758q13.257,0,26.515,0c1.446,0,1.824-.374,1.825-1.808q0-4.717,0-9.434V9.722Zm.005-2.566H32.56c0-1.02,0-1.991,0-2.962,0-1.406-.368-1.766-1.782-1.766H4.208c-.191,0-.382-.01-.571.006a1.18,1.18,0,0,0-1.2,1.177c-.035,1.162-.01,2.325-.01,3.545" transform="translate(0 -0.004)" fill="#12263f"/>
        <path id="Trazado_735599" data-name="Trazado 735599" d="M254.034,250.483c-1.067,1.074-2.048,2.116-3.1,3.085a3.174,3.174,0,0,1-1.346.7c-1.221.3-2.462.535-3.7.75-1.058.184-1.689-.4-1.52-1.464.224-1.407.521-2.8.842-4.192a2.052,2.052,0,0,1,.571-.874c1.166-1.193,2.354-2.363,3.535-3.542,1.048-1.045,1.048-1.045.874-2.659-1.073,0-2.16,0-3.248,0-1.451,0-1.806-.355-1.808-1.815,0-1.906.019-3.813-.01-5.719a1.755,1.755,0,0,1,1.1-1.8c3.165-1.543,6.309-3.127,9.451-4.717a2.069,2.069,0,0,1,1.712-.121c1.955.669,3.925,1.293,5.874,1.98a.971.971,0,0,0,1.23-.308A20.172,20.172,0,0,1,266,228.266a3.613,3.613,0,0,1,5.224,4.991c-.563.645-1.221,1.207-1.785,1.85a.955.955,0,0,0-.188.777q1.357,4.206,2.79,8.388a2.408,2.408,0,0,0,.585.865q4.587,4.613,9.2,9.2c.983.983.985,1.477.008,2.454q-4.75,4.753-9.5,9.5c-.98.98-1.468.978-2.454-.007l-15.216-15.214c-.183-.183-.374-.357-.624-.6m8.7-8.516a3.251,3.251,0,0,1,.154,1.049c-.184,1.034-1.329,1.295-2.16.489-1.316-1.278-2.691-2.511-3.869-3.909a2.825,2.825,0,0,0-3.545-1.073c-.41.159-.637.246-.63.738.026,1.977-.007,3.954.03,5.931a1.48,1.48,0,0,0,.421.9c2.206,2.24,4.441,4.453,6.658,6.683.35.353.652.753,1,1.163,2.963-2.968,5.812-5.811,8.637-8.677a.883.883,0,0,0,.1-.74c-.568-1.788-1.171-3.565-1.765-5.344-.19-.568-.389-1.134-.583-1.7l-4.448,4.487M279.406,255.6l-8.322-8.311-8.31,8.305,8.323,8.314,8.308-8.309m-31.8-15.8h2.652c0-.357,0-.664,0-.971s-.009-.619,0-.928a1.338,1.338,0,0,1,1.238-1.48c.814-.166,1.639-.286,2.444-.488,1.308-.33,2.6-.684,3.362.72l4.549-4.476c-1.6-.536-3.238-1.093-4.882-1.617a1,1,0,0,0-.668.105q-4.15,2.054-8.281,4.147a.81.81,0,0,0-.4.568c-.034,1.45-.018,2.9-.018,4.422m13.251.335c2.853-2.832,5.7-5.64,8.519-8.472a1.147,1.147,0,0,0-.019-1.664,1.223,1.223,0,0,0-1.828.176q-4.1,4.084-8.18,8.184a.527.527,0,0,0-.082.141l1.589,1.635m-11.813,8.547,1.589,1.614,1.549-1.449-1.63-1.633-1.509,1.468M248.518,252l-1.117-1.318-.316,1.637,1.433-.319" transform="translate(-209.339 -194.66)" fill="#12263f"/>
        <path id="Trazado_735600" data-name="Trazado 735600" d="M46.891,176.838h2.429v.769q0,19.9.005,39.807a6.862,6.862,0,0,1-1.2,4.016h.928q19.69,0,39.379.009a4.46,4.46,0,0,0,3.051-.909l1.6,1.8a5.844,5.844,0,0,1-3.485,1.5c-.355.032-.714.021-1.071.021h-44.6c-.167,0-.333,0-.5,0a1.247,1.247,0,0,1-1.368-1.157,1.28,1.28,0,0,1,1.281-1.266c2.33-.254,3.548-1.651,3.549-4.091q0-19.761,0-39.521v-.979" transform="translate(-36.034 -151.505)" fill="#12263f"/>
        <path id="Trazado_735601" data-name="Trazado 735601" d="M281.641,2.422H261.176V.042c.212-.013.419-.038.626-.038q12.218,0,24.436,0a5.964,5.964,0,0,1,6.043,4.481,3.153,3.153,0,0,1,.1.341c.347,2-.024,2.436-2.057,2.437h-7.439V30.116h-2.437c-.011-.239-.033-.489-.033-.739q0-11.432,0-22.864a6.6,6.6,0,0,1,1.23-4.09m1.53,2.388h6.62a3.491,3.491,0,0,0-6.62,0" transform="translate(-223.761 0)" fill="#12263f"/>
        <path id="Trazado_735602" data-name="Trazado 735602" d="M284.811,48.04c-1.881,0-3.762,0-5.644,0-1.111,0-1.575-.446-1.578-1.548q-.012-5.679,0-11.359c0-1.113.442-1.572,1.551-1.575q5.715-.018,11.43,0c1.1,0,1.543.463,1.545,1.584q.012,5.644,0,11.287c0,1.184-.454,1.61-1.661,1.612q-2.822,0-5.644,0m4.8-11.978h-9.523V45.6h9.523Z" transform="translate(-237.818 -28.741)" fill="#12263f"/>
        <rect id="Rectángulo_352907" data-name="Rectángulo 352907" width="32.523" height="2.36" transform="translate(21.738 26.551)" fill="#12263f"/>
        <rect id="Rectángulo_352908" data-name="Rectángulo 352908" width="26.476" height="2.333" transform="translate(16.916 31.363)" fill="#12263f"/>
        <rect id="Rectángulo_352909" data-name="Rectángulo 352909" width="25.244" height="2.319" transform="translate(21.77 63.958)" fill="#12263f"/>
        <rect id="Rectángulo_352910" data-name="Rectángulo 352910" width="18.044" height="2.323" transform="translate(16.92 55.529)" fill="#12263f"/>
        <rect id="Rectángulo_352911" data-name="Rectángulo 352911" width="16.826" height="2.315" transform="translate(16.899 36.236)" fill="#12263f"/>
        <rect id="Rectángulo_352912" data-name="Rectángulo 352912" width="16.803" height="2.343" transform="translate(16.899 45.853)" fill="#12263f"/>
        <rect id="Rectángulo_352913" data-name="Rectángulo 352913" width="11.974" height="2.348" transform="translate(21.747 41.049)" fill="#12263f"/>
        <rect id="Rectángulo_352914" data-name="Rectángulo 352914" width="10.792" height="2.31" transform="translate(16.923 50.687)" fill="#12263f"/>
        <path id="Trazado_735603" data-name="Trazado 735603" d="M16.919,67.84H47.055v.742q0,4.717,0,9.434c0,1.435-.379,1.808-1.825,1.809q-13.257,0-26.514,0c-1.426,0-1.8-.364-1.8-1.758q0-4.717,0-9.434V67.84" transform="translate(-14.495 -58.122)" fill="#dee4f0"/>
        <path id="Trazado_735604" data-name="Trazado 735604" d="M16.9,21.639c0-1.22-.026-2.383.01-3.545a1.18,1.18,0,0,1,1.2-1.177c.189-.016.381-.006.571-.006h26.57c1.414,0,1.778.36,1.782,1.766,0,.971,0,1.942,0,2.962Z" transform="translate(-14.473 -14.486)" fill="#ffca28"/>
        <path id="Trazado_735606" data-name="Trazado 735606" d="M389.637,375.687,381.329,384l-8.323-8.314,8.31-8.306,8.322,8.311" transform="translate(-319.571 -314.747)" fill="#b0c0d2"/>
        <path id="Trazado_735608" data-name="Trazado 735608" d="M350.115,254.835l-1.59-1.635a.526.526,0,0,1,.082-.141q4.087-4.095,8.18-8.184a1.223,1.223,0,0,1,1.828-.176,1.147,1.147,0,0,1,.019,1.664c-2.822,2.832-5.666,5.64-8.519,8.472" transform="translate(-298.597 -209.358)" fill="#6f88da"/>
        <path id="Trazado_735609" data-name="Trazado 735609" d="M277.161,368.334l1.509-1.468,1.63,1.634-1.549,1.448-1.589-1.614" transform="translate(-237.456 -314.311)" fill="#6f88da"/>
        <path id="Trazado_735610" data-name="Trazado 735610" d="M264.921,392.4l-1.433.319.316-1.637,1.117,1.318" transform="translate(-225.742 -335.057)" fill="#ffca28"/>
        <path id="Trazado_735611" data-name="Trazado 735611" d="M414.71,19.325a3.491,3.491,0,0,1,6.62,0h-6.62Z" transform="translate(-355.301 -14.516)" fill="#12263f"/>
        <rect id="Rectángulo_352915" data-name="Rectángulo 352915" width="9.523" height="9.536" transform="translate(42.265 7.32)" fill="#4adbd1"/>
      </g>
    </g>
  </g>
</svg>
