<svg xmlns="http://www.w3.org/2000/svg" xmlns:xlink="http://www.w3.org/1999/xlink" width="74.387" height="171.237" viewBox="0 0 74.387 171.237">
  <defs>
    <clipPath id="clip-path">
      <rect id="Rectángulo_357351" data-name="Rectángulo 357351" width="41.74" height="39.978" fill="none"/>
    </clipPath>
    <clipPath id="clip-path-2">
      <rect id="Rectángulo_357346" data-name="Rectángulo 357346" width="43.456" height="34.746" transform="translate(0 0)" fill="none"/>
    </clipPath>
    <clipPath id="clip-path-3">
      <rect id="Rectángulo_357352" data-name="Rectángulo 357352" width="29.489" height="28.379" fill="none"/>
    </clipPath>
  </defs>
  <g id="Grupo_1022378" data-name="Grupo 1022378" transform="translate(12880.494 11993.711)">
    <g id="Grupo_1020465" data-name="Grupo 1020465" transform="translate(-13820.827 -11963)">
      <g id="Grupo_1020462" data-name="Grupo 1020462" transform="translate(951.252 100.548)">
        <g id="Grupo_1020446" data-name="Grupo 1020446" transform="translate(0 0)" clip-path="url(#clip-path)">
          <path id="Trazado_748110" data-name="Trazado 748110" d="M15.851.868C-11.042,7.927-1.049,46.181,25.89,39.11,52.782,32.051,42.788-6.2,15.851.868" transform="translate(0 0)" fill="#e6b046"/>
          <path id="Trazado_748111" data-name="Trazado 748111" d="M39.232,20.488c.292,6.956-3.665,14.095-13.132,16.579C3.747,42.935-4.55,11.184,17.768,5.327c.147-.038.293-.077.44-.108-20.9,5.9-12.909,35.931,8.4,30.336,8.694-2.282,12.554-8.672,12.62-15.067" transform="translate(-1.067 -1.207)" fill="#cca040"/>
          <path id="Trazado_748112" data-name="Trazado 748112" d="M21.788,10.74a.7.7,0,0,1,.866.456l.28,1.065a10.341,10.341,0,0,1,5.668.5c.311.118.5.239.568.506a.743.743,0,0,1-.582.863.771.771,0,0,1-.573-.048A8.989,8.989,0,0,0,23.2,13.5l1.956,7.453c4.646-.308,6.906.72,7.591,3.329.741,2.822-1.325,5.5-4.933,6.56l.545,2.076a.725.725,0,0,1-1.4.366l-.552-2.1a11.843,11.843,0,0,1-7.224-.864.7.7,0,0,1-.467-.475.755.755,0,0,1,.553-.856.8.8,0,0,1,.573.048,10.124,10.124,0,0,0,6.31.934l-1.992-7.588c-4.595.268-6.783-.723-7.482-3.386-.706-2.688,1.317-5.41,4.845-6.422l-.265-1.012a.7.7,0,0,1,.53-.823M23.8,21.025,21.9,13.756c-2.808.795-4.265,2.827-3.762,4.744.476,1.81,1.7,2.684,5.67,2.525m1.706,1.288,1.929,7.348c2.9-.817,4.382-2.857,3.851-4.881-.482-1.837-1.794-2.688-5.779-2.467" transform="translate(-3.824 -2.478)" fill="#cca040"/>
        </g>
      </g>
    </g>
    <g id="Grupo_1020469" data-name="Grupo 1020469" transform="translate(-12849.563 -11993.711)">
      <g id="Grupo_1020433" data-name="Grupo 1020433" clip-path="url(#clip-path-2)">
        <path id="Trazado_748055" data-name="Trazado 748055" d="M15.749,13.574c-.132.094-.268.185-.387.28l-2.847-4.8c.12-.1.255-.186.387-.281.309-.218.615-.43.921-.636A34.654,34.654,0,0,1,24,3.284q1.423,2.4,2.846,4.8A34.659,34.659,0,0,0,16.67,12.937c-.306.207-.612.418-.921.637" fill="#ffc727"/>
        <path id="Trazado_748056" data-name="Trazado 748056" d="M39.277,10.568c-1.714-2.893-6.339-4.12-12.429-2.479q-1.422-2.4-2.846-4.8c6.09-1.642,10.714-.415,12.428,2.479l2.847,4.8" fill="#ffc727"/>
        <path id="Trazado_748057" data-name="Trazado 748057" d="M34.723,6.418l2.847,4.8C35.093,7.043,26.285,6.49,15.881,13.5c-.173.116-.347.235-.52.355l-2.847-4.8c.174-.12.348-.239.52-.355,10.4-7.009,19.213-6.456,21.689-2.277" fill="#ffc727"/>
        <path id="Trazado_748058" data-name="Trazado 748058" d="M17.584,15.136l-.01.007-2.847-4.8.01-.007,2.847,4.8" fill="#ffc727"/>
        <path id="Trazado_748059" data-name="Trazado 748059" d="M15.639,10.184l2.847,4.805c-.138-.152-.554-.083-.9.147l-2.846-4.8c.347-.229.763-.3.9-.147" fill="#ffc727"/>
        <path id="Trazado_748060" data-name="Trazado 748060" d="M14.759,11.471l2.847,4.8-.4-.442-2.847-4.8Z" fill="#ffc727"/>
        <path id="Trazado_748061" data-name="Trazado 748061" d="M17.574,15.142c-.321.219-.488.5-.4.657l-2.847-4.8c-.092-.154.076-.438.4-.657l2.847,4.8" fill="#ffc727"/>
        <path id="Trazado_748062" data-name="Trazado 748062" d="M17.177,15.8,14.33,10.995a.2.2,0,0,0,.026.034l2.847,4.8a.21.21,0,0,1-.026-.033" fill="#ffc727"/>
        <path id="Trazado_748063" data-name="Trazado 748063" d="M16.062,10.646l2.847,4.805-.423-.463-2.847-4.8Z" fill="#ffc727"/>
        <path id="Trazado_748064" data-name="Trazado 748064" d="M17.606,16.275a15.046,15.046,0,0,0-2.548,2.131L12.211,13.6a15.044,15.044,0,0,1,2.548-2.13l2.847,4.8" fill="#ffc727"/>
        <path id="Trazado_748065" data-name="Trazado 748065" d="M14.791,18.04l-2.61-4.405.031-.033,2.846,4.8-.03.033c-.009-.014-.02-.033-.028-.047l-.029-.048-.058-.1-.122-.206" fill="#ffc727"/>
        <path id="Trazado_748066" data-name="Trazado 748066" d="M21.565,8.319l2.847,4.8a19.565,19.565,0,0,0-5.5,2.327l-2.847-4.805a19.594,19.594,0,0,1,5.5-2.327" fill="#ffc727"/>
        <path id="Trazado_748067" data-name="Trazado 748067" d="M25.028,13.144c-.1-.117-.3-.1-.617-.021l-2.847-4.8c.317-.079.513-.1.617.02l2.847,4.805" fill="#ffc727"/>
        <path id="Trazado_748068" data-name="Trazado 748068" d="M25.052,13.175a.226.226,0,0,0-.023-.031L22.182,8.339a.172.172,0,0,1,.023.032l2.847,4.8" fill="#ffc727"/>
        <path id="Trazado_748069" data-name="Trazado 748069" d="M21.2,9.32l2.847,4.805a16.868,16.868,0,0,0-4.7,1.9l-2.847-4.8a16.868,16.868,0,0,1,4.7-1.9" fill="#ffc727"/>
        <path id="Trazado_748070" data-name="Trazado 748070" d="M22.2,8.371l2.847,4.8c.1.17-.09.474-.434.706a1.452,1.452,0,0,1-.569.244L21.2,9.32a1.452,1.452,0,0,0,.569-.244c.344-.231.534-.536.434-.7" fill="#ffc727"/>
        <path id="Trazado_748071" data-name="Trazado 748071" d="M15.027,18.439a5.407,5.407,0,0,0-1.4,2.29l-2.847-4.8a5.409,5.409,0,0,1,1.4-2.291l2.847,4.8" fill="#ffc727"/>
        <path id="Trazado_748072" data-name="Trazado 748072" d="M13.583,20.664q-1.4-2.362-2.8-4.726l0-.013q1.425,2.4,2.847,4.8l0,.013c-.015-.026-.03-.052-.046-.078" fill="#ffc727"/>
        <path id="Trazado_748073" data-name="Trazado 748073" d="M15.134,20.985,12.287,16.18c-.526-.887.582-2.584,3.009-4.223l2.846,4.8c-2.426,1.639-3.534,3.336-3.008,4.223" fill="#ffc727"/>
        <path id="Trazado_748074" data-name="Trazado 748074" d="M13.629,20.743a1.522,1.522,0,0,0,.132,1.127l-2.847-4.8a1.526,1.526,0,0,1-.132-1.128q.911,1.536,1.82,3.072l.992,1.674c.012.02.031.035.035.059" fill="#ffc727"/>
        <path id="Trazado_748075" data-name="Trazado 748075" d="M15.3,11.957,18.2,15.129c-3.78,1.918-5.079,1.994-5.8,1.2-.767-.834.323-2.637,2.9-4.375" fill="#ffc727"/>
        <path id="Trazado_748076" data-name="Trazado 748076" d="M18.2,15.129l2.847,4.8-2.908-3.172-2.847-4.8Z" fill="#ffc727"/>
        <path id="Trazado_748077" data-name="Trazado 748077" d="M15.134,20.985,12.287,16.18a.908.908,0,0,0,.113.152c.725.791,2.024.716,5.8-1.2l2.847,4.8c-3.779,1.918-5.078,1.993-5.8,1.2a.9.9,0,0,1-.113-.151" fill="#ffc727"/>
        <path id="Trazado_748078" data-name="Trazado 748078" d="M19.486,14.467l2.847,4.8-2.985-3.249L16.5,11.217Z" fill="#ffc727"/>
        <path id="Trazado_748079" data-name="Trazado 748079" d="M27.119,17.238a23.681,23.681,0,0,0-4.786,2.033l-2.847-4.8a23.7,23.7,0,0,1,4.786-2.034l2.847,4.805" fill="#ffc727"/>
        <path id="Trazado_748080" data-name="Trazado 748080" d="M13.761,21.87l-2.847-4.805a1.238,1.238,0,0,0,.161.216c1.067,1.16,3.31.708,7.676-1.563L21.6,20.523c-4.366,2.27-6.609,2.723-7.676,1.563a1.317,1.317,0,0,1-.161-.216" fill="#ffc727"/>
        <path id="Trazado_748081" data-name="Trazado 748081" d="M27.259,17.2l-.14.035-2.847-4.805.14-.034,2.847,4.8" fill="#ffc727"/>
        <path id="Trazado_748082" data-name="Trazado 748082" d="M26.058,15.175,24.413,12.4a5.3,5.3,0,0,1,1.352-.169l2.846,4.8a5.342,5.342,0,0,0-1.351.169q-.6-1.014-1.2-2.028" fill="#ffc727"/>
        <path id="Trazado_748083" data-name="Trazado 748083" d="M25.934,13.769l2.847,4.8c-.736-.8-2.123-.669-5.907,1.291l-2.847-4.8c3.784-1.959,5.171-2.093,5.907-1.291" fill="#ffc727"/>
        <path id="Trazado_748084" data-name="Trazado 748084" d="M28.612,17.034l-2.847-4.805a1.972,1.972,0,0,1,1.487.6,1.378,1.378,0,0,1,.172.23l2.847,4.8a1.385,1.385,0,0,0-.172-.231,1.975,1.975,0,0,0-1.487-.594" fill="#ffc727"/>
        <path id="Trazado_748085" data-name="Trazado 748085" d="M26.054,13.931,28.9,18.736a1.028,1.028,0,0,0-.12-.162l-2.847-4.8a1.028,1.028,0,0,1,.12.162" fill="#ffc727"/>
        <path id="Trazado_748086" data-name="Trazado 748086" d="M15.608,21.415l2.847,4.8a1.514,1.514,0,0,0-.556.235L15.052,21.65a1.532,1.532,0,0,1,.556-.235" fill="#ffc727"/>
        <path id="Trazado_748087" data-name="Trazado 748087" d="M17.9,26.455c-.332.224-.518.544-.423.7l-2.847-4.805c-.095-.16.089-.478.418-.7l2.833,4.781-2.833-4.781.005,0L17.9,26.455" fill="#ffc727"/>
        <path id="Trazado_748088" data-name="Trazado 748088" d="M26.054,13.931,28.9,18.736c.552.932-.584,2.646-3.079,4.331l-2.846-4.8c2.494-1.685,3.63-3.4,3.078-4.332" fill="#ffc727"/>
        <path id="Trazado_748089" data-name="Trazado 748089" d="M22.976,18.263l2.847,4.8-2.949-3.2-2.847-4.8Z" fill="#ffc727"/>
        <path id="Trazado_748090" data-name="Trazado 748090" d="M21.786,19.03l2.847,4.8L21.6,20.522l-2.847-4.8Z" fill="#ffc727"/>
        <path id="Trazado_748091" data-name="Trazado 748091" d="M21.786,19.03l2.847,4.8a18.472,18.472,0,0,1-6.178,2.385l-2.847-4.805a18.49,18.49,0,0,0,6.178-2.384" fill="#ffc727"/>
        <path id="Trazado_748092" data-name="Trazado 748092" d="M27.424,13.055l2.847,4.8c.764,1.29-.816,3.574-3.921,5.7L23.5,18.751c3.1-2.123,4.685-4.406,3.921-5.7" fill="#ffc727"/>
        <path id="Trazado_748093" data-name="Trazado 748093" d="M17.476,27.159l-2.847-4.8a.164.164,0,0,0,.02.026c.1.108.269.1.52.048a21.978,21.978,0,0,0,7.043-2.842l2.847,4.8a21.955,21.955,0,0,1-7.043,2.842c-.251.054-.425.061-.52-.047a.135.135,0,0,1-.02-.027" fill="#ffc727"/>
        <path id="Trazado_748094" data-name="Trazado 748094" d="M24.339,19.654l2.847,4.8-.836-.9-2.847-4.8Z" fill="#ffc727"/>
        <path id="Trazado_748095" data-name="Trazado 748095" d="M24.36,19.683l2.847,4.805a.154.154,0,0,0-.021-.029l-2.847-4.805a.194.194,0,0,1,.021.029" fill="#ffc727"/>
        <path id="Trazado_748096" data-name="Trazado 748096" d="M23.059,20.5l2.847,4.8-.847-.914-2.847-4.805Z" fill="#ffc727"/>
        <path id="Trazado_748097" data-name="Trazado 748097" d="M24.36,19.683l2.847,4.805c.095.16-.082.457-.406.675l-2.847-4.8c.324-.218.5-.516.406-.676" fill="#ffc727"/>
        <path id="Trazado_748098" data-name="Trazado 748098" d="M23.954,20.359l2.847,4.8c-.348.23-.757.3-.9.143l-2.847-4.8c.138.151.547.086.9-.143" fill="#ffc727"/>
        <path id="Trazado_748099" data-name="Trazado 748099" d="M39.737,3.872l2.847,4.805c2.462,4.154-.058,11.161-10.505,18.57-.371.262-.742.519-1.109.766C17.9,36.82,6.83,36.124,3.719,30.874L.873,26.069c3.111,5.25,14.176,5.946,27.25-2.86.367-.248.739-.5,1.109-.767C39.679,15.034,42.2,8.027,39.737,3.872" fill="#cca040"/>
        <path id="Trazado_748100" data-name="Trazado 748100" d="M12.488,6.734C35.907-9.043,52.881,5.673,29.231,22.442c-.37.263-.741.519-1.109.767C4.7,38.984-12.274,24.268,11.378,7.5c.372-.263.742-.52,1.11-.767M27.715,21.169C47.337,7.259,33.25-4.952,13.823,8.133q-.461.309-.92.636c-.134.094-.269.185-.389.281q.261-.182.519-.356C31.674-3.862,45.19,7.851,26.354,21.2c-.293.209-.588.411-.878.608-7.4,4.984-14.005,6.151-18.079,4.9,4.186,1.6,11.326.531,19.388-4.9.309-.208.618-.422.93-.643m-12.663.481c-.352.237-.54.582-.4.732.1.108.269.1.52.047a21.955,21.955,0,0,0,7.043-2.842l.847.914c.139.152.547.087.894-.142s.523-.554.386-.7l-.837-.9c3.3-2.256,4.877-4.694,3.75-5.927-1.047-1.14-3.364-.671-7.766,1.643L16.5,11.217a16.868,16.868,0,0,1,4.7-1.9,1.42,1.42,0,0,0,.555-.235c.381-.256.573-.585.424-.746-.1-.116-.3-.1-.617-.02a19.606,19.606,0,0,0-5.5,2.327l-.423-.462c-.139-.151-.555-.082-.9.147s-.524.552-.382.7l.4.443C11.53,13.661,10,16.11,11.075,17.282s3.31.707,7.676-1.564l3.035,3.312a18.464,18.464,0,0,1-6.178,2.385,1.525,1.525,0,0,0-.556.235" fill="#e6b046"/>
        <path id="Trazado_748101" data-name="Trazado 748101" d="M25.934,13.769c.806.885-.311,2.706-2.958,4.494l-2.949-3.2c3.784-1.959,5.171-2.093,5.907-1.291" fill="#ffc727"/>
        <path id="Trazado_748102" data-name="Trazado 748102" d="M19.486,14.467c4.4-2.314,6.72-2.783,7.766-1.643,1.128,1.233-.45,3.67-3.749,5.926l.836.9c.138.152-.04.473-.385.7s-.757.294-.9.143l-.847-.915a21.958,21.958,0,0,1-7.043,2.843c-.251.054-.424.06-.52-.048-.136-.15.052-.494.393-.724a1.538,1.538,0,0,1,.566-.243,18.5,18.5,0,0,0,6.179-2.384l-3.035-3.312c-4.366,2.27-6.61,2.723-7.676,1.563s.454-3.621,3.684-5.811l-.4-.442c-.143-.145.03-.46.369-.689.36-.238.776-.307.914-.156l.423.463a19.565,19.565,0,0,1,5.5-2.327c.316-.079.513-.1.617.02.147.161-.045.49-.411.737a1.452,1.452,0,0,1-.569.244,16.874,16.874,0,0,0-4.7,1.9Zm6.448-.7c-.736-.8-2.123-.668-5.907,1.291l2.949,3.2c2.647-1.788,3.764-3.609,2.958-4.493m-7.73,1.36L15.3,11.957c-2.573,1.738-3.663,3.54-2.895,4.374.724.791,2.024.716,5.8-1.2" fill="#cca040"/>
        <path id="Trazado_748103" data-name="Trazado 748103" d="M25.934,13.769c-.736-.8-2.123-.668-5.907,1.291l2.949,3.2c2.647-1.788,3.764-3.609,2.958-4.493m-7.73,1.36L15.3,11.957c-2.573,1.738-3.663,3.54-2.895,4.374.724.791,2.024.716,5.8-1.2" fill="#e6b046"/>
        <path id="Trazado_748104" data-name="Trazado 748104" d="M13.823,8.133C33.25-4.952,47.337,7.259,27.715,21.169c-.312.221-.621.435-.93.643-8.061,5.43-15.2,6.5-19.388,4.9,4.074,1.252,10.678.085,18.078-4.9q.438-.3.879-.608c18.837-13.353,5.32-25.066-13.32-12.51-.172.116-.346.235-.519.356.12-.1.255-.187.387-.281.309-.218.615-.43.921-.636" fill="#cca040"/>
      </g>
    </g>
    <g id="Grupo_1020470" data-name="Grupo 1020470" transform="translate(-12880.494 -11896.31)">
      <g id="Grupo_1020448" data-name="Grupo 1020448" transform="translate(0 0)" clip-path="url(#clip-path-3)">
        <path id="Trazado_748113" data-name="Trazado 748113" d="M18.223.689c18.588,3.336,13.679,30.872-4.94,27.53C-5.3,24.884-.394-2.651,18.223.689" transform="translate(-0.459 -0.12)" fill="#cca040"/>
        <path id="Trazado_748114" data-name="Trazado 748114" d="M16.02.255c17.715,3.179,12.8,30.714-4.94,27.53C-6.634,24.607-1.724-2.928,16.02.255" transform="translate(0 0)" fill="#e6b046"/>
        <path id="Trazado_748115" data-name="Trazado 748115" d="M3.279,15.73a10.69,10.69,0,0,0,9.187,10.778c14.724,2.642,18.8-20.212,4.1-22.85-.1-.018-.193-.035-.29-.047C30.062,6.372,26.112,28,12.072,25.48A10.221,10.221,0,0,1,3.279,15.73" transform="translate(-0.964 -1.062)" fill="#cca040"/>
        <path id="Trazado_748116" data-name="Trazado 748116" d="M17.636,6.517a.474.474,0,0,1,.373.545l-.143.766A6.348,6.348,0,0,1,21.025,9.8a.544.544,0,0,1,.186.491.5.5,0,0,1-.587.385.48.48,0,0,1-.32-.2A5.546,5.546,0,0,0,17.664,8.7l-1,5.36c2.795,1.154,3.817,2.474,3.468,4.35-.378,2.029-2.349,3.146-4.756,2.778L15.1,22.682a.467.467,0,1,1-.918-.171L14.464,21A7.32,7.32,0,0,1,10.5,18.34a.49.49,0,0,1,.431-.83.49.49,0,0,1,.32.2,6.291,6.291,0,0,0,3.408,2.438l1.017-5.456c-2.754-1.166-3.744-2.44-3.388-4.354C12.65,8.4,14.61,7.241,16.956,7.619l.136-.728a.474.474,0,0,1,.545-.374m-1.776,7.2.974-5.225c-1.864-.308-3.3.574-3.552,1.953-.243,1.3.22,2.22,2.579,3.273m.625,1.324L15.5,20.32c1.922.318,3.372-.561,3.643-2.015.246-1.322-.274-2.25-2.659-3.269" transform="translate(-3.046 -1.914)" fill="#cca040"/>
      </g>
    </g>
  </g>
</svg>
