<svg id="Grupo_1020466" data-name="Grupo 1020466" xmlns="http://www.w3.org/2000/svg" xmlns:xlink="http://www.w3.org/1999/xlink" width="46.492" height="45.077" viewBox="0 0 46.492 45.077">
  <defs>
    <clipPath id="clip-path">
      <rect id="Rectángulo_357350" data-name="Rectángulo 357350" width="46.492" height="45.078" fill="none"/>
    </clipPath>
    <clipPath id="clip-path-2">
      <rect id="Rectángulo_357349" data-name="Rectángulo 357349" width="46.492" height="45.078" transform="translate(0 0)" fill="none"/>
    </clipPath>
    <clipPath id="clip-path-3">
      <rect id="Rectángulo_357347" data-name="Rectángulo 357347" width="35.54" height="36.087" transform="translate(3.653 4.399)" fill="none"/>
    </clipPath>
    <clipPath id="clip-path-4">
      <rect id="Rectángulo_357348" data-name="Rectángulo 357348" width="18.794" height="25.072" transform="translate(10.976 8.873)" fill="none"/>
    </clipPath>
  </defs>
  <g id="Grupo_1020443" data-name="Grupo 1020443" clip-path="url(#clip-path)">
    <g id="Grupo_1020442" data-name="Grupo 1020442">
      <g id="Grupo_1020441" data-name="Grupo 1020441" clip-path="url(#clip-path-2)">
        <path id="Trazado_748105" data-name="Trazado 748105" d="M30,1.652C58.647,9.6,46.915,52.053,18.217,44.087-10.433,36.135,1.3-6.314,30,1.652" fill="#ffc727"/>
        <path id="Trazado_748106" data-name="Trazado 748106" d="M30,1.652C58.647,9.6,46.915,52.053,18.217,44.087-10.433,36.135,1.3-6.314,30,1.652" fill="#cca040"/>
        <path id="Trazado_748107" data-name="Trazado 748107" d="M27.306.9C54.612,8.484,42.877,50.932,15.527,43.34-11.778,35.761-.043-6.687,27.306.9" fill="#e6b046"/>
        <g id="Grupo_1020437" data-name="Grupo 1020437" opacity="0.1">
          <g id="Grupo_1020436" data-name="Grupo 1020436">
            <g id="Grupo_1020435" data-name="Grupo 1020435" clip-path="url(#clip-path-3)">
              <path id="Trazado_748108" data-name="Trazado 748108" d="M3.708,21.491c-.57,7.7,3.211,15.575,12.823,18.243,22.7,6.3,32.437-28.931,9.777-35.221-.148-.041-.3-.082-.448-.115,21.208,6.348,11.845,39.673-9.8,33.666C7.238,35.614,3.528,28.571,3.708,21.491"/>
            </g>
          </g>
        </g>
        <g id="Grupo_1020440" data-name="Grupo 1020440" opacity="0.1">
          <g id="Grupo_1020439" data-name="Grupo 1020439">
            <g id="Grupo_1020438" data-name="Grupo 1020438" clip-path="url(#clip-path-4)">
              <path id="Trazado_748109" data-name="Trazado 748109" d="M25.073,8.913a.746.746,0,0,1,.451.938l-.407,1.157a10,10,0,0,1,4.438,3.833.852.852,0,0,1,.171.808.784.784,0,0,1-1.006.458.743.743,0,0,1-.449-.385,8.735,8.735,0,0,0-3.679-3.4l-2.844,8.1c4.072,2.47,5.344,4.769,4.349,7.6-1.077,3.066-4.413,4.331-8.069,3.178l-.793,2.256a.736.736,0,0,1-1.388-.488l.8-2.285a11.522,11.522,0,0,1-5.523-5.091A.773.773,0,0,1,12,24.4a.778.778,0,0,1,.45.386A9.9,9.9,0,0,0,17.164,29.4l2.9-8.244c-4-2.478-5.239-4.7-4.223-7.591,1.026-2.922,4.354-4.256,7.913-3.1l.386-1.1a.747.747,0,0,1,.938-.45m-4.5,10.769,2.773-7.9c-2.826-.927-5.266.1-6,2.183-.691,1.967-.192,3.507,3.225,5.714m.653,2.211-2.8,7.984c2.914.958,5.383-.06,6.155-2.258.7-2,.115-3.567-3.351-5.726"/>
            </g>
          </g>
        </g>
      </g>
    </g>
  </g>
</svg>
