<svg xmlns="http://www.w3.org/2000/svg" xmlns:xlink="http://www.w3.org/1999/xlink" width="122.373" height="122.373" viewBox="0 0 122.373 122.373">
  <defs>
    <clipPath id="clip-path">
      <rect id="Rectángulo_357848" data-name="Rectángulo 357848" width="62.625" height="81.391" fill="#12263f"/>
    </clipPath>
  </defs>
  <g id="Grupo_1022378" data-name="Grupo 1022378" transform="translate(5683.187 821.186)">
    <g id="Grupo_1021488" data-name="Grupo 1021488" transform="translate(-5683.187 -821.186)">
      <circle id="Elipse_8447" data-name="Elipse 8447" cx="61.186" cy="61.186" r="61.186" transform="translate(0 0)" fill="#e6b046"/>
      <circle id="Elipse_8448" data-name="Elipse 8448" cx="51.264" cy="51.264" r="51.264" transform="translate(9.922 9.922)" fill="#fff"/>
    </g>
    <g id="Grupo_1021490" data-name="Grupo 1021490" transform="translate(-5653.313 -800.129)">
      <g id="Grupo_1021489" data-name="Grupo 1021489" clip-path="url(#clip-path)">
        <path id="Trazado_750053" data-name="Trazado 750053" d="M29.876,81.391c-1.053-.206-2.119-.361-3.156-.627a18.616,18.616,0,0,1-7.313-3.883C15.674,73.774,13.191,69.742,11,65.5c-.8-1.542-1.582-3.1-2.224-4.71a17.549,17.549,0,0,1-.991-6.446c0-.339,0-.678,0-.85a15.71,15.71,0,0,1-3.143-1.019A5.769,5.769,0,0,1,2.093,48.12c-.43-2.623-.622-5.284-1.011-7.915-.16-1.08-.63-2.111-.852-3.186-.331-1.6-.5-3.2.857-4.51a4.072,4.072,0,0,1,2.777-1.165c.575-.019.671-.253.749-.746.538-3.426,1-6.871,1.708-10.262a21.258,21.258,0,0,1,4.421-8.564A33.247,33.247,0,0,1,20.833,3.1,21.288,21.288,0,0,1,29.905.128,2.137,2.137,0,0,0,30.353,0h2.067c1.359.274,2.743.459,4.071.84a28.059,28.059,0,0,1,9.547,5.1A32.373,32.373,0,0,1,54.113,15.1a21.7,21.7,0,0,1,2.785,8c.371,2.6.758,5.2,1.143,7.8a2.271,2.271,0,0,0,.134.388,4.586,4.586,0,0,1,3.5,1.389,3.352,3.352,0,0,1,.925,2.681,14.911,14.911,0,0,1-.637,3.163c-.626,1.755-.467,3.6-.786,5.375a54.968,54.968,0,0,1-1.274,6.07,4.494,4.494,0,0,1-4.611,3.287c-.21.005-.42,0-.723,0-.02.311-.061.591-.053.87a21.21,21.21,0,0,1-2.259,9.748,45.2,45.2,0,0,1-5.725,9.615,20.567,20.567,0,0,1-11.4,7.488c-.789.182-1.6.283-2.4.421ZM46.349,36.74c.155.11.356.235.537.384A7.489,7.489,0,0,1,49.242,40.8c.082.263.381.663.558.653.541-.032,1.212.379,1.6-.412.585-1.177,1.248-2.316,1.846-3.487a1.745,1.745,0,0,0,.144-.836c-.042-.951-.132-1.9-.186-2.85-.2-3.616-.463-7.231-.571-10.85a18.051,18.051,0,0,0-.85-5.523,13.455,13.455,0,0,0-4.922-6.889,3.035,3.035,0,0,0-3.652-.082c-1.779,1.069-3.568,2.142-5.437,3.035a14.322,14.322,0,0,1-13.164-.143c-1.621-.811-3.182-1.753-4.716-2.721a3.5,3.5,0,0,0-4.49.138,13.309,13.309,0,0,0-5.029,8.506c-.474,2.881-.5,5.838-.687,8.764-.17,2.613-.308,5.228-.433,7.843a3.679,3.679,0,0,0,.135,1.62,38.939,38.939,0,0,0,1.865,3.48,1.02,1.02,0,0,0,.709.427c1.215.081,1.213.058,1.549-1.067a2.318,2.318,0,0,1,.264-.657c.752-1.089,1.524-2.164,2.242-3.177l-2.869-2.018.116-.246c1.491-.159,2.979-.363,4.474-.467a14.615,14.615,0,0,1,7.443,1.372c.235.112.547.487.509.674-.206,1,.437,1.562.935,2.263.655.923,1.156,1.955,1.737,2.965a7.511,7.511,0,0,1,6.058.083,8.318,8.318,0,0,1,2.294-3.977.914.914,0,0,0,.171-.682,1.3,1.3,0,0,1,.944-1.564c3.792-1.521,7.637-1.4,11.776-.507L46.349,36.74m3.506,6.325A27.97,27.97,0,0,1,48.4,46.89,7.479,7.479,0,0,1,38.477,49.7a7.68,7.68,0,0,1-4.2-6.3c-.025-.256-.134-.647-.311-.722a6.126,6.126,0,0,0-5.054-.078,1.428,1.428,0,0,0-.576.812A21.528,21.528,0,0,1,27.3,46.594a7.165,7.165,0,0,1-6.024,3.927,7.145,7.145,0,0,1-7.062-3.64,24.152,24.152,0,0,1-1.472-3.82,4.51,4.51,0,0,1-1.832-.056c-.57-.252-.939-.957-1.363-1.427a2.214,2.214,0,0,0,0,.448c.627,3.574,1.269,7.146,1.891,10.721a5.33,5.33,0,0,0,2.37,4.078,3.708,3.708,0,0,1,.911.621,4.232,4.232,0,0,1,.946,1.368c.36,1.094.52,2.252.866,3.351A29.88,29.88,0,0,0,17.859,65.6a1.492,1.492,0,0,0,.974.63c.126.028.472-.5.558-.821A16.5,16.5,0,0,0,20,62.564a3.109,3.109,0,0,1,2.219-2.845,13.384,13.384,0,0,1,5.126-.778,1.876,1.876,0,0,1,1.568,1.028,2.7,2.7,0,0,0,4.655.072,2.513,2.513,0,0,1,1.4-1.021A10.48,10.48,0,0,1,41.239,60.2a2.135,2.135,0,0,1,1.207,1.635,24.359,24.359,0,0,0,.612,2.932c.153.538.446,1.393.785,1.449.778.13,1.115-.685,1.323-1.324.561-1.719,1.133-3.442,1.537-5.2a3.969,3.969,0,0,1,1.926-2.78,4.559,4.559,0,0,0,2.349-3.2c.555-3.078,1.2-6.14,1.781-9.213.205-1.088.33-2.192.491-3.288l-.174-.171c-.387,2.053-1.77,2.309-3.221,2.034M24.883,67.917a4.878,4.878,0,0,1,1.043-.18,11.033,11.033,0,0,1,1.714.237,13.289,13.289,0,0,0,6.253.231,18.238,18.238,0,0,1,2.956-.465c.756-.064.9.181.651.883-.336.938-.745,1.851-1.044,2.8a1.08,1.08,0,0,0,1.078,1.521,7.829,7.829,0,0,0,2.106-.251,2.061,2.061,0,0,0,1.7-2.233,8.328,8.328,0,0,0-1.614-4.941,2.216,2.216,0,0,0-2.264-1.13c-1.1.118-2.195.3-3.3.387a34.269,34.269,0,0,1-4.234.215,47.379,47.379,0,0,1-4.784-.566,2.721,2.721,0,0,0-3.089,1.23,13.029,13.029,0,0,0-1.364,3.4,2.828,2.828,0,0,0,1.682,3.453,9.52,9.52,0,0,0,2.784.427c.965.021,1.4-.691,1.073-1.615-.388-1.084-.847-2.144-1.353-3.407M41.95,48.975a6.132,6.132,0,0,0,5.679-8.324C46.868,38.7,44.8,36.62,42.2,37.066c-1.06.182-2.105.452-3.152.7a2.38,2.38,0,0,0-.931.351,6,6,0,0,0-1.877,6.966,6.189,6.189,0,0,0,5.71,3.888m-20.634,0a5.771,5.771,0,0,0,4.848-3.486,5.748,5.748,0,0,0-.489-6.132,4.643,4.643,0,0,0-1.693-1.484,9.113,9.113,0,0,0-2.44-.6,5.506,5.506,0,0,0-3.342.014,6.048,6.048,0,0,0-3.487,6.762c.635,2.949,3.019,4.922,6.6,4.923m33.621.993c1.211.233,1.621.153,1.98-.836a22.557,22.557,0,0,0,1.071-4.087c.272-1.688.273-3.419.525-5.111.188-1.262.707-2.478.866-3.742.21-1.675.269-1.67-1.383-1.721-.725-.022-1.123.446-1.238,1.548a7.351,7.351,0,0,0,.021,1.74A15.79,15.79,0,0,1,56.6,43.58c-.507,2.138-1.1,4.256-1.66,6.389M7.41,49.961c-.4-1.41-.748-2.826-1.195-4.212a14.757,14.757,0,0,1-.545-8.144A8.417,8.417,0,0,0,5.6,34.98a.726.726,0,0,0-.5-.486,4.119,4.119,0,0,0-1.415.056.823.823,0,0,0-.494.6,4.932,4.932,0,0,0,.179,1.872c1.011,2.557.781,5.291,1.246,7.92a34.153,34.153,0,0,0,1.169,4.38c.2.63.758.916,1.622.633" transform="translate(0)" fill="#12263f"/>
        <path id="Trazado_750061" data-name="Trazado 750061" d="M244.465,240.259c-.278.763-.434,1.406.267,1.878a1.663,1.663,0,0,0,2-.009,1.2,1.2,0,0,0,.39-1.669,1.3,1.3,0,0,1,1.2,1.762c-.343,1.437-1.032,2.454-2.619,2.639a2.716,2.716,0,0,1-2.965-1.714c-.356-1.135.254-2.2,1.729-2.886" transform="translate(-204.066 -202.066)" fill="#12263f"/>
        <path id="Trazado_750062" data-name="Trazado 750062" d="M119.014,240.179c1.831.886,2.355,2.4,1.3,3.658a2.734,2.734,0,0,1-2.863.911,2.543,2.543,0,0,1-2.078-1.929c-.045-.18-.09-.36-.148-.536-.337-1.022-.027-1.6,1.134-1.965a1.3,1.3,0,0,0,.53,1.843,1.654,1.654,0,0,0,1.931-.141c.631-.47.462-1.1.193-1.841" transform="translate(-96.802 -201.998)" fill="#12263f"/>
      </g>
    </g>
  </g>
</svg>
