<svg xmlns="http://www.w3.org/2000/svg" xmlns:xlink="http://www.w3.org/1999/xlink" width="825" height="205.374" viewBox="0 0 825 205.374">
  <defs>
    <filter id="Trazado_749378" x="98.794" y="92.603" width="57.101" height="52.312" filterUnits="userSpaceOnUse">
      <feOffset dx="3" dy="3" input="SourceAlpha"/>
      <feGaussianBlur stdDeviation="3" result="blur"/>
      <feFlood flood-opacity="0.161"/>
      <feComposite operator="in" in2="blur"/>
      <feComposite in="SourceGraphic"/>
    </filter>
    <filter id="Trazado_749402" x="677.917" y="120.031" width="57.101" height="52.312" filterUnits="userSpaceOnUse">
      <feOffset dx="3" dy="3" input="SourceAlpha"/>
      <feGaussianBlur stdDeviation="3" result="blur-2"/>
      <feFlood flood-opacity="0.161"/>
      <feComposite operator="in" in2="blur-2"/>
      <feComposite in="SourceGraphic"/>
    </filter>
    <filter id="Trazado_749389" x="398.341" y="92.603" width="57.101" height="52.312" filterUnits="userSpaceOnUse">
      <feOffset dx="3" dy="3" input="SourceAlpha"/>
      <feGaussianBlur stdDeviation="3" result="blur-3"/>
      <feFlood flood-opacity="0.161"/>
      <feComposite operator="in" in2="blur-3"/>
      <feComposite in="SourceGraphic"/>
    </filter>
    <filter id="Trazado_749403" x="536.495" y="41.667" width="69.877" height="68.935" filterUnits="userSpaceOnUse">
      <feOffset dx="3" dy="3" input="SourceAlpha"/>
      <feGaussianBlur stdDeviation="3" result="blur-4"/>
      <feFlood flood-opacity="0.161"/>
      <feComposite operator="in" in2="blur-4"/>
      <feComposite in="SourceGraphic"/>
    </filter>
    <filter id="Trazado_749404" x="538.536" y="108.011" width="69.911" height="69.911" filterUnits="userSpaceOnUse">
      <feOffset dx="3" dy="3" input="SourceAlpha"/>
      <feGaussianBlur stdDeviation="3" result="blur-5"/>
      <feFlood flood-opacity="0.161"/>
      <feComposite operator="in" in2="blur-5"/>
      <feComposite in="SourceGraphic"/>
    </filter>
    <filter id="Trazado_749385" x="255.46" y="92.603" width="57.101" height="52.312" filterUnits="userSpaceOnUse">
      <feOffset dx="3" dy="3" input="SourceAlpha"/>
      <feGaussianBlur stdDeviation="3" result="blur-6"/>
      <feFlood flood-opacity="0.161"/>
      <feComposite operator="in" in2="blur-6"/>
      <feComposite in="SourceGraphic"/>
    </filter>
    <clipPath id="clip-path">
      <rect id="Rectángulo_357510" data-name="Rectángulo 357510" width="88.764" height="67.237" fill="#12263f"/>
    </clipPath>
    <clipPath id="clip-path-3">
      <rect id="Rectángulo_357511" data-name="Rectángulo 357511" width="74.629" height="74.617" fill="#12263f"/>
    </clipPath>
    <clipPath id="clip-path-4">
      <rect id="Rectángulo_357512" data-name="Rectángulo 357512" width="69.806" height="69.972" fill="#12263f"/>
    </clipPath>
    <clipPath id="clip-path-5">
      <rect id="Rectángulo_357513" data-name="Rectángulo 357513" width="80.83" height="72.993" fill="#12263f"/>
    </clipPath>
    <clipPath id="clip-path-6">
      <rect id="Rectángulo_357513-2" data-name="Rectángulo 357513" width="69.752" height="62.99" fill="#12263f"/>
    </clipPath>
    <clipPath id="clip-path-7">
      <rect id="Rectángulo_357514" data-name="Rectángulo 357514" width="69.419" height="53.223" fill="#12263f"/>
    </clipPath>
  </defs>
  <g id="Grupo_1022377" data-name="Grupo 1022377" transform="translate(-385 -4894.626)">
    <g transform="matrix(1, 0, 0, 1, 385, 4894.63)" filter="url(#Trazado_749378)">
      <g id="Trazado_749378-2" data-name="Trazado 749378" transform="translate(-103.71 93.39)" fill="#fff">
        <path d="M 232.8074493408203 38.52117919921875 C 232.7757568359375 38.52117919921875 232.7289733886719 38.51300048828125 232.6862182617188 38.47406005859375 C 232.6493225097656 38.4404296875 232.6277923583984 38.39183807373047 232.6275634765625 38.34112930297852 L 232.6275634765625 34.95929718017578 C 232.6275634765625 32.7103385925293 230.7978973388672 30.88066864013672 228.5489349365234 30.88066864013672 L 211.5786285400391 30.88066864013672 C 210.4324798583984 30.88066864013672 209.5000152587891 29.94819831848145 209.5000152587891 28.80203819274902 L 209.5000152587891 15.91286849975586 C 209.5000152587891 14.76670932769775 210.4324798583984 13.83423900604248 211.5786285400391 13.83423900604248 L 228.5438079833984 13.83423900604248 C 230.7927551269531 13.83423900604248 232.6224212646484 12.0045690536499 232.6224212646484 9.755608558654785 L 232.6224212646484 6.384519100189209 C 232.622802734375 6.2895188331604 232.7035675048828 6.208978652954102 232.8024444580078 6.208978652954102 C 232.8527679443359 6.209216594696045 232.9009399414062 6.230345726013184 232.9349365234375 6.267020702362061 L 245.9802398681641 20.74356842041016 C 246.8101501464844 21.666259765625 246.8101501464844 23.05890846252441 245.9796142578125 23.9822883605957 L 232.9402770996094 38.46306228637695 C 232.8960571289062 38.51107025146484 232.8436889648438 38.52117919921875 232.8074493408203 38.52117919921875 Z" stroke="none"/>
        <path d="M 233.6224212646484 8.523731231689453 L 233.6224212646484 9.755607604980469 C 233.6224212646484 12.55598068237305 231.3441619873047 14.83423805236816 228.5438079833984 14.83423805236816 L 211.5786285400391 14.83423805236816 C 210.9838714599609 14.83423805236816 210.5000152587891 15.3181095123291 210.5000152587891 15.91286849975586 L 210.5000152587891 28.80203819274902 C 210.5000152587891 29.39679908752441 210.9838714599609 29.88066864013672 211.5786285400391 29.88066864013672 L 228.5489349365234 29.88066864013672 C 231.3493041992188 29.88066864013672 233.6275634765625 32.15892791748047 233.6275634765625 34.95929718017578 L 233.6275634765625 36.20536041259766 L 245.2361145019531 23.31355857849121 C 245.7237396240234 22.77141952514648 245.7237396240234 21.95374870300293 245.2373657226562 21.41299819946289 L 233.6224212646484 8.523731231689453 M 232.8024444580078 5.208980560302734 C 232.8040313720703 5.208980560302734 232.8055877685547 5.208984375 232.8071746826172 5.208988189697266 C 233.1376647949219 5.210529327392578 233.4521789550781 5.350090026855469 233.6748809814453 5.594329833984375 L 246.7231140136719 20.07413864135742 C 247.8934936523438 21.37536811828613 247.8934936523438 23.34979820251465 246.7231140136719 24.65102958679199 L 233.6800079345703 39.13597869873047 C 233.2407684326172 39.6177864074707 232.4947052001953 39.65214157104492 232.012939453125 39.21344757080078 C 231.7686614990234 38.99076080322266 231.6291046142578 38.67621994018555 231.6275634765625 38.34578704833984 L 231.6275634765625 34.95929718017578 C 231.6275634765625 33.25888061523438 230.2493743896484 31.88066864013672 228.5489349365234 31.88066864013672 L 211.5786285400391 31.88066864013672 C 209.8782196044922 31.88066864013672 208.5000152587891 30.50246810913086 208.5000152587891 28.80203819274902 L 208.5000152587891 15.91286849975586 C 208.5000152587891 14.21243858337402 209.8782196044922 12.8342399597168 211.5786285400391 12.8342399597168 L 228.5438079833984 12.8342399597168 C 230.2442474365234 12.8342399597168 231.6224212646484 11.45603942871094 231.6224212646484 9.755607604980469 L 231.6224212646484 6.384510040283203 C 231.6250152587891 5.734458923339844 232.1530303955078 5.208999633789062 232.8024444580078 5.208980560302734 Z" stroke="none" fill="#12263f"/>
      </g>
    </g>
    <g transform="matrix(1, 0, 0, 1, 385, 4894.63)" filter="url(#Trazado_749402)">
      <g id="Trazado_749402-2" data-name="Trazado 749402" transform="translate(475.42 120.82)" fill="#fff">
        <path d="M 232.8074493408203 38.52117919921875 C 232.7757568359375 38.52117919921875 232.7289733886719 38.51300048828125 232.6862182617188 38.47406005859375 C 232.6493225097656 38.4404296875 232.6277923583984 38.39183807373047 232.6275634765625 38.34112930297852 L 232.6275634765625 34.95929718017578 C 232.6275634765625 32.7103385925293 230.7978973388672 30.88066864013672 228.5489349365234 30.88066864013672 L 211.5786285400391 30.88066864013672 C 210.4324798583984 30.88066864013672 209.5000152587891 29.94819831848145 209.5000152587891 28.80203819274902 L 209.5000152587891 15.91286849975586 C 209.5000152587891 14.76670932769775 210.4324798583984 13.83423900604248 211.5786285400391 13.83423900604248 L 228.5438079833984 13.83423900604248 C 230.7927551269531 13.83423900604248 232.6224212646484 12.0045690536499 232.6224212646484 9.755608558654785 L 232.6224212646484 6.384519100189209 C 232.622802734375 6.2895188331604 232.7035675048828 6.208978652954102 232.8024444580078 6.208978652954102 C 232.8527679443359 6.209216594696045 232.9009399414062 6.230345726013184 232.9349365234375 6.267020702362061 L 245.9802398681641 20.74356842041016 C 246.8101501464844 21.666259765625 246.8101501464844 23.05890846252441 245.9796142578125 23.9822883605957 L 232.9402770996094 38.46306228637695 C 232.8960571289062 38.51107025146484 232.8436889648438 38.52117919921875 232.8074493408203 38.52117919921875 Z" stroke="none"/>
        <path d="M 233.6224212646484 8.523731231689453 L 233.6224212646484 9.755607604980469 C 233.6224212646484 12.55598068237305 231.3441619873047 14.83423805236816 228.5438079833984 14.83423805236816 L 211.5786285400391 14.83423805236816 C 210.9838714599609 14.83423805236816 210.5000152587891 15.3181095123291 210.5000152587891 15.91286849975586 L 210.5000152587891 28.80203819274902 C 210.5000152587891 29.39679908752441 210.9838714599609 29.88066864013672 211.5786285400391 29.88066864013672 L 228.5489349365234 29.88066864013672 C 231.3493041992188 29.88066864013672 233.6275634765625 32.15892791748047 233.6275634765625 34.95929718017578 L 233.6275634765625 36.20536041259766 L 245.2361145019531 23.31355857849121 C 245.7237396240234 22.77141952514648 245.7237396240234 21.95374870300293 245.2373657226562 21.41299819946289 L 233.6224212646484 8.523731231689453 M 232.8024444580078 5.208980560302734 C 232.8040313720703 5.208980560302734 232.8055877685547 5.208984375 232.8071746826172 5.208988189697266 C 233.1376647949219 5.210529327392578 233.4521789550781 5.350090026855469 233.6748809814453 5.594329833984375 L 246.7231140136719 20.07413864135742 C 247.8934936523438 21.37536811828613 247.8934936523438 23.34979820251465 246.7231140136719 24.65102958679199 L 233.6800079345703 39.13597869873047 C 233.2407684326172 39.6177864074707 232.4947052001953 39.65214157104492 232.012939453125 39.21344757080078 C 231.7686614990234 38.99076080322266 231.6291046142578 38.67621994018555 231.6275634765625 38.34578704833984 L 231.6275634765625 34.95929718017578 C 231.6275634765625 33.25888061523438 230.2493743896484 31.88066864013672 228.5489349365234 31.88066864013672 L 211.5786285400391 31.88066864013672 C 209.8782196044922 31.88066864013672 208.5000152587891 30.50246810913086 208.5000152587891 28.80203819274902 L 208.5000152587891 15.91286849975586 C 208.5000152587891 14.21243858337402 209.8782196044922 12.8342399597168 211.5786285400391 12.8342399597168 L 228.5438079833984 12.8342399597168 C 230.2442474365234 12.8342399597168 231.6224212646484 11.45603942871094 231.6224212646484 9.755607604980469 L 231.6224212646484 6.384510040283203 C 231.6250152587891 5.734458923339844 232.1530303955078 5.208999633789062 232.8024444580078 5.208980560302734 Z" stroke="none" fill="#12263f"/>
      </g>
    </g>
    <g transform="matrix(1, 0, 0, 1, 385, 4894.63)" filter="url(#Trazado_749389)">
      <g id="Trazado_749389-2" data-name="Trazado 749389" transform="translate(195.84 93.39)" fill="#fff">
        <path d="M 232.8074493408203 38.52117919921875 C 232.7757568359375 38.52117919921875 232.7289733886719 38.51300048828125 232.6862182617188 38.47406005859375 C 232.6493225097656 38.4404296875 232.6277923583984 38.39183807373047 232.6275634765625 38.34112930297852 L 232.6275634765625 34.95929718017578 C 232.6275634765625 32.7103385925293 230.7978973388672 30.88066864013672 228.5489349365234 30.88066864013672 L 211.5786285400391 30.88066864013672 C 210.4324798583984 30.88066864013672 209.5000152587891 29.94819831848145 209.5000152587891 28.80203819274902 L 209.5000152587891 15.91286849975586 C 209.5000152587891 14.76670932769775 210.4324798583984 13.83423900604248 211.5786285400391 13.83423900604248 L 228.5438079833984 13.83423900604248 C 230.7927551269531 13.83423900604248 232.6224212646484 12.0045690536499 232.6224212646484 9.755608558654785 L 232.6224212646484 6.384519100189209 C 232.622802734375 6.2895188331604 232.7035675048828 6.208978652954102 232.8024444580078 6.208978652954102 C 232.8527679443359 6.209216594696045 232.9009399414062 6.230345726013184 232.9349365234375 6.267020702362061 L 245.9802398681641 20.74356842041016 C 246.8101501464844 21.666259765625 246.8101501464844 23.05890846252441 245.9796142578125 23.9822883605957 L 232.9402770996094 38.46306228637695 C 232.8960571289062 38.51107025146484 232.8436889648438 38.52117919921875 232.8074493408203 38.52117919921875 Z" stroke="none"/>
        <path d="M 233.6224212646484 8.523731231689453 L 233.6224212646484 9.755607604980469 C 233.6224212646484 12.55598068237305 231.3441619873047 14.83423805236816 228.5438079833984 14.83423805236816 L 211.5786285400391 14.83423805236816 C 210.9838714599609 14.83423805236816 210.5000152587891 15.3181095123291 210.5000152587891 15.91286849975586 L 210.5000152587891 28.80203819274902 C 210.5000152587891 29.39679908752441 210.9838714599609 29.88066864013672 211.5786285400391 29.88066864013672 L 228.5489349365234 29.88066864013672 C 231.3493041992188 29.88066864013672 233.6275634765625 32.15892791748047 233.6275634765625 34.95929718017578 L 233.6275634765625 36.20536041259766 L 245.2361145019531 23.31355857849121 C 245.7237396240234 22.77141952514648 245.7237396240234 21.95374870300293 245.2373657226562 21.41299819946289 L 233.6224212646484 8.523731231689453 M 232.8024444580078 5.208980560302734 C 232.8040313720703 5.208980560302734 232.8055877685547 5.208984375 232.8071746826172 5.208988189697266 C 233.1376647949219 5.210529327392578 233.4521789550781 5.350090026855469 233.6748809814453 5.594329833984375 L 246.7231140136719 20.07413864135742 C 247.8934936523438 21.37536811828613 247.8934936523438 23.34979820251465 246.7231140136719 24.65102958679199 L 233.6800079345703 39.13597869873047 C 233.2407684326172 39.6177864074707 232.4947052001953 39.65214157104492 232.012939453125 39.21344757080078 C 231.7686614990234 38.99076080322266 231.6291046142578 38.67621994018555 231.6275634765625 38.34578704833984 L 231.6275634765625 34.95929718017578 C 231.6275634765625 33.25888061523438 230.2493743896484 31.88066864013672 228.5489349365234 31.88066864013672 L 211.5786285400391 31.88066864013672 C 209.8782196044922 31.88066864013672 208.5000152587891 30.50246810913086 208.5000152587891 28.80203819274902 L 208.5000152587891 15.91286849975586 C 208.5000152587891 14.21243858337402 209.8782196044922 12.8342399597168 211.5786285400391 12.8342399597168 L 228.5438079833984 12.8342399597168 C 230.2442474365234 12.8342399597168 231.6224212646484 11.45603942871094 231.6224212646484 9.755607604980469 L 231.6224212646484 6.384510040283203 C 231.6250152587891 5.734458923339844 232.1530303955078 5.208999633789062 232.8024444580078 5.208980560302734 Z" stroke="none" fill="#12263f"/>
      </g>
    </g>
    <g transform="matrix(1, 0, 0, 1, 385, 4894.63)" filter="url(#Trazado_749403)">
      <g id="Trazado_749403-2" data-name="Trazado 749403" transform="matrix(0.8, -0.6, 0.6, 0.8, 542.5, 71.2)" fill="#fff">
        <path d="M 24.30743980407715 33.31218719482422 C 24.27573013305664 33.31218719482422 24.22896003723145 33.30401992797852 24.18618965148926 33.26506805419922 C 24.1493091583252 33.23144912719727 24.12777900695801 33.18285751342773 24.12753868103027 33.13214874267578 L 24.12755012512207 29.75031852722168 C 24.12755012512207 27.50135803222656 22.29787826538086 25.67168807983398 20.04891967773438 25.67168807983398 L 3.078609228134155 25.67168807983398 C 1.932459235191345 25.67168807983398 0.9999992251396179 24.73921775817871 0.9999992251396179 23.59305763244629 L 0.9999992251396179 10.70387840270996 C 0.9999992251396179 9.55772876739502 1.932459235191345 8.625258445739746 3.078609228134155 8.625258445739746 L 20.04378890991211 8.625258445739746 C 22.29274940490723 8.625258445739746 24.12240982055664 6.795588493347168 24.12240982055664 4.546628475189209 L 24.12240982055664 1.175538301467896 C 24.12279891967773 1.080528259277344 24.20354843139648 0.9999983310699463 24.30242919921875 0.9999983310699463 C 24.35274887084961 1.000235915184021 24.40092086791992 1.02136504650116 24.4349193572998 1.058040022850037 L 37.48022079467773 15.53458786010742 C 38.31013107299805 16.45727920532227 38.31013107299805 17.84992790222168 37.47959899902344 18.77330780029297 L 24.44026947021484 33.25406265258789 C 24.39603805541992 33.30207824707031 24.34367561340332 33.31218719482422 24.30743980407715 33.31218719482422 Z" stroke="none"/>
        <path d="M 25.12239837646484 3.314750671386719 L 25.12239837646484 4.546628952026367 C 25.12239837646484 7.34699821472168 22.84414863586426 9.62525749206543 20.04378890991211 9.62525749206543 L 3.078609466552734 9.62525749206543 C 2.483860015869141 9.62525749206543 2 10.10912895202637 2 10.70387840270996 L 2 23.59305953979492 C 2 24.18781852722168 2.483860015869141 24.67168807983398 3.078609466552734 24.67168807983398 L 20.04891967773438 24.67168807983398 C 22.84928894042969 24.67168807983398 25.12754821777344 26.94994735717773 25.12754821777344 29.75031852722168 L 25.12754821777344 30.99637031555176 L 36.73609924316406 18.10457801818848 C 37.22372817993164 17.56243896484375 37.22372817993164 16.7447681427002 36.73735046386719 16.20401763916016 L 25.12239837646484 3.314750671386719 M 24.30242729187012 0 C 24.30401611328125 0 24.30556869506836 3.814697265625e-06 24.30715942382812 7.62939453125e-06 C 24.63763809204102 0.00154876708984375 24.9521598815918 0.1411094665527344 25.17485809326172 0.3853492736816406 L 38.22309875488281 14.86515808105469 C 39.39347839355469 16.1663875579834 39.39347839355469 18.14081764221191 38.22309875488281 19.44204711914062 L 25.17998886108398 33.92698669433594 C 24.74077033996582 34.40878677368164 23.99470901489258 34.44316864013672 23.51292037963867 34.00446701049805 C 23.26865005493164 33.78177642822266 23.12908935546875 33.46723937988281 23.12755012512207 33.13680648803711 L 23.12755012512207 29.75031852722168 C 23.12755012512207 28.04989814758301 21.74934959411621 26.67168807983398 20.04891967773438 26.67168807983398 L 3.078609466552734 26.67168807983398 C 1.378200531005859 26.67168807983398 0 25.29348754882812 0 23.59305953979492 L 0 10.70387840270996 C 0 9.003448486328125 1.378200531005859 7.62525749206543 3.078609466552734 7.62525749206543 L 20.04378890991211 7.62525749206543 C 21.74423980712891 7.62525749206543 23.12239837646484 6.247058868408203 23.12239837646484 4.546628952026367 L 23.12239837646484 1.175529479980469 C 23.12499237060547 0.5254783630371094 23.65300941467285 1.9073486328125e-05 24.30242729187012 0 Z" stroke="none" fill="#12263f"/>
      </g>
    </g>
    <g transform="matrix(1, 0, 0, 1, 385, 4894.63)" filter="url(#Trazado_749404)">
      <g id="Trazado_749404-2" data-name="Trazado 749404" transform="translate(568.8 114.01) rotate(45)" fill="#fff">
        <path d="M 24.30743980407715 33.31218719482422 C 24.27573013305664 33.31218719482422 24.22896003723145 33.30401992797852 24.18618965148926 33.26506805419922 C 24.1493091583252 33.23144912719727 24.12777900695801 33.18285751342773 24.12753868103027 33.13214874267578 L 24.12755012512207 29.75031852722168 C 24.12755012512207 27.50135803222656 22.29787826538086 25.67168807983398 20.04891967773438 25.67168807983398 L 3.078609228134155 25.67168807983398 C 1.932459235191345 25.67168807983398 0.9999992251396179 24.73921775817871 0.9999992251396179 23.59305763244629 L 0.9999992251396179 10.70387840270996 C 0.9999992251396179 9.55772876739502 1.932459235191345 8.625258445739746 3.078609228134155 8.625258445739746 L 20.04378890991211 8.625258445739746 C 22.29274940490723 8.625258445739746 24.12240982055664 6.795588493347168 24.12240982055664 4.546628475189209 L 24.12240982055664 1.175538301467896 C 24.12279891967773 1.080528259277344 24.20354843139648 0.9999983310699463 24.30242919921875 0.9999983310699463 C 24.35274887084961 1.000235915184021 24.40092086791992 1.02136504650116 24.4349193572998 1.058040022850037 L 37.48022079467773 15.53458786010742 C 38.31013107299805 16.45727920532227 38.31013107299805 17.84992790222168 37.47959899902344 18.77330780029297 L 24.44026947021484 33.25406265258789 C 24.39603805541992 33.30207824707031 24.34367561340332 33.31218719482422 24.30743980407715 33.31218719482422 Z" stroke="none"/>
        <path d="M 25.12239837646484 3.314750671386719 L 25.12239837646484 4.546628952026367 C 25.12239837646484 7.34699821472168 22.84414863586426 9.62525749206543 20.04378890991211 9.62525749206543 L 3.078609466552734 9.62525749206543 C 2.483860015869141 9.62525749206543 2 10.10912895202637 2 10.70387840270996 L 2 23.59305953979492 C 2 24.18781852722168 2.483860015869141 24.67168807983398 3.078609466552734 24.67168807983398 L 20.04891967773438 24.67168807983398 C 22.84928894042969 24.67168807983398 25.12754821777344 26.94994735717773 25.12754821777344 29.75031852722168 L 25.12754821777344 30.99637031555176 L 36.73609924316406 18.10457801818848 C 37.22372817993164 17.56243896484375 37.22372817993164 16.7447681427002 36.73735046386719 16.20401763916016 L 25.12239837646484 3.314750671386719 M 24.30242729187012 0 C 24.30401611328125 0 24.30556869506836 3.814697265625e-06 24.30715942382812 7.62939453125e-06 C 24.63763809204102 0.00154876708984375 24.9521598815918 0.1411094665527344 25.17485809326172 0.3853492736816406 L 38.22309875488281 14.86515808105469 C 39.39347839355469 16.1663875579834 39.39347839355469 18.14081764221191 38.22309875488281 19.44204711914062 L 25.17998886108398 33.92698669433594 C 24.74077033996582 34.40878677368164 23.99470901489258 34.44316864013672 23.51292037963867 34.00446701049805 C 23.26865005493164 33.78177642822266 23.12908935546875 33.46723937988281 23.12755012512207 33.13680648803711 L 23.12755012512207 29.75031852722168 C 23.12755012512207 28.04989814758301 21.74934959411621 26.67168807983398 20.04891967773438 26.67168807983398 L 3.078609466552734 26.67168807983398 C 1.378200531005859 26.67168807983398 0 25.29348754882812 0 23.59305953979492 L 0 10.70387840270996 C 0 9.003448486328125 1.378200531005859 7.62525749206543 3.078609466552734 7.62525749206543 L 20.04378890991211 7.62525749206543 C 21.74423980712891 7.62525749206543 23.12239837646484 6.247058868408203 23.12239837646484 4.546628952026367 L 23.12239837646484 1.175529479980469 C 23.12499237060547 0.5254783630371094 23.65300941467285 1.9073486328125e-05 24.30242729187012 0 Z" stroke="none" fill="#12263f"/>
      </g>
    </g>
    <g transform="matrix(1, 0, 0, 1, 385, 4894.63)" filter="url(#Trazado_749385)">
      <g id="Trazado_749385-2" data-name="Trazado 749385" transform="translate(52.96 93.39)" fill="#fff">
        <path d="M 232.8074493408203 38.52117919921875 C 232.7757568359375 38.52117919921875 232.7289733886719 38.51300048828125 232.6862182617188 38.47406005859375 C 232.6493225097656 38.4404296875 232.6277923583984 38.39183807373047 232.6275634765625 38.34112930297852 L 232.6275634765625 34.95929718017578 C 232.6275634765625 32.7103385925293 230.7978973388672 30.88066864013672 228.5489349365234 30.88066864013672 L 211.5786285400391 30.88066864013672 C 210.4324798583984 30.88066864013672 209.5000152587891 29.94819831848145 209.5000152587891 28.80203819274902 L 209.5000152587891 15.91286849975586 C 209.5000152587891 14.76670932769775 210.4324798583984 13.83423900604248 211.5786285400391 13.83423900604248 L 228.5438079833984 13.83423900604248 C 230.7927551269531 13.83423900604248 232.6224212646484 12.0045690536499 232.6224212646484 9.755608558654785 L 232.6224212646484 6.384519100189209 C 232.622802734375 6.2895188331604 232.7035675048828 6.208978652954102 232.8024444580078 6.208978652954102 C 232.8527679443359 6.209216594696045 232.9009399414062 6.230345726013184 232.9349365234375 6.267020702362061 L 245.9802398681641 20.74356842041016 C 246.8101501464844 21.666259765625 246.8101501464844 23.05890846252441 245.9796142578125 23.9822883605957 L 232.9402770996094 38.46306228637695 C 232.8960571289062 38.51107025146484 232.8436889648438 38.52117919921875 232.8074493408203 38.52117919921875 Z" stroke="none"/>
        <path d="M 233.6224212646484 8.523731231689453 L 233.6224212646484 9.755607604980469 C 233.6224212646484 12.55598068237305 231.3441619873047 14.83423805236816 228.5438079833984 14.83423805236816 L 211.5786285400391 14.83423805236816 C 210.9838714599609 14.83423805236816 210.5000152587891 15.3181095123291 210.5000152587891 15.91286849975586 L 210.5000152587891 28.80203819274902 C 210.5000152587891 29.39679908752441 210.9838714599609 29.88066864013672 211.5786285400391 29.88066864013672 L 228.5489349365234 29.88066864013672 C 231.3493041992188 29.88066864013672 233.6275634765625 32.15892791748047 233.6275634765625 34.95929718017578 L 233.6275634765625 36.20536041259766 L 245.2361145019531 23.31355857849121 C 245.7237396240234 22.77141952514648 245.7237396240234 21.95374870300293 245.2373657226562 21.41299819946289 L 233.6224212646484 8.523731231689453 M 232.8024444580078 5.208980560302734 C 232.8040313720703 5.208980560302734 232.8055877685547 5.208984375 232.8071746826172 5.208988189697266 C 233.1376647949219 5.210529327392578 233.4521789550781 5.350090026855469 233.6748809814453 5.594329833984375 L 246.7231140136719 20.07413864135742 C 247.8934936523438 21.37536811828613 247.8934936523438 23.34979820251465 246.7231140136719 24.65102958679199 L 233.6800079345703 39.13597869873047 C 233.2407684326172 39.6177864074707 232.4947052001953 39.65214157104492 232.012939453125 39.21344757080078 C 231.7686614990234 38.99076080322266 231.6291046142578 38.67621994018555 231.6275634765625 38.34578704833984 L 231.6275634765625 34.95929718017578 C 231.6275634765625 33.25888061523438 230.2493743896484 31.88066864013672 228.5489349365234 31.88066864013672 L 211.5786285400391 31.88066864013672 C 209.8782196044922 31.88066864013672 208.5000152587891 30.50246810913086 208.5000152587891 28.80203819274902 L 208.5000152587891 15.91286849975586 C 208.5000152587891 14.21243858337402 209.8782196044922 12.8342399597168 211.5786285400391 12.8342399597168 L 228.5438079833984 12.8342399597168 C 230.2442474365234 12.8342399597168 231.6224212646484 11.45603942871094 231.6224212646484 9.755607604980469 L 231.6224212646484 6.384510040283203 C 231.6250152587891 5.734458923339844 232.1530303955078 5.208999633789062 232.8024444580078 5.208980560302734 Z" stroke="none" fill="#12263f"/>
      </g>
    </g>
    <g id="Grupo_1020854" data-name="Grupo 1020854" transform="translate(543.91 4976.767)" clip-path="url(#clip-path)">
      <path id="Trazado_749379" data-name="Trazado 749379" d="M88.764,34.156v23.2a.2.2,0,0,0-.033.056A1.529,1.529,0,0,1,87.05,58.66c-1.76-.012-3.52,0-5.279-.01-.24,0-.309.079-.348.3A9.759,9.759,0,0,1,78.3,64.613a9.988,9.988,0,0,1-6.783,2.62,8.44,8.44,0,0,1-2.749-.428,9.866,9.866,0,0,1-7.026-7.848c-.048-.23-.117-.307-.365-.307q-16.989.011-33.979.006c-.328,0-.325,0-.384.324a9.541,9.541,0,0,1-2.8,5.329,9.587,9.587,0,0,1-9.227,2.641A9.708,9.708,0,0,1,7.56,59.9c-.124-.4-.2-.82-.3-1.249h-.27q-2.718,0-5.436,0A1.383,1.383,0,0,1,.065,57.544,2.74,2.74,0,0,1,0,56.925q0-16.9,0-33.8Q0,14.207,0,5.288A5.109,5.109,0,0,1,.753,2.413,4.951,4.951,0,0,1,4.117.114C4.21.1,4.305.088,4.436.071L4.3,0H52.659c.13.031.258.072.39.092a4.638,4.638,0,0,1,2.107.865,5.076,5.076,0,0,1,2.11,4.3c.006,2.451,0,4.9,0,7.354v.266H74.143c.1,0,.194,0,.291,0a1.447,1.447,0,0,1,1.229.693c.847,1.332,1.7,2.658,2.557,3.986q4.179,6.5,8.353,13.005a26.6,26.6,0,0,1,2.192,3.593m-85.9,4.455H54.4v-.238q0-16.664,0-33.328a2.158,2.158,0,0,0-2.179-2.185q-23.565,0-47.131,0A2.207,2.207,0,0,0,2.852,5.092q.027,16.619.011,33.239ZM7.286,55.786c.033-.177.062-.33.091-.484a10.024,10.024,0,0,1,8.885-8.042,9.023,9.023,0,0,1,4.3.57,9.848,9.848,0,0,1,6.456,7.707c.038.2.107.263.316.263q13.41-.009,26.819-.005h.236V41.5H2.878V55.786Zm54.4,0c.031-.164.06-.317.089-.47a10.021,10.021,0,0,1,11.083-8.008,10.032,10.032,0,0,1,8.566,8.243c.032.185.1.253.3.252,1.32-.01,2.64-.005,3.959-.006.065,0,.129-.007.195-.011V47.211c-.91,0-1.8.005-2.7,0a4.156,4.156,0,0,1-1.619-.269,4.3,4.3,0,0,1-2.821-4.161,3.748,3.748,0,0,1,.755-2.25,4.135,4.135,0,0,1,3.184-1.863c.989-.057,1.982-.029,2.973-.038h.229V35.766H63.2a1.458,1.458,0,0,1-1.636-1.642V18.857c0-.074,0-.149,0-.223A1.376,1.376,0,0,1,62.825,17.2a3.391,3.391,0,0,1,.512-.036q5.491,0,10.983,0h.3c-.285-.44-.555-.839-.8-1.251a.328.328,0,0,0-.331-.183q-7.986.007-15.971,0h-.235V55.784ZM84.719,32.9a.732.732,0,0,0-.037-.087q-1.449-2.254-2.9-4.507-2.6-4.036-5.2-8.074a.387.387,0,0,0-.375-.205q-5.769.008-11.539,0h-.23V32.9ZM16.983,64.364a7.147,7.147,0,1,0-6.96-7.6,7.127,7.127,0,0,0,6.96,7.6m54.4,0a7.147,7.147,0,1,0-6.961-7.6,7.127,7.127,0,0,0,6.961,7.6m14.5-22.875c-.964,0-1.9-.007-2.841,0a1.425,1.425,0,0,0-.061,2.849c.953.026,1.908.005,2.862,0,.012,0,.024-.015.041-.026Z" transform="translate(0 0.001)" fill="#12263f"/>
      <path id="Trazado_749380" data-name="Trazado 749380" d="M206.747,250.2q-2.807,0-5.613,0a1.433,1.433,0,0,1-1.519-1.15,1.375,1.375,0,0,1,.842-1.571,2.538,2.538,0,0,1,.787-.134q5.569-.013,11.137,0a1.433,1.433,0,1,1-.021,2.859c-1.812,0-3.623,0-5.434,0h-.179" transform="translate(-163.795 -202.99)" fill="#12263f"/>
      <path id="Trazado_749381" data-name="Trazado 749381" d="M243.065,274.126c-.678,0-1.356,0-2.035,0a1.431,1.431,0,0,1-1.5-1.151,1.379,1.379,0,0,1,.843-1.571,2.337,2.337,0,0,1,.72-.132q2.046-.019,4.092,0a1.431,1.431,0,1,1-.045,2.857c-.693.007-1.386,0-2.079,0" transform="translate(-196.558 -222.622)" fill="#12263f"/>
      <path id="Trazado_749382" data-name="Trazado 749382" d="M346.866,218.275c-.678,0-1.356,0-2.035,0a1.431,1.431,0,0,1-1.5-1.15,1.376,1.376,0,0,1,.841-1.571,2.5,2.5,0,0,1,.765-.133c1.341-.013,2.683-.011,4.025,0a1.432,1.432,0,1,1-.02,2.859h-2.079" transform="translate(-281.745 -176.786)" fill="#12263f"/>
      <path id="Trazado_749383" data-name="Trazado 749383" d="M80.563,299.415a4.31,4.31,0,0,1-4.378,4.408,4.283,4.283,0,0,1,.1-8.564,4.336,4.336,0,0,1,4.28,4.156m-4.309,1.557a1.431,1.431,0,1,0-1.407-1.455,1.431,1.431,0,0,0,1.407,1.455" transform="translate(-59.095 -242.317)" fill="#12263f"/>
      <path id="Trazado_749384" data-name="Trazado 749384" d="M379.682,295.232a4.285,4.285,0,1,1-.076,8.569,4.285,4.285,0,0,1,.076-8.569m0,2.857a1.43,1.43,0,1,0,1.426,1.438,1.427,1.427,0,0,0-1.426-1.438" transform="translate(-308.102 -242.295)" fill="#12263f"/>
    </g>
    <g id="Grupo_1020854-2" data-name="Grupo 1020854" transform="translate(843.456 4976.767)" clip-path="url(#clip-path)">
      <path id="Trazado_749379-2" data-name="Trazado 749379" d="M88.764,34.156v23.2a.2.2,0,0,0-.033.056A1.529,1.529,0,0,1,87.05,58.66c-1.76-.012-3.52,0-5.279-.01-.24,0-.309.079-.348.3A9.759,9.759,0,0,1,78.3,64.613a9.988,9.988,0,0,1-6.783,2.62,8.44,8.44,0,0,1-2.749-.428,9.866,9.866,0,0,1-7.026-7.848c-.048-.23-.117-.307-.365-.307q-16.989.011-33.979.006c-.328,0-.325,0-.384.324a9.541,9.541,0,0,1-2.8,5.329,9.587,9.587,0,0,1-9.227,2.641A9.708,9.708,0,0,1,7.56,59.9c-.124-.4-.2-.82-.3-1.249h-.27q-2.718,0-5.436,0A1.383,1.383,0,0,1,.065,57.544,2.74,2.74,0,0,1,0,56.925q0-16.9,0-33.8Q0,14.207,0,5.288A5.109,5.109,0,0,1,.753,2.413,4.951,4.951,0,0,1,4.117.114C4.21.1,4.305.088,4.436.071L4.3,0H52.659c.13.031.258.072.39.092a4.638,4.638,0,0,1,2.107.865,5.076,5.076,0,0,1,2.11,4.3c.006,2.451,0,4.9,0,7.354v.266H74.143c.1,0,.194,0,.291,0a1.447,1.447,0,0,1,1.229.693c.847,1.332,1.7,2.658,2.557,3.986q4.179,6.5,8.353,13.005a26.6,26.6,0,0,1,2.192,3.593m-85.9,4.455H54.4v-.238q0-16.664,0-33.328a2.158,2.158,0,0,0-2.179-2.185q-23.565,0-47.131,0A2.207,2.207,0,0,0,2.852,5.092q.027,16.619.011,33.239ZM7.286,55.786c.033-.177.062-.33.091-.484a10.024,10.024,0,0,1,8.885-8.042,9.023,9.023,0,0,1,4.3.57,9.848,9.848,0,0,1,6.456,7.707c.038.2.107.263.316.263q13.41-.009,26.819-.005h.236V41.5H2.878V55.786Zm54.4,0c.031-.164.06-.317.089-.47a10.021,10.021,0,0,1,11.083-8.008,10.032,10.032,0,0,1,8.566,8.243c.032.185.1.253.3.252,1.32-.01,2.64-.005,3.959-.006.065,0,.129-.007.195-.011V47.211c-.91,0-1.8.005-2.7,0a4.156,4.156,0,0,1-1.619-.269,4.3,4.3,0,0,1-2.821-4.161,3.748,3.748,0,0,1,.755-2.25,4.135,4.135,0,0,1,3.184-1.863c.989-.057,1.982-.029,2.973-.038h.229V35.766H63.2a1.458,1.458,0,0,1-1.636-1.642V18.857c0-.074,0-.149,0-.223A1.376,1.376,0,0,1,62.825,17.2a3.391,3.391,0,0,1,.512-.036q5.491,0,10.983,0h.3c-.285-.44-.555-.839-.8-1.251a.328.328,0,0,0-.331-.183q-7.986.007-15.971,0h-.235V55.784ZM84.719,32.9a.732.732,0,0,0-.037-.087q-1.449-2.254-2.9-4.507-2.6-4.036-5.2-8.074a.387.387,0,0,0-.375-.205q-5.769.008-11.539,0h-.23V32.9ZM16.983,64.364a7.147,7.147,0,1,0-6.96-7.6,7.127,7.127,0,0,0,6.96,7.6m54.4,0a7.147,7.147,0,1,0-6.961-7.6,7.127,7.127,0,0,0,6.961,7.6m14.5-22.875c-.964,0-1.9-.007-2.841,0a1.425,1.425,0,0,0-.061,2.849c.953.026,1.908.005,2.862,0,.012,0,.024-.015.041-.026Z" transform="translate(0 0.001)" fill="#12263f"/>
      <path id="Trazado_749380-2" data-name="Trazado 749380" d="M206.747,250.2q-2.807,0-5.613,0a1.433,1.433,0,0,1-1.519-1.15,1.375,1.375,0,0,1,.842-1.571,2.538,2.538,0,0,1,.787-.134q5.569-.013,11.137,0a1.433,1.433,0,1,1-.021,2.859c-1.812,0-3.623,0-5.434,0h-.179" transform="translate(-163.795 -202.99)" fill="#12263f"/>
      <path id="Trazado_749381-2" data-name="Trazado 749381" d="M243.065,274.126c-.678,0-1.356,0-2.035,0a1.431,1.431,0,0,1-1.5-1.151,1.379,1.379,0,0,1,.843-1.571,2.337,2.337,0,0,1,.72-.132q2.046-.019,4.092,0a1.431,1.431,0,1,1-.045,2.857c-.693.007-1.386,0-2.079,0" transform="translate(-196.558 -222.622)" fill="#12263f"/>
      <path id="Trazado_749382-2" data-name="Trazado 749382" d="M346.866,218.275c-.678,0-1.356,0-2.035,0a1.431,1.431,0,0,1-1.5-1.15,1.376,1.376,0,0,1,.841-1.571,2.5,2.5,0,0,1,.765-.133c1.341-.013,2.683-.011,4.025,0a1.432,1.432,0,1,1-.02,2.859h-2.079" transform="translate(-281.745 -176.786)" fill="#12263f"/>
      <path id="Trazado_749383-2" data-name="Trazado 749383" d="M80.563,299.415a4.31,4.31,0,0,1-4.378,4.408,4.283,4.283,0,0,1,.1-8.564,4.336,4.336,0,0,1,4.28,4.156m-4.309,1.557a1.431,1.431,0,1,0-1.407-1.455,1.431,1.431,0,0,0,1.407,1.455" transform="translate(-59.095 -242.317)" fill="#12263f"/>
      <path id="Trazado_749384-2" data-name="Trazado 749384" d="M379.682,295.232a4.285,4.285,0,1,1-.076,8.569,4.285,4.285,0,0,1,.076-8.569m0,2.857a1.43,1.43,0,1,0,1.426,1.438,1.427,1.427,0,0,0-1.426-1.438" transform="translate(-308.102 -242.295)" fill="#12263f"/>
    </g>
    <g id="Grupo_1020857" data-name="Grupo 1020857" transform="translate(700.576 4967.452)" clip-path="url(#clip-path-3)">
      <path id="Trazado_749386" data-name="Trazado 749386" d="M74.629,73.73a1.764,1.764,0,0,1-1.763.886c-1.723-.039-3.448-.011-5.172-.012-1.374,0-1.779-.4-1.78-1.778q0-15.988,0-31.977v-1H8.727v.922q0,15.916,0,31.831c0,1.691-.313,2.006-1.993,2.006-1.7,0-3.4,0-5.1,0C.447,74.6.013,74.163.013,72.968Q.01,47.219,0,21.47a1.771,1.771,0,0,1,1.12-1.686Q18.682,10.118,36.229.424c.227-.125.436-.282.654-.424h.874a3.147,3.147,0,0,0,.33.255Q55.763,10.618,73.435,20.987A8.823,8.823,0,0,1,74.629,22Zm-2.482-1.637v-.786q0-23.749.013-47.5a1.074,1.074,0,0,0-.615-1.08Q54.736,12.905,37.951,3.038a1.143,1.143,0,0,0-1.316-.01Q19.89,12.3,3.118,21.516a1.04,1.04,0,0,0-.638,1.059Q2.5,46.942,2.493,71.31v.752H6.24v-1q0-20.8,0-41.6c0-.267-.009-.535.007-.8a1.223,1.223,0,0,1,1.274-1.294c.194-.013.388-.007.583-.007H66.54c.121,0,.243,0,.364,0,1.064.025,1.471.439,1.495,1.523.005.243,0,.486,0,.729q0,20.762,0,41.524v.951ZM65.879,29.9H8.784v2.4h57.1ZM8.757,37.258h57.1V34.864H8.757Z" transform="translate(0)" fill="#12263f"/>
      <path id="Trazado_749387" data-name="Trazado 749387" d="M227.9,304.436v-.885q0-6.155,0-12.31c0-1.339.4-1.738,1.735-1.738q6.958,0,13.915,0c1.338,0,1.736.4,1.736,1.736q0,14.423,0,28.845c0,1.381-.381,1.755-1.784,1.755H214.728c-1.365,0-1.768-.406-1.769-1.79q0-6.92,0-13.84c0-1.377.4-1.77,1.782-1.771q6.12-.005,12.24,0Zm-.086,14.887V306.978H225.5a.728.728,0,0,0-.068.18c-.008.994-.012,1.989-.019,2.983-.009,1.327-.427,1.755-1.734,1.76-1.262.005-2.524,0-3.786,0-1.623,0-1.955-.335-1.956-1.97,0-.984,0-1.967,0-2.957h-2.447v12.347ZM240.323,307c0,1.117,0,2.181,0,3.244-.005,1.225-.433,1.649-1.679,1.656q-2.04.011-4.08,0c-1.278-.006-1.683-.423-1.686-1.718,0-1.059,0-2.117,0-3.18h-2.423v12.3H242.77V307Zm-9.886-14.975v12.311h12.316V292.024h-2.43c0,1.1,0,2.158,0,3.218,0,1.338-.383,1.715-1.74,1.718q-1.966.005-3.932,0c-1.409,0-1.772-.363-1.774-1.754,0-1.057,0-2.114,0-3.181Zm4.959,2.4h2.394v-2.408H235.4Zm.007,14.937H237.8v-2.372H235.4Zm-12.527-2.374h-2.391v2.387h2.391Z" transform="translate(-181.866 -247.236)" fill="#12263f"/>
      <path id="Trazado_749388" data-name="Trazado 749388" d="M212.072,126.659c-1.941,0-3.882.006-5.823,0-1.241-.005-1.658-.428-1.662-1.663q-.007-2.111,0-4.221c.006-1.122.417-1.577,1.514-1.581q5.933-.022,11.865,0c1.1,0,1.51.459,1.515,1.58q.011,2.147,0,4.294c-.006,1.14-.438,1.583-1.587,1.59-1.941.013-3.882,0-5.823,0m-4.948-2.544h9.837v-2.393h-9.837Z" transform="translate(-174.715 -101.781)" fill="#12263f"/>
    </g>
    <g id="Grupo_1020860" data-name="Grupo 1020860" transform="translate(974.773 4894.626)" clip-path="url(#clip-path-4)">
      <path id="Trazado_749392" data-name="Trazado 749392" d="M482.62,328.786l-.175.907a12.242,12.242,0,0,1-1.295,3.507c-.578,1.067-1.171,2.133-1.848,3.138-2.994,4.448-6.025,8.87-9.034,13.308a6.3,6.3,0,0,1-4.508,2.726,17.648,17.648,0,0,1-2.419.186c-2.3.024-4.6.008-6.9.008h-.437v7.253l-.078.023c-.069-.088-.141-.174-.206-.265q-5.475-7.664-10.951-15.327c-.139-.194-.195-.322-.021-.548q5.51-7.171,11-14.356c.055-.072.119-.138.236-.272v6.516h12.9l-9.393-14.363,14.381-9.007c.091.134.165.24.235.348q3.54,5.436,7.077,10.874a8.761,8.761,0,0,1,1.37,3.575,1.127,1.127,0,0,0,.066.2v1.573m-5.939,8.33c-.231.026-.38.048-.531.059-1.448.11-2.9.3-4.344.312-5.8.036-11.6.015-17.405.015h-.442v-2.9c-.113.137-.161.189-.2.246q-3.23,4.433-6.465,8.863a.382.382,0,0,0,.012.528q3.212,4.708,6.413,9.424c.057.084.122.162.254.336v-3.044h.468q4.342,0,8.685,0c.535,0,1.071-.035,1.606-.071a5.769,5.769,0,0,0,4.613-2.736q3.534-5.31,7.074-10.616c.072-.108.14-.218.264-.41M462.19,321.893c.086.145.15.257.219.366,2.631,4.13,5.284,8.246,7.873,12.4a1.667,1.667,0,0,0,1.8.976c1.014-.116,2.06-.007,3.06-.18a7.006,7.006,0,0,0,4.561-10.738c-1.988-3.239-4.029-6.445-6.048-9.665-.055-.088-.121-.169-.195-.273l-11.268,7.112" transform="translate(-412.814 -289.87)" fill="#12263f"/>
      <path id="Trazado_749393" data-name="Trazado 749393" d="M192.289,9.3,186.641,23.15l-15.319-7.526c.05-.135.091-.255.139-.371q1.963-4.814,3.926-9.628a7.5,7.5,0,0,1,3.03-3.6A13.2,13.2,0,0,1,184.329.167c1.03-.1,2.069-.142,3.1-.145C192.557.009,197.681.057,202.8,0a7.643,7.643,0,0,1,6.648,3.517c1.49,2.1,2.919,4.239,4.375,6.361.073.107.15.212.252.355l5.751-3.878c-.069.2-.1.308-.141.411q-3.278,8.425-6.553,16.851a.441.441,0,0,1-.479.35q-9.026-.014-18.053-.007h-.27l-.029-.083,5.919-3.686L192.289,9.3m-4.006-7.535.374.316a21.066,21.066,0,0,1,3.583,3.777c3.492,4.826,6.948,9.678,10.418,14.52.08.112.155.228.245.359l-1.826,1.307c.2.016.286.031.377.031,3.336,0,6.673,0,10.009.007a.426.426,0,0,0,.461-.329q2.057-5.142,4.13-10.277c.042-.105.073-.215.137-.4l-2.512,1.581c-.1-.131-.175-.222-.244-.318q-2.843-3.942-5.687-7.884c-.209-.289-.431-.571-.662-.843a5.123,5.123,0,0,0-4.1-1.843q-7.1,0-14.191,0h-.515m-2.46,18.559c.061-.138.11-.244.154-.352q.584-1.44,1.166-2.881,1.834-4.537,3.661-9.078a.638.638,0,0,0,0-.515c-.771-1.027-1.512-2.085-2.371-3.035a6.467,6.467,0,0,0-6.471-2,5.992,5.992,0,0,0-4.614,3.457c-1.212,2.732-2.386,5.481-3.576,8.223-.055.127-.105.257-.167.409l12.216,5.774" transform="translate(-159.059 0)" fill="#12263f"/>
      <path id="Trazado_749394" data-name="Trazado 749394" d="M13.067,323.289h16.77v16.96h-.476c-4.278,0-8.557-.036-12.835.013a7.862,7.862,0,0,1-6.669-3.241,24.347,24.347,0,0,1-3.018-5.338Q3.685,324.326.562,316.954a7.252,7.252,0,0,1,.877-7.07c1.384-2.155,2.833-4.269,4.254-6.4.072-.108.142-.218.236-.362L.339,298.993c.162-.02.245-.038.328-.038q9.135,0,18.27,0c.193,0,.322.023.406.241q3.246,8.343,6.507,16.68c.02.052.032.106.08.266L20.456,311.6l-7.39,11.691m8.742-13.023.044-.051a.885.885,0,0,0-.028-.1q-1.841-4.574-3.678-9.149a.383.383,0,0,0-.433-.263q-5.933.007-11.867,0c-.1,0-.194.019-.387.039l3.017,1.971c-.085.139-.15.25-.22.358q-2.345,3.612-4.692,7.222c-.337.519-.707,1.019-1.015,1.555a4.741,4.741,0,0,0-.731,3.211,7.626,7.626,0,0,0,.612,1.661q2.969,6.852,5.954,13.7c.052.12.11.237.165.355a3.769,3.769,0,0,0,.115-.73c.1-.754.173-1.518.345-2.257a17.147,17.147,0,0,1,2.414-5.193q4.25-6.741,8.536-13.461c.069-.108.143-.213.235-.349l1.614,1.479m6.3,14.942c-.1-.01-.17-.022-.239-.022q-7.755,0-15.51.007a.509.509,0,0,0-.37.195,10.663,10.663,0,0,0-1.672,8.146c.593,2.8,2.339,5.188,6.256,5.115,3.691-.069,7.385-.015,11.078-.015h.457Z" transform="translate(0 -277.552)" fill="#12263f"/>
    </g>
    <g id="Grupo_1020861" data-name="Grupo 1020861" transform="translate(389.946 4976.607)" clip-path="url(#clip-path-5)">
      <path id="Trazado_749395" data-name="Trazado 749395" d="M0,36.2a28.488,28.488,0,0,1,.983-3.631,13.3,13.3,0,0,1,9.582-8.241c.2-.05.4-.111.685-.189-.447-.554-.888-1.062-1.287-1.6a13.67,13.67,0,0,1-2.71-7.362c-.068-1.045.338-1.633,1.109-1.669.722-.034,1.177.5,1.276,1.492a11.6,11.6,0,0,0,9.568,10.676,11.335,11.335,0,0,0,6.86-.8,1.256,1.256,0,0,0,.785-1.159,13.753,13.753,0,0,1,3.267-7.792,20.647,20.647,0,0,1,2.148-2.077,1.565,1.565,0,0,0,.613-1.64A11.714,11.714,0,0,0,14.568,4.6a11.07,11.07,0,0,0-3.9,4.753c-.156.361-.31.725-.488,1.075a1.148,1.148,0,0,1-1.517.623A1.163,1.163,0,0,1,8,9.49a13.019,13.019,0,0,1,3.486-5.461A13.6,13.6,0,0,1,25.2.61,13.639,13.639,0,0,1,35.07,11c.25.976.232.974,1.2.644a13.973,13.973,0,0,1,9.352.018c.9.313.9.313,1.137-.64A14.116,14.116,0,0,1,63.783.42a12.331,12.331,0,0,1,1.8.573,1.156,1.156,0,0,1,.776,1.441,1.174,1.174,0,0,1-1.5.8c-.638-.147-1.256-.381-1.9-.512a11.715,11.715,0,0,0-14.019,9.57,1.421,1.421,0,0,0,.583,1.5,13.906,13.906,0,0,1,5.426,9.7,1.669,1.669,0,0,0,1.2,1.544A11.713,11.713,0,0,0,68.9,5.985c-.9-.922-1.04-1.578-.468-2.163s1.292-.423,2.209.512a14.1,14.1,0,0,1,.326,19.305c-.177.192-.35.387-.56.62.874.341,1.744.6,2.541,1,4.994,2.52,7.712,6.592,7.816,12.185.122,6.6.044,13.2.024,19.8-.009,2.985-2.064,4.946-5.148,4.955-4.523.013-9.046,0-13.569,0h-.862v5.647a5.043,5.043,0,0,1-1.149,3.434,4.645,4.645,0,0,1-3.272,1.68c-.209.016-.42.021-.63.021q-15.738,0-31.476,0A4.623,4.623,0,0,1,20.1,70.267a6.521,6.521,0,0,1-.491-2.441c-.07-1.834-.022-3.672-.022-5.62H18.7c-4.181,0-8.364-.087-12.542.029C3.119,62.32.932,61.351,0,58.288V36.2M19.586,59.786V58.95c0-3.392-.024-6.785.014-10.177a19.27,19.27,0,0,1,.307-3.209,12.563,12.563,0,0,1,2.455-5.4,1.207,1.207,0,0,1,1.725-.361,1.193,1.193,0,0,1,.269,1.676,4.714,4.714,0,0,1-.3.466A11.343,11.343,0,0,0,22,48.763q-.011,9.546,0,19.092c0,1.862.908,2.74,2.776,2.741q15.621,0,31.241,0c1.862,0,2.775-.884,2.777-2.744.01-6.417.04-12.834-.008-19.25a11.115,11.115,0,0,0-8.314-11.036,4.273,4.273,0,0,0-3.213-.021,13.968,13.968,0,0,1-12.681.044,5.048,5.048,0,0,0-2.195-.355,10.251,10.251,0,0,0-4.576,1.317,1.255,1.255,0,0,1-1.852-.379c-.342-.667-.046-1.364.812-1.772.757-.359,1.535-.68,2.318-.98,1.17-.448,1.337-.914.587-1.934a14.6,14.6,0,0,1-2.315-4.623c-.429-1.483-.63-1.591-2.126-1.156a13.1,13.1,0,0,1-9.606-.681,6.428,6.428,0,0,0-4.568-.354A11.146,11.146,0,0,0,2.4,37.839c-.019,6.312-.005,12.623,0,18.935,0,2.193.81,3.011,2.986,3.012q6.627,0,13.254,0Zm41.623-.094a1.428,1.428,0,0,0,.258.075c4.864,0,9.727.029,14.591-.008a2.278,2.278,0,0,0,2.338-2.525c.012-6.573.063-13.147-.016-19.719A11.113,11.113,0,0,0,69.73,26.663a4.406,4.406,0,0,0-3.261.242,12.159,12.159,0,0,1-7.416,1.256c-1.386-.2-2.749-.569-4.04-.844a36.607,36.607,0,0,1-1.58,4.115,37.674,37.674,0,0,1-2.5,3.726c.191.063.455.156.723.237a13.336,13.336,0,0,1,9.394,11.431c.239,3.059.121,6.146.154,9.22.013,1.205,0,2.41,0,3.646M52.643,25.116A11.721,11.721,0,1,0,40.889,36.674,11.743,11.743,0,0,0,52.643,25.116" transform="translate(0 0)" fill="#12263f"/>
    </g>
    <g id="Grupo_1020861-2" data-name="Grupo 1020861" transform="translate(1122.587 5003.099)" clip-path="url(#clip-path-6)">
      <path id="Trazado_749395-2" data-name="Trazado 749395" d="M0,31.235A24.584,24.584,0,0,1,.848,28.1,11.481,11.481,0,0,1,9.117,20.99c.176-.043.349-.1.591-.163-.386-.478-.767-.916-1.111-1.382a11.8,11.8,0,0,1-2.338-6.353c-.059-.9.292-1.409.957-1.44.623-.029,1.016.429,1.1,1.287a10.01,10.01,0,0,0,8.257,9.213,9.781,9.781,0,0,0,5.92-.691,1.084,1.084,0,0,0,.678-1,11.868,11.868,0,0,1,2.82-6.724,17.818,17.818,0,0,1,1.854-1.792,1.351,1.351,0,0,0,.529-1.415,10.108,10.108,0,0,0-15.8-6.559,9.553,9.553,0,0,0-3.366,4.1c-.135.312-.267.625-.421.928a.99.99,0,0,1-1.309.538,1,1,0,0,1-.567-1.347A11.235,11.235,0,0,1,9.916,3.476,11.74,11.74,0,0,1,21.745.527a11.77,11.77,0,0,1,8.519,8.962c.215.842.2.841,1.034.556a12.058,12.058,0,0,1,8.07.016c.778.271.778.271.981-.552A12.181,12.181,0,0,1,55.042.363a10.641,10.641,0,0,1,1.553.495,1,1,0,0,1,.67,1.243,1.013,1.013,0,0,1-1.29.686c-.55-.127-1.084-.329-1.637-.441a10.109,10.109,0,0,0-12.1,8.258,1.226,1.226,0,0,0,.5,1.3,12,12,0,0,1,4.683,8.367A1.44,1.44,0,0,0,48.459,21.6a10.107,10.107,0,0,0,11-16.436c-.775-.8-.9-1.362-.4-1.867s1.115-.365,1.907.442A12.171,12.171,0,0,1,61.24,20.4c-.153.166-.3.334-.483.535.755.294,1.5.519,2.193.866a11.372,11.372,0,0,1,6.745,10.515c.105,5.694.038,11.391.021,17.087a4.125,4.125,0,0,1-4.442,4.276c-3.9.012-7.806,0-11.709,0H52.82v4.873a4.352,4.352,0,0,1-.991,2.963,4.008,4.008,0,0,1-2.823,1.45c-.181.014-.363.018-.544.018q-13.581,0-27.162,0a3.99,3.99,0,0,1-3.955-2.352,5.627,5.627,0,0,1-.423-2.107c-.061-1.583-.019-3.169-.019-4.85h-.767c-3.608,0-7.218-.075-10.823.025C2.692,53.779.8,52.943,0,50.3V31.235M16.9,51.593v-.722c0-2.928-.02-5.855.012-8.782a16.629,16.629,0,0,1,.265-2.769A10.841,10.841,0,0,1,19.3,34.657a1.042,1.042,0,0,1,1.489-.311,1.029,1.029,0,0,1,.232,1.446,4.067,4.067,0,0,1-.255.4,9.788,9.788,0,0,0-1.779,5.886q-.01,8.238,0,16.476a2.087,2.087,0,0,0,2.4,2.365q13.48,0,26.96,0a2.093,2.093,0,0,0,2.4-2.368c.008-5.537.034-11.075-.007-16.612a9.592,9.592,0,0,0-7.175-9.523,3.687,3.687,0,0,0-2.772-.018,12.054,12.054,0,0,1-10.943.038,4.356,4.356,0,0,0-1.894-.306A8.846,8.846,0,0,0,24,33.268a1.083,1.083,0,0,1-1.6-.327c-.295-.575-.04-1.177.7-1.529.653-.31,1.324-.587,2-.845,1.01-.386,1.154-.789.507-1.669a12.6,12.6,0,0,1-2-3.989c-.37-1.28-.544-1.373-1.835-1a11.3,11.3,0,0,1-8.289-.587,5.547,5.547,0,0,0-3.942-.306,9.619,9.619,0,0,0-7.473,9.635c-.017,5.447,0,10.893,0,16.34,0,1.892.7,2.6,2.577,2.6q5.719,0,11.438,0Zm35.919-.081a1.232,1.232,0,0,0,.222.065c4.2,0,8.394.025,12.591-.007a1.966,1.966,0,0,0,2.017-2.179c.01-5.672.055-11.345-.014-17.017a9.59,9.59,0,0,0-7.464-9.366,3.8,3.8,0,0,0-2.814.208,10.493,10.493,0,0,1-6.4,1.084c-1.2-.174-2.372-.491-3.486-.728a31.589,31.589,0,0,1-1.364,3.551,32.509,32.509,0,0,1-2.155,3.215c.165.054.393.134.624.2a11.508,11.508,0,0,1,8.106,9.865c.206,2.64.1,5.3.133,7.957.011,1.04,0,2.08,0,3.146M45.429,21.674a10.115,10.115,0,1,0-10.144,9.974,10.133,10.133,0,0,0,10.144-9.974" transform="translate(0 0)" fill="#12263f"/>
    </g>
    <g id="Grupo_1020862" data-name="Grupo 1020862" transform="translate(979.372 5013.104)" clip-path="url(#clip-path-7)">
      <path id="Trazado_749396" data-name="Trazado 749396" d="M0,1.41c.03-.037.075-.069.087-.111A1.021,1.021,0,0,1,1.145.511Q5.362.52,9.58.518q.347,0,.693-.02a1.114,1.114,0,0,1,1.252.9c.285,1.183.546,2.372.818,3.558.446,1.944.9,3.886,1.338,5.832q1.051,4.684,2.08,9.373c.329,1.508.628,3.023.93,4.537.359,1.8.706,3.594,1.059,5.392.24,1.222.456,2.449.731,3.663a9.5,9.5,0,0,0,.867,2.446,2.307,2.307,0,0,0,2.063,1.258c.327.014.655.017.982.017q18.1,0,36.2,0c.429,0,.859-.012,1.285-.051a2.169,2.169,0,0,0,1.7-1.114,6.746,6.746,0,0,0,.744-1.934q.871-3.5,1.7-7.011c.816-3.431,1.618-6.865,2.43-10.3.17-.718.384-1.426.527-2.148a4.617,4.617,0,0,0-.008-2.213,2.523,2.523,0,0,0-.1-.253.613.613,0,0,0-.605-.406c-.4-.006-.791-.017-1.186-.017q-22.557,0-45.113,0a2.878,2.878,0,0,1-.639-.05,1.076,1.076,0,0,1-.8-1.2,1.078,1.078,0,0,1,.922-1.036,3.545,3.545,0,0,1,.473-.027q22.658,0,45.317,0a7.476,7.476,0,0,1,1.431.094,3.469,3.469,0,0,1,2.672,2.96,8.432,8.432,0,0,1-.275,3.3c-.653,2.688-1.288,5.381-1.928,8.073-.814,3.421-1.618,6.844-2.446,10.261a15.93,15.93,0,0,1-.68,2.175,4.759,4.759,0,0,1-4.017,3.109,11.5,11.5,0,0,1-1.553.1q-18.057.008-36.114.005a7.138,7.138,0,0,1-2.671-.444,4.769,4.769,0,0,1-2.588-2.5,12.98,12.98,0,0,1-.905-2.932c-.341-1.586-.639-3.182-.953-4.774-.521-2.637-1.02-5.279-1.569-7.91-.538-2.581-1.118-5.154-1.7-7.727-.71-3.15-1.439-6.3-2.159-9.442-.088-.384-.183-.768-.264-1.153-.022-.106-.061-.133-.167-.133q-4.016.012-8.033.015a1.876,1.876,0,0,1-.42-.039,1.052,1.052,0,0,1-.856-.874C.037,1.788.018,1.7,0,1.614v-.2" transform="translate(0 -0.428)" fill="#12263f"/>
      <path id="Trazado_749397" data-name="Trazado 749397" d="M17.306,0a1.6,1.6,0,0,1-.26.043Q14.291.05,11.535.052q-1.6,0-3.2-.007A2.763,2.763,0,0,1,7.985,0Z" transform="translate(-6.9)" fill="#12263f"/>
      <path id="Trazado_749398" data-name="Trazado 749398" d="M172.988,136.538h18.251a1.514,1.514,0,0,1,.892.208,1.123,1.123,0,0,1,.489,1.191,1.135,1.135,0,0,1-.9.883,1.96,1.96,0,0,1-.37.036l-36.743,0a1.235,1.235,0,0,1-1.025-.428,1.091,1.091,0,0,1-.174-1.162,1.076,1.076,0,0,1,.99-.71c.7-.03,1.412-.021,2.118-.021h16.472Z" transform="translate(-132.488 -117.989)" fill="#12263f"/>
      <path id="Trazado_749399" data-name="Trazado 749399" d="M187.816,206.846H172.345c-.232,0-.463.009-.695.01a1.168,1.168,0,0,1-1.194-1.026,1.15,1.15,0,0,1,.859-1.236,2.69,2.69,0,0,1,.622-.052q11.666,0,23.332,0h8.489a1.432,1.432,0,0,1,.956.271,1.191,1.191,0,0,1,.37,1.256,1.163,1.163,0,0,1-1,.769c-.3.015-.61.008-.914.008H187.816" transform="translate(-147.294 -176.754)" fill="#12263f"/>
      <path id="Trazado_749400" data-name="Trazado 749400" d="M363.573,318.447a5.764,5.764,0,1,1,.117-11.527,5.764,5.764,0,0,1-.117,11.527m3.494-5.819a3.478,3.478,0,1,0-3.483,3.53,3.45,3.45,0,0,0,3.483-3.53" transform="translate(-309.218 -265.227)" fill="#12263f"/>
      <path id="Trazado_749401" data-name="Trazado 749401" d="M153.414,312.757a5.77,5.77,0,1,1,6.065,5.657,5.8,5.8,0,0,1-6.065-5.657m5.685-3.573a3.474,3.474,0,1,0,3.562,3.416,3.44,3.44,0,0,0-3.562-3.416" transform="translate(-132.573 -265.199)" fill="#12263f"/>
    </g>
    <path id="Trazado_751225" data-name="Trazado 751225" d="M3,0H91a3,3,0,0,1,3,3V23a3,3,0,0,1-3,3H3a3,3,0,0,1-3-3V3A3,3,0,0,1,3,0Z" transform="translate(385 5060)" fill="#57dbd8"/>
    <path id="Trazado_751226" data-name="Trazado 751226" d="M3,0H97a3,3,0,0,1,3,3V23a3,3,0,0,1-3,3H3a3,3,0,0,1-3-3V3A3,3,0,0,1,3,0Z" transform="translate(540 5060)" fill="#91b3fa"/>
    <path id="Trazado_751227" data-name="Trazado 751227" d="M3,0H90a3,3,0,0,1,3,3V23a3,3,0,0,1-3,3H3a3,3,0,0,1-3-3V3A3,3,0,0,1,3,0Z" transform="translate(1117 5071)" fill="#91b3fa"/>
    <path id="Trazado_751228" data-name="Trazado 751228" d="M3,0H61a3,3,0,0,1,3,3V23a3,3,0,0,1-3,3H3a3,3,0,0,1-3-3V3A3,3,0,0,1,3,0Z" transform="translate(991 5071)" fill="#57dbd8"/>
    <path id="Trazado_751229" data-name="Trazado 751229" d="M3,0H71a3,3,0,0,1,3,3V32a3,3,0,0,1-3,3H3a3,3,0,0,1-3-3V3A3,3,0,0,1,3,0Z" transform="translate(975 4967)" fill="#57dbd8"/>
    <path id="Trazado_751230" data-name="Trazado 751230" d="M3,0H97a3,3,0,0,1,3,3V37a3,3,0,0,1-3,3H3a3,3,0,0,1-3-3V3A3,3,0,0,1,3,0Z" transform="translate(836 5060)" fill="#91b3fa"/>
    <path id="Trazado_751231" data-name="Trazado 751231" d="M3,0H97a3,3,0,0,1,3,3V37a3,3,0,0,1-3,3H3a3,3,0,0,1-3-3V3A3,3,0,0,1,3,0Z" transform="translate(686 5060)" fill="#57dbd8"/>
    <path id="Trazado_751232" data-name="Trazado 751232" d="M9.324-3.552A3.774,3.774,0,0,1,8.053-.842,4.463,4.463,0,0,1,5.032.146,4.013,4.013,0,0,1,1.805-1.234,5.661,5.661,0,0,1,.63-5.024v-.652a6.393,6.393,0,0,1,.542-2.71,4.062,4.062,0,0,1,1.549-1.8,4.339,4.339,0,0,1,2.34-.626,4.348,4.348,0,0,1,2.974.989,4.055,4.055,0,0,1,1.3,2.776h-2.2a2.227,2.227,0,0,0-.575-1.5,2.129,2.129,0,0,0-1.505-.465,1.867,1.867,0,0,0-1.644.787,4.413,4.413,0,0,0-.56,2.443v.806A4.723,4.723,0,0,0,3.38-2.446a1.832,1.832,0,0,0,1.652.8,2.169,2.169,0,0,0,1.52-.465,2.1,2.1,0,0,0,.575-1.439ZM12.861,0H10.737V-11.25h2.124Zm3.977,0H14.714V-7.925h2.124ZM14.59-9.976a1.042,1.042,0,0,1,.319-.784,1.2,1.2,0,0,1,.868-.308,1.2,1.2,0,0,1,.864.308,1.036,1.036,0,0,1,.322.784,1.039,1.039,0,0,1-.326.791,1.2,1.2,0,0,1-.861.308,1.2,1.2,0,0,1-.861-.308A1.039,1.039,0,0,1,14.59-9.976ZM22.229.146A3.89,3.89,0,0,1,19.391-.923,3.8,3.8,0,0,1,18.3-3.772v-.205a4.787,4.787,0,0,1,.461-2.135,3.386,3.386,0,0,1,1.307-1.45,3.669,3.669,0,0,1,1.93-.509,3.289,3.289,0,0,1,2.56,1.025,4.167,4.167,0,0,1,.934,2.908v.864H20.442a1.966,1.966,0,0,0,.619,1.245,1.871,1.871,0,0,0,1.307.469,2.285,2.285,0,0,0,1.912-.886l1.04,1.165A3.178,3.178,0,0,1,24.031-.231,4.229,4.229,0,0,1,22.229.146Zm-.242-6.511a1.323,1.323,0,0,0-1.022.427,2.209,2.209,0,0,0-.5,1.221h2.944v-.169a1.576,1.576,0,0,0-.381-1.092A1.365,1.365,0,0,0,21.987-6.365Zm6.65-1.56.066.916a2.767,2.767,0,0,1,2.278-1.062,2.3,2.3,0,0,1,1.875.74,3.451,3.451,0,0,1,.63,2.212V0H31.37V-5.068a1.373,1.373,0,0,0-.293-.978,1.312,1.312,0,0,0-.974-.3,1.456,1.456,0,0,0-1.34.762V0H26.646V-7.925Zm8.987-1.948v1.948h1.355v1.553H37.625v3.955a.944.944,0,0,0,.168.63.846.846,0,0,0,.645.19,3.376,3.376,0,0,0,.623-.051v1.6a4.358,4.358,0,0,1-1.282.19A2.021,2.021,0,0,1,35.508-2.1v-4.27H34.351V-7.925h1.157V-9.873ZM43.806.146A3.89,3.89,0,0,1,40.968-.923a3.8,3.8,0,0,1-1.095-2.849v-.205a4.787,4.787,0,0,1,.461-2.135,3.386,3.386,0,0,1,1.307-1.45,3.669,3.669,0,0,1,1.93-.509,3.289,3.289,0,0,1,2.56,1.025,4.167,4.167,0,0,1,.934,2.908v.864H42.019a1.966,1.966,0,0,0,.619,1.245,1.871,1.871,0,0,0,1.307.469,2.285,2.285,0,0,0,1.912-.886L46.9-1.282A3.178,3.178,0,0,1,45.608-.231,4.229,4.229,0,0,1,43.806.146Zm-.242-6.511a1.323,1.323,0,0,0-1.022.427,2.209,2.209,0,0,0-.5,1.221h2.944v-.169A1.576,1.576,0,0,0,44.6-5.979,1.365,1.365,0,0,0,43.564-6.365ZM52.515,0V-6.372H51.335V-7.925h1.179v-.366a2.972,2.972,0,0,1,.919-2.3,3.7,3.7,0,0,1,2.552-.809,8.466,8.466,0,0,1,2.4.432l-.308,1.75A9.373,9.373,0,0,0,56.968-9.5a5.47,5.47,0,0,0-.85-.062q-1.479,0-1.479,1.311v.322H56.2v1.553h-1.56V0Zm6.863,0H57.253V-7.925h2.124Zm3.7-7.925.066.916A2.767,2.767,0,0,1,65.42-8.071a2.3,2.3,0,0,1,1.875.74,3.451,3.451,0,0,1,.63,2.212V0H65.808V-5.068a1.373,1.373,0,0,0-.293-.978,1.312,1.312,0,0,0-.974-.3,1.456,1.456,0,0,0-1.34.762V0H61.084V-7.925ZM74.121,0a2.351,2.351,0,0,1-.212-.71,2.561,2.561,0,0,1-2,.857,2.814,2.814,0,0,1-1.93-.674,2.167,2.167,0,0,1-.765-1.7,2.24,2.24,0,0,1,.934-1.934,4.608,4.608,0,0,1,2.7-.681h.974V-5.3a1.306,1.306,0,0,0-.282-.879,1.109,1.109,0,0,0-.89-.33,1.261,1.261,0,0,0-.839.256.871.871,0,0,0-.3.7H69.39a2.126,2.126,0,0,1,.425-1.274,2.808,2.808,0,0,1,1.2-.919,4.378,4.378,0,0,1,1.743-.333,3.459,3.459,0,0,1,2.325.736,2.575,2.575,0,0,1,.861,2.069v3.435A3.789,3.789,0,0,0,76.26-.125V0Zm-1.75-1.472a1.823,1.823,0,0,0,.864-.209,1.371,1.371,0,0,0,.586-.56V-3.6H73.03q-1.589,0-1.692,1.1l-.007.125a.847.847,0,0,0,.278.652A1.081,1.081,0,0,0,72.371-1.472ZM79.8,0H77.681V-11.25H79.8Z" transform="translate(389.946 5077.937)" fill="#12263f"/>
    <path id="Trazado_751233" data-name="Trazado 751233" d="M.952,0V-10.664H4.233a4.983,4.983,0,0,1,2.516.634,4.418,4.418,0,0,1,1.732,1.8A5.557,5.557,0,0,1,9.1-5.574v.491a5.573,5.573,0,0,1-.612,2.644A4.38,4.38,0,0,1,6.768-.645,5.021,5.021,0,0,1,4.255,0Zm2.2-8.884v7.119H4.211a2.386,2.386,0,0,0,1.97-.842,3.806,3.806,0,0,0,.7-2.41v-.564A3.867,3.867,0,0,0,6.2-8.046a2.378,2.378,0,0,0-1.97-.839ZM14.209.146A3.89,3.89,0,0,1,11.371-.923a3.8,3.8,0,0,1-1.095-2.849v-.205a4.787,4.787,0,0,1,.461-2.135,3.386,3.386,0,0,1,1.307-1.45,3.669,3.669,0,0,1,1.93-.509,3.289,3.289,0,0,1,2.56,1.025,4.167,4.167,0,0,1,.934,2.908v.864H12.422a1.966,1.966,0,0,0,.619,1.245,1.871,1.871,0,0,0,1.307.469,2.285,2.285,0,0,0,1.912-.886L17.3-1.282A3.178,3.178,0,0,1,16.011-.231,4.229,4.229,0,0,1,14.209.146Zm-.242-6.511a1.323,1.323,0,0,0-1.022.427,2.209,2.209,0,0,0-.5,1.221h2.944v-.169a1.576,1.576,0,0,0-.381-1.092A1.365,1.365,0,0,0,13.967-6.365Zm7.573,3.779,1.472-5.339h2.212L22.551,0H20.53L17.856-7.925h2.212Zm4.175-1.45a4.7,4.7,0,0,1,.454-2.1,3.324,3.324,0,0,1,1.307-1.428,3.814,3.814,0,0,1,1.981-.505,3.609,3.609,0,0,1,2.618.981,3.939,3.939,0,0,1,1.132,2.666l.015.542A4.142,4.142,0,0,1,32.2-.956a3.539,3.539,0,0,1-2.732,1.1,3.556,3.556,0,0,1-2.736-1.1A4.215,4.215,0,0,1,25.715-3.94Zm2.117.15a2.962,2.962,0,0,0,.425,1.727,1.4,1.4,0,0,0,1.216.6,1.4,1.4,0,0,0,1.2-.591,3.241,3.241,0,0,0,.432-1.889,2.933,2.933,0,0,0-.432-1.716,1.4,1.4,0,0,0-1.216-.609,1.382,1.382,0,0,0-1.2.605A3.3,3.3,0,0,0,27.832-3.885ZM36.76,0H34.636V-11.25H36.76ZM43.25-.806a2.654,2.654,0,0,1-2.168.952,2.5,2.5,0,0,1-1.945-.732,3.127,3.127,0,0,1-.685-2.146V-7.925h2.117V-2.8q0,1.239,1.128,1.239a1.528,1.528,0,0,0,1.479-.748V-7.925H45.3V0H43.308Zm6.943-.754a1.388,1.388,0,0,0,.952-.322,1.129,1.129,0,0,0,.381-.857h1.985a2.715,2.715,0,0,1-.439,1.476,2.9,2.9,0,0,1-1.183,1.04,3.7,3.7,0,0,1-1.659.37,3.44,3.44,0,0,1-2.681-1.08,4.275,4.275,0,0,1-.981-2.985v-.139a4.226,4.226,0,0,1,.974-2.922,3.4,3.4,0,0,1,2.673-1.091,3.333,3.333,0,0,1,2.384.846,3,3,0,0,1,.912,2.252H51.526a1.455,1.455,0,0,0-.381-1.005,1.27,1.27,0,0,0-.967-.387,1.275,1.275,0,0,0-1.117.539,3.125,3.125,0,0,0-.377,1.749v.22A3.164,3.164,0,0,0,49.058-2.1,1.291,1.291,0,0,0,50.193-1.56ZM56.953,0H54.829V-7.925h2.124ZM54.7-9.976a1.042,1.042,0,0,1,.319-.784,1.2,1.2,0,0,1,.868-.308,1.2,1.2,0,0,1,.864.308,1.036,1.036,0,0,1,.322.784,1.039,1.039,0,0,1-.326.791,1.2,1.2,0,0,1-.861.308,1.2,1.2,0,0,1-.861-.308A1.039,1.039,0,0,1,54.7-9.976Zm3.662,5.94a4.7,4.7,0,0,1,.454-2.1,3.324,3.324,0,0,1,1.307-1.428,3.814,3.814,0,0,1,1.981-.505,3.609,3.609,0,0,1,2.618.981,3.939,3.939,0,0,1,1.132,2.666l.015.542A4.142,4.142,0,0,1,64.856-.956a3.539,3.539,0,0,1-2.732,1.1,3.556,3.556,0,0,1-2.736-1.1A4.215,4.215,0,0,1,58.367-3.94Zm2.117.15a2.962,2.962,0,0,0,.425,1.727,1.4,1.4,0,0,0,1.216.6,1.4,1.4,0,0,0,1.2-.591,3.241,3.241,0,0,0,.432-1.889,2.933,2.933,0,0,0-.432-1.716,1.4,1.4,0,0,0-1.216-.609,1.382,1.382,0,0,0-1.2.605A3.3,3.3,0,0,0,60.483-3.885Zm8.643-4.039.066.916A2.767,2.767,0,0,1,71.47-8.071a2.3,2.3,0,0,1,1.875.74,3.451,3.451,0,0,1,.63,2.212V0H71.858V-5.068a1.373,1.373,0,0,0-.293-.978,1.312,1.312,0,0,0-.974-.3,1.456,1.456,0,0,0-1.34.762V0H67.134V-7.925ZM79.226.146A3.89,3.89,0,0,1,76.388-.923a3.8,3.8,0,0,1-1.095-2.849v-.205a4.787,4.787,0,0,1,.461-2.135,3.386,3.386,0,0,1,1.307-1.45,3.669,3.669,0,0,1,1.93-.509,3.289,3.289,0,0,1,2.56,1.025,4.167,4.167,0,0,1,.934,2.908v.864H77.439a1.966,1.966,0,0,0,.619,1.245,1.871,1.871,0,0,0,1.307.469,2.285,2.285,0,0,0,1.912-.886l1.04,1.165A3.178,3.178,0,0,1,81.028-.231,4.229,4.229,0,0,1,79.226.146Zm-.242-6.511a1.323,1.323,0,0,0-1.022.427,2.209,2.209,0,0,0-.5,1.221h2.944v-.169a1.576,1.576,0,0,0-.381-1.092A1.365,1.365,0,0,0,78.984-6.365ZM87.979-2.19a.682.682,0,0,0-.385-.612,4.368,4.368,0,0,0-1.234-.4q-2.827-.593-2.827-2.4a2.178,2.178,0,0,1,.875-1.761A3.531,3.531,0,0,1,86.7-8.071a3.8,3.8,0,0,1,2.413.71,2.239,2.239,0,0,1,.9,1.846H87.9a1.024,1.024,0,0,0-.293-.751,1.24,1.24,0,0,0-.916-.3,1.267,1.267,0,0,0-.828.242.763.763,0,0,0-.293.615.652.652,0,0,0,.333.568,3.428,3.428,0,0,0,1.124.374,9.183,9.183,0,0,1,1.333.355,2.19,2.19,0,0,1,1.677,2.131,2.067,2.067,0,0,1-.93,1.754,4.013,4.013,0,0,1-2.4.67,4.191,4.191,0,0,1-1.769-.355,2.968,2.968,0,0,1-1.212-.974,2.263,2.263,0,0,1-.439-1.337h2.007a1.105,1.105,0,0,0,.417.864,1.656,1.656,0,0,0,1.04.3,1.533,1.533,0,0,0,.919-.231A.718.718,0,0,0,87.979-2.19Z" transform="translate(542.284 5077.937)" fill="#12263f"/>
    <path id="Trazado_751234" data-name="Trazado 751234" d="M-23.364-3.552a3.774,3.774,0,0,1-1.271,2.71,4.463,4.463,0,0,1-3.021.989,4.013,4.013,0,0,1-3.226-1.381,5.661,5.661,0,0,1-1.176-3.79v-.652a6.393,6.393,0,0,1,.542-2.71,4.062,4.062,0,0,1,1.549-1.8,4.339,4.339,0,0,1,2.34-.626,4.348,4.348,0,0,1,2.974.989,4.055,4.055,0,0,1,1.3,2.776h-2.2a2.227,2.227,0,0,0-.575-1.5,2.129,2.129,0,0,0-1.505-.465,1.867,1.867,0,0,0-1.644.787,4.413,4.413,0,0,0-.56,2.443v.806a4.723,4.723,0,0,0,.524,2.527,1.832,1.832,0,0,0,1.652.8,2.169,2.169,0,0,0,1.52-.465,2.1,2.1,0,0,0,.575-1.439Zm4.951,3.7A3.89,3.89,0,0,1-21.251-.923a3.8,3.8,0,0,1-1.095-2.849v-.205a4.787,4.787,0,0,1,.461-2.135,3.386,3.386,0,0,1,1.307-1.45,3.669,3.669,0,0,1,1.93-.509,3.289,3.289,0,0,1,2.56,1.025,4.167,4.167,0,0,1,.934,2.908v.864H-20.2a1.966,1.966,0,0,0,.619,1.245,1.871,1.871,0,0,0,1.307.469,2.285,2.285,0,0,0,1.912-.886l1.04,1.165A3.178,3.178,0,0,1-16.611-.231,4.229,4.229,0,0,1-18.413.146Zm-.242-6.511a1.323,1.323,0,0,0-1.022.427,2.209,2.209,0,0,0-.5,1.221h2.944v-.169a1.576,1.576,0,0,0-.381-1.092A1.365,1.365,0,0,0-18.655-6.365ZM-12-7.925l.066.916A2.767,2.767,0,0,1-9.661-8.071a2.3,2.3,0,0,1,1.875.74,3.451,3.451,0,0,1,.63,2.212V0H-9.272V-5.068a1.373,1.373,0,0,0-.293-.978,1.312,1.312,0,0,0-.974-.3,1.456,1.456,0,0,0-1.34.762V0H-14V-7.925Zm8.987-1.948v1.948h1.355v1.553H-3.018v3.955a.944.944,0,0,0,.168.63A.846.846,0,0,0-2.2-1.6a3.376,3.376,0,0,0,.623-.051v1.6a4.358,4.358,0,0,1-1.282.19A2.021,2.021,0,0,1-5.134-2.1v-4.27H-6.292V-7.925h1.157V-9.873ZM3.97-5.94A5.751,5.751,0,0,0,3.208-6a1.55,1.55,0,0,0-1.575.813V0H-.483V-7.925h2l.059.945A1.961,1.961,0,0,1,3.34-8.071a2.218,2.218,0,0,1,.659.1Zm.425,1.9a4.7,4.7,0,0,1,.454-2.1A3.324,3.324,0,0,1,6.156-7.566a3.814,3.814,0,0,1,1.981-.505,3.609,3.609,0,0,1,2.618.981,3.939,3.939,0,0,1,1.132,2.666l.015.542A4.142,4.142,0,0,1,10.884-.956,3.539,3.539,0,0,1,8.152.146a3.556,3.556,0,0,1-2.736-1.1A4.215,4.215,0,0,1,4.395-3.94Zm2.117.15a2.962,2.962,0,0,0,.425,1.727,1.4,1.4,0,0,0,1.216.6,1.4,1.4,0,0,0,1.2-.591,3.241,3.241,0,0,0,.432-1.889,2.933,2.933,0,0,0-.432-1.716,1.4,1.4,0,0,0-1.216-.609,1.382,1.382,0,0,0-1.2.605A3.3,3.3,0,0,0,6.511-3.885Zm10.1-.136a4.776,4.776,0,0,1,.831-2.952,2.7,2.7,0,0,1,2.274-1.1,2.427,2.427,0,0,1,1.912.864V-11.25h2.124V0H21.841l-.1-.842A2.491,2.491,0,0,1,19.7.146a2.69,2.69,0,0,1-2.245-1.1A4.93,4.93,0,0,1,16.611-4.021Zm2.117.158a3.128,3.128,0,0,0,.388,1.709,1.265,1.265,0,0,0,1.128.594,1.416,1.416,0,0,0,1.384-.829V-5.521a1.4,1.4,0,0,0-1.37-.829Q18.728-6.35,18.728-3.863ZM29.041.146A3.89,3.89,0,0,1,26.2-.923a3.8,3.8,0,0,1-1.095-2.849v-.205a4.787,4.787,0,0,1,.461-2.135,3.386,3.386,0,0,1,1.307-1.45,3.669,3.669,0,0,1,1.93-.509,3.289,3.289,0,0,1,2.56,1.025A4.167,4.167,0,0,1,32.3-4.138v.864H27.253a1.966,1.966,0,0,0,.619,1.245,1.871,1.871,0,0,0,1.307.469,2.285,2.285,0,0,0,1.912-.886l1.04,1.165A3.178,3.178,0,0,1,30.842-.231,4.229,4.229,0,0,1,29.041.146ZM28.8-6.365a1.323,1.323,0,0,0-1.022.427,2.209,2.209,0,0,0-.5,1.221H30.22v-.169a1.576,1.576,0,0,0-.381-1.092A1.365,1.365,0,0,0,28.8-6.365Zm-72.96,18.344a4.776,4.776,0,0,1,.831-2.952,2.7,2.7,0,0,1,2.274-1.1,2.427,2.427,0,0,1,1.912.864V4.75h2.124V16h-1.912l-.1-.842a2.491,2.491,0,0,1-2.036.989,2.69,2.69,0,0,1-2.245-1.1A4.93,4.93,0,0,1-44.161,11.979Zm2.117.158a3.128,3.128,0,0,0,.388,1.709,1.265,1.265,0,0,0,1.128.594,1.416,1.416,0,0,0,1.384-.829V10.479a1.4,1.4,0,0,0-1.37-.829Q-42.045,9.65-42.045,12.137Zm10.313,4.01a3.89,3.89,0,0,1-2.838-1.069,3.8,3.8,0,0,1-1.095-2.849v-.205A4.787,4.787,0,0,1-35.2,9.888,3.386,3.386,0,0,1-33.9,8.438a3.669,3.669,0,0,1,1.93-.509,3.289,3.289,0,0,1,2.56,1.025,4.167,4.167,0,0,1,.934,2.908v.864h-5.046a1.966,1.966,0,0,0,.619,1.245,1.871,1.871,0,0,0,1.307.469,2.285,2.285,0,0,0,1.912-.886l1.04,1.165a3.178,3.178,0,0,1-1.289,1.051A4.229,4.229,0,0,1-31.732,16.146Zm-.242-6.511A1.323,1.323,0,0,0-33,10.062a2.209,2.209,0,0,0-.5,1.221h2.944v-.169a1.576,1.576,0,0,0-.381-1.092A1.365,1.365,0,0,0-31.974,9.635Zm7.573,3.779,1.472-5.339h2.212L-23.39,16h-2.021l-2.673-7.925h2.212Zm4.175-1.45a4.7,4.7,0,0,1,.454-2.1,3.324,3.324,0,0,1,1.307-1.428,3.814,3.814,0,0,1,1.981-.505,3.609,3.609,0,0,1,2.618.981,3.939,3.939,0,0,1,1.132,2.666l.015.542a4.142,4.142,0,0,1-1.018,2.926,3.539,3.539,0,0,1-2.732,1.1,3.556,3.556,0,0,1-2.736-1.1,4.215,4.215,0,0,1-1.022-2.988Zm2.117.15a2.962,2.962,0,0,0,.425,1.727,1.4,1.4,0,0,0,1.216.6,1.4,1.4,0,0,0,1.2-.591,3.241,3.241,0,0,0,.432-1.889,2.933,2.933,0,0,0-.432-1.716,1.4,1.4,0,0,0-1.216-.609,1.382,1.382,0,0,0-1.2.605A3.3,3.3,0,0,0-18.109,12.115ZM-9.181,16H-11.3V4.75h2.124Zm6.489-.806a2.654,2.654,0,0,1-2.168.952A2.5,2.5,0,0,1-6.8,15.414a3.127,3.127,0,0,1-.685-2.146V8.075h2.117V13.2q0,1.239,1.128,1.239a1.528,1.528,0,0,0,1.479-.748V8.075H-.641V16H-2.633Zm6.943-.754a1.388,1.388,0,0,0,.952-.322,1.129,1.129,0,0,0,.381-.857H7.57a2.715,2.715,0,0,1-.439,1.476,2.9,2.9,0,0,1-1.183,1.04,3.7,3.7,0,0,1-1.659.37,3.44,3.44,0,0,1-2.681-1.08,4.275,4.275,0,0,1-.981-2.985v-.139A4.226,4.226,0,0,1,1.6,9.02,3.4,3.4,0,0,1,4.274,7.929a3.333,3.333,0,0,1,2.384.846,3,3,0,0,1,.912,2.252H5.585A1.455,1.455,0,0,0,5.2,10.022a1.27,1.27,0,0,0-.967-.387,1.275,1.275,0,0,0-1.117.539,3.125,3.125,0,0,0-.377,1.749v.22A3.164,3.164,0,0,0,3.116,13.9,1.291,1.291,0,0,0,4.252,14.44ZM11.012,16H8.888V8.075h2.124ZM8.763,6.024a1.042,1.042,0,0,1,.319-.784,1.2,1.2,0,0,1,.868-.308,1.2,1.2,0,0,1,.864.308,1.036,1.036,0,0,1,.322.784,1.039,1.039,0,0,1-.326.791,1.2,1.2,0,0,1-.861.308,1.2,1.2,0,0,1-.861-.308A1.039,1.039,0,0,1,8.763,6.024Zm3.662,5.94a4.7,4.7,0,0,1,.454-2.1,3.324,3.324,0,0,1,1.307-1.428,3.814,3.814,0,0,1,1.981-.505,3.609,3.609,0,0,1,2.618.981,3.939,3.939,0,0,1,1.132,2.666l.015.542a4.142,4.142,0,0,1-1.018,2.926,3.539,3.539,0,0,1-2.732,1.1,3.556,3.556,0,0,1-2.736-1.1,4.215,4.215,0,0,1-1.022-2.988Zm2.117.15a2.962,2.962,0,0,0,.425,1.727,1.526,1.526,0,0,0,2.417.007,3.241,3.241,0,0,0,.432-1.889,2.933,2.933,0,0,0-.432-1.716,1.4,1.4,0,0,0-1.216-.609,1.382,1.382,0,0,0-1.2.605A3.3,3.3,0,0,0,14.542,12.115Zm8.643-4.039.066.916a2.767,2.767,0,0,1,2.278-1.062,2.3,2.3,0,0,1,1.875.74,3.451,3.451,0,0,1,.63,2.212V16H25.917V10.932a1.373,1.373,0,0,0-.293-.978,1.312,1.312,0,0,0-.974-.3,1.456,1.456,0,0,0-1.34.762V16H21.193V8.075Zm10.1,8.071a3.89,3.89,0,0,1-2.838-1.069,3.8,3.8,0,0,1-1.095-2.849v-.205a4.787,4.787,0,0,1,.461-2.135,3.386,3.386,0,0,1,1.307-1.45,3.669,3.669,0,0,1,1.93-.509,3.289,3.289,0,0,1,2.56,1.025,4.167,4.167,0,0,1,.934,2.908v.864H31.5a1.966,1.966,0,0,0,.619,1.245,1.871,1.871,0,0,0,1.307.469,2.285,2.285,0,0,0,1.912-.886l1.04,1.165a3.178,3.178,0,0,1-1.289,1.051A4.229,4.229,0,0,1,33.285,16.146Zm-.242-6.511a1.323,1.323,0,0,0-1.022.427,2.209,2.209,0,0,0-.5,1.221h2.944v-.169a1.576,1.576,0,0,0-.381-1.092A1.365,1.365,0,0,0,33.043,9.635Zm8.994,4.175a.682.682,0,0,0-.385-.612,4.368,4.368,0,0,0-1.234-.4q-2.827-.593-2.827-2.4a2.178,2.178,0,0,1,.875-1.761,3.531,3.531,0,0,1,2.289-.707,3.8,3.8,0,0,1,2.413.71,2.239,2.239,0,0,1,.9,1.846H41.957a1.024,1.024,0,0,0-.293-.751,1.24,1.24,0,0,0-.916-.3,1.267,1.267,0,0,0-.828.242.763.763,0,0,0-.293.615.652.652,0,0,0,.333.568,3.428,3.428,0,0,0,1.124.374,9.183,9.183,0,0,1,1.333.355A2.19,2.19,0,0,1,44.1,13.722a2.067,2.067,0,0,1-.93,1.754,4.013,4.013,0,0,1-2.4.67,4.191,4.191,0,0,1-1.769-.355,2.968,2.968,0,0,1-1.212-.974,2.263,2.263,0,0,1-.439-1.337h2.007a1.105,1.105,0,0,0,.417.864,1.656,1.656,0,0,0,1.04.3,1.533,1.533,0,0,0,.919-.231A.718.718,0,0,0,42.037,13.81Z" transform="translate(733.688 5076.947)" fill="#12263f"/>
    <path id="Trazado_751235" data-name="Trazado 751235" d="M-39.785,0V-10.664H-36.5a4.983,4.983,0,0,1,2.516.634,4.418,4.418,0,0,1,1.732,1.8,5.557,5.557,0,0,1,.623,2.655v.491a5.573,5.573,0,0,1-.612,2.644A4.38,4.38,0,0,1-33.97-.645,5.021,5.021,0,0,1-36.482,0Zm2.2-8.884v7.119h1.062a2.386,2.386,0,0,0,1.97-.842,3.806,3.806,0,0,0,.7-2.41v-.564a3.867,3.867,0,0,0-.674-2.465,2.378,2.378,0,0,0-1.97-.839ZM-27.942,0h-2.124V-7.925h2.124ZM-30.19-9.976a1.042,1.042,0,0,1,.319-.784A1.2,1.2,0,0,1-29-11.067a1.2,1.2,0,0,1,.864.308,1.036,1.036,0,0,1,.322.784,1.039,1.039,0,0,1-.326.791A1.2,1.2,0,0,1-29-8.877a1.2,1.2,0,0,1-.861-.308A1.039,1.039,0,0,1-30.19-9.976Zm8.284,7.786a.682.682,0,0,0-.385-.612,4.368,4.368,0,0,0-1.234-.4q-2.827-.593-2.827-2.4a2.178,2.178,0,0,1,.875-1.761,3.531,3.531,0,0,1,2.289-.707,3.8,3.8,0,0,1,2.413.71,2.239,2.239,0,0,1,.9,1.846h-2.117a1.024,1.024,0,0,0-.293-.751,1.24,1.24,0,0,0-.916-.3,1.267,1.267,0,0,0-.828.242.763.763,0,0,0-.293.615.652.652,0,0,0,.333.568,3.428,3.428,0,0,0,1.124.374,9.183,9.183,0,0,1,1.333.355,2.19,2.19,0,0,1,1.677,2.131,2.067,2.067,0,0,1-.93,1.754,4.013,4.013,0,0,1-2.4.67A4.191,4.191,0,0,1-24.95-.209a2.968,2.968,0,0,1-1.212-.974A2.263,2.263,0,0,1-26.6-2.52h2.007a1.105,1.105,0,0,0,.417.864,1.656,1.656,0,0,0,1.04.3,1.533,1.533,0,0,0,.919-.231A.718.718,0,0,0-21.907-2.19Zm5.955-7.683v1.948H-14.6v1.553h-1.355v3.955a.944.944,0,0,0,.168.63.846.846,0,0,0,.645.19,3.376,3.376,0,0,0,.623-.051v1.6A4.358,4.358,0,0,1-15.8.146,2.021,2.021,0,0,1-18.069-2.1v-4.27h-1.157V-7.925h1.157V-9.873ZM-8.965-5.94A5.751,5.751,0,0,0-9.727-6a1.55,1.55,0,0,0-1.575.813V0h-2.117V-7.925h2l.059.945A1.961,1.961,0,0,1-9.595-8.071a2.218,2.218,0,0,1,.659.1ZM-5.713,0H-7.837V-7.925h2.124ZM-7.961-9.976a1.042,1.042,0,0,1,.319-.784,1.2,1.2,0,0,1,.868-.308,1.2,1.2,0,0,1,.864.308,1.036,1.036,0,0,1,.322.784,1.039,1.039,0,0,1-.326.791,1.2,1.2,0,0,1-.861.308,1.2,1.2,0,0,1-.861-.308A1.039,1.039,0,0,1-7.961-9.976ZM3.171-3.889a4.8,4.8,0,0,1-.813,2.97A2.693,2.693,0,0,1,.088.146,2.474,2.474,0,0,1-1.97-.842l-.1.842h-1.9V-11.25h2.117v4.036A2.411,2.411,0,0,1,.073-8.071,2.715,2.715,0,0,1,2.347-7.006a4.806,4.806,0,0,1,.824,3ZM1.055-4.043A3.153,3.153,0,0,0,.674-5.8,1.288,1.288,0,0,0-.461-6.35a1.4,1.4,0,0,0-1.392.828V-2.4A1.415,1.415,0,0,0-.447-1.56,1.307,1.307,0,0,0,.9-2.571,5.214,5.214,0,0,0,1.055-4.043ZM9.221-.806A2.654,2.654,0,0,1,7.053.146,2.5,2.5,0,0,1,5.109-.586a3.127,3.127,0,0,1-.685-2.146V-7.925H6.541V-2.8q0,1.239,1.128,1.239a1.528,1.528,0,0,0,1.479-.748V-7.925h2.124V0H9.28Zm6.943-.754a1.388,1.388,0,0,0,.952-.322,1.129,1.129,0,0,0,.381-.857h1.985a2.715,2.715,0,0,1-.439,1.476A2.9,2.9,0,0,1,17.86-.223,3.7,3.7,0,0,1,16.2.146a3.44,3.44,0,0,1-2.681-1.08,4.275,4.275,0,0,1-.981-2.985v-.139a4.226,4.226,0,0,1,.974-2.922,3.4,3.4,0,0,1,2.673-1.091,3.333,3.333,0,0,1,2.384.846,3,3,0,0,1,.912,2.252H17.5a1.455,1.455,0,0,0-.381-1.005,1.27,1.27,0,0,0-.967-.387,1.275,1.275,0,0,0-1.117.539,3.125,3.125,0,0,0-.377,1.749v.22A3.164,3.164,0,0,0,15.029-2.1,1.291,1.291,0,0,0,16.165-1.56ZM22.925,0H20.8V-7.925h2.124ZM20.676-9.976a1.042,1.042,0,0,1,.319-.784,1.2,1.2,0,0,1,.868-.308,1.2,1.2,0,0,1,.864.308,1.036,1.036,0,0,1,.322.784,1.039,1.039,0,0,1-.326.791,1.2,1.2,0,0,1-.861.308A1.2,1.2,0,0,1,21-9.185,1.039,1.039,0,0,1,20.676-9.976Zm3.662,5.94a4.7,4.7,0,0,1,.454-2.1A3.324,3.324,0,0,1,26.1-7.566a3.814,3.814,0,0,1,1.981-.505A3.609,3.609,0,0,1,30.7-7.09a3.939,3.939,0,0,1,1.132,2.666l.015.542A4.142,4.142,0,0,1,30.828-.956,3.539,3.539,0,0,1,28.1.146a3.556,3.556,0,0,1-2.736-1.1A4.215,4.215,0,0,1,24.338-3.94Zm2.117.15a2.962,2.962,0,0,0,.425,1.727,1.4,1.4,0,0,0,1.216.6,1.4,1.4,0,0,0,1.2-.591,3.241,3.241,0,0,0,.432-1.889A2.933,2.933,0,0,0,29.3-5.756a1.4,1.4,0,0,0-1.216-.609,1.382,1.382,0,0,0-1.2.605A3.3,3.3,0,0,0,26.455-3.885ZM28.5-11.25h2.307L28.777-8.979H27.056Zm6.6,3.325.066.916a2.767,2.767,0,0,1,2.278-1.062,2.3,2.3,0,0,1,1.875.74,3.451,3.451,0,0,1,.63,2.212V0H37.83V-5.068a1.373,1.373,0,0,0-.293-.978,1.312,1.312,0,0,0-.974-.3,1.456,1.456,0,0,0-1.34.762V0H33.105V-7.925ZM-34.036,12.111a4.753,4.753,0,0,1-.831,2.933,2.665,2.665,0,0,1-2.245,1.1,2.469,2.469,0,0,1-1.941-.835v3.735h-2.117V8.075h1.963l.073.776a2.488,2.488,0,0,1,2.007-.923,2.683,2.683,0,0,1,2.278,1.084A4.882,4.882,0,0,1-34.036,12Zm-2.117-.154a3.119,3.119,0,0,0-.392-1.707,1.276,1.276,0,0,0-1.139-.6,1.386,1.386,0,0,0-1.37.762v3.245a1.41,1.41,0,0,0,1.384.784Q-36.152,14.44-36.152,11.957ZM-28.132,16a2.351,2.351,0,0,1-.212-.71,2.561,2.561,0,0,1-2,.857,2.814,2.814,0,0,1-1.93-.674,2.167,2.167,0,0,1-.765-1.7,2.24,2.24,0,0,1,.934-1.934,4.608,4.608,0,0,1,2.7-.681h.974V10.7a1.306,1.306,0,0,0-.282-.879,1.109,1.109,0,0,0-.89-.33,1.261,1.261,0,0,0-.839.256.871.871,0,0,0-.3.7h-2.117a2.126,2.126,0,0,1,.425-1.274,2.808,2.808,0,0,1,1.2-.919,4.378,4.378,0,0,1,1.743-.333,3.459,3.459,0,0,1,2.325.736,2.575,2.575,0,0,1,.861,2.069v3.435a3.789,3.789,0,0,0,.315,1.707V16Zm-1.75-1.472a1.823,1.823,0,0,0,.864-.209,1.371,1.371,0,0,0,.586-.56V12.4h-.791q-1.589,0-1.692,1.1l-.007.125a.847.847,0,0,0,.278.652A1.081,1.081,0,0,0-29.883,14.528Zm9.653-4.468A5.751,5.751,0,0,0-20.991,10a1.55,1.55,0,0,0-1.575.813V16h-2.117V8.075h2l.059.945a1.961,1.961,0,0,1,1.765-1.091,2.218,2.218,0,0,1,.659.1ZM-14.839,16a2.351,2.351,0,0,1-.212-.71,2.561,2.561,0,0,1-2,.857,2.814,2.814,0,0,1-1.93-.674,2.167,2.167,0,0,1-.765-1.7,2.24,2.24,0,0,1,.934-1.934,4.608,4.608,0,0,1,2.7-.681h.974V10.7a1.306,1.306,0,0,0-.282-.879,1.109,1.109,0,0,0-.89-.33,1.261,1.261,0,0,0-.839.256.871.871,0,0,0-.3.7H-19.57a2.126,2.126,0,0,1,.425-1.274,2.808,2.808,0,0,1,1.2-.919A4.378,4.378,0,0,1-16.2,7.929a3.459,3.459,0,0,1,2.325.736,2.575,2.575,0,0,1,.861,2.069v3.435a3.789,3.789,0,0,0,.315,1.707V16Zm-1.75-1.472a1.823,1.823,0,0,0,.864-.209,1.371,1.371,0,0,0,.586-.56V12.4h-.791q-1.589,0-1.692,1.1l-.007.125a.847.847,0,0,0,.278.652A1.081,1.081,0,0,0-16.589,14.528ZM-3.2,10.06A5.751,5.751,0,0,0-3.962,10a1.55,1.55,0,0,0-1.575.813V16H-7.654V8.075h2l.059.945A1.961,1.961,0,0,1-3.831,7.929a2.218,2.218,0,0,1,.659.1Zm4.526,6.086a3.89,3.89,0,0,1-2.838-1.069,3.8,3.8,0,0,1-1.095-2.849v-.205a4.787,4.787,0,0,1,.461-2.135A3.386,3.386,0,0,1-.839,8.438a3.669,3.669,0,0,1,1.93-.509,3.289,3.289,0,0,1,2.56,1.025,4.167,4.167,0,0,1,.934,2.908v.864H-.461a1.966,1.966,0,0,0,.619,1.245,1.871,1.871,0,0,0,1.307.469,2.285,2.285,0,0,0,1.912-.886l1.04,1.165a3.178,3.178,0,0,1-1.289,1.051A4.229,4.229,0,0,1,1.326,16.146ZM1.084,9.635a1.323,1.323,0,0,0-1.022.427,2.209,2.209,0,0,0-.5,1.221H2.5v-.169a1.576,1.576,0,0,0-.381-1.092A1.365,1.365,0,0,0,1.084,9.635Zm7.573,3.779,1.472-5.339h2.212L9.668,16H7.646L4.973,8.075H7.185Zm8.167,2.732a3.89,3.89,0,0,1-2.838-1.069,3.8,3.8,0,0,1-1.095-2.849v-.205a4.787,4.787,0,0,1,.461-2.135,3.386,3.386,0,0,1,1.307-1.45,3.669,3.669,0,0,1,1.93-.509,3.289,3.289,0,0,1,2.56,1.025,4.167,4.167,0,0,1,.934,2.908v.864H15.037a1.966,1.966,0,0,0,.619,1.245,1.871,1.871,0,0,0,1.307.469,2.285,2.285,0,0,0,1.912-.886l1.04,1.165a3.178,3.178,0,0,1-1.289,1.051A4.229,4.229,0,0,1,16.824,16.146Zm-.242-6.511a1.323,1.323,0,0,0-1.022.427,2.209,2.209,0,0,0-.5,1.221H18v-.169a1.576,1.576,0,0,0-.381-1.092A1.365,1.365,0,0,0,16.582,9.635Zm6.65-1.56.066.916a2.767,2.767,0,0,1,2.278-1.062,2.3,2.3,0,0,1,1.875.74,3.451,3.451,0,0,1,.63,2.212V16H25.964V10.932a1.373,1.373,0,0,0-.293-.978,1.312,1.312,0,0,0-.974-.3,1.456,1.456,0,0,0-1.34.762V16H21.24V8.075Zm8.987-1.948V8.075h1.355V9.628H32.219v3.955a.944.944,0,0,0,.168.63.846.846,0,0,0,.645.19,3.376,3.376,0,0,0,.623-.051v1.6a4.358,4.358,0,0,1-1.282.19A2.021,2.021,0,0,1,30.1,13.9V9.628H28.945V8.075H30.1V6.127ZM39.346,16a2.351,2.351,0,0,1-.212-.71,2.561,2.561,0,0,1-2,.857,2.814,2.814,0,0,1-1.93-.674,2.167,2.167,0,0,1-.765-1.7,2.24,2.24,0,0,1,.934-1.934,4.608,4.608,0,0,1,2.7-.681h.974V10.7a1.306,1.306,0,0,0-.282-.879,1.109,1.109,0,0,0-.89-.33,1.261,1.261,0,0,0-.839.256.871.871,0,0,0-.3.7H34.614a2.126,2.126,0,0,1,.425-1.274,2.808,2.808,0,0,1,1.2-.919,4.378,4.378,0,0,1,1.743-.333,3.459,3.459,0,0,1,2.325.736,2.575,2.575,0,0,1,.861,2.069v3.435a3.789,3.789,0,0,0,.315,1.707V16ZM37.6,14.528a1.823,1.823,0,0,0,.864-.209,1.371,1.371,0,0,0,.586-.56V12.4h-.791q-1.589,0-1.692,1.1l-.007.125a.847.847,0,0,0,.278.652A1.081,1.081,0,0,0,37.6,14.528Z" transform="translate(884.015 5075.958)" fill="#12263f"/>
    <path id="Trazado_751236" data-name="Trazado 751236" d="M-22.445-3.9H-24.2V0h-2.2V-10.664h3.962a4.479,4.479,0,0,1,2.915.842,2.907,2.907,0,0,1,1.025,2.38,3.281,3.281,0,0,1-.472,1.82A3.222,3.222,0,0,1-20.394-4.46L-18.087-.1V0h-2.358Zm-1.75-1.78h1.772A1.815,1.815,0,0,0-21.141-6.1a1.505,1.505,0,0,0,.454-1.161,1.611,1.611,0,0,0-.428-1.187,1.781,1.781,0,0,0-1.315-.432H-24.2ZM-13.312.146A3.89,3.89,0,0,1-16.15-.923a3.8,3.8,0,0,1-1.095-2.849v-.205a4.787,4.787,0,0,1,.461-2.135,3.386,3.386,0,0,1,1.307-1.45,3.669,3.669,0,0,1,1.93-.509,3.289,3.289,0,0,1,2.56,1.025,4.167,4.167,0,0,1,.934,2.908v.864H-15.1a1.966,1.966,0,0,0,.619,1.245,1.871,1.871,0,0,0,1.307.469,2.285,2.285,0,0,0,1.912-.886l1.04,1.165A3.178,3.178,0,0,1-11.51-.231,4.229,4.229,0,0,1-13.312.146Zm-.242-6.511a1.323,1.323,0,0,0-1.022.427,2.209,2.209,0,0,0-.5,1.221h2.944v-.169a1.576,1.576,0,0,0-.381-1.092A1.365,1.365,0,0,0-13.553-6.365ZM-5.98-2.585l1.472-5.339H-2.3L-4.969,0H-6.991L-9.664-7.925h2.212ZM2.186.146A3.89,3.89,0,0,1-.652-.923,3.8,3.8,0,0,1-1.747-3.772v-.205a4.787,4.787,0,0,1,.461-2.135A3.386,3.386,0,0,1,.022-7.562a3.669,3.669,0,0,1,1.93-.509,3.289,3.289,0,0,1,2.56,1.025,4.167,4.167,0,0,1,.934,2.908v.864H.4a1.966,1.966,0,0,0,.619,1.245,1.871,1.871,0,0,0,1.307.469,2.285,2.285,0,0,0,1.912-.886l1.04,1.165A3.178,3.178,0,0,1,3.988-.231,4.229,4.229,0,0,1,2.186.146ZM1.945-6.365a1.323,1.323,0,0,0-1.022.427,2.209,2.209,0,0,0-.5,1.221H3.365v-.169a1.576,1.576,0,0,0-.381-1.092A1.365,1.365,0,0,0,1.945-6.365Zm6.65-1.56.066.916a2.767,2.767,0,0,1,2.278-1.062,2.3,2.3,0,0,1,1.875.74,3.451,3.451,0,0,1,.63,2.212V0H11.327V-5.068a1.373,1.373,0,0,0-.293-.978,1.312,1.312,0,0,0-.974-.3,1.456,1.456,0,0,0-1.34.762V0H6.6V-7.925Zm8.987-1.948v1.948h1.355v1.553H17.582v3.955a.944.944,0,0,0,.168.63.846.846,0,0,0,.645.19,3.376,3.376,0,0,0,.623-.051v1.6a4.358,4.358,0,0,1-1.282.19A2.021,2.021,0,0,1,15.465-2.1v-4.27H14.308V-7.925h1.157V-9.873ZM24.708,0A2.351,2.351,0,0,1,24.5-.71a2.561,2.561,0,0,1-2,.857,2.814,2.814,0,0,1-1.93-.674,2.167,2.167,0,0,1-.765-1.7,2.24,2.24,0,0,1,.934-1.934,4.608,4.608,0,0,1,2.7-.681h.974V-5.3a1.306,1.306,0,0,0-.282-.879,1.109,1.109,0,0,0-.89-.33,1.261,1.261,0,0,0-.839.256.871.871,0,0,0-.3.7H19.977A2.126,2.126,0,0,1,20.4-6.819a2.808,2.808,0,0,1,1.2-.919,4.378,4.378,0,0,1,1.743-.333,3.459,3.459,0,0,1,2.325.736,2.575,2.575,0,0,1,.861,2.069v3.435a3.789,3.789,0,0,0,.315,1.707V0Zm-1.75-1.472a1.823,1.823,0,0,0,.864-.209,1.371,1.371,0,0,0,.586-.56V-3.6h-.791q-1.589,0-1.692,1.1l-.007.125a.847.847,0,0,0,.278.652A1.081,1.081,0,0,0,22.958-1.472Z" transform="translate(1021 5090)" fill="#12263f"/>
    <path id="Trazado_751237" data-name="Trazado 751237" d="M-27.532-3.757V0h-2.2V-10.664h4.16a4.813,4.813,0,0,1,2.113.439,3.238,3.238,0,0,1,1.4,1.249,3.482,3.482,0,0,1,.491,1.842,3.062,3.062,0,0,1-1.073,2.472,4.469,4.469,0,0,1-2.97.9Zm0-1.78h1.963a1.93,1.93,0,0,0,1.329-.41,1.492,1.492,0,0,0,.458-1.172,1.759,1.759,0,0,0-.461-1.267,1.724,1.724,0,0,0-1.274-.5h-2.014Zm11.792-.4A5.751,5.751,0,0,0-16.5-6a1.55,1.55,0,0,0-1.575.813V0h-2.117V-7.925h2l.059.945A1.961,1.961,0,0,1-16.37-8.071a2.218,2.218,0,0,1,.659.1Zm.425,1.9a4.7,4.7,0,0,1,.454-2.1,3.324,3.324,0,0,1,1.307-1.428,3.814,3.814,0,0,1,1.981-.505,3.609,3.609,0,0,1,2.618.981A3.939,3.939,0,0,1-7.822-4.424l.015.542A4.142,4.142,0,0,1-8.826-.956a3.539,3.539,0,0,1-2.732,1.1,3.556,3.556,0,0,1-2.736-1.1A4.215,4.215,0,0,1-15.315-3.94Zm2.117.15a2.962,2.962,0,0,0,.425,1.727,1.4,1.4,0,0,0,1.216.6,1.4,1.4,0,0,0,1.2-.591,3.241,3.241,0,0,0,.432-1.889,2.933,2.933,0,0,0-.432-1.716,1.4,1.4,0,0,0-1.216-.609,1.382,1.382,0,0,0-1.2.605A3.3,3.3,0,0,0-13.2-3.885Zm6.365-.136A4.776,4.776,0,0,1-6-6.973a2.7,2.7,0,0,1,2.274-1.1,2.427,2.427,0,0,1,1.912.864V-11.25H.308V0H-1.6l-.1-.842A2.491,2.491,0,0,1-3.743.146a2.69,2.69,0,0,1-2.245-1.1A4.93,4.93,0,0,1-6.833-4.021Zm2.117.158a3.128,3.128,0,0,0,.388,1.709A1.265,1.265,0,0,0-3.2-1.56a1.416,1.416,0,0,0,1.384-.829V-5.521a1.4,1.4,0,0,0-1.37-.829Q-4.717-6.35-4.717-3.863ZM6.694-.806A2.654,2.654,0,0,1,4.526.146,2.5,2.5,0,0,1,2.582-.586,3.127,3.127,0,0,1,1.9-2.732V-7.925H4.014V-2.8q0,1.239,1.128,1.239a1.528,1.528,0,0,0,1.479-.748V-7.925H8.745V0H6.753Zm6.943-.754a1.388,1.388,0,0,0,.952-.322,1.129,1.129,0,0,0,.381-.857h1.985a2.715,2.715,0,0,1-.439,1.476,2.9,2.9,0,0,1-1.183,1.04,3.7,3.7,0,0,1-1.659.37,3.44,3.44,0,0,1-2.681-1.08,4.275,4.275,0,0,1-.981-2.985v-.139a4.226,4.226,0,0,1,.974-2.922A3.4,3.4,0,0,1,13.66-8.071a3.333,3.333,0,0,1,2.384.846,3,3,0,0,1,.912,2.252H14.971a1.455,1.455,0,0,0-.381-1.005,1.27,1.27,0,0,0-.967-.387,1.275,1.275,0,0,0-1.117.539,3.125,3.125,0,0,0-.377,1.749v.22A3.164,3.164,0,0,0,12.5-2.1,1.291,1.291,0,0,0,13.638-1.56ZM20.7-9.873v1.948h1.355v1.553H20.7v3.955a.944.944,0,0,0,.168.63.846.846,0,0,0,.645.19,3.376,3.376,0,0,0,.623-.051v1.6a4.358,4.358,0,0,1-1.282.19A2.021,2.021,0,0,1,18.582-2.1v-4.27H17.424V-7.925h1.157V-9.873Zm1.985,5.837a4.7,4.7,0,0,1,.454-2.1,3.324,3.324,0,0,1,1.307-1.428,3.814,3.814,0,0,1,1.981-.505,3.609,3.609,0,0,1,2.618.981,3.939,3.939,0,0,1,1.132,2.666l.015.542A4.142,4.142,0,0,1,29.172-.956,3.539,3.539,0,0,1,26.44.146,3.556,3.556,0,0,1,23.7-.952,4.215,4.215,0,0,1,22.683-3.94Zm2.117.15a2.962,2.962,0,0,0,.425,1.727,1.4,1.4,0,0,0,1.216.6,1.4,1.4,0,0,0,1.2-.591,3.241,3.241,0,0,0,.432-1.889,2.933,2.933,0,0,0-.432-1.716,1.4,1.4,0,0,0-1.216-.609,1.382,1.382,0,0,0-1.2.605A3.3,3.3,0,0,0,24.8-3.885ZM-25.741,10.06A5.751,5.751,0,0,0-26.5,10a1.55,1.55,0,0,0-1.575.813V16h-2.117V8.075h2l.059.945a1.961,1.961,0,0,1,1.765-1.091,2.218,2.218,0,0,1,.659.1Zm4.526,6.086a3.89,3.89,0,0,1-2.838-1.069,3.8,3.8,0,0,1-1.095-2.849v-.205a4.787,4.787,0,0,1,.461-2.135,3.386,3.386,0,0,1,1.307-1.45,3.669,3.669,0,0,1,1.93-.509,3.289,3.289,0,0,1,2.56,1.025,4.167,4.167,0,0,1,.934,2.908v.864H-23a1.966,1.966,0,0,0,.619,1.245,1.871,1.871,0,0,0,1.307.469,2.285,2.285,0,0,0,1.912-.886l1.04,1.165a3.178,3.178,0,0,1-1.289,1.051A4.229,4.229,0,0,1-21.215,16.146Zm-.242-6.511a1.323,1.323,0,0,0-1.022.427,2.209,2.209,0,0,0-.5,1.221h2.944v-.169a1.576,1.576,0,0,0-.381-1.092A1.365,1.365,0,0,0-21.456,9.635Zm8,4.8a1.388,1.388,0,0,0,.952-.322,1.129,1.129,0,0,0,.381-.857h1.985a2.715,2.715,0,0,1-.439,1.476,2.9,2.9,0,0,1-1.183,1.04,3.7,3.7,0,0,1-1.659.37,3.44,3.44,0,0,1-2.681-1.08,4.275,4.275,0,0,1-.981-2.985v-.139A4.226,4.226,0,0,1-16.11,9.02a3.4,3.4,0,0,1,2.673-1.091,3.333,3.333,0,0,1,2.384.846,3,3,0,0,1,.912,2.252h-1.985a1.455,1.455,0,0,0-.381-1.005,1.27,1.27,0,0,0-.967-.387,1.275,1.275,0,0,0-1.117.539,3.125,3.125,0,0,0-.377,1.749v.22a3.164,3.164,0,0,0,.374,1.761A1.291,1.291,0,0,0-13.458,14.44ZM-6.7,16H-8.822V8.075H-6.7ZM-8.947,6.024a1.042,1.042,0,0,1,.319-.784,1.2,1.2,0,0,1,.868-.308,1.2,1.2,0,0,1,.864.308,1.036,1.036,0,0,1,.322.784,1.039,1.039,0,0,1-.326.791,1.2,1.2,0,0,1-.861.308,1.2,1.2,0,0,1-.861-.308A1.039,1.039,0,0,1-8.947,6.024Zm7.288,8.416a1.388,1.388,0,0,0,.952-.322,1.129,1.129,0,0,0,.381-.857H1.659a2.715,2.715,0,0,1-.439,1.476,2.9,2.9,0,0,1-1.183,1.04,3.7,3.7,0,0,1-1.659.37A3.44,3.44,0,0,1-4.3,15.066a4.275,4.275,0,0,1-.981-2.985v-.139A4.226,4.226,0,0,1-4.31,9.02,3.4,3.4,0,0,1-1.637,7.929a3.333,3.333,0,0,1,2.384.846,3,3,0,0,1,.912,2.252H-.326a1.455,1.455,0,0,0-.381-1.005,1.27,1.27,0,0,0-.967-.387,1.275,1.275,0,0,0-1.117.539,3.125,3.125,0,0,0-.377,1.749v.22A3.164,3.164,0,0,0-2.794,13.9,1.291,1.291,0,0,0-1.659,14.44ZM5.1,16H2.977V4.75H5.1Zm6.335,0a2.351,2.351,0,0,1-.212-.71,2.561,2.561,0,0,1-2,.857,2.814,2.814,0,0,1-1.93-.674,2.167,2.167,0,0,1-.765-1.7,2.24,2.24,0,0,1,.934-1.934,4.608,4.608,0,0,1,2.7-.681h.974V10.7a1.306,1.306,0,0,0-.282-.879,1.109,1.109,0,0,0-.89-.33,1.261,1.261,0,0,0-.839.256.871.871,0,0,0-.3.7H6.705A2.126,2.126,0,0,1,7.13,9.181a2.808,2.808,0,0,1,1.2-.919,4.378,4.378,0,0,1,1.743-.333,3.459,3.459,0,0,1,2.325.736,2.575,2.575,0,0,1,.861,2.069v3.435a3.789,3.789,0,0,0,.315,1.707V16Zm-1.75-1.472a1.823,1.823,0,0,0,.864-.209,1.371,1.371,0,0,0,.586-.56V12.4h-.791q-1.589,0-1.692,1.1l-.007.125a.847.847,0,0,0,.278.652A1.081,1.081,0,0,0,9.686,14.528Zm4.871-2.549a4.776,4.776,0,0,1,.831-2.952,2.7,2.7,0,0,1,2.274-1.1,2.427,2.427,0,0,1,1.912.864V4.75H21.7V16H19.786l-.1-.842a2.491,2.491,0,0,1-2.036.989,2.69,2.69,0,0,1-2.245-1.1A4.93,4.93,0,0,1,14.557,11.979Zm2.117.158a3.128,3.128,0,0,0,.388,1.709,1.265,1.265,0,0,0,1.128.594,1.416,1.416,0,0,0,1.384-.829V10.479A1.4,1.4,0,0,0,18.2,9.65Q16.674,9.65,16.674,12.137Zm6.335-.172a4.7,4.7,0,0,1,.454-2.1,3.324,3.324,0,0,1,1.307-1.428,3.814,3.814,0,0,1,1.981-.505,3.609,3.609,0,0,1,2.618.981A3.939,3.939,0,0,1,30.5,11.576l.015.542A4.142,4.142,0,0,1,29.5,15.044a3.539,3.539,0,0,1-2.732,1.1,3.556,3.556,0,0,1-2.736-1.1,4.215,4.215,0,0,1-1.022-2.988Zm2.117.15a2.962,2.962,0,0,0,.425,1.727,1.526,1.526,0,0,0,2.417.007,3.241,3.241,0,0,0,.432-1.889,2.933,2.933,0,0,0-.432-1.716,1.4,1.4,0,0,0-1.216-.609,1.382,1.382,0,0,0-1.2.605A3.3,3.3,0,0,0,25.126,12.115Z" transform="translate(1011 4981)" fill="#12263f"/>
    <path id="Trazado_751238" data-name="Trazado 751238" d="M9.324-3.552A3.774,3.774,0,0,1,8.053-.842,4.463,4.463,0,0,1,5.032.146,4.013,4.013,0,0,1,1.805-1.234,5.661,5.661,0,0,1,.63-5.024v-.652a6.393,6.393,0,0,1,.542-2.71,4.062,4.062,0,0,1,1.549-1.8,4.339,4.339,0,0,1,2.34-.626,4.348,4.348,0,0,1,2.974.989,4.055,4.055,0,0,1,1.3,2.776h-2.2a2.227,2.227,0,0,0-.575-1.5,2.129,2.129,0,0,0-1.505-.465,1.867,1.867,0,0,0-1.644.787,4.413,4.413,0,0,0-.56,2.443v.806A4.723,4.723,0,0,0,3.38-2.446a1.832,1.832,0,0,0,1.652.8,2.169,2.169,0,0,0,1.52-.465,2.1,2.1,0,0,0,.575-1.439ZM12.861,0H10.737V-11.25h2.124Zm3.977,0H14.714V-7.925h2.124ZM14.59-9.976a1.042,1.042,0,0,1,.319-.784,1.2,1.2,0,0,1,.868-.308,1.2,1.2,0,0,1,.864.308,1.036,1.036,0,0,1,.322.784,1.039,1.039,0,0,1-.326.791,1.2,1.2,0,0,1-.861.308,1.2,1.2,0,0,1-.861-.308A1.039,1.039,0,0,1,14.59-9.976ZM22.229.146A3.89,3.89,0,0,1,19.391-.923,3.8,3.8,0,0,1,18.3-3.772v-.205a4.787,4.787,0,0,1,.461-2.135,3.386,3.386,0,0,1,1.307-1.45,3.669,3.669,0,0,1,1.93-.509,3.289,3.289,0,0,1,2.56,1.025,4.167,4.167,0,0,1,.934,2.908v.864H20.442a1.966,1.966,0,0,0,.619,1.245,1.871,1.871,0,0,0,1.307.469,2.285,2.285,0,0,0,1.912-.886l1.04,1.165A3.178,3.178,0,0,1,24.031-.231,4.229,4.229,0,0,1,22.229.146Zm-.242-6.511a1.323,1.323,0,0,0-1.022.427,2.209,2.209,0,0,0-.5,1.221h2.944v-.169a1.576,1.576,0,0,0-.381-1.092A1.365,1.365,0,0,0,21.987-6.365Zm6.65-1.56.066.916a2.767,2.767,0,0,1,2.278-1.062,2.3,2.3,0,0,1,1.875.74,3.451,3.451,0,0,1,.63,2.212V0H31.37V-5.068a1.373,1.373,0,0,0-.293-.978,1.312,1.312,0,0,0-.974-.3,1.456,1.456,0,0,0-1.34.762V0H26.646V-7.925Zm8.987-1.948v1.948h1.355v1.553H37.625v3.955a.944.944,0,0,0,.168.63.846.846,0,0,0,.645.19,3.376,3.376,0,0,0,.623-.051v1.6a4.358,4.358,0,0,1-1.282.19A2.021,2.021,0,0,1,35.508-2.1v-4.27H34.351V-7.925h1.157V-9.873ZM43.806.146A3.89,3.89,0,0,1,40.968-.923a3.8,3.8,0,0,1-1.095-2.849v-.205a4.787,4.787,0,0,1,.461-2.135,3.386,3.386,0,0,1,1.307-1.45,3.669,3.669,0,0,1,1.93-.509,3.289,3.289,0,0,1,2.56,1.025,4.167,4.167,0,0,1,.934,2.908v.864H42.019a1.966,1.966,0,0,0,.619,1.245,1.871,1.871,0,0,0,1.307.469,2.285,2.285,0,0,0,1.912-.886L46.9-1.282A3.178,3.178,0,0,1,45.608-.231,4.229,4.229,0,0,1,43.806.146Zm-.242-6.511a1.323,1.323,0,0,0-1.022.427,2.209,2.209,0,0,0-.5,1.221h2.944v-.169A1.576,1.576,0,0,0,44.6-5.979,1.365,1.365,0,0,0,43.564-6.365ZM52.515,0V-6.372H51.335V-7.925h1.179v-.366a2.972,2.972,0,0,1,.919-2.3,3.7,3.7,0,0,1,2.552-.809,8.466,8.466,0,0,1,2.4.432l-.308,1.75A9.373,9.373,0,0,0,56.968-9.5a5.47,5.47,0,0,0-.85-.062q-1.479,0-1.479,1.311v.322H56.2v1.553h-1.56V0Zm6.863,0H57.253V-7.925h2.124Zm3.7-7.925.066.916A2.767,2.767,0,0,1,65.42-8.071a2.3,2.3,0,0,1,1.875.74,3.451,3.451,0,0,1,.63,2.212V0H65.808V-5.068a1.373,1.373,0,0,0-.293-.978,1.312,1.312,0,0,0-.974-.3,1.456,1.456,0,0,0-1.34.762V0H61.084V-7.925ZM74.121,0a2.351,2.351,0,0,1-.212-.71,2.561,2.561,0,0,1-2,.857,2.814,2.814,0,0,1-1.93-.674,2.167,2.167,0,0,1-.765-1.7,2.24,2.24,0,0,1,.934-1.934,4.608,4.608,0,0,1,2.7-.681h.974V-5.3a1.306,1.306,0,0,0-.282-.879,1.109,1.109,0,0,0-.89-.33,1.261,1.261,0,0,0-.839.256.871.871,0,0,0-.3.7H69.39a2.126,2.126,0,0,1,.425-1.274,2.808,2.808,0,0,1,1.2-.919,4.378,4.378,0,0,1,1.743-.333,3.459,3.459,0,0,1,2.325.736,2.575,2.575,0,0,1,.861,2.069v3.435A3.789,3.789,0,0,0,76.26-.125V0Zm-1.75-1.472a1.823,1.823,0,0,0,.864-.209,1.371,1.371,0,0,0,.586-.56V-3.6H73.03q-1.589,0-1.692,1.1l-.007.125a.847.847,0,0,0,.278.652A1.081,1.081,0,0,0,72.371-1.472ZM79.8,0H77.681V-11.25H79.8Z" transform="translate(1121.961 5089.807)" fill="#12263f"/>
  </g>
</svg>
