<svg xmlns="http://www.w3.org/2000/svg" xmlns:xlink="http://www.w3.org/1999/xlink" width="136.934" height="135.983" viewBox="0 0 136.934 135.983">
  <defs>
    <clipPath id="clip-path">
      <rect id="Rectángulo_357845" data-name="Rectángulo 357845" width="51" height="64" transform="translate(0 0)" fill="#12263f"/>
    </clipPath>
    <clipPath id="clip-path-2">
      <rect id="Rectángulo_357755" data-name="Rectángulo 357755" width="25.854" height="23.972" fill="none"/>
    </clipPath>
  </defs>
  <g id="Grupo_1021477" data-name="Grupo 1021477" transform="translate(-263 -595.534)">
    <g id="Grupo_156356" data-name="Grupo 156356" transform="translate(263 650.743)">
      <g id="Grupo_156332" data-name="Grupo 156332" transform="translate(0 0)">
        <path id="Trazado_99257" data-name="Trazado 99257" d="M419.306,105.213a2.549,2.549,0,1,1-2.548-2.434A2.492,2.492,0,0,1,419.306,105.213Z" transform="translate(-414.214 -102.779)" fill="#12263f"/>
        <path id="Trazado_116526" data-name="Trazado 116526" d="M419.306,105.213a2.549,2.549,0,1,1-2.548-2.434A2.492,2.492,0,0,1,419.306,105.213Z" transform="translate(-356.555 -102.779)" fill="#12263f"/>
        <path id="Trazado_99258" data-name="Trazado 99258" d="M427.752,105.213a2.549,2.549,0,1,1-2.545-2.434A2.492,2.492,0,0,1,427.752,105.213Z" transform="translate(-411.129 -102.779)" fill="#12263f"/>
        <path id="Trazado_116527" data-name="Trazado 116527" d="M427.752,105.213a2.549,2.549,0,1,1-2.545-2.434A2.492,2.492,0,0,1,427.752,105.213Z" transform="translate(-353.469 -102.779)" fill="#12263f"/>
        <path id="Trazado_99259" data-name="Trazado 99259" d="M436.2,105.213a2.549,2.549,0,1,1-2.545-2.434A2.492,2.492,0,0,1,436.2,105.213Z" transform="translate(-408.043 -102.779)" fill="#12263f"/>
        <path id="Trazado_116531" data-name="Trazado 116531" d="M436.2,105.213a2.549,2.549,0,1,1-2.545-2.434A2.492,2.492,0,0,1,436.2,105.213Z" transform="translate(-350.384 -102.779)" fill="#12263f"/>
        <path id="Trazado_99260" data-name="Trazado 99260" d="M444.645,105.213a2.549,2.549,0,1,1-2.547-2.434A2.492,2.492,0,0,1,444.645,105.213Z" transform="translate(-404.958 -102.779)" fill="#12263f"/>
        <path id="Trazado_116532" data-name="Trazado 116532" d="M444.645,105.213a2.549,2.549,0,1,1-2.547-2.434A2.492,2.492,0,0,1,444.645,105.213Z" transform="translate(-347.298 -102.779)" fill="#12263f"/>
        <path id="Trazado_99261" data-name="Trazado 99261" d="M453.091,105.213a2.549,2.549,0,1,1-2.545-2.434A2.492,2.492,0,0,1,453.091,105.213Z" transform="translate(-401.872 -102.779)" fill="#12263f"/>
      </g>
      <g id="Grupo_156331" data-name="Grupo 156331" transform="translate(0 12.649)">
        <ellipse id="Elipse_3975" data-name="Elipse 3975" cx="2.546" cy="2.435" rx="2.546" ry="2.435" transform="translate(0 0.001)" fill="#12263f"/>
        <ellipse id="Elipse_4742" data-name="Elipse 4742" cx="2.546" cy="2.435" rx="2.546" ry="2.435" transform="translate(57.659 0.001)" fill="#12263f"/>
        <path id="Trazado_99268" data-name="Trazado 99268" d="M427.752,112.721a2.549,2.549,0,1,1-2.545-2.434A2.493,2.493,0,0,1,427.752,112.721Z" transform="translate(-411.129 -110.287)" fill="#12263f"/>
        <path id="Trazado_116528" data-name="Trazado 116528" d="M427.752,112.721a2.549,2.549,0,1,1-2.545-2.434A2.493,2.493,0,0,1,427.752,112.721Z" transform="translate(-353.469 -110.287)" fill="#12263f"/>
        <ellipse id="Elipse_3976" data-name="Elipse 3976" cx="2.546" cy="2.435" rx="2.546" ry="2.435" transform="translate(23.064 0.001)" fill="#12263f"/>
        <ellipse id="Elipse_4743" data-name="Elipse 4743" cx="2.546" cy="2.435" rx="2.546" ry="2.435" transform="translate(80.723 0.001)" fill="#12263f"/>
        <path id="Trazado_99269" data-name="Trazado 99269" d="M444.645,112.721a2.549,2.549,0,1,1-2.547-2.434A2.494,2.494,0,0,1,444.645,112.721Z" transform="translate(-404.958 -110.287)" fill="#12263f"/>
        <path id="Trazado_116533" data-name="Trazado 116533" d="M444.645,112.721a2.549,2.549,0,1,1-2.547-2.434A2.494,2.494,0,0,1,444.645,112.721Z" transform="translate(-347.298 -110.287)" fill="#12263f"/>
        <path id="Trazado_99270" data-name="Trazado 99270" d="M453.091,112.721a2.549,2.549,0,1,1-2.545-2.434A2.493,2.493,0,0,1,453.091,112.721Z" transform="translate(-401.872 -110.287)" fill="#12263f"/>
      </g>
      <g id="Grupo_156330" data-name="Grupo 156330" transform="translate(0 25.3)">
        <path id="Trazado_99274" data-name="Trazado 99274" d="M419.306,120.23a2.549,2.549,0,1,1-2.548-2.436A2.494,2.494,0,0,1,419.306,120.23Z" transform="translate(-414.214 -117.794)" fill="#12263f"/>
        <path id="Trazado_116529" data-name="Trazado 116529" d="M419.306,120.23a2.549,2.549,0,1,1-2.548-2.436A2.494,2.494,0,0,1,419.306,120.23Z" transform="translate(-356.555 -117.794)" fill="#12263f"/>
        <path id="Trazado_99275" data-name="Trazado 99275" d="M427.752,120.23a2.549,2.549,0,1,1-2.545-2.436A2.493,2.493,0,0,1,427.752,120.23Z" transform="translate(-411.129 -117.794)" fill="#12263f"/>
        <path id="Trazado_116530" data-name="Trazado 116530" d="M427.752,120.23a2.549,2.549,0,1,1-2.545-2.436A2.493,2.493,0,0,1,427.752,120.23Z" transform="translate(-353.469 -117.794)" fill="#12263f"/>
        <path id="Trazado_99276" data-name="Trazado 99276" d="M436.2,120.23a2.549,2.549,0,1,1-2.545-2.436A2.493,2.493,0,0,1,436.2,120.23Z" transform="translate(-408.043 -117.794)" fill="#12263f"/>
        <path id="Trazado_116534" data-name="Trazado 116534" d="M436.2,120.23a2.549,2.549,0,1,1-2.545-2.436A2.493,2.493,0,0,1,436.2,120.23Z" transform="translate(-350.384 -117.794)" fill="#12263f"/>
        <path id="Trazado_99277" data-name="Trazado 99277" d="M444.645,120.23a2.549,2.549,0,1,1-2.547-2.436A2.494,2.494,0,0,1,444.645,120.23Z" transform="translate(-404.958 -117.794)" fill="#12263f"/>
        <path id="Trazado_116535" data-name="Trazado 116535" d="M444.645,120.23a2.549,2.549,0,1,1-2.547-2.436A2.494,2.494,0,0,1,444.645,120.23Z" transform="translate(-347.298 -117.794)" fill="#12263f"/>
        <path id="Trazado_99278" data-name="Trazado 99278" d="M453.091,120.23a2.549,2.549,0,1,1-2.545-2.436A2.493,2.493,0,0,1,453.091,120.23Z" transform="translate(-401.872 -117.794)" fill="#12263f"/>
      </g>
      <g id="Grupo_156327" data-name="Grupo 156327" transform="translate(0 63.252)">
        <path id="Trazado_116550" data-name="Trazado 116550" d="M419.306,120.23a2.549,2.549,0,1,1-2.548-2.436A2.494,2.494,0,0,1,419.306,120.23Z" transform="translate(-414.214 -117.794)" fill="#12263f"/>
        <path id="Trazado_116551" data-name="Trazado 116551" d="M419.306,120.23a2.549,2.549,0,1,1-2.548-2.436A2.494,2.494,0,0,1,419.306,120.23Z" transform="translate(-356.555 -117.794)" fill="#12263f"/>
        <path id="Trazado_116552" data-name="Trazado 116552" d="M427.752,120.23a2.549,2.549,0,1,1-2.545-2.436A2.493,2.493,0,0,1,427.752,120.23Z" transform="translate(-411.129 -117.794)" fill="#12263f"/>
        <path id="Trazado_116553" data-name="Trazado 116553" d="M427.752,120.23a2.549,2.549,0,1,1-2.545-2.436A2.493,2.493,0,0,1,427.752,120.23Z" transform="translate(-353.469 -117.794)" fill="#12263f"/>
        <path id="Trazado_116554" data-name="Trazado 116554" d="M436.2,120.23a2.549,2.549,0,1,1-2.545-2.436A2.493,2.493,0,0,1,436.2,120.23Z" transform="translate(-408.043 -117.794)" fill="#12263f"/>
        <path id="Trazado_116555" data-name="Trazado 116555" d="M436.2,120.23a2.549,2.549,0,1,1-2.545-2.436A2.493,2.493,0,0,1,436.2,120.23Z" transform="translate(-350.384 -117.794)" fill="#12263f"/>
        <path id="Trazado_116556" data-name="Trazado 116556" d="M444.645,120.23a2.549,2.549,0,1,1-2.547-2.436A2.494,2.494,0,0,1,444.645,120.23Z" transform="translate(-404.958 -117.794)" fill="#12263f"/>
        <path id="Trazado_116557" data-name="Trazado 116557" d="M444.645,120.23a2.549,2.549,0,1,1-2.547-2.436A2.494,2.494,0,0,1,444.645,120.23Z" transform="translate(-347.298 -117.794)" fill="#12263f"/>
        <path id="Trazado_116558" data-name="Trazado 116558" d="M453.091,120.23a2.549,2.549,0,1,1-2.545-2.436A2.493,2.493,0,0,1,453.091,120.23Z" transform="translate(-401.872 -117.794)" fill="#12263f"/>
      </g>
      <g id="Grupo_156329" data-name="Grupo 156329" transform="translate(0 37.951)">
        <ellipse id="Elipse_3980" data-name="Elipse 3980" cx="2.546" cy="2.435" rx="2.546" ry="2.435" transform="translate(0 0.002)" fill="#12263f"/>
        <ellipse id="Elipse_4744" data-name="Elipse 4744" cx="2.546" cy="2.435" rx="2.546" ry="2.435" transform="translate(57.659 0.002)" fill="#12263f"/>
        <path id="Trazado_99285" data-name="Trazado 99285" d="M427.752,127.738a2.549,2.549,0,1,1-2.545-2.436A2.491,2.491,0,0,1,427.752,127.738Z" transform="translate(-411.129 -125.302)" fill="#12263f"/>
        <path id="Trazado_116536" data-name="Trazado 116536" d="M427.752,127.738a2.549,2.549,0,1,1-2.545-2.436A2.491,2.491,0,0,1,427.752,127.738Z" transform="translate(-353.469 -125.302)" fill="#12263f"/>
        <ellipse id="Elipse_3981" data-name="Elipse 3981" cx="2.546" cy="2.435" rx="2.546" ry="2.435" transform="translate(23.064 0.002)" fill="#12263f"/>
        <ellipse id="Elipse_4745" data-name="Elipse 4745" cx="2.546" cy="2.435" rx="2.546" ry="2.435" transform="translate(80.723 0.002)" fill="#12263f"/>
        <path id="Trazado_99286" data-name="Trazado 99286" d="M444.645,127.738A2.549,2.549,0,1,1,442.1,125.3,2.492,2.492,0,0,1,444.645,127.738Z" transform="translate(-404.958 -125.302)" fill="#12263f"/>
        <path id="Trazado_116537" data-name="Trazado 116537" d="M444.645,127.738A2.549,2.549,0,1,1,442.1,125.3,2.492,2.492,0,0,1,444.645,127.738Z" transform="translate(-347.298 -125.302)" fill="#12263f"/>
        <path id="Trazado_99287" data-name="Trazado 99287" d="M453.091,127.738a2.549,2.549,0,1,1-2.545-2.436A2.491,2.491,0,0,1,453.091,127.738Z" transform="translate(-401.872 -125.302)" fill="#12263f"/>
      </g>
      <g id="Grupo_156326" data-name="Grupo 156326" transform="translate(0 75.904)">
        <ellipse id="Elipse_4754" data-name="Elipse 4754" cx="2.546" cy="2.435" rx="2.546" ry="2.435" transform="translate(0 0.001)" fill="#12263f"/>
        <ellipse id="Elipse_4750" data-name="Elipse 4750" cx="2.546" cy="2.435" rx="2.546" ry="2.435" transform="translate(57.659 0.001)" fill="#12263f"/>
        <path id="Trazado_116548" data-name="Trazado 116548" d="M427.752,127.738a2.549,2.549,0,1,1-2.545-2.436A2.491,2.491,0,0,1,427.752,127.738Z" transform="translate(-411.129 -125.302)" fill="#12263f"/>
        <path id="Trazado_116542" data-name="Trazado 116542" d="M427.752,127.738a2.549,2.549,0,1,1-2.545-2.436A2.491,2.491,0,0,1,427.752,127.738Z" transform="translate(-353.469 -125.302)" fill="#12263f"/>
        <ellipse id="Elipse_4751" data-name="Elipse 4751" cx="2.546" cy="2.435" rx="2.546" ry="2.435" transform="translate(23.064 0.001)" fill="#12263f"/>
        <ellipse id="Elipse_4752" data-name="Elipse 4752" cx="2.546" cy="2.435" rx="2.546" ry="2.435" transform="translate(80.723 0.001)" fill="#12263f"/>
        <path id="Trazado_116543" data-name="Trazado 116543" d="M444.645,127.738A2.549,2.549,0,1,1,442.1,125.3,2.492,2.492,0,0,1,444.645,127.738Z" transform="translate(-404.958 -125.302)" fill="#12263f"/>
        <path id="Trazado_116544" data-name="Trazado 116544" d="M444.645,127.738A2.549,2.549,0,1,1,442.1,125.3,2.492,2.492,0,0,1,444.645,127.738Z" transform="translate(-347.298 -125.302)" fill="#12263f"/>
        <path id="Trazado_116545" data-name="Trazado 116545" d="M453.091,127.738a2.549,2.549,0,1,1-2.545-2.436A2.491,2.491,0,0,1,453.091,127.738Z" transform="translate(-401.872 -125.302)" fill="#12263f"/>
      </g>
      <g id="Grupo_156328" data-name="Grupo 156328" transform="translate(0 50.602)">
        <ellipse id="Elipse_3985" data-name="Elipse 3985" cx="2.546" cy="2.435" rx="2.546" ry="2.435" transform="translate(0 0.001)" fill="#12263f"/>
        <ellipse id="Elipse_4746" data-name="Elipse 4746" cx="2.546" cy="2.435" rx="2.546" ry="2.435" transform="translate(57.659 0.001)" fill="#12263f"/>
        <path id="Trazado_99291" data-name="Trazado 99291" d="M427.752,135.246a2.549,2.549,0,1,1-2.545-2.436A2.491,2.491,0,0,1,427.752,135.246Z" transform="translate(-411.129 -132.81)" fill="#12263f"/>
        <path id="Trazado_116538" data-name="Trazado 116538" d="M427.752,135.246a2.549,2.549,0,1,1-2.545-2.436A2.491,2.491,0,0,1,427.752,135.246Z" transform="translate(-353.469 -132.81)" fill="#12263f"/>
        <ellipse id="Elipse_3986" data-name="Elipse 3986" cx="2.546" cy="2.435" rx="2.546" ry="2.435" transform="translate(23.064 0.001)" fill="#12263f"/>
        <ellipse id="Elipse_4747" data-name="Elipse 4747" cx="2.546" cy="2.435" rx="2.546" ry="2.435" transform="translate(80.723 0.001)" fill="#12263f"/>
        <path id="Trazado_99292" data-name="Trazado 99292" d="M444.645,135.246a2.549,2.549,0,1,1-2.547-2.436A2.492,2.492,0,0,1,444.645,135.246Z" transform="translate(-404.958 -132.81)" fill="#12263f"/>
        <path id="Trazado_116539" data-name="Trazado 116539" d="M444.645,135.246a2.549,2.549,0,1,1-2.547-2.436A2.492,2.492,0,0,1,444.645,135.246Z" transform="translate(-347.298 -132.81)" fill="#12263f"/>
        <path id="Trazado_99293" data-name="Trazado 99293" d="M453.091,135.246a2.549,2.549,0,1,1-2.545-2.436A2.491,2.491,0,0,1,453.091,135.246Z" transform="translate(-401.872 -132.81)" fill="#12263f"/>
      </g>
    </g>
    <g id="Grupo_1015138" data-name="Grupo 1015138" transform="translate(277.562 595.534)">
      <circle id="Elipse_8447" data-name="Elipse 8447" cx="61.186" cy="61.186" r="61.186" transform="translate(0 0)" fill="#91b3fa"/>
      <circle id="Elipse_8448" data-name="Elipse 8448" cx="51.264" cy="51.264" r="51.264" transform="translate(9.922 9.922)" fill="#fff"/>
      <g id="Grupo_1021479" data-name="Grupo 1021479" transform="translate(36.373 28.951)">
        <g id="Grupo_1021478" data-name="Grupo 1021478" transform="translate(-0.435 0.496)" clip-path="url(#clip-path)">
          <path id="Trazado_750042" data-name="Trazado 750042" d="M50.321,32.206q0,12.893,0,25.787c0,1.153,0,2.306,0,3.459a3,3,0,0,1-2.941,2.961q-12.422.007-24.844,0-4.512,0-9.025,0-5.218,0-10.436,0A3,3,0,0,1,0,61.332Q0,50.97,0,40.608q0-14.2,0-28.394Q0,7.671,0,3.127A3.013,3.013,0,0,1,2.564.038,2.2,2.2,0,0,1,2.969.006l27.3,0q8.491,0,16.981,0A3,3,0,0,1,50.32,3.056q0,11.824,0,23.648,0,2.75,0,5.5m-48.309.008v5.849q0,11.556,0,23.112c0,.854.372,1.23,1.22,1.23H47.089c.848,0,1.218-.375,1.219-1.23q0-2.013,0-4.025V26.96q0-11.887,0-23.773a1.049,1.049,0,0,0-1.184-1.176q-5.235,0-10.47.007-5.817,0-11.635,0H3.226c-.834,0-1.214.376-1.214,1.2q0,3.27,0,6.541,0,11.226,0,22.452" transform="translate(0.257 -0.295)" fill="#12263f"/>
          <path id="Trazado_750043" data-name="Trazado 750043" d="M31.987,62.092q0-11.226,0-22.452,0-3.27,0-6.541c0-.828.38-1.2,1.214-1.2H54.993q5.817,0,11.635,0,5.235,0,10.47-.007a1.049,1.049,0,0,1,1.184,1.176q0,11.887,0,23.773V87.027q0,2.013,0,4.025c0,.856-.37,1.23-1.219,1.23H33.207c-.848,0-1.22-.376-1.22-1.23q0-11.556,0-23.112,0-2.924,0-5.849m18.127-3.022H38.134a1,1,0,0,0-1.114,1.1c0,.765,0,1.53,0,2.3q0,9.827-.009,19.654a1.114,1.114,0,0,0,.511.981q2.446,1.709,4.89,3.421c1.535,1.074,3.079,2.134,4.6,3.229a2.6,2.6,0,0,0,1.621.528c4.832-.027,9.664-.027,14.5-.028,2.987,0,5.974.01,8.961.015a1.015,1.015,0,0,0,1.156-1.153q0-11.9.007-23.8a1.2,1.2,0,0,0-.731-1.194c-3.269-1.627-6.532-3.266-9.8-4.891a1.472,1.472,0,0,0-.63-.147q-5.99-.013-11.98-.006m9.078-19.122H51.928c-.943,0-1.887,0-2.83,0a.952.952,0,0,0-.933.622,1,1,0,0,0,.963,1.385q4.277.007,8.553,0,5.755,0,11.51,0a.989.989,0,0,0,1.039-1.018,1.01,1.01,0,0,0-1.069-.992H59.193m-.051,10.064q-3.694,0-7.388,0c-.922,0-1.844,0-2.765.022a.919.919,0,0,0-.881.923.989.989,0,0,0,1.084,1.065q7.812-.006,15.625-.015c1.446,0,2.892.013,4.338.014a1.007,1.007,0,1,0,.016-2.01q-5.014,0-10.029,0m-13.12-9.027h.055c0-.534.006-1.069,0-1.6a1.992,1.992,0,0,0-1.948-1.947q-1.572-.012-3.143,0a1.99,1.99,0,0,0-1.948,1.948q-.01,1.571,0,3.143a1.992,1.992,0,0,0,1.947,1.948q1.572.013,3.143,0A1.9,1.9,0,0,0,46,42.926a14.02,14.02,0,0,0,.017-1.94m-3.467,13.5c0,.018,0,.036,0,.055.524,0,1.048,0,1.572,0A2.011,2.011,0,0,0,46.074,52.6q.013-1.572,0-3.144A1.988,1.988,0,0,0,44.1,47.5q-1.54-.008-3.081,0a1.99,1.99,0,0,0-1.984,1.978q-.009,1.541,0,3.081a1.9,1.9,0,0,0,1.548,1.91,13.494,13.494,0,0,0,1.972.019" transform="translate(-29.717 -30.175)" fill="#d2e1f1"/>
          <path id="Trazado_750044" data-name="Trazado 750044" d="M125.044,464.006q5.99,0,11.98.006a1.472,1.472,0,0,1,.63.147c3.269,1.625,6.532,3.264,9.8,4.891a1.2,1.2,0,0,1,.731,1.194q-.015,11.9-.007,23.8a1.015,1.015,0,0,1-1.156,1.153c-2.987,0-5.974-.016-8.961-.015-4.832,0-9.664,0-14.5.028a2.6,2.6,0,0,1-1.621-.528c-1.52-1.095-3.064-2.155-4.6-3.229q-2.445-1.71-4.89-3.421a1.114,1.114,0,0,1-.511-.981q.01-9.827.009-19.654c0-.765-.005-1.53,0-2.3a1,1,0,0,1,1.114-1.1h11.98m-1.006,24.135h22.105V471.066h-6.518c0,.124,0,.227,0,.33q0,3.521,0,7.043c0,.794-.371,1.164-1.177,1.164q-3.363,0-6.727,0a1.014,1.014,0,0,1-1.152-1.159q0-3.507,0-7.013v-.37h-6.529ZM122,487.213c.011-.1.017-.129.017-.16q.01-4.339.017-8.678c0-2.452-.013-4.9-.011-7.356a.471.471,0,0,0-.3-.5c-2.055-1.011-4.1-2.04-6.149-3.064l-1.613-.807v.386q0,7.106-.008,14.212a.594.594,0,0,0,.292.557q3.235,2.25,6.46,4.513l1.291.9m24.163,2.976H124.041v2.984h22.118Zm-3.4-21.148.01-.06c-.044-.026-.087-.053-.133-.076-1.615-.813-3.226-1.635-4.85-2.43a3.017,3.017,0,0,0-1.37-.469c-5.941.016-11.882.008-17.822.006h-1.226a.49.49,0,0,0,.212.183c1.8.9,3.608,1.808,5.418,2.7a1.4,1.4,0,0,0,.595.137q7.544.013,15.088.009h4.079M132.6,477.576h5v-6.518h-5Zm-10.588,14.682c0-.782-.014-1.495.007-2.206a.584.584,0,0,0-.285-.563q-3.8-2.648-7.591-5.31a1.061,1.061,0,0,0-.184-.078c0,.71.018,1.391-.008,2.071a.722.722,0,0,0,.363.71c1.879,1.294,3.743,2.611,5.612,3.92.675.473,1.352.944,2.086,1.456" transform="translate(-104.648 -435.109)" fill="#12263f"/>
          <path id="Trazado_750045" data-name="Trazado 750045" d="M299,160h9.968a1.01,1.01,0,0,1,1.069.992A.989.989,0,0,1,309,162.011q-5.755,0-11.51,0-4.277,0-8.553,0a1,1,0,0,1-.963-1.385A.952.952,0,0,1,288.9,160c.943,0,1.887,0,2.83,0H299" transform="translate(-269.523 -150.227)" fill="#12263f"/>
          <path id="Trazado_750046" data-name="Trazado 750046" d="M299.3,320q5.014,0,10.029,0a1.007,1.007,0,1,1-.016,2.01c-1.446,0-2.892-.015-4.338-.014q-7.812,0-15.625.015a.989.989,0,0,1-1.084-1.065.919.919,0,0,1,.881-.923c.922-.019,1.844-.021,2.765-.022q3.694,0,7.388,0" transform="translate(-269.879 -300.158)" fill="#12263f"/>
          <path id="Trazado_750047" data-name="Trazado 750047" d="M150.953,123.508a14.019,14.019,0,0,1-.017,1.94A1.9,1.9,0,0,1,149.058,127q-1.572.013-3.143,0a1.992,1.992,0,0,1-1.947-1.948q-.01-1.571,0-3.143a1.99,1.99,0,0,1,1.948-1.948q1.572-.012,3.143,0a1.992,1.992,0,0,1,1.948,1.947c.007.534,0,1.069,0,1.6h-.055M146,124.963h2.981v-2.985H146Z" transform="translate(-134.65 -112.697)" fill="#12263f"/>
          <path id="Trazado_750048" data-name="Trazado 750048" d="M147.49,286.962a13.5,13.5,0,0,1-1.972-.019,1.9,1.9,0,0,1-1.548-1.91q-.008-1.541,0-3.081a1.99,1.99,0,0,1,1.984-1.978q1.54-.008,3.081,0a1.988,1.988,0,0,1,1.975,1.953q.015,1.572,0,3.144a2.011,2.011,0,0,1-1.947,1.944c-.524.006-1.048,0-1.572,0q0-.027,0-.055M146,284.985h2.986v-2.98H146Z" transform="translate(-134.654 -262.651)" fill="#12263f"/>
          <path id="Trazado_750049" data-name="Trazado 750049" d="M304.2,593.273V576.2h6.529v.37q0,3.507,0,7.013a1.014,1.014,0,0,0,1.152,1.159q3.363,0,6.727,0c.806,0,1.177-.37,1.177-1.164q0-3.521,0-7.043v-.33H326.3v17.074Z" transform="translate(-284.804 -540.242)" fill="#f0dcc0"/>
          <path id="Trazado_750050" data-name="Trazado 750050" d="M151.9,526.531l-1.291-.9q-3.229-2.258-6.46-4.513a.594.594,0,0,1-.292-.557q.016-7.106.008-14.212v-.386l1.613.807c2.048,1.024,4.094,2.053,6.149,3.064a.471.471,0,0,1,.3.5c0,2.452.011,4.9.011,7.356q0,4.339-.017,8.678c0,.031-.006.062-.017.16" transform="translate(-134.548 -474.427)" fill="#dec5a1"/>
          <rect id="Rectángulo_357841" data-name="Rectángulo 357841" width="22.118" height="2.984" transform="translate(19.394 55.08)" fill="#f0dcc0"/>
          <path id="Trazado_750051" data-name="Trazado 750051" d="M223.5,498.835h-4.079q-7.544,0-15.088-.009a1.4,1.4,0,0,1-.594-.137c-1.81-.893-3.613-1.8-5.418-2.7a.49.49,0,0,1-.212-.183h1.226c5.941,0,11.882.01,17.822-.006a3.016,3.016,0,0,1,1.37.469c1.624.8,3.235,1.618,4.85,2.43.045.023.088.051.133.076l-.01.06" transform="translate(-185.39 -464.903)" fill="#f0dcc0"/>
          <rect id="Rectángulo_357842" data-name="Rectángulo 357842" width="4.996" height="6.518" transform="translate(27.954 35.95)" fill="#fe7062"/>
          <path id="Trazado_750052" data-name="Trazado 750052" d="M151.9,791.649c-.734-.512-1.411-.983-2.086-1.456-1.869-1.309-3.733-2.626-5.612-3.92a.722.722,0,0,1-.363-.71c.026-.68.008-1.361.008-2.071a1.052,1.052,0,0,1,.184.078q3.8,2.655,7.591,5.31a.584.584,0,0,1,.285.563c-.021.711-.007,1.423-.007,2.206" transform="translate(-134.53 -734.501)" fill="#dec5a1"/>
          <rect id="Rectángulo_357843" data-name="Rectángulo 357843" width="2.981" height="2.985" transform="translate(11.348 9.281)" fill="#e6b046"/>
          <rect id="Rectángulo_357844" data-name="Rectángulo 357844" width="2.986" height="2.98" transform="translate(11.343 19.355)" fill="#e6b046"/>
        </g>
      </g>
      <g id="Grupo_1021480" data-name="Grupo 1021480" transform="translate(64.517 78.2)">
        <g id="Grupo_1021339" data-name="Grupo 1021339" clip-path="url(#clip-path-2)">
          <path id="Trazado_749863" data-name="Trazado 749863" d="M0,14.485a4.283,4.283,0,0,0,.147-.806,7.141,7.141,0,0,1,.771-2.161,9.05,9.05,0,0,1,.937-1.456A8.248,8.248,0,0,1,4.339,7.956a10.6,10.6,0,0,1,1.225-.58A7.469,7.469,0,0,1,7.493,6.9c.544-.044,1.086-.023,1.628-.033.176,0,.234-.045.219-.223A1.371,1.371,0,0,1,9.787,5.5l.055-.04a1.42,1.42,0,0,1,.956-.312c2.114-.006,4.227,0,6.341,0,.092,0,.184,0,.276-.007.03.009.064.025.08-.013,0-.01-.026-.035-.04-.053a2.977,2.977,0,0,0-.983-.632A1.176,1.176,0,0,1,15.8,3.326a1.153,1.153,0,0,1,.732-1.05,2.721,2.721,0,0,0,1.454-1.4,1.228,1.228,0,0,1,.928-.791c.029-.005.1-.012.11-.08h.2a.184.184,0,0,0,.157.1,1.019,1.019,0,0,1,.827.66,2.807,2.807,0,0,0,1.341,1.458c.009.067.017.135.1.05a1.161,1.161,0,0,1,.559.468.983.983,0,0,1,.2.919,1.156,1.156,0,0,1-.666.792,2.424,2.424,0,0,0-.959.652l-.036.035.038,0c.4,0,.8.025,1.2,0a.568.568,0,0,1,.663.406.743.743,0,0,1-.708.366c-.485-.034-.975,0-1.462-.011a.294.294,0,0,0-.326.182,1.171,1.171,0,0,1-.6.531A1.123,1.123,0,0,1,18.1,6.058a.235.235,0,0,0-.245-.159c-2.362.005-4.724,0-7.087.01a.736.736,0,0,0-.435.131c-.293.206-.23.5-.238.785,0,.119.033.172.165.2a5.55,5.55,0,0,1,.875.218,8.586,8.586,0,0,1,2.325,1.188.724.724,0,0,0,.474.145q4.5-.009,9,0a.662.662,0,0,0,.746-.74c0-.387,0-.773,0-1.16a.986.986,0,0,0-.12-.5.377.377,0,0,1,.054-.458c.255-.144.444-.123.565.066a1.488,1.488,0,0,1,.257.828c0,.37,0,.74,0,1.109a1.444,1.444,0,0,1-.819,1.471c-.075.035-.081.062-.054.143a5.293,5.293,0,0,1,.05,2.665c.279,0,.581-.01.882,0a1.393,1.393,0,0,1,1.3,1.139,6.784,6.784,0,0,1-.061,2.2,1.571,1.571,0,0,1-1.418.866,6.542,6.542,0,0,1,.086,2.213.714.714,0,0,1-.068.306,1.449,1.449,0,0,1-1.372.871c-2.2-.012-4.408,0-6.611-.011-.3,0-.511.025-.638.341a2.039,2.039,0,0,1-.242.369,8.679,8.679,0,0,1-1.647,1.732,7.488,7.488,0,0,1-1.7,1.055c-.243.106-.481.22-.722.331l-.4.114a.935.935,0,0,1-.111.042,7.59,7.59,0,0,1-1.845.308c-.037,0-.2-.082-.113.1h-.1c.035-.028.058-.082.005-.085a5.655,5.655,0,0,0-.617,0c-.052,0-.029.058.006.085h-.1c.081-.071.031-.1-.04-.1-.261.026-.51-.07-.77-.057a.932.932,0,0,1-.473-.1,2.519,2.519,0,0,0-.935-.21c-.03-.078-.1-.028-.151-.051a1.181,1.181,0,0,0-.355-.188l-.151-.049c-.067-.084-.165-.051-.25-.066-.014-.057-.065-.039-.1-.05a1.279,1.279,0,0,0-.4-.2c-.014-.057-.065-.039-.1-.051a.354.354,0,0,0-.252-.151,1.06,1.06,0,0,0-.252-.252l-.047-.244c.061-.013.033-.078.064-.109.139-.112.3-.236.47-.122a6.649,6.649,0,0,0,1.1.538A4.093,4.093,0,0,0,6.4,22.9a10.855,10.855,0,0,0,2.43.229c.006.065.045.088.105.086a1.169,1.169,0,0,1,.25-.1,7.824,7.824,0,0,0,1.958-.432,10.514,10.514,0,0,0,1.784-.929l.04-.035a7.259,7.259,0,0,0,1.067-.921l.359-.357.038-.04A6.858,6.858,0,0,0,15.7,18.27c.068-.01.126-.025.046-.1a7.721,7.721,0,0,0,.559-2.893c.007-.47-.107-.931-.145-1.4.069-.089-.005-.089-.062-.1a5.91,5.91,0,0,0-.821-2.268,7.183,7.183,0,0,0-1.6-1.96A7.406,7.406,0,0,0,11.9,8.36a7.6,7.6,0,0,0-4.43-.694A5.644,5.644,0,0,0,6,8.02a5.5,5.5,0,0,0-.78.291A6.518,6.518,0,0,0,3.544,9.378a7.644,7.644,0,0,0-1.428,1.549A7.87,7.87,0,0,0,.768,14.7a7.387,7.387,0,0,0,.208,2.573,8.067,8.067,0,0,0,.613,1.634,8.282,8.282,0,0,0,1.471,2,.293.293,0,0,1,.079.4c-.131,0-.165.077-.161.189-.131.116-.265.046-.4.007a2.741,2.741,0,0,0-.407-.407,4.162,4.162,0,0,0-.517-.65.287.287,0,0,0-.138-.16,1.5,1.5,0,0,0-.3-.449c-.008-.038.007-.089-.053-.1a.36.36,0,0,0-.153-.251,3.853,3.853,0,0,0-.286-.595L.244,17.513C.25,17.457.275,17.4.2,17.36a2.741,2.741,0,0,0-.112-.554c-.056-.181,0-.381-.093-.555v-.707q.078-.05,0-.1v-.151a.122.122,0,0,0,0-.2ZM20.441,2.364l-.059-.044a3.8,3.8,0,0,1-.831-1.186c-.093-.178-.182-.309-.388-.326a.408.408,0,0,0-.428.272A3.654,3.654,0,0,1,17.7,2.464a4.759,4.759,0,0,1-.828.478.509.509,0,0,0-.323.431c-.019.23.143.329.3.406a4.849,4.849,0,0,1,1.052.675,3.77,3.77,0,0,1,.859,1.26.391.391,0,0,0,.554.2.583.583,0,0,0,.26-.349,3.192,3.192,0,0,1,1.665-1.7,1.172,1.172,0,0,0,.34-.236.377.377,0,0,0-.142-.643,3.988,3.988,0,0,1-1-.619m.085,10.383c-1.2,0-2.4.007-3.606-.006-.247,0-.254.091-.2.275a10.277,10.277,0,0,1,.331,2.156c.018.2.074.241.26.241q3.342-.009,6.683,0c.116,0,.233.009.349.02a.676.676,0,0,0,.7-.506,6.8,6.8,0,0,0,.033-1.475c-.016-.429-.232-.651-.541-.679-.175-.016-.351-.022-.527-.022q-1.74,0-3.48,0M14.562,9.325c.146.17.252.306.37.431a7.805,7.805,0,0,1,1.353,2.083c.053.113.094.153.208.153,1.925,0,3.849,0,5.774,0a.644.644,0,0,0,.714-.731c.005-.386,0-.773,0-1.16,0-.531-.241-.771-.776-.772q-2.105,0-4.211,0H14.562m1.744,9.505c2.276,0,4.528,0,6.78,0a.625.625,0,0,0,.593-.646c.008-.395,0-.79,0-1.185,0-.6-.224-.829-.822-.83h-2.8c-.941,0-1.883,0-2.824,0-.139,0-.218,0-.241.187-.026.209-.053.423-.1.63a8.494,8.494,0,0,1-.59,1.848" transform="translate(0 -0.001)"/>
          <path id="Trazado_749864" data-name="Trazado 749864" d="M0,298.248a.122.122,0,0,1,0,.2Z" transform="translate(0 -283.159)" fill="#010101"/>
          <path id="Trazado_749865" data-name="Trazado 749865" d="M0,305.23q.078.05,0,.1Z" transform="translate(0 -289.787)" fill="#010101"/>
          <path id="Trazado_749866" data-name="Trazado 749866" d="M15.886,28.231a1.033,1.033,0,0,1-.259,1.676,2.443,2.443,0,0,0-.707.437,3.1,3.1,0,0,0-.527.79,1.008,1.008,0,0,1-.819.589.951.951,0,0,1-1.02-.579,2.141,2.141,0,0,0-.789-.99c-.181-.106-.368-.2-.553-.3a1.023,1.023,0,0,1,.085-1.789,2.345,2.345,0,0,0,1.216-1.174,1.006,1.006,0,0,1,1.6-.415.962.962,0,0,1,.317.424,2.133,2.133,0,0,0,1.154,1.143,1.972,1.972,0,0,1,.252.151c.008.027.019.051.055.038m-.453.779c0-.173-.005-.209-.239-.316a2.683,2.683,0,0,1-1.414-1.418c-.056-.129-.133-.262-.33-.25s-.227.141-.288.266a2.5,2.5,0,0,1-1,1.165c-.163.091-.328.178-.487.276-.26.161-.259.392.013.517a2.918,2.918,0,0,1,1.523,1.524c.041.095.077.206.222.2a.317.317,0,0,0,.306-.2,2.856,2.856,0,0,1,1.549-1.545c.109-.047.167-.1.143-.212" transform="translate(-10.184 -24.911)" fill="#010101"/>
          <path id="Trazado_749867" data-name="Trazado 749867" d="M344.266,100.209c.014.018.044.043.04.053-.016.038-.051.022-.08.013l.041-.066" transform="translate(-326.809 -95.139)" fill="#d3d3ff"/>
          <path id="Trazado_749868" data-name="Trazado 749868" d="M193.495,107.85l-.055.04c.008-.028.019-.051.055-.04" transform="translate(-183.653 -102.391)" fill="#010101"/>
          <path id="Trazado_749869" data-name="Trazado 749869" d="M17.734,172.526l-.655-.5a.171.171,0,0,0-.108-.107l.061-.14a.293.293,0,0,0-.079-.4,8.28,8.28,0,0,1-1.471-2,8.069,8.069,0,0,1-.613-1.634,7.387,7.387,0,0,1-.208-2.573,7.87,7.87,0,0,1,1.347-3.774,7.644,7.644,0,0,1,1.428-1.549,6.518,6.518,0,0,1,1.679-1.067,5.5,5.5,0,0,1,.78-.291c-.1.3-.208.6-.287.907a2.835,2.835,0,0,0-.215,1.016.384.384,0,0,0-.017.044.677.677,0,0,0-.342.205c-.04,0-.083,0-.1.051l-.2.121c-.065-.007-.044.05-.06.08-.039,0-.079,0-.094.049a1.778,1.778,0,0,1-.5.436.376.376,0,0,0-.184.2c-.036.168-.174.229-.275.33a.161.161,0,0,0-.11.15l-.092.1c-.054.011-.051.054-.053.095l-.048.054c-.029.006-.047.02-.043.052l-.06.1c-.053.015-.049.06-.053.1a.174.174,0,0,0-.1.151c-.051.017-.046.06-.047.1a1.311,1.311,0,0,0-.253.452c-.027.009-.048.022-.04.056s-.088.059-.012.1l-.14.3-.1.3c.005.191.056.393-.147.528-.018.012,0,.069-.016.1-.138.225-.01.471-.054.715a4.346,4.346,0,0,0,.029,1.415c.043.279.164.526.22.793a4.148,4.148,0,0,0,.712,1.558.1.1,0,0,0,.073.116l.006.01c.023.041.01.1.074.121a.746.746,0,0,0,.249.311.156.156,0,0,0,.1.148,6.5,6.5,0,0,0,.959.908c.016.049.057.047.1.048l.054.048c.006.029.02.047.052.044a2.62,2.62,0,0,0,.6.367c.115.068.2.192.356.185a1.487,1.487,0,0,0,.505.2c.067.076.172.061.252.106a5.561,5.561,0,0,0,1.911.261c.237-.012.471-.047.7-.076a5.969,5.969,0,0,0,.869-.174c.072,0,.15.006.186-.08a1.225,1.225,0,0,0,.623-.221c.039-.007.086,0,.1-.05.108.016.173-.061.25-.113.054-.025.118-.032.154-.089a3.3,3.3,0,0,0,.659-.406.186.186,0,0,0,.039,0c.04.158.189.122.288.144.511.114,1.026.21,1.54.312a7.26,7.26,0,0,1-1.067.921c-.035-.013-.044,0-.04.035a10.513,10.513,0,0,1-1.784.929,7.826,7.826,0,0,1-1.958.432,1.168,1.168,0,0,0-.25.1c-.006-.064-.024-.113-.105-.086a10.857,10.857,0,0,1-2.43-.229,4.1,4.1,0,0,1-.925-.385,6.648,6.648,0,0,1-1.1-.538c-.165-.114-.331.011-.47.122l-.065-.055" transform="translate(-13.893 -150.482)" fill="#3379db"/>
          <path id="Trazado_749870" data-name="Trazado 749870" d="M212.063,109.577a4.4,4.4,0,0,1,.717.039.653.653,0,0,1,.237.127.377.377,0,0,0-.054.458.986.986,0,0,1,.12.5c0,.387,0,.773,0,1.16a.662.662,0,0,1-.746.74q-4.5,0-9,0a.725.725,0,0,1-.474-.145,8.584,8.584,0,0,0-2.325-1.188,5.55,5.55,0,0,0-.875-.218c-.132-.025-.168-.078-.165-.2.008-.283-.056-.579.238-.785a.737.737,0,0,1,.435-.131c2.362-.006,4.724,0,7.087-.01a.235.235,0,0,1,.245.159,1.123,1.123,0,0,0,1.474.554,1.17,1.17,0,0,0,.6-.531.294.294,0,0,1,.326-.182c.487.007.977-.023,1.462.011a.743.743,0,0,0,.708-.366" transform="translate(-189.401 -104.033)" fill="#fae84c"/>
          <path id="Trazado_749871" data-name="Trazado 749871" d="M117.151,163.023c-.514-.1-1.029-.2-1.54-.312-.1-.022-.249.014-.288-.144l.11-.1a2.521,2.521,0,0,0,.556-.5l0,0a2.286,2.286,0,0,0,.555-.654c.059-.042.126-.076.138-.158.15-.272.441-.462.471-.805a.322.322,0,0,0,.1-.2,4.85,4.85,0,0,0,.541-2,6.178,6.178,0,0,0-.091-1.817A5.908,5.908,0,0,0,117,154.5l.035-.038-.035-.021c-.032-.181-.2-.259-.3-.391a6.035,6.035,0,0,0-1.978-1.825,6.38,6.38,0,0,0-3.806-.767,8.051,8.051,0,0,0-1.794.472c-.034-.009-.046.012-.054.039l0,0c-.037.009-.085,0-.1.05-.037.01-.085,0-.1.05l-.251.106a2.835,2.835,0,0,1,.215-1.016c.079-.307.19-.6.287-.907a5.648,5.648,0,0,1,1.468-.353,7.6,7.6,0,0,1,4.43.694,7.4,7.4,0,0,1,1.773,1.188,7.183,7.183,0,0,1,1.6,1.96,5.909,5.909,0,0,1,.821,2.268c-.058.082.029.074.062.1.038.467.152.927.145,1.4a7.721,7.721,0,0,1-.559,2.893c-.023.031-.122.027-.046.1a6.858,6.858,0,0,1-1.264,2.129c-.032,0-.047.007-.038.04l-.359.357" transform="translate(-103.114 -142.229)" fill="#6993e4"/>
          <path id="Trazado_749872" data-name="Trazado 749872" d="M333.77,251.83q1.74,0,3.48,0c.176,0,.352.006.527.022.309.028.525.25.541.679a6.8,6.8,0,0,1-.033,1.475.676.676,0,0,1-.7.506c-.116-.01-.233-.019-.349-.02q-3.342,0-6.683,0c-.186,0-.242-.037-.26-.241a10.282,10.282,0,0,0-.331-2.156c-.057-.184-.05-.278.2-.275,1.2.013,2.4.006,3.606.006" transform="translate(-313.244 -239.083)" fill="#fae84c"/>
          <path id="Trazado_749873" data-name="Trazado 749873" d="M287.829,184.282h3.433q2.105,0,4.211,0c.536,0,.774.24.776.772,0,.387,0,.773,0,1.16a.644.644,0,0,1-.714.731c-1.925.007-3.849,0-5.774,0-.114,0-.155-.04-.208-.153a7.805,7.805,0,0,0-1.353-2.083c-.118-.125-.225-.261-.37-.431" transform="translate(-273.267 -174.958)" fill="#fec737"/>
          <path id="Trazado_749874" data-name="Trazado 749874" d="M322.3,322.144a8.492,8.492,0,0,0,.59-1.849c.047-.207.073-.421.1-.63.023-.183.1-.188.241-.187.941,0,1.883,0,2.824,0h2.8c.6,0,.821.227.822.83,0,.395.006.79,0,1.185a.625.625,0,0,1-.593.646c-2.252.005-4.5,0-6.78,0" transform="translate(-305.993 -303.315)" fill="#fec737"/>
          <path id="Trazado_749875" data-name="Trazado 749875" d="M331.038,17.487a3.988,3.988,0,0,0,1,.619.377.377,0,0,1,.142.643,1.172,1.172,0,0,1-.34.236,3.192,3.192,0,0,0-1.665,1.7.583.583,0,0,1-.26.349.391.391,0,0,1-.554-.2,3.769,3.769,0,0,0-.859-1.26,4.848,4.848,0,0,0-1.052-.675c-.158-.078-.319-.177-.3-.406a.509.509,0,0,1,.323-.431,4.76,4.76,0,0,0,.828-.478,3.654,3.654,0,0,0,1.032-1.383.408.408,0,0,1,.428-.272c.206.017.3.148.388.326a3.794,3.794,0,0,0,.831,1.186c.011.027.023.051.059.044" transform="translate(-310.597 -15.123)" fill="#fec737"/>
          <path id="Trazado_749876" data-name="Trazado 749876" d="M59.015,421l-.061.14-.052.052-.024,0-.024-.007c0-.112.03-.192.161-.189" transform="translate(-55.876 -399.705)"/>
          <path id="Trazado_749877" data-name="Trazado 749877" d="M309.752,359.167c-.076-.075.023-.071.046-.1.081.077.022.092-.046.1" transform="translate(-294.054 -340.899)" fill="#010101"/>
          <path id="Trazado_749878" data-name="Trazado 749878" d="M317.842,272.382c-.033-.025-.12-.017-.063-.1.057.01.131.011.063.1" transform="translate(-301.683 -258.506)" fill="#010101"/>
          <path id="Trazado_749879" data-name="Trazado 749879" d="M426.031,43.776c.037.01.09-.012.1.05-.084.085-.092.016-.1-.05" transform="translate(-404.477 -41.561)"/>
          <path id="Trazado_749880" data-name="Trazado 749880" d="M174.585,456.97c.081-.027.1.022.105.086-.06,0-.1-.021-.105-.086" transform="translate(-165.752 -433.843)" fill="#010101"/>
          <path id="Trazado_749881" data-name="Trazado 749881" d="M410.315,100.728a.127.127,0,0,1,0,.04l-.038,0,.036-.035" transform="translate(-389.521 -95.632)" fill="#d3d3ff"/>
          <path id="Trazado_749882" data-name="Trazado 749882" d="M255.546,429.162c0-.031.006-.048.04-.035l-.04.035" transform="translate(-242.616 -407.412)" fill="#010101"/>
          <path id="Trazado_749883" data-name="Trazado 749883" d="M284.508,403.181c-.009-.034.006-.045.038-.04l-.038.04" transform="translate(-270.111 -382.744)" fill="#010101"/>
          <path id="Trazado_749884" data-name="Trazado 749884" d="M402.917,45.9c-.036.008-.048-.017-.059-.044l.059.044" transform="translate(-382.476 -43.533)" fill="#010101"/>
          <path id="Trazado_749885" data-name="Trazado 749885" d="M29.651,43.766c.024.108-.034.166-.143.212a2.856,2.856,0,0,0-1.549,1.545.317.317,0,0,1-.306.2c-.145.01-.181-.1-.222-.2a2.918,2.918,0,0,0-1.523-1.524c-.272-.125-.274-.356-.013-.517.159-.1.324-.186.487-.276a2.5,2.5,0,0,0,1-1.165c.061-.125.1-.255.288-.266s.275.121.33.25a2.684,2.684,0,0,0,1.414,1.418c.234.107.237.144.239.316" transform="translate(-24.402 -39.667)" fill="#fec737"/>
          <path id="Trazado_749886" data-name="Trazado 749886" d="M49.556,182.1a8.054,8.054,0,0,1,1.794-.472,6.38,6.38,0,0,1,3.806.767,6.036,6.036,0,0,1,1.978,1.825c.1.133.267.21.3.391,0,.02,0,.039,0,.059a5.909,5.909,0,0,1,.705,1.833,6.179,6.179,0,0,1,.091,1.817,4.851,4.851,0,0,1-.541,2c-.125.022-.214.062-.1.2-.03.343-.321.533-.471.805-.118-.01-.151.054-.138.158a2.286,2.286,0,0,1-.555.654c-.008-.037-.006-.082-.062-.08a.023.023,0,0,0-.016.016c0,.057.043.054.08.062a2.521,2.521,0,0,1-.556.5c-.054.029-.2-.076-.149.1a3.3,3.3,0,0,1-.659.406c-.132-.111-.15-.024-.154.089-.077.053-.142.13-.25.113-.083-.084-.093-.018-.1.05a1.221,1.221,0,0,1-.623.221c-.085-.027-.167-.046-.185.08a5.97,5.97,0,0,1-.869.174c-.232.029-.467.064-.7.076a5.563,5.563,0,0,1-1.911-.261c-.056-.2-.124-.228-.252-.106a1.486,1.486,0,0,1-.505-.2.224.224,0,0,0-.141-.208c-.068-.02-.167-.178-.214.023a2.621,2.621,0,0,1-.6-.367l-.052-.044-.054-.048c.03-.019.056-.05.026-.078-.048-.044-.091-.017-.123.03a6.5,6.5,0,0,1-.959-.908c-.038-.047.095-.213-.1-.148a.746.746,0,0,1-.249-.311c.044-.031.062-.072.029-.117s-.068-.024-.1,0l-.006-.01c.027-.046.044-.1.007-.14s-.059-.006-.08.023a4.148,4.148,0,0,1-.712-1.558c-.056-.267-.177-.513-.22-.793a4.346,4.346,0,0,1-.029-1.415c.044-.244-.084-.49.054-.715.016-.026,0-.083.016-.1.2-.135.153-.337.147-.528.211-.075.238-.155.1-.3l.14-.3a.1.1,0,0,0,.054-.1l0-.056a1.313,1.313,0,0,1,.253-.452c.02.03.051.053.078.022.042-.048.016-.09-.031-.122a.174.174,0,0,1,.1-.151c.065-.008.134-.014.053-.1l.06-.1.043-.052.048-.054c.019.03.048.057.077.028.045-.045.021-.089-.024-.123l.092-.1c.11,0,.112-.072.11-.15.1-.1.239-.162.275-.33a.375.375,0,0,1,.184-.2,1.777,1.777,0,0,0,.5-.436c.082.088.131.067.154-.045q0-.042,0-.083l.2-.121c.033.046.077.07.123.026.029-.028,0-.058-.027-.077a.677.677,0,0,1,.342-.205c.121.006.255.035.268-.151.016-.053.064-.041.1-.05.083.084.093.018.1-.05l0,0,.054-.039m-2.079,8.57c-.041.009-.087.021-.068.075s.079.075.14.072c.066.053.143.1.144.2.021.047-.06.191.1.1l.1.15c.021.046-.058.193.1.1a5.7,5.7,0,0,0,1.514,1.211c.037.18.141.228.306.155a1.3,1.3,0,0,1,.5.2c0,.051.012.1.079.1s.062-.043.07-.084c.107-.032.183.034.267.08s.152.085.237.021c.013.068.033.118.1.039a1.466,1.466,0,0,0,.519.105,5.406,5.406,0,0,0,2.1-.245c.11.12.156.108.25-.065l.406-.188c.005.032.013.076.05.07.069-.011.042-.076.051-.12.048-.026.087-.072.149-.065.13.11.15.026.154-.087l.553-.367c.13.085.09-.033.1-.087a4.955,4.955,0,0,0,1.472-1.775c.075,0,.15,0,.18-.087s-.01-.106-.079-.115c.048-.111.095-.222.144-.332a4.237,4.237,0,0,0,.34-1.412A6.138,6.138,0,0,0,57.444,187c-.062-.438-.225-.844-.316-1.27l-.04-.052a5.383,5.383,0,0,0-1.226-1.806c-.268-.26-.58-.461-.856-.707-.008-.063-.006-.141-.1-.056a7.393,7.393,0,0,0-1.723-.664,6.376,6.376,0,0,0-2.071-.032,2.562,2.562,0,0,0-.673.159,3.174,3.174,0,0,1-.678.236c-.173-.1-.244-.026-.252.151l-.4.25c-.032-.046-.075-.071-.122-.028-.03.027-.007.058.023.077-.037.135-.246.09-.26.249-.041,0-.1-.009-.12.014a8.812,8.812,0,0,0-1.134,1.308c-.017-.03-.043-.059-.074-.029s0,.057.027.074a6.3,6.3,0,0,0-.5,1.017,8.482,8.482,0,0,0-.3,1.324,5.445,5.445,0,0,0,.841,3.46" transform="translate(-43.551 -172.401)"/>
          <path id="Trazado_749887" data-name="Trazado 749887" d="M110.686,409.233c.048-.2.147-.043.214-.023a.225.225,0,0,1,.141.208c-.154.007-.24-.117-.356-.185" transform="translate(-105.086 -388.432)"/>
          <path id="Trazado_749888" data-name="Trazado 749888" d="M51.174,262.34c.138.148.112.228-.1.3l.1-.3" transform="translate(-48.491 -249.067)"/>
          <path id="Trazado_749889" data-name="Trazado 749889" d="M127.7,417.306c.128-.122.2-.094.252.106-.08-.045-.185-.031-.252-.106" transform="translate(-121.241 -396.124)"/>
          <path id="Trazado_749890" data-name="Trazado 749890" d="M108.656,194.4c-.013.186-.147.156-.268.151a.389.389,0,0,1,.017-.044l.251-.106" transform="translate(-102.904 -184.56)"/>
          <path id="Trazado_749891" data-name="Trazado 749891" d="M224.467,409.2c0-.113.022-.2.154-.089-.035.057-.1.064-.154.089" transform="translate(-213.11 -388.365)"/>
          <path id="Trazado_749892" data-name="Trazado 749892" d="M73.727,379.943c.2-.065.065.1.1.148a.156.156,0,0,1-.1-.148" transform="translate(-69.997 -360.707)"/>
          <path id="Trazado_749893" data-name="Trazado 749893" d="M65.766,368.492c.021-.029.053-.054.08-.023s.02.094-.007.14a.1.1,0,0,1-.073-.116" transform="translate(-62.438 -349.813)"/>
          <path id="Trazado_749894" data-name="Trazado 749894" d="M68.817,231.406c.045.034.069.078.024.123-.029.029-.058,0-.077-.028,0-.04,0-.083.053-.095" transform="translate(-65.285 -219.698)"/>
          <path id="Trazado_749895" data-name="Trazado 749895" d="M201.544,419.118c.019-.126.1-.108.185-.08-.036.087-.113.077-.185.08" transform="translate(-191.347 -397.818)"/>
          <path id="Trazado_749896" data-name="Trazado 749896" d="M61.867,242.345c.047.032.073.074.031.122-.027.031-.058.008-.078-.022,0-.04,0-.083.047-.1" transform="translate(-58.692 -230.084)"/>
          <path id="Trazado_749897" data-name="Trazado 749897" d="M240.347,400.027c-.05-.179.1-.075.149-.1l-.11.1a.191.191,0,0,1-.039,0" transform="translate(-228.177 -379.685)"/>
          <path id="Trazado_749898" data-name="Trazado 749898" d="M94.728,400.12c.032-.047.075-.074.123-.03.03.028,0,.059-.026.078-.04,0-.081,0-.1-.048" transform="translate(-89.935 -379.827)"/>
          <path id="Trazado_749899" data-name="Trazado 749899" d="M99.838,201.426c.03.019.056.049.027.077-.046.045-.089.02-.123-.026.013-.053.055-.05.1-.051" transform="translate(-94.696 -191.235)"/>
          <path id="Trazado_749900" data-name="Trazado 749900" d="M67.343,371.323c.035-.02.076-.032.1,0s.015.086-.029.117c-.064-.016-.051-.08-.074-.121" transform="translate(-63.936 -352.519)"/>
          <path id="Trazado_749901" data-name="Trazado 749901" d="M92.884,206.413c-.023.112-.072.133-.154.045.015-.048.055-.048.094-.049l.06,0" transform="translate(-88.038 -195.966)"/>
          <path id="Trazado_749902" data-name="Trazado 749902" d="M71.746,226.381c0,.078,0,.154-.11.15a.161.161,0,0,1,.11-.15" transform="translate(-68.012 -214.928)"/>
          <path id="Trazado_749903" data-name="Trazado 749903" d="M64.784,237.374c.081.086.012.092-.053.1,0-.04,0-.085.053-.1" transform="translate(-61.456 -225.364)"/>
          <path id="Trazado_749904" data-name="Trazado 749904" d="M217.516,413.373c.009-.067.019-.134.1-.05-.016.053-.063.043-.1.05" transform="translate(-206.511 -392.374)"/>
          <path id="Trazado_749905" data-name="Trazado 749905" d="M55.307,254.358a.1.1,0,0,1-.054.1c-.076-.044.021-.067.012-.1h.042" transform="translate(-52.43 -241.489)" fill="#010101"/>
          <path id="Trazado_749906" data-name="Trazado 749906" d="M94.65,204.905l-.06,0c.016-.029,0-.087.06-.08q0,.042,0,.083" transform="translate(-89.804 -194.458)" fill="#010101"/>
          <path id="Trazado_749907" data-name="Trazado 749907" d="M56.046,253.311H56c-.009-.034.013-.047.04-.056l0,.056" transform="translate(-53.169 -240.442)"/>
          <path id="Trazado_749908" data-name="Trazado 749908" d="M67,234.351l-.043.052c0-.033.015-.047.043-.052" transform="translate(-63.568 -222.494)"/>
          <path id="Trazado_749909" data-name="Trazado 749909" d="M97.714,403l.052.044c-.032,0-.047-.015-.052-.044" transform="translate(-92.77 -382.61)"/>
          <path id="Trazado_749910" data-name="Trazado 749910" d="M276.464,354.342c-.114-.14-.025-.18.1-.2a.321.321,0,0,1-.1.2" transform="translate(-262.427 -336.222)"/>
          <path id="Trazado_749911" data-name="Trazado 749911" d="M265.371,374.194c-.013-.1.02-.168.138-.158-.012.082-.079.117-.138.158" transform="translate(-251.942 -355.111)"/>
          <path id="Trazado_749912" data-name="Trazado 749912" d="M115.778,192.418c-.008.068-.017.134-.1.05.016-.053.063-.041.1-.05" transform="translate(-109.825 -182.683)"/>
          <path id="Trazado_749913" data-name="Trazado 749913" d="M274.377,241.371v-.059l.035.021-.035.038" transform="translate(-260.495 -229.103)"/>
          <path id="Trazado_749914" data-name="Trazado 749914" d="M117.676,191.66l-.054.039c.008-.027.021-.048.054-.039" transform="translate(-111.671 -181.962)"/>
          <path id="Trazado_749915" data-name="Trazado 749915" d="M102.671,197.555c.014-.159.223-.114.26-.249.038-.005.087.011.1-.049l.4-.25a.336.336,0,0,0,.252-.152,3.171,3.171,0,0,0,.678-.236,2.563,2.563,0,0,1,.673-.159,6.375,6.375,0,0,1,2.071.032,7.394,7.394,0,0,1,1.723.664c.011.057.061.045.1.056.276.247.588.447.856.707a5.383,5.383,0,0,1,1.226,1.806c-.01.036.011.047.04.052.091.427.254.832.316,1.27a6.139,6.139,0,0,1,.026,1.323,4.238,4.238,0,0,1-.34,1.412c-.049.11-.1.221-.144.332l-.1.2a4.954,4.954,0,0,1-1.472,1.775c-.059,0-.08.045-.1.087l-.553.367a.055.055,0,0,0-.045-.005,11.794,11.794,0,0,1-2.33-1.114c0-.16,0-.319,0-.479,0-.093.019-.151.127-.179a1.751,1.751,0,0,0,1.274-1.179,1.584,1.584,0,0,0-.417-1.8,2.642,2.642,0,0,0-.788-.431c-.058-.026-.151,0-.15-.121.006-.568,0-1.137,0-1.728a2.212,2.212,0,0,1,.455.233.365.365,0,0,0,.544-.08.36.36,0,0,0-.073-.5,1.2,1.2,0,0,0-.574-.315c-.3-.058-.473-.176-.4-.519.034-.166-.111-.256-.234-.3a.3.3,0,0,0-.341.078.523.523,0,0,0-.177.466c.023.153-.048.208-.185.257a1.564,1.564,0,0,0-.97,1.954c.167.567.672.793,1.155,1.026l.037.04q0,1.086,0,2.172l-.038.041a.979.979,0,0,1-.7-.224.686.686,0,0,0-.462-.116,8.774,8.774,0,0,1-1.061-1.814,8.359,8.359,0,0,1-.613-3.942c.013-.133.06-.284-.048-.409" transform="translate(-97.477 -186.454)" fill="#eeecff"/>
          <path id="Trazado_749916" data-name="Trazado 749916" d="M66.438,227.275a11.793,11.793,0,0,0,2.33,1.114l-.109.093c-.062-.008-.1.039-.149.065l-.1.05-.406.188-.25.065a5.406,5.406,0,0,1-2.1.245,1.465,1.465,0,0,1-.519-.105c-.016-.061-.06-.047-.1-.039-.085.064-.163.019-.237-.021s-.161-.112-.267-.08l-.149-.014a1.3,1.3,0,0,0-.5-.2.631.631,0,0,0-.306-.155,5.7,5.7,0,0,1-1.514-1.211l-.1-.1-.1-.15-.1-.1c0-.1-.078-.145-.144-.2.01-.066-.044-.1-.072-.148a5.445,5.445,0,0,1-.841-3.46,8.479,8.479,0,0,1,.3-1.324,6.3,6.3,0,0,1,.5-1.017l.047-.046a8.811,8.811,0,0,1,1.134-1.308c.02-.022.079-.01.12-.014.109.125.061.276.048.409a8.359,8.359,0,0,0,.613,3.942,8.774,8.774,0,0,0,1.061,1.814.391.391,0,0,0-.039.685,1.765,1.765,0,0,0,.975.411c.175.022.241.068.225.239a.534.534,0,0,0,.281.56c.191.1.333-.076.473-.186" transform="translate(-57.608 -208.301)" fill="#d3d3ff"/>
          <path id="Trazado_749917" data-name="Trazado 749917" d="M118.015,204.767a.336.336,0,0,1-.252.152c.008-.177.079-.25.252-.152" transform="translate(-111.805 -194.365)"/>
          <path id="Trazado_749918" data-name="Trazado 749918" d="M117.763,398.879a.63.63,0,0,1,.306.155c-.165.073-.269.026-.306-.155" transform="translate(-111.805 -378.698)"/>
          <path id="Trazado_749919" data-name="Trazado 749919" d="M200.524,404.929l.25-.065c-.094.173-.14.185-.25.065" transform="translate(-190.379 -384.38)"/>
          <path id="Trazado_749920" data-name="Trazado 749920" d="M263.541,349.322l.1-.2c.069.009.1.047.079.115s-.105.088-.18.087" transform="translate(-250.207 -331.457)"/>
          <path id="Trazado_749921" data-name="Trazado 749921" d="M218.44,397.1l.109-.093a.055.055,0,0,1,.045.005c0,.113-.023.2-.154.087" transform="translate(-207.388 -376.922)"/>
          <path id="Trazado_749922" data-name="Trazado 749922" d="M76.237,361.09c.027.047.082.082.072.148-.061,0-.118-.01-.14-.073s.027-.066.068-.075" transform="translate(-72.311 -342.821)"/>
          <path id="Trazado_749923" data-name="Trazado 749923" d="M107.217,212.587c-.012.059-.06.043-.1.049-.03-.019-.053-.05-.023-.077.047-.042.09-.018.122.028" transform="translate(-101.663 -201.784)"/>
          <path id="Trazado_749924" data-name="Trazado 749924" d="M133.725,405.862l.149.014c-.008.041-.017.082-.07.084s-.075-.047-.079-.1" transform="translate(-126.959 -385.328)"/>
          <path id="Trazado_749925" data-name="Trazado 749925" d="M213.494,400.214l.1-.05c-.008.044.019.109-.051.12-.037.006-.045-.037-.05-.07" transform="translate(-202.693 -379.918)"/>
          <path id="Trazado_749926" data-name="Trazado 749926" d="M85.807,372.945l.1.1c-.159.092-.08-.055-.1-.1" transform="translate(-81.464 -354.076)"/>
          <path id="Trazado_749927" data-name="Trazado 749927" d="M81.812,367.933l.1.1c-.16.087-.079-.057-.1-.1" transform="translate(-77.67 -349.318)"/>
          <path id="Trazado_749928" data-name="Trazado 749928" d="M232.4,388.276c.024-.042.044-.087.1-.087-.014.054.027.171-.1.087" transform="translate(-220.647 -368.549)"/>
          <path id="Trazado_749929" data-name="Trazado 749929" d="M146.652,407.993c.042-.008.086-.023.1.039-.069.08-.089.03-.1-.039" transform="translate(-139.232 -387.344)"/>
          <path id="Trazado_749930" data-name="Trazado 749930" d="M76.225,244.744l-.047.046c-.03-.018-.058-.044-.027-.074s.057,0,.074.029" transform="translate(-72.285 -232.322)"/>
          <path id="Trazado_749931" data-name="Trazado 749931" d="M252.978,388.6c-.037-.008-.082-.006-.08-.062a.023.023,0,0,1,.016-.016c.057,0,.054.043.062.08l0,0" transform="translate(-240.103 -368.861)"/>
          <path id="Trazado_749932" data-name="Trazado 749932" d="M224.536,210.91c-.037-.011-.087,0-.1-.056.092-.085.091-.007.1.056" transform="translate(-213.082 -200.151)"/>
          <path id="Trazado_749933" data-name="Trazado 749933" d="M267.537,262.4c-.029-.005-.051-.017-.04-.052l.04.052" transform="translate(-253.96 -249.078)"/>
          <path id="Trazado_749934" data-name="Trazado 749934" d="M134.432,235.665c-.14.11-.282.282-.473.187a.534.534,0,0,1-.281-.56c.016-.171-.049-.217-.225-.239a1.765,1.765,0,0,1-.975-.411.391.391,0,0,1,.039-.685.686.686,0,0,1,.462.116.979.979,0,0,0,.7.224c.037.009.047-.007.038-.041q0-1.086,0-2.172c.009-.033,0-.047-.037-.04-.483-.233-.988-.459-1.155-1.026a1.564,1.564,0,0,1,.97-1.954c.137-.049.208-.1.185-.257a.523.523,0,0,1,.177-.466.3.3,0,0,1,.341-.078c.122.048.267.137.234.3-.069.343.1.461.4.519a1.2,1.2,0,0,1,.574.315.36.36,0,0,1,.073.5.365.365,0,0,1-.544.08,2.215,2.215,0,0,0-.454-.233c0,.592,0,1.16,0,1.728,0,.124.092.095.15.121a2.642,2.642,0,0,1,.788.431,1.584,1.584,0,0,1,.417,1.8,1.751,1.751,0,0,1-1.274,1.179c-.107.028-.128.086-.127.179,0,.16,0,.319,0,.479m-.715-4.541v-1.262c.009-.034,0-.048-.038-.037a.687.687,0,0,0-.454.6c-.021.346.03.561.4.7.033.031.067.092.1,0m.765,3.091a.4.4,0,0,0,.287-.132.972.972,0,0,0-.069-1.641c-.118-.065-.227-.125-.222.111.012.552,0,1.105,0,1.662" transform="translate(-125.601 -216.691)"/>
          <path id="Trazado_749935" data-name="Trazado 749935" d="M159.679,347.145c.009.034,0,.05-.038.041l.038-.041" transform="translate(-151.564 -329.582)" fill="#d3d3ff"/>
          <path id="Trazado_749936" data-name="Trazado 749936" d="M159.644,303.39c.034-.007.046.006.037.04l-.037-.04" transform="translate(-151.567 -288.038)" fill="#d3d3ff"/>
          <path id="Trazado_749937" data-name="Trazado 749937" d="M175.445,312c0-.556.008-1.109,0-1.662-.005-.236.1-.175.222-.111a.972.972,0,0,1,.069,1.641.4.4,0,0,1-.287.132" transform="translate(-166.564 -294.481)" fill="#eeecff"/>
          <path id="Trazado_749938" data-name="Trazado 749938" d="M151.095,259.632v1.262l-.1,0c-.367-.137-.418-.352-.4-.7a.687.687,0,0,1,.454-.6l.038.037" transform="translate(-142.979 -246.461)" fill="#eeecff"/>
          <path id="Trazado_749939" data-name="Trazado 749939" d="M158.52,285.274l.1,0c-.028.1-.062.035-.1,0" transform="translate(-150.5 -270.838)" fill="#d3d3ff"/>
          <path id="Trazado_749940" data-name="Trazado 749940" d="M159.685,259.559l-.038-.037c.036-.011.047,0,.038.037" transform="translate(-151.57 -246.388)" fill="#d3d3ff"/>
        </g>
      </g>
    </g>
  </g>
</svg>
