<svg xmlns="http://www.w3.org/2000/svg" xmlns:xlink="http://www.w3.org/1999/xlink" width="136.934" height="135.983" viewBox="0 0 136.934 135.983">
  <defs>
    <clipPath id="clip-path">
      <rect id="Rectángulo_357755" data-name="Rectángulo 357755" width="73.012" height="67.696" fill="none"/>
    </clipPath>
  </defs>
  <g id="Grupo_1021338" data-name="Grupo 1021338" transform="translate(-263 -595.534)">
    <g id="Grupo_156356" data-name="Grupo 156356" transform="translate(263 650.743)">
      <g id="Grupo_156332" data-name="Grupo 156332" transform="translate(0 0)">
        <path id="Trazado_99257" data-name="Trazado 99257" d="M419.306,105.213a2.549,2.549,0,1,1-2.548-2.434A2.492,2.492,0,0,1,419.306,105.213Z" transform="translate(-414.214 -102.779)" fill="#12263f"/>
        <path id="Trazado_116526" data-name="Trazado 116526" d="M419.306,105.213a2.549,2.549,0,1,1-2.548-2.434A2.492,2.492,0,0,1,419.306,105.213Z" transform="translate(-356.555 -102.779)" fill="#12263f"/>
        <path id="Trazado_99258" data-name="Trazado 99258" d="M427.752,105.213a2.549,2.549,0,1,1-2.545-2.434A2.492,2.492,0,0,1,427.752,105.213Z" transform="translate(-411.129 -102.779)" fill="#12263f"/>
        <path id="Trazado_116527" data-name="Trazado 116527" d="M427.752,105.213a2.549,2.549,0,1,1-2.545-2.434A2.492,2.492,0,0,1,427.752,105.213Z" transform="translate(-353.469 -102.779)" fill="#12263f"/>
        <path id="Trazado_99259" data-name="Trazado 99259" d="M436.2,105.213a2.549,2.549,0,1,1-2.545-2.434A2.492,2.492,0,0,1,436.2,105.213Z" transform="translate(-408.043 -102.779)" fill="#12263f"/>
        <path id="Trazado_116531" data-name="Trazado 116531" d="M436.2,105.213a2.549,2.549,0,1,1-2.545-2.434A2.492,2.492,0,0,1,436.2,105.213Z" transform="translate(-350.384 -102.779)" fill="#12263f"/>
        <path id="Trazado_99260" data-name="Trazado 99260" d="M444.645,105.213a2.549,2.549,0,1,1-2.547-2.434A2.492,2.492,0,0,1,444.645,105.213Z" transform="translate(-404.958 -102.779)" fill="#12263f"/>
        <path id="Trazado_116532" data-name="Trazado 116532" d="M444.645,105.213a2.549,2.549,0,1,1-2.547-2.434A2.492,2.492,0,0,1,444.645,105.213Z" transform="translate(-347.298 -102.779)" fill="#12263f"/>
        <path id="Trazado_99261" data-name="Trazado 99261" d="M453.091,105.213a2.549,2.549,0,1,1-2.545-2.434A2.492,2.492,0,0,1,453.091,105.213Z" transform="translate(-401.872 -102.779)" fill="#12263f"/>
      </g>
      <g id="Grupo_156331" data-name="Grupo 156331" transform="translate(0 12.649)">
        <ellipse id="Elipse_3975" data-name="Elipse 3975" cx="2.546" cy="2.435" rx="2.546" ry="2.435" transform="translate(0 0.001)" fill="#12263f"/>
        <ellipse id="Elipse_4742" data-name="Elipse 4742" cx="2.546" cy="2.435" rx="2.546" ry="2.435" transform="translate(57.659 0.001)" fill="#12263f"/>
        <path id="Trazado_99268" data-name="Trazado 99268" d="M427.752,112.721a2.549,2.549,0,1,1-2.545-2.434A2.493,2.493,0,0,1,427.752,112.721Z" transform="translate(-411.129 -110.287)" fill="#12263f"/>
        <path id="Trazado_116528" data-name="Trazado 116528" d="M427.752,112.721a2.549,2.549,0,1,1-2.545-2.434A2.493,2.493,0,0,1,427.752,112.721Z" transform="translate(-353.469 -110.287)" fill="#12263f"/>
        <ellipse id="Elipse_3976" data-name="Elipse 3976" cx="2.546" cy="2.435" rx="2.546" ry="2.435" transform="translate(23.064 0.001)" fill="#12263f"/>
        <ellipse id="Elipse_4743" data-name="Elipse 4743" cx="2.546" cy="2.435" rx="2.546" ry="2.435" transform="translate(80.723 0.001)" fill="#12263f"/>
        <path id="Trazado_99269" data-name="Trazado 99269" d="M444.645,112.721a2.549,2.549,0,1,1-2.547-2.434A2.494,2.494,0,0,1,444.645,112.721Z" transform="translate(-404.958 -110.287)" fill="#12263f"/>
        <path id="Trazado_116533" data-name="Trazado 116533" d="M444.645,112.721a2.549,2.549,0,1,1-2.547-2.434A2.494,2.494,0,0,1,444.645,112.721Z" transform="translate(-347.298 -110.287)" fill="#12263f"/>
        <path id="Trazado_99270" data-name="Trazado 99270" d="M453.091,112.721a2.549,2.549,0,1,1-2.545-2.434A2.493,2.493,0,0,1,453.091,112.721Z" transform="translate(-401.872 -110.287)" fill="#12263f"/>
      </g>
      <g id="Grupo_156330" data-name="Grupo 156330" transform="translate(0 25.3)">
        <path id="Trazado_99274" data-name="Trazado 99274" d="M419.306,120.23a2.549,2.549,0,1,1-2.548-2.436A2.494,2.494,0,0,1,419.306,120.23Z" transform="translate(-414.214 -117.794)" fill="#12263f"/>
        <path id="Trazado_116529" data-name="Trazado 116529" d="M419.306,120.23a2.549,2.549,0,1,1-2.548-2.436A2.494,2.494,0,0,1,419.306,120.23Z" transform="translate(-356.555 -117.794)" fill="#12263f"/>
        <path id="Trazado_99275" data-name="Trazado 99275" d="M427.752,120.23a2.549,2.549,0,1,1-2.545-2.436A2.493,2.493,0,0,1,427.752,120.23Z" transform="translate(-411.129 -117.794)" fill="#12263f"/>
        <path id="Trazado_116530" data-name="Trazado 116530" d="M427.752,120.23a2.549,2.549,0,1,1-2.545-2.436A2.493,2.493,0,0,1,427.752,120.23Z" transform="translate(-353.469 -117.794)" fill="#12263f"/>
        <path id="Trazado_99276" data-name="Trazado 99276" d="M436.2,120.23a2.549,2.549,0,1,1-2.545-2.436A2.493,2.493,0,0,1,436.2,120.23Z" transform="translate(-408.043 -117.794)" fill="#12263f"/>
        <path id="Trazado_116534" data-name="Trazado 116534" d="M436.2,120.23a2.549,2.549,0,1,1-2.545-2.436A2.493,2.493,0,0,1,436.2,120.23Z" transform="translate(-350.384 -117.794)" fill="#12263f"/>
        <path id="Trazado_99277" data-name="Trazado 99277" d="M444.645,120.23a2.549,2.549,0,1,1-2.547-2.436A2.494,2.494,0,0,1,444.645,120.23Z" transform="translate(-404.958 -117.794)" fill="#12263f"/>
        <path id="Trazado_116535" data-name="Trazado 116535" d="M444.645,120.23a2.549,2.549,0,1,1-2.547-2.436A2.494,2.494,0,0,1,444.645,120.23Z" transform="translate(-347.298 -117.794)" fill="#12263f"/>
        <path id="Trazado_99278" data-name="Trazado 99278" d="M453.091,120.23a2.549,2.549,0,1,1-2.545-2.436A2.493,2.493,0,0,1,453.091,120.23Z" transform="translate(-401.872 -117.794)" fill="#12263f"/>
      </g>
      <g id="Grupo_156327" data-name="Grupo 156327" transform="translate(0 63.252)">
        <path id="Trazado_116550" data-name="Trazado 116550" d="M419.306,120.23a2.549,2.549,0,1,1-2.548-2.436A2.494,2.494,0,0,1,419.306,120.23Z" transform="translate(-414.214 -117.794)" fill="#12263f"/>
        <path id="Trazado_116551" data-name="Trazado 116551" d="M419.306,120.23a2.549,2.549,0,1,1-2.548-2.436A2.494,2.494,0,0,1,419.306,120.23Z" transform="translate(-356.555 -117.794)" fill="#12263f"/>
        <path id="Trazado_116552" data-name="Trazado 116552" d="M427.752,120.23a2.549,2.549,0,1,1-2.545-2.436A2.493,2.493,0,0,1,427.752,120.23Z" transform="translate(-411.129 -117.794)" fill="#12263f"/>
        <path id="Trazado_116553" data-name="Trazado 116553" d="M427.752,120.23a2.549,2.549,0,1,1-2.545-2.436A2.493,2.493,0,0,1,427.752,120.23Z" transform="translate(-353.469 -117.794)" fill="#12263f"/>
        <path id="Trazado_116554" data-name="Trazado 116554" d="M436.2,120.23a2.549,2.549,0,1,1-2.545-2.436A2.493,2.493,0,0,1,436.2,120.23Z" transform="translate(-408.043 -117.794)" fill="#12263f"/>
        <path id="Trazado_116555" data-name="Trazado 116555" d="M436.2,120.23a2.549,2.549,0,1,1-2.545-2.436A2.493,2.493,0,0,1,436.2,120.23Z" transform="translate(-350.384 -117.794)" fill="#12263f"/>
        <path id="Trazado_116556" data-name="Trazado 116556" d="M444.645,120.23a2.549,2.549,0,1,1-2.547-2.436A2.494,2.494,0,0,1,444.645,120.23Z" transform="translate(-404.958 -117.794)" fill="#12263f"/>
        <path id="Trazado_116557" data-name="Trazado 116557" d="M444.645,120.23a2.549,2.549,0,1,1-2.547-2.436A2.494,2.494,0,0,1,444.645,120.23Z" transform="translate(-347.298 -117.794)" fill="#12263f"/>
        <path id="Trazado_116558" data-name="Trazado 116558" d="M453.091,120.23a2.549,2.549,0,1,1-2.545-2.436A2.493,2.493,0,0,1,453.091,120.23Z" transform="translate(-401.872 -117.794)" fill="#12263f"/>
      </g>
      <g id="Grupo_156329" data-name="Grupo 156329" transform="translate(0 37.951)">
        <ellipse id="Elipse_3980" data-name="Elipse 3980" cx="2.546" cy="2.435" rx="2.546" ry="2.435" transform="translate(0 0.002)" fill="#12263f"/>
        <ellipse id="Elipse_4744" data-name="Elipse 4744" cx="2.546" cy="2.435" rx="2.546" ry="2.435" transform="translate(57.659 0.002)" fill="#12263f"/>
        <path id="Trazado_99285" data-name="Trazado 99285" d="M427.752,127.738a2.549,2.549,0,1,1-2.545-2.436A2.491,2.491,0,0,1,427.752,127.738Z" transform="translate(-411.129 -125.302)" fill="#12263f"/>
        <path id="Trazado_116536" data-name="Trazado 116536" d="M427.752,127.738a2.549,2.549,0,1,1-2.545-2.436A2.491,2.491,0,0,1,427.752,127.738Z" transform="translate(-353.469 -125.302)" fill="#12263f"/>
        <ellipse id="Elipse_3981" data-name="Elipse 3981" cx="2.546" cy="2.435" rx="2.546" ry="2.435" transform="translate(23.064 0.002)" fill="#12263f"/>
        <ellipse id="Elipse_4745" data-name="Elipse 4745" cx="2.546" cy="2.435" rx="2.546" ry="2.435" transform="translate(80.723 0.002)" fill="#12263f"/>
        <path id="Trazado_99286" data-name="Trazado 99286" d="M444.645,127.738A2.549,2.549,0,1,1,442.1,125.3,2.492,2.492,0,0,1,444.645,127.738Z" transform="translate(-404.958 -125.302)" fill="#12263f"/>
        <path id="Trazado_116537" data-name="Trazado 116537" d="M444.645,127.738A2.549,2.549,0,1,1,442.1,125.3,2.492,2.492,0,0,1,444.645,127.738Z" transform="translate(-347.298 -125.302)" fill="#12263f"/>
        <path id="Trazado_99287" data-name="Trazado 99287" d="M453.091,127.738a2.549,2.549,0,1,1-2.545-2.436A2.491,2.491,0,0,1,453.091,127.738Z" transform="translate(-401.872 -125.302)" fill="#12263f"/>
      </g>
      <g id="Grupo_156326" data-name="Grupo 156326" transform="translate(0 75.904)">
        <ellipse id="Elipse_4754" data-name="Elipse 4754" cx="2.546" cy="2.435" rx="2.546" ry="2.435" transform="translate(0 0.001)" fill="#12263f"/>
        <ellipse id="Elipse_4750" data-name="Elipse 4750" cx="2.546" cy="2.435" rx="2.546" ry="2.435" transform="translate(57.659 0.001)" fill="#12263f"/>
        <path id="Trazado_116548" data-name="Trazado 116548" d="M427.752,127.738a2.549,2.549,0,1,1-2.545-2.436A2.491,2.491,0,0,1,427.752,127.738Z" transform="translate(-411.129 -125.302)" fill="#12263f"/>
        <path id="Trazado_116542" data-name="Trazado 116542" d="M427.752,127.738a2.549,2.549,0,1,1-2.545-2.436A2.491,2.491,0,0,1,427.752,127.738Z" transform="translate(-353.469 -125.302)" fill="#12263f"/>
        <ellipse id="Elipse_4751" data-name="Elipse 4751" cx="2.546" cy="2.435" rx="2.546" ry="2.435" transform="translate(23.064 0.001)" fill="#12263f"/>
        <ellipse id="Elipse_4752" data-name="Elipse 4752" cx="2.546" cy="2.435" rx="2.546" ry="2.435" transform="translate(80.723 0.001)" fill="#12263f"/>
        <path id="Trazado_116543" data-name="Trazado 116543" d="M444.645,127.738A2.549,2.549,0,1,1,442.1,125.3,2.492,2.492,0,0,1,444.645,127.738Z" transform="translate(-404.958 -125.302)" fill="#12263f"/>
        <path id="Trazado_116544" data-name="Trazado 116544" d="M444.645,127.738A2.549,2.549,0,1,1,442.1,125.3,2.492,2.492,0,0,1,444.645,127.738Z" transform="translate(-347.298 -125.302)" fill="#12263f"/>
        <path id="Trazado_116545" data-name="Trazado 116545" d="M453.091,127.738a2.549,2.549,0,1,1-2.545-2.436A2.491,2.491,0,0,1,453.091,127.738Z" transform="translate(-401.872 -125.302)" fill="#12263f"/>
      </g>
      <g id="Grupo_156328" data-name="Grupo 156328" transform="translate(0 50.602)">
        <ellipse id="Elipse_3985" data-name="Elipse 3985" cx="2.546" cy="2.435" rx="2.546" ry="2.435" transform="translate(0 0.001)" fill="#12263f"/>
        <ellipse id="Elipse_4746" data-name="Elipse 4746" cx="2.546" cy="2.435" rx="2.546" ry="2.435" transform="translate(57.659 0.001)" fill="#12263f"/>
        <path id="Trazado_99291" data-name="Trazado 99291" d="M427.752,135.246a2.549,2.549,0,1,1-2.545-2.436A2.491,2.491,0,0,1,427.752,135.246Z" transform="translate(-411.129 -132.81)" fill="#12263f"/>
        <path id="Trazado_116538" data-name="Trazado 116538" d="M427.752,135.246a2.549,2.549,0,1,1-2.545-2.436A2.491,2.491,0,0,1,427.752,135.246Z" transform="translate(-353.469 -132.81)" fill="#12263f"/>
        <ellipse id="Elipse_3986" data-name="Elipse 3986" cx="2.546" cy="2.435" rx="2.546" ry="2.435" transform="translate(23.064 0.001)" fill="#12263f"/>
        <ellipse id="Elipse_4747" data-name="Elipse 4747" cx="2.546" cy="2.435" rx="2.546" ry="2.435" transform="translate(80.723 0.001)" fill="#12263f"/>
        <path id="Trazado_99292" data-name="Trazado 99292" d="M444.645,135.246a2.549,2.549,0,1,1-2.547-2.436A2.492,2.492,0,0,1,444.645,135.246Z" transform="translate(-404.958 -132.81)" fill="#12263f"/>
        <path id="Trazado_116539" data-name="Trazado 116539" d="M444.645,135.246a2.549,2.549,0,1,1-2.547-2.436A2.492,2.492,0,0,1,444.645,135.246Z" transform="translate(-347.298 -132.81)" fill="#12263f"/>
        <path id="Trazado_99293" data-name="Trazado 99293" d="M453.091,135.246a2.549,2.549,0,1,1-2.545-2.436A2.491,2.491,0,0,1,453.091,135.246Z" transform="translate(-401.872 -132.81)" fill="#12263f"/>
      </g>
    </g>
    <g id="Grupo_1015138" data-name="Grupo 1015138" transform="translate(277.562 595.534)">
      <circle id="Elipse_8447" data-name="Elipse 8447" cx="61.186" cy="61.186" r="61.186" transform="translate(0 0)" fill="#91b3fa"/>
      <circle id="Elipse_8448" data-name="Elipse 8448" cx="51.264" cy="51.264" r="51.264" transform="translate(9.922 9.922)" fill="#fff"/>
      <g id="Grupo_1021340" data-name="Grupo 1021340" transform="translate(24.68 27.338)">
        <g id="Grupo_1021339" data-name="Grupo 1021339" clip-path="url(#clip-path)">
          <path id="Trazado_749863" data-name="Trazado 749863" d="M0,40.9a12.1,12.1,0,0,0,.414-2.275,20.165,20.165,0,0,1,2.177-6.1,25.558,25.558,0,0,1,2.646-4.112,23.293,23.293,0,0,1,7.017-5.946,29.928,29.928,0,0,1,3.46-1.638,21.092,21.092,0,0,1,5.446-1.338c1.538-.124,3.066-.065,4.6-.092.5-.009.66-.126.62-.63a3.873,3.873,0,0,1,1.26-3.239l.155-.114a4.011,4.011,0,0,1,2.7-.881c5.969-.018,11.938-.009,17.907-.01.26,0,.52-.013.78-.02.083.025.181.071.227-.037.012-.029-.072-.1-.112-.15a8.407,8.407,0,0,0-2.776-1.784,3.32,3.32,0,0,1-1.888-3.145A3.256,3.256,0,0,1,46.7,6.424a7.683,7.683,0,0,0,4.107-3.966A3.468,3.468,0,0,1,53.428.226c.083-.015.294-.034.309-.225h.57a.52.52,0,0,0,.443.273,2.878,2.878,0,0,1,2.334,1.865A7.927,7.927,0,0,0,60.87,6.255c.025.188.047.381.285.142A3.278,3.278,0,0,1,62.732,7.72a2.777,2.777,0,0,1,.578,2.595,3.265,3.265,0,0,1-1.881,2.236,6.846,6.846,0,0,0-2.707,1.842l-.1.1.108.013c1.134.007,2.271.07,3.4,0A1.605,1.605,0,0,1,64,15.657a2.1,2.1,0,0,1-2,1.032c-1.37-.1-2.752-.013-4.129-.032a.83.83,0,0,0-.921.513,3.306,3.306,0,0,1-1.682,1.5,3.172,3.172,0,0,1-4.161-1.566.664.664,0,0,0-.692-.449c-6.671.015-13.342.012-20.013.028a2.079,2.079,0,0,0-1.228.371c-.828.58-.648,1.417-.671,2.216-.009.335.092.486.465.555a15.675,15.675,0,0,1,2.47.614A24.246,24.246,0,0,1,38.005,23.8a2.045,2.045,0,0,0,1.34.41q12.713-.025,25.426-.011A1.869,1.869,0,0,0,66.877,22.1c.005-1.092-.008-2.184.005-3.276a2.786,2.786,0,0,0-.338-1.408,1.065,1.065,0,0,1,.151-1.294c.719-.406,1.254-.347,1.6.187a4.2,4.2,0,0,1,.727,2.339c-.009,1.044-.006,2.088,0,3.133.008,1.82-.543,3.329-2.314,4.153-.211.1-.229.174-.152.4a14.947,14.947,0,0,1,.142,7.527c.789,0,1.641-.03,2.491.006a3.933,3.933,0,0,1,3.66,3.217,19.159,19.159,0,0,1-.173,6.224,4.437,4.437,0,0,1-4.005,2.446,18.475,18.475,0,0,1,.243,6.249,2.017,2.017,0,0,1-.192.864,4.092,4.092,0,0,1-3.876,2.461c-6.223-.035-12.447,0-18.671-.03-.833,0-1.443.07-1.8.963a5.758,5.758,0,0,1-.682,1.041,24.51,24.51,0,0,1-4.65,4.89,21.146,21.146,0,0,1-4.79,2.978c-.685.3-1.359.622-2.039.934l-1.134.322a2.641,2.641,0,0,1-.314.118,21.435,21.435,0,0,1-5.21.871c-.1,0-.577-.232-.32.272h-.285c.1-.079.164-.233.015-.241a15.969,15.969,0,0,0-1.743,0c-.147.008-.082.163.017.241h-.285c.229-.2.087-.3-.114-.275-.736.073-1.441-.2-2.176-.162a2.633,2.633,0,0,1-1.337-.269,7.114,7.114,0,0,0-2.64-.592c-.085-.22-.29-.08-.428-.143a3.334,3.334,0,0,0-1-.53l-.428-.138c-.189-.236-.466-.143-.707-.187-.039-.162-.182-.111-.286-.141a3.613,3.613,0,0,0-1.139-.572c-.038-.161-.183-.11-.285-.143a1,1,0,0,0-.713-.427,2.994,2.994,0,0,0-.713-.713l-.132-.69c.173-.036.094-.221.181-.308.394-.315.86-.667,1.327-.345a18.776,18.776,0,0,0,3.111,1.519,11.558,11.558,0,0,0,2.613,1.086,30.654,30.654,0,0,0,6.863.646c.016.182.128.248.3.243a3.3,3.3,0,0,1,.706-.289,22.1,22.1,0,0,0,5.529-1.219,29.693,29.693,0,0,0,5.037-2.623l.114-.1a20.5,20.5,0,0,0,3.015-2.6l1.015-1.007.107-.113a19.367,19.367,0,0,0,3.569-6.012c.192-.029.357-.071.129-.288a21.8,21.8,0,0,0,1.579-8.17c.019-1.328-.3-2.629-.409-3.948.194-.252-.015-.252-.176-.282A16.689,16.689,0,0,0,43.137,32.5a20.285,20.285,0,0,0-4.524-5.536,20.914,20.914,0,0,0-5.007-3.354A21.457,21.457,0,0,0,21.1,21.65a15.938,15.938,0,0,0-4.144,1,15.538,15.538,0,0,0-2.2.822,18.408,18.408,0,0,0-4.741,3.012,21.585,21.585,0,0,0-4.033,4.374A22.225,22.225,0,0,0,2.17,41.511a20.861,20.861,0,0,0,.588,7.265,22.783,22.783,0,0,0,1.731,4.614,23.388,23.388,0,0,0,4.153,5.64.827.827,0,0,1,.222,1.121c-.369-.008-.465.217-.454.534-.369.328-.748.129-1.125.021a7.742,7.742,0,0,0-1.15-1.151,11.755,11.755,0,0,0-1.459-1.836.811.811,0,0,0-.39-.452A4.225,4.225,0,0,0,3.45,56c-.024-.108.018-.252-.15-.283a1.017,1.017,0,0,0-.433-.709,10.882,10.882,0,0,0-.807-1.68L.689,49.455c.017-.158.088-.329-.112-.43a7.74,7.74,0,0,0-.316-1.565C.1,46.949.266,46.385,0,45.892v-2q.219-.142,0-.285v-.428a.345.345,0,0,0,0-.57ZM57.726,6.676l-.167-.123A10.719,10.719,0,0,1,55.212,3.2c-.262-.5-.514-.871-1.1-.921a1.151,1.151,0,0,0-1.208.769,10.319,10.319,0,0,1-2.913,3.906,13.439,13.439,0,0,1-2.337,1.349,1.438,1.438,0,0,0-.911,1.216c-.053.649.4.929.849,1.148a13.693,13.693,0,0,1,2.97,1.906,10.646,10.646,0,0,1,2.425,3.56,1.1,1.1,0,0,0,1.565.556,1.647,1.647,0,0,0,.735-.985,9.015,9.015,0,0,1,4.7-4.8,3.309,3.309,0,0,0,.961-.667,1.065,1.065,0,0,0-.4-1.816,11.263,11.263,0,0,1-2.826-1.747M57.965,36c-3.395,0-6.79.02-10.185-.016-.7-.007-.718.257-.557.778a29.023,29.023,0,0,1,.934,6.087c.051.576.21.682.735.68q9.437-.024,18.874-.007c.328,0,.657.027.986.055a1.91,1.91,0,0,0,1.964-1.429,19.2,19.2,0,0,0,.094-4.165c-.046-1.212-.656-1.838-1.529-1.917-.494-.045-.992-.062-1.488-.063q-4.914-.008-9.829,0M41.124,26.332c.411.48.712.864,1.045,1.217a22.042,22.042,0,0,1,3.822,5.883c.15.319.265.433.586.432,5.435,0,10.871.009,16.306-.012A1.818,1.818,0,0,0,64.9,31.787c.015-1.091.006-2.183,0-3.275-.006-1.5-.68-2.177-2.192-2.179q-5.946-.007-11.891,0H41.124m4.925,26.844c6.426,0,12.787.007,19.147-.008a1.766,1.766,0,0,0,1.674-1.826c.021-1.115.006-2.231.006-3.346,0-1.7-.634-2.341-2.32-2.343q-3.952,0-7.9,0c-2.659,0-5.317,0-7.976-.005-.391,0-.617.011-.682.529-.074.591-.148,1.195-.28,1.779a23.986,23.986,0,0,1-1.665,5.22" transform="translate(0 -0.001)"/>
          <path id="Trazado_749864" data-name="Trazado 749864" d="M0,298.248a.345.345,0,0,1,0,.57Z" transform="translate(0 -255.635)" fill="#010101"/>
          <path id="Trazado_749865" data-name="Trazado 749865" d="M0,305.23q.22.143,0,.285Z" transform="translate(0 -261.62)" fill="#010101"/>
          <path id="Trazado_749866" data-name="Trazado 749866" d="M25.3,31.866a2.916,2.916,0,0,1-.732,4.734,6.9,6.9,0,0,0-2,1.234,8.743,8.743,0,0,0-1.489,2.231,2.845,2.845,0,0,1-2.314,1.665,2.685,2.685,0,0,1-2.88-1.634,6.048,6.048,0,0,0-2.229-2.8c-.512-.3-1.04-.573-1.562-.855a2.89,2.89,0,0,1,.241-5.051,6.622,6.622,0,0,0,3.434-3.316,2.841,2.841,0,0,1,4.507-1.171,2.716,2.716,0,0,1,.895,1.2,6.023,6.023,0,0,0,3.26,3.227,5.57,5.57,0,0,1,.71.427c.023.076.053.143.154.108m-1.28,2.2c-.005-.488-.015-.59-.675-.893a7.578,7.578,0,0,1-3.992-4c-.157-.366-.376-.74-.932-.707-.522.031-.642.4-.814.75a7.051,7.051,0,0,1-2.82,3.29c-.46.256-.926.5-1.374.781-.735.454-.731,1.106.037,1.46a8.24,8.24,0,0,1,4.3,4.3c.116.267.217.581.627.554a.9.9,0,0,0,.864-.573,8.066,8.066,0,0,1,4.375-4.363c.307-.132.471-.294.4-.6" transform="translate(-9.194 -22.489)" fill="#010101"/>
          <path id="Trazado_749867" data-name="Trazado 749867" d="M344.34,100.209c.04.051.125.121.112.15-.046.108-.144.062-.227.037l.115-.187" transform="translate(-295.043 -85.891)" fill="#d3d3ff"/>
          <path id="Trazado_749868" data-name="Trazado 749868" d="M193.6,107.854l-.155.114c.022-.079.055-.143.155-.114" transform="translate(-165.802 -92.438)" fill="#010101"/>
          <path id="Trazado_749869" data-name="Trazado 749869" d="M23.389,198.107l-1.85-1.4a.483.483,0,0,0-.3-.3l.171-.4a.827.827,0,0,0-.222-1.122,23.384,23.384,0,0,1-4.153-5.64,22.786,22.786,0,0,1-1.731-4.614,20.861,20.861,0,0,1-.588-7.265,22.225,22.225,0,0,1,3.805-10.657,21.586,21.586,0,0,1,4.033-4.374,18.408,18.408,0,0,1,4.741-3.012,15.538,15.538,0,0,1,2.2-.822c-.273.853-.587,1.695-.81,2.561a8.006,8.006,0,0,0-.608,2.868,1.084,1.084,0,0,0-.048.125,1.91,1.91,0,0,0-.966.579c-.114,0-.234,0-.27.145l-.566.342c-.182-.02-.124.142-.17.225-.111,0-.223,0-.266.137a5.02,5.02,0,0,1-1.408,1.231,1.061,1.061,0,0,0-.52.553c-.1.474-.491.647-.776.932a.454.454,0,0,0-.31.424l-.261.293c-.152.032-.143.154-.149.267l-.135.154c-.081.016-.133.056-.122.148l-.169.284c-.149.042-.137.169-.15.283a.491.491,0,0,0-.283.427c-.145.047-.13.168-.133.282a3.7,3.7,0,0,0-.714,1.277c-.077.025-.136.061-.112.158s-.249.166-.034.289l-.394.851-.281.855c.015.538.157,1.109-.416,1.49-.051.034,0,.2-.044.269-.389.635-.03,1.33-.153,2.019a12.274,12.274,0,0,0,.082,4c.122.789.464,1.485.622,2.239a11.713,11.713,0,0,0,2.011,4.4.287.287,0,0,0,.207.328l.017.027c.066.116.028.3.209.341a2.105,2.105,0,0,0,.7.879.441.441,0,0,0,.292.418,18.358,18.358,0,0,0,2.708,2.565c.045.138.162.133.273.137l.153.135c.016.081.056.133.148.124a7.4,7.4,0,0,0,1.706,1.037c.326.191.569.542,1,.523a4.2,4.2,0,0,0,1.426.556c.19.213.487.172.712.3a15.7,15.7,0,0,0,5.4.738c.669-.035,1.331-.134,1.987-.215a16.854,16.854,0,0,0,2.455-.49c.2-.009.422.018.524-.226a3.458,3.458,0,0,0,1.758-.625c.109-.02.242.009.287-.14.3.046.489-.171.706-.32.153-.069.335-.089.435-.25a9.317,9.317,0,0,0,1.862-1.146.528.528,0,0,0,.11-.009c.112.446.535.344.815.407,1.443.322,2.9.593,4.349.882a20.5,20.5,0,0,1-3.015,2.6c-.1-.037-.123.011-.114.1a29.693,29.693,0,0,1-5.037,2.623,22.1,22.1,0,0,1-5.529,1.219,3.3,3.3,0,0,0-.706.289c-.018-.18-.069-.319-.3-.243a30.663,30.663,0,0,1-6.863-.646,11.565,11.565,0,0,1-2.613-1.086,18.776,18.776,0,0,1-3.111-1.519c-.467-.322-.933.03-1.327.346l-.184-.154" transform="translate(-12.543 -135.855)" fill="#3379db"/>
          <path id="Trazado_749870" data-name="Trazado 749870" d="M234.99,109.577a12.437,12.437,0,0,1,2.025.11,1.846,1.846,0,0,1,.671.36,1.065,1.065,0,0,0-.151,1.294,2.785,2.785,0,0,1,.338,1.408c-.014,1.092,0,2.184-.005,3.275a1.869,1.869,0,0,1-2.106,2.091q-12.713,0-25.426.011a2.046,2.046,0,0,1-1.34-.41,24.242,24.242,0,0,0-6.565-3.354,15.674,15.674,0,0,0-2.47-.614c-.373-.07-.474-.22-.465-.555.023-.8-.157-1.636.671-2.216a2.08,2.08,0,0,1,1.228-.371c6.671-.016,13.342-.013,20.013-.028a.664.664,0,0,1,.692.449,3.172,3.172,0,0,0,4.161,1.566,3.3,3.3,0,0,0,1.682-1.5.83.83,0,0,1,.921-.513c1.377.019,2.759-.065,4.129.032a2.1,2.1,0,0,0,2-1.032" transform="translate(-170.991 -93.921)" fill="#fae84c"/>
          <path id="Trazado_749871" data-name="Trazado 749871" d="M132.733,187.127c-1.451-.289-2.906-.56-4.349-.882-.28-.062-.7.039-.814-.407l.311-.281a7.12,7.12,0,0,0,1.57-1.421l0,0a6.455,6.455,0,0,0,1.568-1.846c.166-.117.355-.214.389-.447.423-.77,1.245-1.306,1.33-2.274a.908.908,0,0,0,.282-.572,13.7,13.7,0,0,0,1.528-5.644,17.448,17.448,0,0,0-.257-5.132,16.686,16.686,0,0,0-1.991-5.178l.1-.108-.1-.059c-.09-.511-.569-.73-.843-1.1a17.044,17.044,0,0,0-5.585-5.153,18.017,18.017,0,0,0-10.748-2.165,22.738,22.738,0,0,0-5.066,1.333c-.1-.025-.13.034-.154.11l.006-.007c-.106.024-.24-.008-.284.141-.1.027-.24-.007-.284.142l-.709.3a8.005,8.005,0,0,1,.608-2.868c.222-.866.536-1.708.81-2.561a15.949,15.949,0,0,1,4.144-1,21.457,21.457,0,0,1,12.51,1.959,20.911,20.911,0,0,1,5.007,3.354,20.286,20.286,0,0,1,4.524,5.536,16.688,16.688,0,0,1,2.319,6.405c-.163.233.082.21.176.282.108,1.319.428,2.619.409,3.947a21.8,21.8,0,0,1-1.579,8.17c-.064.087-.344.076-.129.288a19.366,19.366,0,0,1-3.569,6.012c-.091-.014-.132.018-.107.113l-1.015,1.007" transform="translate(-93.091 -128.404)" fill="#6993e4"/>
          <path id="Trazado_749872" data-name="Trazado 749872" d="M340.762,251.84q4.914,0,9.829,0c.5,0,.994.018,1.488.063.873.079,1.483.705,1.529,1.917a19.206,19.206,0,0,1-.094,4.165,1.909,1.909,0,0,1-1.964,1.429c-.329-.028-.658-.055-.986-.055q-9.437-.007-18.874.007c-.525,0-.685-.1-.735-.68a29.035,29.035,0,0,0-.934-6.087c-.161-.521-.141-.785.557-.778,3.395.036,6.79.016,10.185.016" transform="translate(-282.797 -215.844)" fill="#fae84c"/>
          <path id="Trazado_749873" data-name="Trazado 749873" d="M287.829,184.283h9.694q5.946,0,11.891,0c1.513,0,2.187.678,2.192,2.179,0,1.092.013,2.184,0,3.275a1.818,1.818,0,0,1-2.016,2.065c-5.435.02-10.871.007-16.306.012-.321,0-.436-.114-.586-.432a22.043,22.043,0,0,0-3.822-5.883c-.333-.353-.634-.736-1.045-1.217" transform="translate(-246.705 -157.952)" fill="#fec737"/>
          <path id="Trazado_749874" data-name="Trazado 749874" d="M322.3,327.007a23.984,23.984,0,0,0,1.665-5.22c.132-.584.206-1.188.28-1.779.065-.518.29-.53.682-.529,2.659.01,5.317.005,7.976.005q3.952,0,7.9,0c1.687,0,2.319.642,2.32,2.343,0,1.115.016,2.231-.006,3.346A1.766,1.766,0,0,1,341.446,327c-6.36.015-12.721.008-19.147.008" transform="translate(-276.25 -273.832)" fill="#fec737"/>
          <path id="Trazado_749875" data-name="Trazado 749875" d="M338.133,20.328a11.263,11.263,0,0,0,2.826,1.747,1.065,1.065,0,0,1,.4,1.816,3.309,3.309,0,0,1-.961.667,9.014,9.014,0,0,0-4.7,4.8,1.647,1.647,0,0,1-.735.985,1.1,1.1,0,0,1-1.564-.556,10.644,10.644,0,0,0-2.425-3.56A13.693,13.693,0,0,0,328,24.323c-.446-.219-.9-.5-.849-1.148a1.438,1.438,0,0,1,.911-1.216A13.439,13.439,0,0,0,330.4,20.61a10.319,10.319,0,0,0,2.913-3.906,1.151,1.151,0,0,1,1.208-.769c.582.049.834.418,1.1.921a10.715,10.715,0,0,0,2.347,3.349c.03.076.065.145.167.123" transform="translate(-280.407 -13.653)" fill="#fec737"/>
          <path id="Trazado_749876" data-name="Trazado 749876" d="M59.309,421l-.171.4-.148.146-.068.013-.067-.021c-.011-.316.085-.541.454-.534" transform="translate(-50.445 -360.853)"/>
          <path id="Trazado_749877" data-name="Trazado 749877" d="M309.8,359.353c-.215-.212.065-.2.129-.288.228.217.063.259-.129.288" transform="translate(-265.471 -307.763)" fill="#010101"/>
          <path id="Trazado_749878" data-name="Trazado 749878" d="M317.991,272.564c-.095-.072-.339-.049-.177-.282.162.029.37.03.177.282" transform="translate(-272.359 -233.379)" fill="#010101"/>
          <path id="Trazado_749879" data-name="Trazado 749879" d="M426.031,43.776c.1.028.254-.034.285.142-.238.239-.26.046-.285-.142" transform="translate(-365.161 -37.521)"/>
          <path id="Trazado_749880" data-name="Trazado 749880" d="M174.585,456.984c.228-.076.279.063.3.243-.169,0-.281-.061-.3-.243" transform="translate(-149.641 -391.673)" fill="#010101"/>
          <path id="Trazado_749881" data-name="Trazado 749881" d="M410.381,100.728a.357.357,0,0,1,.006.113l-.108-.013.1-.1" transform="translate(-351.659 -86.336)" fill="#d3d3ff"/>
          <path id="Trazado_749882" data-name="Trazado 749882" d="M255.547,429.234c-.009-.087.016-.135.114-.1l-.114.1" transform="translate(-219.034 -367.811)" fill="#010101"/>
          <path id="Trazado_749883" data-name="Trazado 749883" d="M284.513,403.257c-.025-.1.016-.127.107-.113l-.107.113" transform="translate(-243.856 -345.541)" fill="#010101"/>
          <path id="Trazado_749884" data-name="Trazado 749884" d="M403.025,45.976c-.1.022-.137-.047-.167-.123l.167.123" transform="translate(-345.299 -39.302)" fill="#010101"/>
          <path id="Trazado_749885" data-name="Trazado 749885" d="M36.854,47.387c.066.305-.1.467-.4.6a8.066,8.066,0,0,0-4.375,4.363.9.9,0,0,1-.864.573c-.411.027-.512-.287-.627-.554a8.24,8.24,0,0,0-4.3-4.3c-.768-.354-.772-1.007-.037-1.46.448-.276.914-.524,1.374-.781a7.051,7.051,0,0,0,2.82-3.29c.172-.353.292-.719.814-.75.556-.033.776.341.932.707a7.578,7.578,0,0,0,3.992,4c.66.3.669.405.675.893" transform="translate(-22.03 -35.811)" fill="#fec737"/>
          <path id="Trazado_749886" data-name="Trazado 749886" d="M56.277,183.032a22.743,22.743,0,0,1,5.066-1.334,18.018,18.018,0,0,1,10.748,2.165,17.046,17.046,0,0,1,5.586,5.153c.274.374.754.593.843,1.1,0,.056,0,.111,0,.167a16.685,16.685,0,0,1,1.991,5.178,17.448,17.448,0,0,1,.257,5.132,13.7,13.7,0,0,1-1.528,5.644c-.354.063-.6.176-.282.572-.085.968-.907,1.5-1.33,2.274-.333-.028-.425.153-.389.446a6.455,6.455,0,0,1-1.568,1.846c-.023-.1-.016-.231-.176-.225a.066.066,0,0,0-.045.045c-.006.16.122.153.226.176a7.119,7.119,0,0,1-1.57,1.421c-.152.081-.563-.214-.421.291a9.315,9.315,0,0,1-1.862,1.146c-.373-.312-.425-.068-.435.25-.216.149-.4.366-.706.32-.234-.237-.261-.05-.287.14a3.448,3.448,0,0,1-1.758.624c-.241-.077-.471-.129-.524.227a16.856,16.856,0,0,1-2.455.49c-.656.082-1.318.181-1.987.216a15.711,15.711,0,0,1-5.4-.738c-.159-.564-.35-.645-.712-.3a4.2,4.2,0,0,1-1.426-.555.634.634,0,0,0-.4-.589c-.191-.057-.471-.5-.606.066a7.4,7.4,0,0,1-1.706-1.038l-.148-.124-.153-.135c.086-.054.159-.141.074-.22-.134-.125-.256-.049-.347.083a18.352,18.352,0,0,1-2.708-2.565c-.108-.132.267-.6-.293-.418a2.106,2.106,0,0,1-.7-.879c.124-.086.175-.2.082-.33-.076-.1-.191-.068-.29-.011,0,0-.017-.027-.016-.027.075-.129.124-.274.019-.394-.077-.087-.167-.017-.227.066a11.714,11.714,0,0,1-2.011-4.4c-.157-.754-.5-1.45-.621-2.239a12.274,12.274,0,0,1-.082-4c.123-.689-.236-1.385.153-2.019.045-.073-.007-.235.044-.269.573-.381.431-.952.416-1.49.6-.212.671-.437.281-.855l.394-.851a.3.3,0,0,0,.152-.289l-.006-.158a3.708,3.708,0,0,1,.714-1.276c.056.085.144.15.22.063.118-.135.045-.255-.087-.345a.491.491,0,0,1,.283-.427c.184-.024.38-.041.15-.283l.169-.284.122-.148.135-.154c.052.085.136.16.217.08.128-.127.06-.251-.068-.346l.261-.294c.31.01.316-.2.31-.424.285-.285.674-.458.776-.932a1.06,1.06,0,0,1,.519-.553,5.018,5.018,0,0,0,1.408-1.231c.23.249.37.189.434-.127q0-.118,0-.235l.566-.342c.094.129.217.2.346.073.082-.08.008-.165-.077-.218a1.912,1.912,0,0,1,.966-.579c.341.016.72.1.757-.425.044-.149.179-.115.284-.142.236.237.261.052.284-.141l-.006.007.154-.11m-5.872,24.2c-.116.025-.245.059-.192.212.061.177.224.211.395.2.185.151.4.277.407.561.059.131-.169.54.282.293l.287.423c.059.131-.165.544.285.285a16.094,16.094,0,0,0,4.276,3.42c.1.51.4.643.865.437a3.679,3.679,0,0,1,1.416.56c.011.144.033.283.224.277.149,0,.174-.122.2-.237.3-.091.518.1.755.225.211.115.429.241.671.06.037.193.094.334.289.109a4.139,4.139,0,0,0,1.467.3,15.267,15.267,0,0,0,5.942-.691c.31.339.442.3.707-.183l1.146-.53c.015.091.036.213.142.2.2-.031.12-.213.143-.338.135-.073.245-.2.421-.183.368.311.423.073.434-.246l1.562-1.037c.367.239.253-.093.291-.245a13.992,13.992,0,0,0,4.157-5.012c.211,0,.423-.011.509-.245.071-.192-.028-.3-.224-.325.135-.313.267-.626.405-.937a11.966,11.966,0,0,0,.961-3.989,17.334,17.334,0,0,0-.073-3.736c-.176-1.237-.636-2.382-.892-3.587l-.114-.148a15.2,15.2,0,0,0-3.463-5.1c-.757-.735-1.638-1.3-2.418-2-.022-.178-.018-.4-.278-.159a20.876,20.876,0,0,0-4.866-1.876,18,18,0,0,0-5.849-.091,7.235,7.235,0,0,0-1.9.448,8.963,8.963,0,0,1-1.914.668c-.49-.277-.69-.073-.713.428L55,186.151c-.091-.13-.212-.2-.344-.08-.085.077-.019.163.066.218-.1.381-.7.253-.735.7-.116.011-.283-.024-.339.039a24.884,24.884,0,0,0-3.2,3.693c-.049-.084-.121-.166-.209-.081s-.008.16.076.21a17.787,17.787,0,0,0-1.422,2.873,23.951,23.951,0,0,0-.859,3.74,15.377,15.377,0,0,0,2.375,9.771" transform="translate(-39.318 -155.643)"/>
          <path id="Trazado_749887" data-name="Trazado 749887" d="M110.686,409.417c.135-.568.415-.122.606-.066a.634.634,0,0,1,.4.589c-.436.02-.679-.331-1.005-.523" transform="translate(-94.871 -350.676)"/>
          <path id="Trazado_749888" data-name="Trazado 749888" d="M51.356,262.34c.39.418.316.643-.281.855l.281-.855" transform="translate(-43.778 -224.858)"/>
          <path id="Trazado_749889" data-name="Trazado 749889" d="M127.7,417.439c.362-.345.553-.264.712.3-.225-.128-.523-.086-.712-.3" transform="translate(-109.456 -357.62)"/>
          <path id="Trazado_749890" data-name="Trazado 749890" d="M109.145,194.4c-.037.525-.416.441-.757.425a1.1,1.1,0,0,1,.048-.125l.709-.3" transform="translate(-92.902 -166.62)"/>
          <path id="Trazado_749891" data-name="Trazado 749891" d="M224.467,409.456c.01-.318.062-.562.435-.25-.1.161-.282.181-.435.25" transform="translate(-192.396 -350.616)"/>
          <path id="Trazado_749892" data-name="Trazado 749892" d="M73.727,379.971c.56-.184.185.286.293.418a.441.441,0,0,1-.293-.418" transform="translate(-63.193 -325.645)"/>
          <path id="Trazado_749893" data-name="Trazado 749893" d="M65.767,368.561c.059-.083.15-.153.227-.066.105.12.056.265-.019.394a.286.286,0,0,1-.207-.328" transform="translate(-56.369 -315.811)"/>
          <path id="Trazado_749894" data-name="Trazado 749894" d="M68.913,231.406c.128.1.2.219.068.346-.081.08-.165.005-.217-.079.006-.113,0-.235.149-.267" transform="translate(-58.939 -198.343)"/>
          <path id="Trazado_749895" data-name="Trazado 749895" d="M201.544,419.3c.052-.356.283-.3.524-.227-.1.245-.32.219-.524.227" transform="translate(-172.748 -359.15)"/>
          <path id="Trazado_749896" data-name="Trazado 749896" d="M61.953,242.345c.132.09.205.21.087.345-.076.087-.164.022-.22-.063,0-.114-.012-.235.133-.282" transform="translate(-52.987 -207.719)"/>
          <path id="Trazado_749897" data-name="Trazado 749897" d="M240.366,400.223c-.142-.5.269-.21.421-.291l-.311.281a.539.539,0,0,1-.11.01" transform="translate(-205.998 -342.779)"/>
          <path id="Trazado_749898" data-name="Trazado 749898" d="M94.728,400.215c.091-.133.213-.209.347-.083.085.079.012.166-.074.22-.112,0-.228,0-.273-.137" transform="translate(-81.194 -342.907)"/>
          <path id="Trazado_749899" data-name="Trazado 749899" d="M100.012,201.426c.085.053.159.138.077.218-.129.126-.252.056-.346-.073.036-.149.156-.141.27-.145" transform="translate(-85.491 -172.647)"/>
          <path id="Trazado_749900" data-name="Trazado 749900" d="M67.343,371.359c.1-.057.215-.091.29.011.093.125.043.244-.082.33-.18-.046-.143-.225-.209-.341" transform="translate(-57.721 -318.253)"/>
          <path id="Trazado_749901" data-name="Trazado 749901" d="M93.164,206.419c-.064.317-.2.376-.434.127.043-.135.155-.135.266-.137l.169.01" transform="translate(-79.481 -176.918)"/>
          <path id="Trazado_749902" data-name="Trazado 749902" d="M71.946,226.381c.005.221,0,.434-.31.424a.454.454,0,0,1,.31-.424" transform="translate(-61.401 -194.036)"/>
          <path id="Trazado_749903" data-name="Trazado 749903" d="M64.881,237.374c.23.242.034.259-.15.283.013-.114,0-.241.15-.283" transform="translate(-55.482 -203.459)"/>
          <path id="Trazado_749904" data-name="Trazado 749904" d="M217.516,413.535c.026-.19.053-.377.287-.14-.046.149-.178.12-.287.14" transform="translate(-186.438 -354.235)"/>
          <path id="Trazado_749905" data-name="Trazado 749905" d="M55.459,254.358a.294.294,0,0,1-.152.289c-.215-.123.06-.188.034-.289h.118" transform="translate(-47.334 -218.016)" fill="#010101"/>
          <path id="Trazado_749906" data-name="Trazado 749906" d="M94.759,205.058l-.169-.01c.046-.083-.012-.245.17-.225q0,.118,0,.235" transform="translate(-81.075 -175.557)" fill="#010101"/>
          <path id="Trazado_749907" data-name="Trazado 749907" d="M56.126,253.413h-.118c-.024-.1.035-.133.112-.158,0,.052,0,.105.006.158" transform="translate(-48.001 -217.071)"/>
          <path id="Trazado_749908" data-name="Trazado 749908" d="M67.079,234.351l-.122.148c-.011-.092.042-.132.122-.148" transform="translate(-57.389 -200.868)"/>
          <path id="Trazado_749909" data-name="Trazado 749909" d="M97.714,403l.148.124c-.092.009-.132-.043-.148-.124" transform="translate(-83.753 -345.42)"/>
          <path id="Trazado_749910" data-name="Trazado 749910" d="M276.56,354.711c-.322-.4-.072-.509.282-.572a.907.907,0,0,1-.282.572" transform="translate(-236.919 -303.541)"/>
          <path id="Trazado_749911" data-name="Trazado 749911" d="M265.375,374.484c-.036-.293.056-.475.389-.447-.034.232-.223.329-.389.447" transform="translate(-227.453 -320.594)"/>
          <path id="Trazado_749912" data-name="Trazado 749912" d="M115.962,192.418c-.022.192-.048.378-.284.141.044-.149.178-.116.284-.141" transform="translate(-99.15 -164.926)"/>
          <path id="Trazado_749913" data-name="Trazado 749913" d="M274.378,241.479v-.167l.1.059-.1.108" transform="translate(-235.175 -206.834)"/>
          <path id="Trazado_749914" data-name="Trazado 749914" d="M117.776,191.664l-.154.11c.023-.076.059-.135.154-.11" transform="translate(-100.816 -164.275)"/>
          <path id="Trazado_749915" data-name="Trazado 749915" d="M102.671,199.678c.04-.449.631-.321.735-.7.108-.015.245.03.278-.137l1.143-.706a.949.949,0,0,0,.713-.428,8.952,8.952,0,0,0,1.914-.668,7.241,7.241,0,0,1,1.9-.448,18,18,0,0,1,5.849.091,20.879,20.879,0,0,1,4.866,1.876c.031.16.173.127.278.159.78.7,1.661,1.262,2.418,2a15.2,15.2,0,0,1,3.463,5.1c-.029.1.032.133.114.148.256,1.2.716,2.35.892,3.587a17.335,17.335,0,0,1,.073,3.736,11.969,11.969,0,0,1-.961,3.989c-.138.311-.27.625-.405.937l-.285.57a13.991,13.991,0,0,1-4.157,5.012c-.167,0-.225.127-.291.245l-1.562,1.038a.155.155,0,0,0-.127-.015,33.307,33.307,0,0,1-6.579-3.147c0-.451.01-.9,0-1.352,0-.262.054-.425.358-.505a4.945,4.945,0,0,0,3.6-3.33,4.474,4.474,0,0,0-1.177-5.08,7.463,7.463,0,0,0-2.226-1.218c-.165-.074-.428.009-.424-.34.017-1.6.007-3.21.007-4.88a6.244,6.244,0,0,1,1.284.659,1.03,1.03,0,0,0,1.537-.226,1.016,1.016,0,0,0-.205-1.422,3.4,3.4,0,0,0-1.621-.89c-.85-.163-1.336-.5-1.14-1.464.1-.47-.314-.722-.66-.857a.847.847,0,0,0-.964.22,1.476,1.476,0,0,0-.5,1.315c.066.431-.134.587-.521.726a4.417,4.417,0,0,0-2.741,5.518c.47,1.6,1.9,2.24,3.261,2.9l.105.112q0,3.067,0,6.134l-.108.116a2.764,2.764,0,0,1-1.972-.632,1.938,1.938,0,0,0-1.3-.327,24.779,24.779,0,0,1-3-5.122,23.607,23.607,0,0,1-1.731-11.132c.036-.376.171-.8-.136-1.155" transform="translate(-88.002 -168.331)" fill="#eeecff"/>
          <path id="Trazado_749916" data-name="Trazado 749916" d="M76.946,241.637a33.3,33.3,0,0,0,6.579,3.147l-.307.261c-.176-.022-.287.109-.422.182l-.285.142-1.146.53-.707.183a15.266,15.266,0,0,1-5.942.691,4.137,4.137,0,0,1-1.467-.3c-.045-.173-.17-.133-.289-.109-.241.18-.459.055-.671-.06-.237-.129-.453-.315-.755-.225l-.422-.04a3.681,3.681,0,0,0-1.416-.56,1.781,1.781,0,0,0-.865-.437,16.1,16.1,0,0,1-4.276-3.42l-.285-.285-.287-.423-.282-.293c0-.284-.221-.41-.407-.561.029-.186-.124-.283-.2-.417a15.377,15.377,0,0,1-2.375-9.771,23.946,23.946,0,0,1,.859-3.74A17.781,17.781,0,0,1,63,223.262l.134-.129a24.884,24.884,0,0,1,3.2-3.693c.057-.063.224-.028.34-.039.306.352.172.779.136,1.155a23.607,23.607,0,0,0,1.731,11.132,24.776,24.776,0,0,0,3,5.122,1.1,1.1,0,0,0-.11,1.935,4.985,4.985,0,0,0,2.752,1.161c.5.062.68.192.634.675a1.508,1.508,0,0,0,.793,1.582c.539.27.939-.215,1.336-.527" transform="translate(-52.008 -188.053)" fill="#d3d3ff"/>
          <path id="Trazado_749917" data-name="Trazado 749917" d="M118.476,204.847a.949.949,0,0,1-.713.428c.023-.5.223-.705.713-.428" transform="translate(-100.937 -175.472)"/>
          <path id="Trazado_749918" data-name="Trazado 749918" d="M117.763,398.879a1.781,1.781,0,0,1,.865.437c-.466.205-.761.072-.865-.437" transform="translate(-100.937 -341.888)"/>
          <path id="Trazado_749919" data-name="Trazado 749919" d="M200.524,405.047l.707-.183c-.265.488-.4.522-.707.183" transform="translate(-171.874 -347.018)"/>
          <path id="Trazado_749920" data-name="Trazado 749920" d="M263.541,349.69l.285-.57c.2.025.294.132.224.325-.086.234-.3.249-.509.245" transform="translate(-225.887 -299.239)"/>
          <path id="Trazado_749921" data-name="Trazado 749921" d="M218.44,397.277l.307-.261a.155.155,0,0,1,.127.015c-.01.319-.066.557-.433.246" transform="translate(-187.23 -340.285)"/>
          <path id="Trazado_749922" data-name="Trazado 749922" d="M76.369,361.09c.078.134.231.231.2.417-.171.007-.333-.027-.395-.2-.053-.153.077-.187.192-.212" transform="translate(-65.283 -309.498)"/>
          <path id="Trazado_749923" data-name="Trazado 749923" d="M107.464,212.679c-.033.167-.17.122-.278.137-.085-.055-.151-.141-.066-.218.132-.119.253-.049.344.08" transform="translate(-91.781 -182.17)"/>
          <path id="Trazado_749924" data-name="Trazado 749924" d="M133.725,405.862l.422.04c-.023.115-.049.233-.2.237-.19.006-.213-.134-.224-.278" transform="translate(-114.619 -347.874)"/>
          <path id="Trazado_749925" data-name="Trazado 749925" d="M213.494,400.306l.285-.142c-.024.125.052.307-.143.338-.106.017-.127-.106-.142-.2" transform="translate(-182.991 -342.99)"/>
          <path id="Trazado_749926" data-name="Trazado 749926" d="M85.81,372.945l.285.285c-.449.259-.226-.155-.285-.285" transform="translate(-73.546 -319.66)"/>
          <path id="Trazado_749927" data-name="Trazado 749927" d="M81.816,367.933l.282.293c-.452.247-.223-.161-.282-.293" transform="translate(-70.121 -315.364)"/>
          <path id="Trazado_749928" data-name="Trazado 749928" d="M232.4,388.434c.067-.118.124-.247.291-.245-.038.152.075.484-.291.245" transform="translate(-199.2 -332.726)"/>
          <path id="Trazado_749929" data-name="Trazado 749929" d="M146.652,408.007c.119-.024.244-.064.289.109-.195.225-.252.084-.289-.109" transform="translate(-125.699 -349.693)"/>
          <path id="Trazado_749930" data-name="Trazado 749930" d="M76.385,244.819l-.134.129c-.084-.05-.164-.123-.076-.21s.16,0,.209.08" transform="translate(-65.259 -209.74)"/>
          <path id="Trazado_749931" data-name="Trazado 749931" d="M253.123,388.739c-.1-.023-.231-.016-.226-.176a.066.066,0,0,1,.045-.045c.16-.006.153.122.176.226l0,0" transform="translate(-216.764 -333.007)"/>
          <path id="Trazado_749932" data-name="Trazado 749932" d="M224.715,211.081c-.105-.032-.247,0-.278-.159.26-.24.257-.018.278.159" transform="translate(-192.37 -180.696)"/>
          <path id="Trazado_749933" data-name="Trazado 749933" d="M267.616,262.5c-.082-.015-.144-.047-.114-.148l.114.148" transform="translate(-229.275 -224.867)"/>
          <path id="Trazado_749934" data-name="Trazado 749934" d="M138.33,249.211c-.4.312-.8.8-1.336.527a1.508,1.508,0,0,1-.793-1.582c.046-.484-.139-.614-.634-.675a4.984,4.984,0,0,1-2.752-1.161,1.1,1.1,0,0,1,.11-1.935,1.937,1.937,0,0,1,1.3.327,2.764,2.764,0,0,0,1.972.632c.1.025.133-.02.108-.116q0-3.067,0-6.134c.026-.095-.008-.133-.105-.112-1.363-.657-2.791-1.3-3.261-2.9a4.417,4.417,0,0,1,2.741-5.518c.387-.139.587-.295.521-.726a1.476,1.476,0,0,1,.5-1.315.847.847,0,0,1,.964-.22c.346.135.755.387.66.857-.2.967.291,1.3,1.14,1.464a3.4,3.4,0,0,1,1.621.89,1.016,1.016,0,0,1,.205,1.422,1.03,1.03,0,0,1-1.537.226,6.253,6.253,0,0,0-1.283-.659c0,1.671.009,3.276-.008,4.88,0,.349.259.267.424.341a7.462,7.462,0,0,1,2.226,1.218,4.474,4.474,0,0,1,1.177,5.08,4.945,4.945,0,0,1-3.6,3.33c-.3.08-.36.244-.358.505.005.451,0,.9,0,1.352m-2.02-12.825v-3.565c.025-.1-.007-.136-.107-.1a1.94,1.94,0,0,0-1.281,1.707c-.06.976.085,1.584,1.12,1.971.093.088.188.259.268-.009m2.161,8.728a1.115,1.115,0,0,0,.81-.373c1.306-1.026,1.907-3.481-.2-4.634-.333-.182-.641-.353-.626.313.035,1.56.011,3.122.011,4.693" transform="translate(-113.392 -195.628)"/>
          <path id="Trazado_749935" data-name="Trazado 749935" d="M159.749,347.145c.025.1,0,.141-.108.116l.108-.116" transform="translate(-136.832 -297.546)" fill="#d3d3ff"/>
          <path id="Trazado_749936" data-name="Trazado 749936" d="M159.644,303.393c.1-.02.131.018.105.112l-.105-.112" transform="translate(-136.835 -260.041)" fill="#d3d3ff"/>
          <path id="Trazado_749937" data-name="Trazado 749937" d="M175.452,315.344c0-1.571.024-3.133-.011-4.693-.015-.667.293-.5.626-.313,2.1,1.152,1.5,3.608.2,4.634a1.115,1.115,0,0,1-.81.373" transform="translate(-150.374 -265.857)" fill="#eeecff"/>
          <path id="Trazado_749938" data-name="Trazado 749938" d="M152,259.7v3.565l-.268.009c-1.036-.387-1.18-.995-1.12-1.971a1.94,1.94,0,0,1,1.281-1.707l.107.1" transform="translate(-129.082 -222.505)" fill="#eeecff"/>
          <path id="Trazado_749939" data-name="Trazado 749939" d="M158.52,285.28l.268-.009c-.08.269-.176.1-.268.009" transform="translate(-135.871 -244.512)" fill="#d3d3ff"/>
          <path id="Trazado_749940" data-name="Trazado 749940" d="M159.754,259.633l-.107-.1c.1-.032.132.007.107.1" transform="translate(-136.837 -222.439)" fill="#d3d3ff"/>
        </g>
      </g>
    </g>
  </g>
</svg>
