<svg xmlns="http://www.w3.org/2000/svg" width="43" height="46" viewBox="0 0 43 46">
  <g id="Grupo_1022342" data-name="Grupo 1022342" transform="translate(-421 -2286)">
    <g id="Grupo_77443" data-name="Grupo 77443" transform="translate(177)">
      <rect id="Rect치ngulo_32442" data-name="Rect치ngulo 32442" width="31" height="31" transform="translate(256 2286)" fill="#57dbd8"/>
    </g>
    <rect id="Rect치ngulo_33680" data-name="Rect치ngulo 33680" width="43" height="46" transform="translate(421 2286)" fill="none"/>
    <g id="Grupo_77452" data-name="Grupo 77452" transform="translate(142.933 937.562)">
      <path id="Trazado_112856" data-name="Trazado 112856" d="M315.543,1366.637a2.948,2.948,0,0,0-1.983-2.836.677.677,0,0,1-.533-.661,6.634,6.634,0,0,0-13.127.178c-.03.227-.1.285-.327.284q-3.966-.012-7.933,0c-.242,0-.278-.074-.287-.295a6.645,6.645,0,1,0-10.883,5.4c.16.135.235.2.042.39a4.088,4.088,0,0,0-1.24,3.019c0,1.1-.017,2.191,0,3.286a5.794,5.794,0,0,0,3.41,5.432.318.318,0,0,1,.218.337c-.014.415-.015.831,0,1.246a.362.362,0,0,1-.212.354,6.994,6.994,0,0,0-3.419,6.213c-.007,1.688.007,3.375-.009,5.062,0,.3.053.395.379.394q6.459-.019,12.919-.006a5.929,5.929,0,0,0,2.558-.547c.955-.445,1.921-.867,2.874-1.317a15.3,15.3,0,0,0,2.3-1.122c.1-.071.22-.037.33-.038.743,0,1.486.007,2.229,0a1.7,1.7,0,0,0,1.548-.908.522.522,0,0,1,.551-.3q4.344.014,8.688,0a1.815,1.815,0,1,0,0-3.625c-1.07,0-2.141,0-3.211,0-.77,0-.926-.167-.931-.924,0-.23.051-.3.288-.292.843.016,1.687.007,2.531.006a3.034,3.034,0,0,0,3.232-3.236q0-3.815,0-7.631C315.545,1371.875,315.549,1369.256,315.543,1366.637Zm-9.038-7.876a5.441,5.441,0,1,1-5.468,5.422A5.451,5.451,0,0,1,306.5,1358.76Zm-14.962,6.038q4,.019,8.009,0c.234,0,.32.055.35.3a6.639,6.639,0,0,0,13.077.479c.01-.049.019-.1.029-.148.116-.564.2-.59.661-.2a1.742,1.742,0,0,1,.665,1.381c0,4.143,0,8.286.01,12.43,0,.305-.145.275-.341.275q-6.082,0-12.165,0-6.045,0-12.09.008c-.323,0-.383-.057-.326-.385a9,9,0,0,0-.131-2.215c-.063-.853-.166-1.7-.263-2.553-.025-.217,0-.323.26-.3a8.011,8.011,0,0,0,.906,0,1.811,1.811,0,0,0-.008-3.622c-.365-.009-.731-.009-1.1,0-.151,0-.228-.037-.259-.19-.024-.122-.081-.237-.118-.357-.064-.212-.326-.393-.252-.59.064-.171.32-.266.484-.4a6.487,6.487,0,0,0,2.221-3.589C291.218,1364.9,291.276,1364.8,291.542,1364.8Zm-5.318,16.324c.245,0,.314.062.312.309s-.057.315-.309.311a6.7,6.7,0,0,0-2.119.361c0-1.535,0-3.031.005-4.527a.654.654,0,0,0-.23-.556,4.824,4.824,0,0,1-.583-.589,1.662,1.662,0,0,1,.435-2.517.45.45,0,0,1,.251-.037c1.17,0,2.339,0,3.509-.007.235,0,.309.054.332.3.126,1.389.274,2.777.419,4.164a1.342,1.342,0,0,1-1.42,1.584c-.428,0-.856.009-1.283,0-.184-.006-.224.055-.231.232C285.276,1381.118,285.271,1381.127,286.224,1381.123Zm-.529-8.458c.167-.334.306-.638.469-.929a.55.55,0,0,1,.5-.278c1.156,0,2.311-.006,3.467,0a.6.6,0,1,1,.008,1.2C288.676,1372.67,287.209,1372.665,285.695,1372.665Zm-6.424-8.776a5.547,5.547,0,0,1,5.032-5.721,5.425,5.425,0,0,1,5.782,4.659,5.292,5.292,0,0,1-2.291,5.242.465.465,0,0,1-.6.058,1.8,1.8,0,0,0-.894-.269,26.9,26.9,0,0,0-3.431.03,1.565,1.565,0,0,0-.584.134.775.775,0,0,1-.97-.183A5.335,5.335,0,0,1,279.271,1363.888Zm4.453,5.15c.742,0,1.483-.007,2.225,0a1.742,1.742,0,0,1,1.648,1.207c-.319,0-.608,0-.9,0a1.782,1.782,0,0,0-1.649,1c-.213.4-.416.8-.605,1.21a.321.321,0,0,1-.343.214q-1.7-.012-3.394,0c-.177,0-.226-.045-.234-.228A3.067,3.067,0,0,1,283.724,1369.038Zm-.825,10.55a4.744,4.744,0,0,1-2.187-2.64,9.466,9.466,0,0,1-.233-2.918c0-.186.116-.155.225-.156h1.421a2.837,2.837,0,0,0-.3,2.365,3,3,0,0,0,.863,1.3.581.581,0,0,1,.212.488C282.888,1378.529,282.9,1379.028,282.9,1379.589Zm13.477,12.395a15.07,15.07,0,0,1-2.962,1.181,3.733,3.733,0,0,1-4.164-2.488c-.309-.915-.566-1.848-.84-2.774-.06-.2-.119-.334-.377-.215s-.7.08-.811.311c-.094.195.116.539.2.816.214.722.42,1.447.649,2.164a4.982,4.982,0,0,0,1.508,2.243h-.418c-2.77,0-5.54,0-8.31.006-.275,0-.382-.041-.377-.356.021-1.334.005-2.669.01-4a5.874,5.874,0,0,1,11.711-.707c.08.649.169,1.3.284,1.94a.421.421,0,0,1-.31.561c-.459.174-.45.2-.248.642.3.653.3.653.943.358.891-.406,1.785-.8,2.671-1.22.2-.094.294-.1.381.136.145.387.335.757.5,1.136C296.453,1391.806,296.553,1391.913,296.375,1391.983Zm-.173-3.329a.24.24,0,0,1-.176.248c-.709.32-1.419.639-2.125.967-.188.087-.246.064-.278-.157a25.157,25.157,0,0,0-.445-2.753,7.789,7.789,0,0,0-.648-1.6c1.2,0,2.341,0,3.483,0,.155,0,.188.057.187.2Q296.195,1387.1,296.2,1388.654Zm3.257,1.894c-.562.3-1.155.547-1.732.821-.121.057-.149-.012-.188-.1-.187-.424-.38-.846-.569-1.27-.035-.077-.085-.166.037-.218a18.614,18.614,0,0,1,1.828-.784.491.491,0,0,1,.113-.007.856.856,0,0,1,.827.6A.788.788,0,0,1,299.46,1390.548Zm2.785-4.958c0,.327.093.711-.051.957-.077.132-.564.023-.866.024a7.058,7.058,0,0,0-1.689.108,4.274,4.274,0,0,0-2.231,1.376c0-.889,0-1.7,0-2.511,0-.156.061-.185.2-.185q2.226.005,4.453,0c.149,0,.208.049.188.194A.346.346,0,0,0,302.244,1385.59Zm.539,4.606c-.515.008-1.029,0-1.544,0-.14,0-.224,0-.215-.2a2.031,2.031,0,0,0-1.144-2c-.031-.017-.063-.03-.095-.045a4.434,4.434,0,0,1,2.565-.021,1.681,1.681,0,0,1,1.1,1.535A.608.608,0,0,1,302.784,1390.2Zm7.322-2.42c1.17.012,2.341,0,3.511,0,.414,0,.667.192.713.524.055.388-.242.682-.706.683-1.46,0-2.92,0-4.38,0s-2.895-.005-4.342.006c-.224,0-.326-.059-.384-.281a2.626,2.626,0,0,0-.861-1.344.545.545,0,0,1-.207-.483c.01-.428.015-.856,0-1.283-.008-.207.066-.246.256-.246q2.171.011,4.342,0c.2,0,.26.057.248.253a2.111,2.111,0,0,0,.161,1.107A1.772,1.772,0,0,0,310.105,1387.776Zm4.239-6.877c-.033.451-.005.906-.009,1.359a1.812,1.812,0,0,1-1.9,1.893q-6.043,0-12.087,0-4.174,0-8.347,0a.683.683,0,0,1-.559-.223,6.906,6.906,0,0,0-3.4-1.989c-.122-.03-.354,0-.3-.234.066-.271-.174-.577.21-.826a2.793,2.793,0,0,1,1.64-.365c3.953.011,7.907.006,11.86.006q6.251,0,12.5-.007C314.257,1380.517,314.368,1380.572,314.344,1380.9Z" fill="#12263f"/>
      <path id="Trazado_112857" data-name="Trazado 112857" d="M340.648,1418.32c-.919.012-1.838.005-2.758.005s-1.839.007-2.758-.005c-.214,0-.271.057-.27.27q.014,2.154,0,4.307c0,.214.057.27.27.27q2.758-.013,5.516,0c.213,0,.271-.057.27-.27q-.014-2.153,0-4.307C340.92,1418.376,340.861,1418.317,340.648,1418.32Zm-.939,3.386c0,.2-.05.257-.25.251-.528-.014-1.057,0-1.586,0s-1.033-.009-1.549,0c-.2.005-.256-.05-.252-.25q.019-.963,0-1.926c0-.2.051-.254.25-.251q1.567.015,3.135,0c.2,0,.256.05.252.25Q339.69,1420.742,339.709,1421.706Z" transform="translate(-41.692 -45.055)" fill="#12263f"/>
      <path id="Trazado_112858" data-name="Trazado 112858" d="M362.481,1414.987c1.99-.013,3.979-.007,5.969-.007H374c.832,0,.814,0,.839-.833.009-.319-.079-.385-.389-.384-3.816.012-7.632.008-11.447.008-.873,0-.858,0-.876.87C362.124,1414.929,362.2,1414.989,362.481,1414.987Z" transform="translate(-61.707 -41.71)" fill="#12263f"/>
      <path id="Trazado_112859" data-name="Trazado 112859" d="M362.518,1424.083c3.816-.012,7.631-.008,11.447-.008.87,0,.856,0,.874-.872.006-.292-.079-.345-.353-.344-1.989.013-3.979.007-5.969.007h-5.554c-.83,0-.812,0-.837.835C362.116,1424.025,362.211,1424.084,362.518,1424.083Z" transform="translate(-61.704 -48.387)" fill="#12263f"/>
      <path id="Trazado_112860" data-name="Trazado 112860" d="M381.206,1431.957c-1.612.011-3.224.006-4.836.006H372.1c-.874,0-.86,0-.877.869-.006.285.069.348.349.347,3.01-.011,6.019-.007,9.029-.007.918,0,.908,0,.913-.907C381.518,1432.017,381.451,1431.955,381.206,1431.957Z" transform="translate(-68.383 -55.065)" fill="#12263f"/>
      <path id="Trazado_112861" data-name="Trazado 112861" d="M340.586,1400.127c-1.6.014-3.2.007-4.8.007-.941,0-.931,0-.932.927,0,.236.06.292.292.289.906-.014,1.813-.006,2.72-.006h2.153c.894,0,.882,0,.895-.889C340.92,1400.187,340.849,1400.125,340.586,1400.127Z" transform="translate(-41.687 -31.7)" fill="#12263f"/>
      <path id="Trazado_112862" data-name="Trazado 112862" d="M340.618,1409.225c-.906.013-1.813.006-2.72.006h-2.153c-.892,0-.88,0-.893.891,0,.271.073.327.333.325,1.6-.013,3.2-.007,4.8-.007.94,0,.929,0,.93-.929C340.913,1409.27,340.845,1409.221,340.618,1409.225Z" transform="translate(-41.684 -38.378)" fill="#12263f"/>
      <path id="Trazado_112863" data-name="Trazado 112863" d="M335.125,1392.257c.906-.012,1.813,0,2.72,0H340c.918,0,.908,0,.914-.907,0-.247-.064-.31-.31-.308-1.612.011-3.223.006-4.835.006-.932,0-.924,0-.913.945C334.856,1392.2,334.912,1392.26,335.125,1392.257Z" transform="translate(-41.684 -25.027)" fill="#12263f"/>
      <path id="Trazado_112864" data-name="Trazado 112864" d="M362.748,1431.979c-.587,0-.587,0-.587.585,0,.625,0,.625.623.625.587,0,.587,0,.587-.585C363.37,1431.979,363.37,1431.979,362.748,1431.979Z" transform="translate(-61.73 -55.082)" fill="#12263f"/>
      <path id="Trazado_112865" data-name="Trazado 112865" d="M387.734,1450.166c-.566,0-.566,0-.566.568,0,.641,0,.641.644.641.566,0,.566,0,.566-.568C388.377,1450.166,388.377,1450.166,387.734,1450.166Z" transform="translate(-80.087 -68.432)" fill="#12263f"/>
      <path id="Trazado_112866" data-name="Trazado 112866" d="M396.879,1450.166c-.617,0-.617,0-.617.63,0,.579,0,.579.592.579.617,0,.617,0,.617-.63C397.471,1450.166,397.471,1450.166,396.879,1450.166Z" transform="translate(-86.763 -68.432)" fill="#12263f"/>
      <path id="Trazado_112867" data-name="Trazado 112867" d="M406,1450.166c-.641,0-.641,0-.641.644,0,.565,0,.565.568.565.641,0,.641,0,.641-.643C406.564,1450.166,406.564,1450.166,406,1450.166Z" transform="translate(-93.437 -68.432)" fill="#12263f"/>
      <path id="Trazado_112868" data-name="Trazado 112868" d="M380.249,1391.874c-.027.237.056.292.288.289,1.209-.013,2.417-.006,3.626-.006.958,0,.952,0,.931-.964,0-.2-.056-.252-.253-.249-.718.012-1.435,0-2.153,0-.5,0-1.007-.006-1.511,0-.3.005-.69-.128-.871.053S380.282,1391.578,380.249,1391.874Z" transform="translate(-74.986 -24.933)" fill="#12263f"/>
      <path id="Trazado_112869" data-name="Trazado 112869" d="M380.566,1383.163c.717-.011,1.435,0,2.153,0,.5,0,1.008.006,1.511,0,.3-.005.689.129.87-.053s.026-.574.059-.87c.027-.237-.057-.291-.289-.289-1.208.012-2.417.006-3.626.006-.958,0-.951,0-.931.964C380.317,1383.113,380.37,1383.166,380.566,1383.163Z" transform="translate(-75.051 -18.352)" fill="#12263f"/>
      <path id="Trazado_112870" data-name="Trazado 112870" d="M380.633,1374.073c1.209-.013,2.417-.006,3.626-.006.932,0,.924,0,.913-.944,0-.213-.057-.274-.271-.27-.7.013-1.41.005-2.115.005h-1.549c-.918,0-.908,0-.914.907C380.322,1374.011,380.387,1374.076,380.633,1374.073Z" transform="translate(-75.063 -11.679)" fill="#12263f"/>
      <path id="Trazado_112871" data-name="Trazado 112871" d="M371.879,1392.268c.585,0,.585,0,.585-.587,0-.623,0-.623-.624-.623-.585,0-.585,0-.585.586C371.255,1392.268,371.255,1392.268,371.879,1392.268Z" transform="translate(-68.406 -25.044)" fill="#12263f"/>
      <path id="Trazado_112872" data-name="Trazado 112872" d="M371.841,1383.175c.623,0,.623,0,.623-.624,0-.585,0-.585-.586-.585-.623,0-.623,0-.623.624C371.255,1383.175,371.255,1383.175,371.841,1383.175Z" transform="translate(-68.406 -18.369)" fill="#12263f"/>
      <path id="Trazado_112873" data-name="Trazado 112873" d="M371.867,1374.081c.6,0,.6,0,.6-.575,0-.634,0-.634-.612-.634-.6,0-.6,0-.6.612C371.255,1374.081,371.255,1374.081,371.867,1374.081Z" transform="translate(-68.406 -11.693)" fill="#12263f"/>
      <path id="Trazado_112874" data-name="Trazado 112874" d="M288.04,1368.985c.312-.061.46.094.59.366.477.993.98,1.973,1.5,3.02l1.7-5.094c.253.759.476,1.405.68,2.057a.312.312,0,0,0,.367.264c.553-.019,1.107-.006,1.661-.006.956,0,.948,0,.925-.969,0-.209-.073-.248-.259-.243-.478.011-.957-.009-1.434.009a.336.336,0,0,1-.395-.284c-.4-1.253-.826-2.5-1.243-3.75-.089-.266-.181-.53-.305-.893l-1.923,5.755c-.23-.456-.435-.843-.621-1.239a.293.293,0,0,0-.31-.2c-.591.01-1.183.006-1.774,0-.128,0-.194.009-.211.174-.105,1.037-.111,1.036.9,1.036A.786.786,0,0,0,288.04,1368.985Z" transform="translate(-6.519 -4.785)" fill="#12263f"/>
    </g>
  </g>
</svg>
