<svg xmlns="http://www.w3.org/2000/svg" xmlns:xlink="http://www.w3.org/1999/xlink" width="45.696" height="46" viewBox="0 0 45.696 46">
  <defs>
    <clipPath id="clip-path">
      <rect id="Rectángulo_358168" data-name="Rectángulo 358168" width="40.696" height="44.322" fill="#12263f"/>
    </clipPath>
  </defs>
  <g id="Grupo_1022340" data-name="Grupo 1022340" transform="translate(-418.304 -2286)">
    <g id="Grupo_77443" data-name="Grupo 77443" transform="translate(177)">
      <rect id="Rectángulo_32442" data-name="Rectángulo 32442" width="31" height="31" transform="translate(256 2286)" fill="#57dbd8"/>
    </g>
    <rect id="Rectángulo_33680" data-name="Rectángulo 33680" width="43" height="46" transform="translate(421 2286)" fill="none"/>
    <g id="Grupo_1022344" data-name="Grupo 1022344" transform="translate(418.304 2287.678)">
      <g id="Grupo_1022343" data-name="Grupo 1022343" clip-path="url(#clip-path)">
        <path id="Trazado_751152" data-name="Trazado 751152" d="M0,25.358c.044-.282.082-.565.133-.846a1.315,1.315,0,0,1,1.408-1.189q1.362-.022,2.725,0a.479.479,0,0,0,.557-.386,11.555,11.555,0,0,1,.6-1.433.372.372,0,0,0-.082-.517c-.653-.631-1.291-1.278-1.931-1.924a1.326,1.326,0,0,1-.095-2.059c.8-.881,1.655-1.725,2.537-2.527a1.3,1.3,0,0,1,1.963.093c.649.636,1.293,1.277,1.923,1.931a.433.433,0,0,0,.593.112c.569-.274,1.159-.5,1.783-.767,0-.974,0-1.982,0-2.99,0-.952.426-1.477,1.383-1.522,1.191-.056,2.388-.046,3.579,0a1.305,1.305,0,0,1,1.335,1.444q.019,1.384,0,2.769a.408.408,0,0,0,.326.46c.514.184,1.007.425,1.52.611a.553.553,0,0,0,.437-.06,1.57,1.57,0,0,0,.674-1.467c-.048-2.191-.018-4.384-.018-6.576V7.969c-.625,0-1.2-.007-1.771,0a.9.9,0,0,1-.9-.477.928.928,0,0,1,.121-1.05c1.463-1.984,2.92-3.972,4.389-5.952A3.943,3.943,0,0,1,23.71,0h.519a4.837,4.837,0,0,1,.683.635c1.389,1.895,2.758,3.8,4.14,5.7a1.028,1.028,0,0,1,.209,1.12.981.981,0,0,1-1.051.513c-.5-.015-1,0-1.552,0v.5c0,2.481-.007,4.961.012,7.442a1.888,1.888,0,0,0,.261.73,2.27,2.27,0,0,0,.3.371,1.363,1.363,0,0,1-.106,2.037c-.619.625-1.235,1.253-1.87,1.862a.471.471,0,0,0-.124.661,11.839,11.839,0,0,1,.591,1.435.388.388,0,0,0,.431.312c.865-.013,1.73-.006,2.6,0,1.1,0,1.514.362,1.663,1.44.033.241.053.484.082.755h1.045V16.155c-.541,0-1.069-.006-1.6,0a1.014,1.014,0,0,1-1.059-.513,1.042,1.042,0,0,1,.225-1.155q2.124-2.867,4.232-5.745c.572-.776,1.2-.771,1.768.018q2.093,2.889,4.184,5.78a1,1,0,0,1,.173,1.123.978.978,0,0,1-.985.491c-.516-.005-1.033,0-1.6,0v.5c0,1.154,0,2.308,0,3.461,0,.49-.229.76-.626.769s-.666-.28-.668-.779c-.005-1.413-.008-2.827,0-4.24a.918.918,0,0,1,1.027-1.01c.375-.009.749-.008,1.124-.015.023,0,.045-.028.116-.076L34.212,9.744,30.45,14.858h1.188c.931,0,1.221.288,1.221,1.212,0,3.043.007,6.086-.008,9.129,0,.352.095.479.443.569.76.2,1.5.465,2.28.714,0-.91,0-1.83,0-2.75,0-.144-.008-.289,0-.433a.647.647,0,0,1,.661-.655.621.621,0,0,1,.628.678c.01.923.061,1.851-.012,2.768a2.351,2.351,0,0,0,.867,2.058,8.9,8.9,0,0,1,2.487,9.577A8.986,8.986,0,0,1,32.7,44.193a9.36,9.36,0,0,1-10.038-5.52,4.25,4.25,0,0,0-.717-1.049,16.023,16.023,0,0,0-1.255-1.252.5.5,0,0,0-.428-.067c-.526.194-1.031.446-1.559.631a.38.38,0,0,0-.295.439c.009.894.007,1.788,0,2.683a1.37,1.37,0,0,1-1.457,1.561c-1.135.042-2.274.042-3.409,0a1.349,1.349,0,0,1-1.434-1.53c0-.909.008-1.817-.011-2.726a.5.5,0,0,0-.218-.384c-.617-.272-1.25-.507-1.919-.771-.674.676-1.375,1.382-2.079,2.084a1.334,1.334,0,0,1-2.09.124,34.5,34.5,0,0,1-2.473-2.47,1.34,1.34,0,0,1,.1-2.094c.63-.634,1.257-1.273,1.9-1.892a.4.4,0,0,0,.084-.551A13.628,13.628,0,0,1,4.8,29.934a.4.4,0,0,0-.457-.331c-.908.016-1.817.009-2.725.005A1.357,1.357,0,0,1,.107,28.282c-.035-.254-.072-.507-.107-.76V25.358m6.734,12.26c.79-.793,1.5-1.509,2.215-2.221a1.359,1.359,0,0,1,1.833-.289,6.907,6.907,0,0,0,1.027.451c1.731.512,1.616,1.064,1.6,2.36-.008.788,0,1.577,0,2.425h3.706v-.539c0-.894-.006-1.789,0-2.683a1.308,1.308,0,0,1,.952-1.34q.9-.352,1.794-.741a1.338,1.338,0,0,1,1.625.274l.421.4a9.466,9.466,0,0,1,7.285-9.959l-.111-1.136h-.538c-.88,0-1.759,0-2.639,0a1.333,1.333,0,0,1-1.323-.924c-.251-.628-.516-1.249-.775-1.873a1.324,1.324,0,0,1,.246-1.521c.157-.169.324-.329.487-.492l1.872-1.861-2.634-2.618C23,16.108,22.3,16.8,21.61,17.494a1.4,1.4,0,0,1-1.942.306,12.493,12.493,0,0,0-1.231-.523c-1.139-.407-1.322-.651-1.323-1.856,0-.92,0-1.839,0-2.817H13.409c0,1.064,0,2.043,0,3.022a1.426,1.426,0,0,1-1.156,1.593,15.1,15.1,0,0,0-1.434.6,1.4,1.4,0,0,1-1.908-.311c-.7-.7-1.4-1.406-2.183-2.184l-2.62,2.624c.812.808,1.541,1.524,2.259,2.251a1.361,1.361,0,0,1,.288,1.733c-.233.51-.463,1.023-.654,1.55a1.4,1.4,0,0,1-1.558,1.138c-.88.005-1.759.01-2.639,0-.28,0-.429.058-.425.375q.017,1.489,0,2.978c0,.293.129.356.4.352.908-.014,1.817-.01,2.725,0A1.391,1.391,0,0,1,5.979,29.39c.176.487.365.971.587,1.438a1.453,1.453,0,0,1-.332,2.046c-.681.681-1.364,1.36-2.128,2.122l2.628,2.623m16.456-2.694a8.09,8.09,0,1,0,8.084-8.095,8.1,8.1,0,0,0-8.084,8.095m2.17-19.878v-.594q0-3.264,0-6.529c0-.962.3-1.251,1.272-1.252h1.054L24,1.571l-3.751,5.1h1.183c.9,0,1.215.315,1.215,1.225q0,3.091,0,6.183c0,.145.014.29.025.5,1.091-.954,1.857-.278,2.69.47" fill="#12263f"/>
        <path id="Trazado_751153" data-name="Trazado 751153" d="M91.671,228.83a8,8,0,1,1,7.853-9.518q.146.834-.471.948c-.418.076-.679-.153-.8-.7a6.545,6.545,0,0,0-4.951-5.225,6.7,6.7,0,1,0,4.795,8.415,1.93,1.93,0,0,1,.148-.4.6.6,0,0,1,.782-.279.569.569,0,0,1,.4.682,5.926,5.926,0,0,1-.3.989,7.969,7.969,0,0,1-7.455,5.088" transform="translate(-76.415 -194.364)" fill="#12263f"/>
        <path id="Trazado_751154" data-name="Trazado 751154" d="M127.129,251.437A5.113,5.113,0,1,1,122,246.345a5.122,5.122,0,0,1,5.132,5.092m-1.3.024a3.814,3.814,0,1,0-7.627,0,3.814,3.814,0,0,0,7.627,0" transform="translate(-106.767 -224.983)" fill="#12263f"/>
        <path id="Trazado_751155" data-name="Trazado 751155" d="M277.4,326.462a7.219,7.219,0,0,1,14.308-1.383c.1.5-.064.834-.458.918s-.683-.131-.8-.634a5.836,5.836,0,0,0-4.634-4.7,5.92,5.92,0,1,0,4.41,7.745,1.053,1.053,0,0,1,.455-.574.694.694,0,0,1,.649.13.925.925,0,0,1,.144.739,6.841,6.841,0,0,1-1.677,2.788,7.217,7.217,0,0,1-12.4-5.029" transform="translate(-253.345 -291.537)" fill="#12263f"/>
        <path id="Trazado_751156" data-name="Trazado 751156" d="M354.478,346.031c.667-.432,1.243-.81,1.825-1.181.429-.273.8-.224,1.018.122s.1.7-.328.976c-.892.583-1.789,1.159-2.68,1.742-.256.167-.551.307-.792.081a1.084,1.084,0,0,1-.326-.69c-.029-1.455-.017-2.911-.013-4.367,0-.473.249-.753.644-.754s.647.281.65.751c.006,1.076,0,2.152,0,3.319" transform="translate(-322.551 -312.308)" fill="#12263f"/>
        <path id="Trazado_751157" data-name="Trazado 751157" d="M149.292,276.2a2.521,2.521,0,0,1,.041,5.041,2.521,2.521,0,1,1-.041-5.041m1.229,2.532a1.2,1.2,0,0,0-1.184-1.231,1.224,1.224,0,0,0-1.264,1.2,1.239,1.239,0,0,0,1.193,1.238,1.219,1.219,0,0,0,1.256-1.21" transform="translate(-134.046 -252.253)" fill="#12263f"/>
      </g>
    </g>
  </g>
</svg>
