<svg xmlns="http://www.w3.org/2000/svg" xmlns:xlink="http://www.w3.org/1999/xlink" width="47.699" height="46" viewBox="0 0 47.699 46">
  <defs>
    <clipPath id="clip-path">
      <rect id="Rectángulo_358169" data-name="Rectángulo 358169" width="37.715" height="38.333" transform="translate(0 0)" fill="#12263f"/>
    </clipPath>
  </defs>
  <g id="Grupo_1022341" data-name="Grupo 1022341" transform="translate(-416.301 -2286)">
    <g id="Grupo_77443" data-name="Grupo 77443" transform="translate(177)">
      <rect id="Rectángulo_32442" data-name="Rectángulo 32442" width="31" height="31" transform="translate(256 2286)" fill="#57dbd8"/>
    </g>
    <rect id="Rectángulo_33680" data-name="Rectángulo 33680" width="43" height="46" transform="translate(421 2286)" fill="none"/>
    <g id="Grupo_1022346" data-name="Grupo 1022346" transform="translate(416.301 2290.604)">
      <g id="Grupo_1022345" data-name="Grupo 1022345" transform="translate(0 -0.004)" clip-path="url(#clip-path)">
        <path id="Trazado_751158" data-name="Trazado 751158" d="M6.907,353.848a6.9,6.9,0,0,1,.007-1.008,2.08,2.08,0,0,1,3.244-1.4.272.272,0,0,0,.327.007.637.637,0,0,0,.4-.649,2.067,2.067,0,0,1,2.322-1.925c.432.057.863.12,1.293.183a2.093,2.093,0,0,1,1.7,2.454.322.322,0,0,0,.135.366.676.676,0,0,0,.878.121,2.044,2.044,0,0,1,2.737,1.022c.179.383.351.771.518,1.159a2.086,2.086,0,0,1-.451,2.3.182.182,0,0,0-.049.253,3.32,3.32,0,0,0,.262.555c.143.179.381.047.575.073a2.117,2.117,0,0,1,1.752,1.511,13.174,13.174,0,0,1,.333,1.436,2,2,0,0,1-.971,2.088.268.268,0,0,0-.149.28c.019.248.025.5.027.747a.156.156,0,0,0,.128.17,2.087,2.087,0,0,1,1.438,2.039c0,.442.047.887.016,1.326a1.964,1.964,0,0,1-1.119,1.676c-.125.066-.176.132-.151.271s-.016.307.056.4.25.074.37.132c.576.279,1.164.541,1.717.861a1.874,1.874,0,0,1,.809,1.13c.23,0,.459,0,.687,0,.037,0,.087-.059.105-.1a2.1,2.1,0,0,1,2.116-1.388,11.167,11.167,0,0,1,1.436.045,2.068,2.068,0,0,1,1.717,2.221,2.091,2.091,0,0,1-2.032,1.923,11.722,11.722,0,0,1-1.6-.038,1.943,1.943,0,0,1-1.6-1.281.246.246,0,0,0-.285-.186c-.173.012-.382-.053-.512.023s-.155.29-.244.433a2.164,2.164,0,0,1-2.789.842c-.394-.186-.787-.377-1.17-.584a2.032,2.032,0,0,1-1.137-1.771,1.994,1.994,0,0,1,1-1.885.382.382,0,0,0,.2-.4.518.518,0,0,0-.41-.557,1.937,1.937,0,0,1-1.32-1.746,10.1,10.1,0,0,1-.029-1.623,1.95,1.95,0,0,1,1.242-1.688.23.23,0,0,0,.165-.277c-.019-.186-.02-.373-.021-.56,0-.088-.022-.131-.118-.151a2.055,2.055,0,0,1-1.693-1.659c-.1-.418-.218-.833-.289-1.255a2,2,0,0,1,.564-1.766.21.21,0,0,0,.05-.288,4.94,4.94,0,0,1-.222-.494.168.168,0,0,0-.195-.121,2.087,2.087,0,0,1-2.087-1.313c-.144-.324-.287-.649-.435-.972a2.065,2.065,0,0,1-.112-1.493c.029-.1.025-.158-.067-.218-.136-.088-.258-.2-.393-.285a.178.178,0,0,0-.158-.015,2.22,2.22,0,0,1-1.829.375c-.294-.054-.592-.083-.889-.124a2.1,2.1,0,0,1-1.353-.739c-.107.069-.214.132-.312.205a.143.143,0,0,0-.044.108c.021.378.042.756.076,1.133a.309.309,0,0,0,.115.2,1.227,1.227,0,0,1,.521.749c.12.528.245,1.055.358,1.585a.292.292,0,0,0,.194.239,8.964,8.964,0,0,1,5.32,5.921,8.824,8.824,0,0,1-.208,5.78,8.872,8.872,0,0,1-4.163,4.815,8.777,8.777,0,0,1-10-1.054,8.832,8.832,0,0,1-3.2-7.435,8.956,8.956,0,0,1,3.751-6.967,8.749,8.749,0,0,1,1.869-1.05.316.316,0,0,0,.161-.191c.125-.527.237-1.057.35-1.587a1.254,1.254,0,0,1,.763-.911m7.936,16.37c.01-.016.02-.032.031-.047a8,8,0,0,0-3.085-12.545,2.75,2.75,0,0,0-1.141-.227c-1.222.017-2.444,0-3.666.008a1.182,1.182,0,0,0-.347.054,7.632,7.632,0,0,0-2.935,1.73,7.4,7.4,0,0,0-1.855,2.65,7.93,7.93,0,0,0,.7,7.62c.168.263.37.5.557.754a6.4,6.4,0,0,1,2.276-7.538,6.319,6.319,0,0,1,9.465,7.541m-.779-2.366a5.09,5.09,0,1,0-5.223,5.068,5.1,5.1,0,0,0,5.223-5.068M10.822,356.2l-.277-1.218H7.329L7.063,356.2Zm11,8.688a.633.633,0,0,1-1.161.039.784.784,0,0,0-.284.588c.007.467.016.934.045,1.4a.767.767,0,0,0,.367.59.61.61,0,0,1,.5-.55.669.669,0,0,1,.726.4,1.515,1.515,0,0,0,.174-.543c.01-.441-.016-.884-.037-1.325a.81.81,0,0,0-.327-.6m-1.3-3.433a.635.635,0,0,1,.394-.615.65.65,0,0,1,.739.22,2.165,2.165,0,0,0,.052-.556c-.085-.451-.195-.9-.318-1.341a.8.8,0,0,0-.568-.553.615.615,0,0,1-.306.751c-.316.156-.575.039-.829-.264a2.264,2.264,0,0,0-.018.49c.088.432.191.861.305,1.287a.833.833,0,0,0,.549.58m6.638,10a.63.63,0,0,1,.006,1.152.8.8,0,0,0,.607.317c.443.007.885.009,1.328,0a.808.808,0,0,0,.576-.28c-.4-.043-.626-.256-.644-.568-.02-.35.179-.565.611-.662a.709.709,0,0,0-.563-.272c-.43-.007-.86-.009-1.29,0a.818.818,0,0,0-.63.316m-7.82-16.081a.777.777,0,0,0,.036-.684c-.166-.4-.341-.8-.531-1.192a.812.812,0,0,0-.9-.455c.342.348.415.614.236.89a.518.518,0,0,1-.48.273,2.648,2.648,0,0,1-.529-.164.47.47,0,0,0,.023.109c.2.443.385.89.6,1.326a.734.734,0,0,0,.487.375.641.641,0,0,1,1.063-.478m4.4,16.036a11.091,11.091,0,0,0-1.452-.787,3.95,3.95,0,0,1-.035.63.521.521,0,0,1-.451.4.507.507,0,0,1-.5-.144,2.707,2.707,0,0,1-.252-.433.839.839,0,0,0,.325,1.143,12.765,12.765,0,0,0,1.3.65.779.779,0,0,0,.96-.218.655.655,0,0,1-.595-.631c.007-.33.23-.539.7-.606M15,350.843a.845.845,0,0,0-.649-.586c-.421-.083-.847-.149-1.273-.193a.888.888,0,0,0-.848.4.6.6,0,0,1,.62.449.639.639,0,0,1-.4.759,3.785,3.785,0,0,0,1.962.27c-.348-.3-.43-.558-.276-.852s.423-.372.861-.249M9.86,353.762v-.523c-.608.28-.851.276-1.065-.01a.5.5,0,0,1-.093-.51,2.792,2.792,0,0,1,.287-.436.833.833,0,0,0-.874.665,5.756,5.756,0,0,0-.046.814Z" transform="translate(0 -335.803)" fill="#12263f"/>
        <path id="Trazado_751159" data-name="Trazado 751159" d="M889.676,236.356h-1.67c.306-.238.629-.485.947-.737a.556.556,0,0,0,.16-.182.474.474,0,0,1,.573-.283.521.521,0,0,0,.112-.009v-.225q0-4.069,0-8.138c0-1.458-.018-2.917.007-4.375a3.287,3.287,0,0,0-.81-2.45l1.138-.539c.134.221.291.451.418.7a3.824,3.824,0,0,1,.443,1.76c.006.934-.005,1.869-.007,2.8,0,.343.01.686.01,1.028q0,4.77,0,9.541a1.687,1.687,0,0,1-.125.912c-.044.075,0,.206.013.31q.316,2.426.635,4.852.3,2.27.59,4.541.191,1.473.377,2.947a.6.6,0,1,1-1.191.144q-.406-3.157-.813-6.314-.3-2.308-.59-4.617c-.07-.549-.14-1.1-.212-1.666" transform="translate(-854.774 -211.207)" fill="#12263f"/>
        <path id="Trazado_751160" data-name="Trazado 751160" d="M680.539,208.3c-.034-.551-.07-1.117-.1-1.682q-.143-2.333-.286-4.667c-.039-.628-.075-1.257-.119-1.885a.945.945,0,0,0-.076-.22,1.2,1.2,0,0,1-.111-.348q-.009-4.536-.005-9.073,0-2.366,0-4.732a4.2,4.2,0,0,1,2.781-3.924.25.25,0,0,1,.336.1c.233.3.494.574.751.867l-.252.054a3.009,3.009,0,0,0-2.418,3c.011,2.289,0,4.578,0,6.867q0,2.825,0,5.65c0,.186,0,.371,0,.582h.213c.811,0,1.622,0,2.432,0a.271.271,0,0,1,.26.129,3.256,3.256,0,0,0,1.264,1.066h-3.957c.008.185.013.35.023.514q.144,2.371.289,4.742c.049.8.1,1.593.15,2.389.01.145-.028.193-.177.233-.333.09-.655.221-.995.339" transform="translate(-654.394 -174.946)" fill="#12263f"/>
        <path id="Trazado_751161" data-name="Trazado 751161" d="M769.061,286.05a1.809,1.809,0,0,1-1.686,1.824,1.783,1.783,0,0,1-1.878-1.5c-.234-1.6-.449-3.2-.672-4.794q-.306-2.193-.612-4.386c-.117-.839-.236-1.678-.352-2.517a.6.6,0,1,1,1.193-.151q.46,3.3.921,6.608.345,2.48.686,4.961a.6.6,0,1,0,1.186-.163q-.483-3.556-.966-7.112-.234-1.722-.473-3.444a.6.6,0,1,1,1.193-.168q.347,2.556.7,5.111.376,2.759.749,5.519c.012.086.01.174.013.211" transform="translate(-735.27 -263.71)" fill="#12263f"/>
        <path id="Trazado_751162" data-name="Trazado 751162" d="M771.718,0A3.872,3.872,0,0,1,775.6,3.891,3.891,3.891,0,1,1,771.718,0m2.688,3.872a2.695,2.695,0,1,0-2.57,2.709,2.7,2.7,0,0,0,2.57-2.709" transform="translate(-739.085 0.004)" fill="#12263f"/>
        <path id="Trazado_751163" data-name="Trazado 751163" d="M801.891,680.048l-.32,2.394-1.133-.586,1.039-7.8,1.183.17c-.026.209-.054.459-.087.708-.081.605-.167,1.21-.242,1.816a.934.934,0,0,0,.025.349q1.247,4.594,2.5,9.186a.669.669,0,0,1-.1.648.567.567,0,0,1-.564.208.539.539,0,0,1-.461-.413c-.14-.491-.271-.984-.405-1.477q-.693-2.54-1.386-5.08c-.008-.028-.023-.054-.054-.127" transform="translate(-770.483 -648.835)" fill="#12263f"/>
        <path id="Trazado_751164" data-name="Trazado 751164" d="M177.778,744.986c0-.17,0-.332,0-.493a.438.438,0,1,1,.875-.017c.006.087,0,.174,0,.262s0,.161,0,.256c.154.032.3.058.442.094a2.24,2.24,0,0,1,1.094.574,1.081,1.081,0,0,1,.2.285.465.465,0,0,1-.128.558.471.471,0,0,1-.588.038c-.123-.084-.229-.194-.354-.275a1.976,1.976,0,0,0-1.538-.281,1.038,1.038,0,0,0-.325.138.6.6,0,0,0-.054,1.019,3.1,3.1,0,0,0,.665.33c.508.2,1.042.349,1.529.591a1.726,1.726,0,0,1,.9,2.143,1.637,1.637,0,0,1-1.162,1.115,2.551,2.551,0,0,1-.509.112c-.133.014-.166.068-.158.189a2.914,2.914,0,0,1,0,.392.432.432,0,0,1-.861-.011c-.007-.174,0-.348,0-.524-.217-.055-.425-.094-.624-.16a2.535,2.535,0,0,1-1.26-.863.547.547,0,0,1-.124-.488.494.494,0,0,1,.79-.262c.162.126.3.277.47.4a2.05,2.05,0,0,0,1.83.308.735.735,0,0,0,.592-.645.708.708,0,0,0-.41-.771c-.31-.155-.643-.265-.965-.4a12.815,12.815,0,0,1-1.205-.5,1.516,1.516,0,0,1-.838-1.547,1.549,1.549,0,0,1,1.2-1.453c.159-.05.325-.078.509-.121" transform="translate(-169.212 -716.191)" fill="#12263f"/>
      </g>
    </g>
  </g>
</svg>
