<svg xmlns="http://www.w3.org/2000/svg" xmlns:xlink="http://www.w3.org/1999/xlink" width="152" height="152" viewBox="0 0 152 152">
  <defs>
    <clipPath id="clip-path">
      <rect id="Rectángulo_357882" data-name="Rectángulo 357882" width="73.346" height="73.336" fill="#12263f"/>
    </clipPath>
  </defs>
  <g id="Grupo_1009639" data-name="Grupo 1009639" transform="translate(7.173 7)">
    <g id="Grupo_1020472" data-name="Grupo 1020472">
      <circle id="Elipse_8460" data-name="Elipse 8460" cx="76" cy="76" r="76" transform="translate(-7.173 -7)" fill="#57dbd8" opacity="0.45"/>
      <circle id="Elipse_8461" data-name="Elipse 8461" cx="62" cy="62" r="62" transform="translate(6.827 7)" fill="#fff"/>
      <g id="Grupo_1021546" data-name="Grupo 1021546" transform="translate(38.759 32.332)">
        <g id="Grupo_1021545" data-name="Grupo 1021545" clip-path="url(#clip-path)">
          <path id="Trazado_750202" data-name="Trazado 750202" d="M14.463,0H54.271a2.536,2.536,0,0,1,1.591,2.8c-.05.535-.008,1.079-.008,1.671,1.956,0,3.818.069,5.672-.02s2.959.744,2.946,2.9c-.059,9.855-.02,19.71-.04,29.565a1.348,1.348,0,0,0,.653,1.276,19.121,19.121,0,0,1,6.554,23.567c-3.521,7.589-9.656,11.48-18,11.525-16.918.091-33.836.017-50.754.047A2.768,2.768,0,0,1,0,71.741V14.463c.459-.565.873-1.175,1.384-1.689Q7.059,7.059,12.773,1.384C13.287.873,13.9.459,14.463,0M51.506,34.8V4.333H17.191v.8q0,4.8,0,9.593a2.192,2.192,0,0,1-2.48,2.452q-4.8,0-9.593,0H4.343v51.8H41.558c-1.1-1.265-2.248-2.528-3.325-3.848a1.268,1.268,0,0,0-1.11-.566q-12.886.024-25.773.011c-.239,0-.478.01-.716-.007a2.143,2.143,0,0,1-.263-4.249,4.684,4.684,0,0,1,.856-.037q11.777,0,23.554,0h.841l-.948-4.3H11.314c-.239,0-.479.012-.716-.009a2.188,2.188,0,0,1-1.986-1.935,2.116,2.116,0,0,1,1.524-2.231,3.835,3.835,0,0,1,1.057-.115q11.347-.009,22.695,0h.818l1.017-4.3H11.376c-.239,0-.478.009-.716-.006a2.142,2.142,0,0,1-.315-4.245,4.8,4.8,0,0,1,.927-.043q12.994,0,25.988.012a1.33,1.33,0,0,0,1.22-.629,18.92,18.92,0,0,1,6.568-5.633A19.708,19.708,0,0,1,51.506,34.8M69.02,53.972A15.035,15.035,0,1,0,54.013,69.02,15.058,15.058,0,0,0,69.02,53.972M55.895,8.806V34.669l4.211.9V8.806ZM7.462,12.838h5.366V7.484L7.462,12.838" fill="#12263f"/>
          <path id="Trazado_750203" data-name="Trazado 750203" d="M77.435,60.671a19.707,19.707,0,0,0-6.457,2.049,18.92,18.92,0,0,0-6.568,5.633,1.331,1.331,0,0,1-1.22.629Q50.2,68.954,37.2,68.971a4.8,4.8,0,0,0-.927.043,2.142,2.142,0,0,0,.315,4.245c.238.015.477.006.716.006H61.651l-1.017,4.3h-.818q-11.347,0-22.694,0a3.83,3.83,0,0,0-1.057.115,2.116,2.116,0,0,0-1.524,2.231,2.188,2.188,0,0,0,1.986,1.935c.237.021.477.009.716.009H60.6l.948,4.3h-.841q-11.777,0-23.554,0a4.7,4.7,0,0,0-.856.037,2.143,2.143,0,0,0,.263,4.249c.238.017.477.007.716.007q12.886,0,25.773-.011a1.268,1.268,0,0,1,1.11.566c1.077,1.32,2.223,2.583,3.325,3.848H30.272V43.05h.774q4.8,0,9.593,0a2.192,2.192,0,0,0,2.48-2.452q.006-4.8,0-9.593v-.8H77.435ZM47.555,47.49h-.77c-1.813,0-3.625,0-5.438,0a2.173,2.173,0,0,0-2.382,2.337q-.012,5.187,0,10.375a2.153,2.153,0,0,0,2.322,2.323q12.7.009,25.4,0a2.157,2.157,0,0,0,2.334-2.312q.015-4.114,0-8.228a2.169,2.169,0,0,0-2.366-2.352c-1.813-.008-3.625,0-5.438,0h-.786c0-2.134,0-4.16,0-6.186a2.183,2.183,0,0,0-2.393-2.4q-4.043-.008-8.085,0a2.181,2.181,0,0,0-2.4,2.394c-.006,1.311,0,2.623,0,4.049" transform="translate(-25.929 -25.867)" fill="#dee4f0"/>
          <path id="Trazado_750204" data-name="Trazado 750204" d="M301.543,286.493a15.035,15.035,0,1,1-15.03-15.022,15.062,15.062,0,0,1,15.03,15.022m-15.159,10.623a2.057,2.057,0,0,0,2.12-1.744,1.029,1.029,0,0,1,.67-.88,5.526,5.526,0,0,0,2.9-6.376,5.9,5.9,0,0,0-3.414-3.734c-.881-.42-1.8-.758-2.67-1.2-.239-.122-.549-.588-.481-.727.141-.287.524-.654.789-.64a3.953,3.953,0,0,1,1.654.461,2.23,2.23,0,0,0,2.9-.465,2.123,2.123,0,0,0-.317-2.955,6.156,6.156,0,0,0-1.387-.864,1.021,1.021,0,0,1-.684-.789,2.11,2.11,0,0,0-4.1.119,1.186,1.186,0,0,1-.686.892,4.888,4.888,0,0,0-.367,8.346,12.746,12.746,0,0,0,1.756.947,20.388,20.388,0,0,1,2.188,1.037,1.63,1.63,0,0,1,.657,1.133,1.181,1.181,0,0,1-1.033,1.121,2.117,2.117,0,0,1-.986.059,13.327,13.327,0,0,1-2.009-.688,2.178,2.178,0,0,0-2.854.859,2.112,2.112,0,0,0,.757,2.873,9.4,9.4,0,0,0,1.879.856.883.883,0,0,1,.707.745,2.065,2.065,0,0,0,2.016,1.614" transform="translate(-232.523 -232.522)" fill="#e6b046"/>
          <path id="Trazado_750205" data-name="Trazado 750205" d="M389.579,61.378h4.211V88.136l-4.211-.9Z" transform="translate(-333.684 -52.572)" fill="#dee4f0"/>
          <path id="Trazado_750206" data-name="Trazado 750206" d="M52.012,57.516l5.366-5.354v5.354Z" transform="translate(-44.55 -44.678)" fill="#d2e1f1"/>
          <path id="Trazado_750207" data-name="Trazado 750207" d="M99.424,112.225c0-1.426,0-2.737,0-4.049a2.182,2.182,0,0,1,2.4-2.394q4.043-.008,8.085,0a2.183,2.183,0,0,1,2.393,2.4c.006,2.026,0,4.051,0,6.186h.786c1.813,0,3.625-.006,5.438,0a2.169,2.169,0,0,1,2.366,2.352q.012,4.114,0,8.228a2.157,2.157,0,0,1-2.334,2.312q-12.7.008-25.4,0a2.153,2.153,0,0,1-2.322-2.323q-.012-5.187,0-10.375a2.173,2.173,0,0,1,2.382-2.338c1.813-.006,3.625,0,5.438,0h.77m4.345,10.709h4.2V110.11h-4.2Zm-8.593-.02h4.212v-6.356H95.176Zm21.387-4.206h-4.21v4.229h4.21Z" transform="translate(-77.797 -90.602)" fill="#12263f"/>
          <path id="Trazado_750208" data-name="Trazado 750208" d="M341.742,321.987a2.065,2.065,0,0,1-2.016-1.614.883.883,0,0,0-.707-.745,9.4,9.4,0,0,1-1.879-.856,2.112,2.112,0,0,1-.757-2.873,2.177,2.177,0,0,1,2.854-.859,13.327,13.327,0,0,0,2.009.688,2.117,2.117,0,0,0,.986-.059,1.181,1.181,0,0,0,1.033-1.121,1.63,1.63,0,0,0-.657-1.133,20.364,20.364,0,0,0-2.188-1.037,12.763,12.763,0,0,1-1.756-.947,4.888,4.888,0,0,1,.367-8.346,1.186,1.186,0,0,0,.686-.892,2.11,2.11,0,0,1,4.1-.119,1.021,1.021,0,0,0,.684.789,6.155,6.155,0,0,1,1.387.864,2.123,2.123,0,0,1,.317,2.955,2.23,2.23,0,0,1-2.9.465,3.953,3.953,0,0,0-1.654-.461c-.265-.014-.648.353-.789.64-.068.138.242.6.481.727.868.444,1.789.782,2.67,1.2a5.9,5.9,0,0,1,3.414,3.734,5.526,5.526,0,0,1-2.9,6.376,1.029,1.029,0,0,0-.67.88,2.057,2.057,0,0,1-2.12,1.744" transform="translate(-287.881 -257.392)" fill="#12263f"/>
          <rect id="Rectángulo_357879" data-name="Rectángulo 357879" width="4.202" height="12.823" transform="translate(25.972 19.508)" fill="#57dbd8"/>
          <rect id="Rectángulo_357880" data-name="Rectángulo 357880" width="4.212" height="6.356" transform="translate(17.378 25.956)" fill="#fe7062"/>
          <rect id="Rectángulo_357881" data-name="Rectángulo 357881" width="4.21" height="4.229" transform="translate(34.555 28.106)" fill="#e6b046"/>
        </g>
      </g>
    </g>
  </g>
</svg>
