<svg xmlns="http://www.w3.org/2000/svg" xmlns:xlink="http://www.w3.org/1999/xlink" width="152" height="152" viewBox="0 0 152 152">
  <defs>
    <clipPath id="clip-path">
      <rect id="Rectángulo_357883" data-name="Rectángulo 357883" width="75.468" height="75.444" fill="none"/>
    </clipPath>
  </defs>
  <g id="Grupo_1020663" data-name="Grupo 1020663" transform="translate(7.173 7)">
    <g id="Grupo_1020472" data-name="Grupo 1020472">
      <circle id="Elipse_8460" data-name="Elipse 8460" cx="76" cy="76" r="76" transform="translate(-7.173 -7)" fill="#91b3fa" opacity="0.45"/>
      <circle id="Elipse_8461" data-name="Elipse 8461" cx="62" cy="62" r="62" transform="translate(6.827 7)" fill="#fff"/>
      <g id="Grupo_1021548" data-name="Grupo 1021548" transform="translate(33.435 31.278)">
        <g id="Grupo_1021547" data-name="Grupo 1021547" clip-path="url(#clip-path)">
          <path id="Trazado_750209" data-name="Trazado 750209" d="M0,71.949V22.208a3.869,3.869,0,0,1,2.187-2.394c.216-.077.23-.191.253-.381.143-1.2-.023-2.407.2-3.64a22.963,22.963,0,0,1,.521-2.741,15.927,15.927,0,0,1,3.4-6.233C7.4,5.908,8.2,4.95,9.11,4.1l.167-.117L10.317,3.2l.176-.118A20.08,20.08,0,0,1,16.909.412C17.45.29,18.131.59,18.557,0h3.954c.034.187.189.129.3.151.05.047.1.134.15.135a11.634,11.634,0,0,1,3.662.785,18.144,18.144,0,0,1,8.088,5.634,1.409,1.409,0,0,0,1.227.606q16.994-.019,33.988-.01a6.155,6.155,0,0,1,2.05.29,4.771,4.771,0,0,1,3.438,4.9c.09,3.064.031,6.133.018,9.2a2.6,2.6,0,0,1-2.726,2.66c-1.315-.065-2.636.008-3.953-.025-.482-.012-.639.1-.631.612.033,1.977.013,3.954.013,5.931q0,19.619,0,39.238a2.892,2.892,0,0,1-.915,2.325c-.114-.032-.147.048-.18.129a2.536,2.536,0,0,1-1.736.46Q53.528,73,41.744,73.006c-.433,0-.744.04-.95.5a3.206,3.206,0,0,1-3.148,1.926c-11.454.019-22.908,0-34.362.009a2.617,2.617,0,0,1-1.761-.632c0-.252-.125-.214-.276-.127A6.7,6.7,0,0,1,0,72.862v-.456c.2-.152.2-.3,0-.456m71.915-61.76a2.571,2.571,0,0,0-1.231-.431,2.438,2.438,0,0,0-2.536,1.988c-.011,3.213,0,6.425-.018,9.638,0,.449.147.538.558.529,1.239-.025,2.479-.036,3.718,0,.511.016.617-.148.613-.63-.022-2.934,0-5.869-.015-8.8a2.736,2.736,0,0,0-.911-2.168l-.178-.127M46.387,19.178a22.34,22.34,0,0,1,2.8,2.842c.342.467.649.677,1.185.112,1.516-1.6,3.09-3.139,4.664-4.678.33-.322.362-.5.009-.827-.933-.873-1.825-1.791-2.789-2.746L62.209,11.9q0,.142,0,.284A16.053,16.053,0,0,1,61.7,15.1c-.391,2.245-.917,4.466-1.43,6.894-.808-.854-1.527-1.63-2.265-2.387-.842-.863-.85-.855-1.676.034-.086.093-.177.181-.269.269-1.38,1.332-2.771,2.652-4.137,4-.589.581-1.14,1.2-1.682,1.83-.27.313-.44.282-.715,0-.9-.931-1.836-1.82-2.73-2.754-.412-.43-.72-.409-1.127.008-1.31,1.341-2.646,2.659-3.974,3.982a.916.916,0,0,0-.336.71c.018,2.434.011,4.867.008,7.3,0,.229-.027.484.234.577.245.087.342-.17.475-.3,1.225-1.213,2.448-2.427,3.656-3.657.356-.362.612-.443,1.007-.014.789.857,1.7,1.611,2.444,2.5.551.655.928.492,1.386-.013.085-.094.179-.179.269-.269q5.86-5.862,11.724-11.72c.18-.18.3-.473.709-.465v.743c0,7.706-.009,15.413.016,23.119,0,.643-.165.776-.787.774-6.793-.025-13.586,0-20.38-.033-.655,0-.768.184-.767.794q.033,11.369,0,22.739c0,.623.086.845.8.842q11.406-.049,22.813-.008c.567,0,.759-.1.756-.726-.028-5.425-.015-10.85-.022-16.275,0-.209.1-.448-.04-.583l-3.62,3.422c-.186.168-.379.328-.556.5q-3.223,3.218-6.444,6.437c-.165.164-.272.483-.619.125-1.388-1.431-2.81-2.829-4.25-4.27a17.18,17.18,0,0,0,1.265-1.245c.353-.423.572-.3.885.032.759.808,1.549,1.588,2.2,2.256l7.543-7.335c1.01-.992,2-2.005,3.038-2.966a1.763,1.763,0,0,0,.612-1.438q-.029-17.565-.015-35.13a6.293,6.293,0,0,1,.614-3.631H36.735a15.967,15.967,0,0,1,1.971,5.966,9.352,9.352,0,0,1,.093,2.957,1.055,1.055,0,0,0,.7,1.378A2.46,2.46,0,0,1,40.737,21.2a5.8,5.8,0,0,1,.686,2.482l.2.118,4.46-4.662.3.041m-7.812,3.236c-.186.067-.206.208-.255.359A15.791,15.791,0,0,1,37,26.3a4.022,4.022,0,0,0-.5,2.294c.017,2.408-.015,4.817.021,7.224.009.583-.158.7-.714.7q-15.132-.027-30.265,0c-.605,0-.69-.193-.685-.727.027-2.56.015-5.121.007-7.681a1.887,1.887,0,0,0-.107-.8A15.711,15.711,0,0,1,3.11,22.979c-.018-.149-.085-.462-.342-.393a.48.48,0,0,0-.332.462c0,.127,0,.254,0,.38q0,24.032,0,48.063c0,1.139.367,1.521,1.463,1.521q16.729,0,33.459,0c1.076,0,1.579-.489,1.579-1.541q0-23.88,0-47.759a2.554,2.554,0,0,0-.366-1.3M4.827,15.945c.041,7.194,1.952,11.225,5.687,14.418A15.322,15.322,0,0,0,23.333,33.88,14.972,14.972,0,0,0,32.571,28.7,15.849,15.849,0,0,0,20.737,2.44c-8.972-.092-16.02,7.346-15.91,13.505M60.778,27.438c-.143-.067-.214,0-.287.076-1.433,1.43-2.862,2.864-4.3,4.285a.844.844,0,0,0-.215.686c0,3.6.008,7.191-.009,10.786,0,.435.123.557.552.547,1.214-.028,2.432-.047,3.645.006.595.026.7-.174.693-.72-.021-5.013-.011-10.026-.017-15.039,0-.213.076-.446-.058-.627m-7.239,7.29-.262-.142c-.6.643-1.183,1.3-1.8,1.922a1.175,1.175,0,0,0-.377.925c.021,1.516.009,3.032.009,4.548,0,1.89,0,1.874,1.9,1.84.438-.008.543-.142.539-.559-.018-2.249-.009-4.5-.009-6.746V34.728m-7.3.075v7.163c0,1.9,0,1.885,1.889,1.854.419-.007.567-.106.555-.544a20.28,20.28,0,0,1,.015-3.257A4.705,4.705,0,0,0,46.239,34.8m-2.434,2.389a.334.334,0,0,0-.426.128c-2.008,1.875-2.007,1.875-2.007,4.631,0,1.945,0,1.945,1.945,1.858a.4.4,0,0,1,.076,0c.344.05.42-.122.419-.437-.011-2.065-.005-4.129-.005-6.181M34.07,30.772l-.206-.095a16.359,16.359,0,0,1-4.158,3.4c1.458,0,2.713,0,3.967,0,.211,0,.4.009.4-.3-.009-1,0-2,0-3M7.3,30.671c0,1.126,0,2.1,0,3.079,0,.213.062.326.3.325,1.288-.005,2.575,0,3.971,0a18.768,18.768,0,0,1-4.267-3.4M58.82,17.14a4.538,4.538,0,0,1,.062-.622c.448-1.578.35-1.684-1.23-1.3a.242.242,0,0,0-.073.016c-.182.12-.467.174-.127.48.444.4.833.862,1.368,1.427" transform="translate(-0.001)" fill="#12263f"/>
          <path id="Trazado_750210" data-name="Trazado 750210" d="M0,471.868c.2.152.2.3,0,.456Z" transform="translate(0 -399.919)" fill="#020201"/>
          <path id="Trazado_750211" data-name="Trazado 750211" d="M147.936,0q0,.075,0,.151c-.115-.022-.271.036-.3-.151Z" transform="translate(-125.122)" fill="#fff"/>
          <path id="Trazado_750212" data-name="Trazado 750212" d="M250.265,73.444l-4.46,4.662-.2-.118a5.8,5.8,0,0,0-.686-2.482,2.459,2.459,0,0,0-1.243-1.127,1.055,1.055,0,0,1-.7-1.378,9.341,9.341,0,0,0-.093-2.957,15.966,15.966,0,0,0-1.971-5.965H270.5a6.294,6.294,0,0,0-.614,3.631q0,17.565.015,35.13a1.763,1.763,0,0,1-.612,1.438c-1.038.961-2.029,1.974-3.038,2.967.059-.5-.179-.633-.652-.619-1,.03-1.992.008-2.988.007a1.169,1.169,0,0,1-.021-.3c.147-.767-.164-.943-.921-.933-3.546.045-7.093.03-10.64.008-.5,0-.624.132-.622.626q.027,7.9,0,15.81c0,.495.125.626.623.625q7.9-.028,15.808,0c.49,0,.632-.118.627-.62-.026-2.609-.012-5.219-.012-7.829,0-1.259,0-1.259-1.214-1.322q-.009-.978-.018-1.955l3.62-3.423c.137.136.04.375.04.583.007,5.425-.007,10.85.022,16.275,0,.622-.189.727-.756.726q-11.407-.027-22.813.008c-.711,0-.8-.219-.8-.842q.031-11.369,0-22.739c0-.611.112-.8.767-.794,6.793.028,13.586.008,20.38.033.622,0,.789-.131.787-.774-.025-7.706-.016-15.413-.016-23.119v-.743c-.407-.008-.529.285-.709.465q-5.869,5.854-11.724,11.72c-.09.09-.184.175-.269.269-.458.506-.835.668-1.386.013-.748-.889-1.655-1.642-2.444-2.5-.395-.429-.651-.349-1.007.014-1.207,1.23-2.431,2.444-3.656,3.657-.133.131-.23.388-.475.3-.261-.093-.234-.347-.234-.577,0-2.434.01-4.867-.008-7.3a.918.918,0,0,1,.336-.71c1.329-1.323,2.664-2.641,3.974-3.982.407-.416.715-.438,1.127-.008.894.934,1.834,1.823,2.73,2.754.276.287.445.318.716,0,.542-.627,1.092-1.249,1.682-1.83,1.366-1.347,2.756-2.667,4.137-4,.091-.088.182-.176.269-.269.826-.889.833-.9,1.676-.034.738.757,1.457,1.533,2.265,2.387.513-2.428,1.038-4.649,1.429-6.894a16.023,16.023,0,0,0,.513-2.924l.142-.2-.146-.081-9.954,1.984c.964.955,1.856,1.873,2.789,2.746.353.33.321.5-.009.827-1.575,1.539-3.148,3.082-4.664,4.678-.536.564-.843.355-1.185-.112a22.337,22.337,0,0,0-2.8-2.842c-.016-.11,0-.257-.163-.245-.05,0-.092.132-.137.2" transform="translate(-204.179 -54.308)" fill="#727997"/>
          <path id="Trazado_750213" data-name="Trazado 750213" d="M52.1,147a2.554,2.554,0,0,1,.366,1.3q0,23.88,0,47.759c0,1.052-.5,1.541-1.579,1.541q-16.729,0-33.459,0c-1.1,0-1.462-.383-1.463-1.521q0-24.032,0-48.063c0-.127,0-.254,0-.38a.481.481,0,0,1,.332-.462c.258-.069.325.244.342.393a15.716,15.716,0,0,0,1.645,4.332,1.885,1.885,0,0,1,.107.8c.008,2.56.02,5.121-.007,7.681-.005.534.08.728.685.727q15.132-.033,30.265,0c.556,0,.723-.116.714-.7-.037-2.408,0-4.816-.021-7.225a4.021,4.021,0,0,1,.5-2.294,15.793,15.793,0,0,0,1.324-3.53c.049-.151.069-.293.255-.359m-17.89,16.527c-5.042,0-10.084.01-15.126-.014-.572,0-.7.143-.7.708q.028,15.128,0,30.256c0,.572.142.7.707.7q15.127-.028,30.253,0c.572,0,.7-.142.7-.707q-.028-15.128,0-30.256c0-.572-.142-.707-.707-.7-5.042.024-10.084.014-15.126.014" transform="translate(-13.526 -124.583)" fill="#a8b2be"/>
          <path id="Trazado_750214" data-name="Trazado 750214" d="M31.646,29.5c-.11-6.159,6.938-13.6,15.91-13.505A15.849,15.849,0,0,1,59.389,42.256a14.972,14.972,0,0,1-9.238,5.181A15.322,15.322,0,0,1,37.333,43.92C33.6,40.726,31.687,36.7,31.646,29.5M47.431,45.2A13.359,13.359,0,0,0,60.848,31.927,13.392,13.392,0,0,0,47.18,18.454a13.311,13.311,0,0,0-13.053,14.5c.386,5.76,5.626,12.46,13.3,12.239" transform="translate(-26.82 -13.557)" fill="#fec300"/>
          <path id="Trazado_750215" data-name="Trazado 750215" d="M328.9,343.117c1,0,1.993.023,2.988-.007.473-.014.711.12.652.619L325,351.064c-.656-.668-1.446-1.448-2.2-2.256-.313-.334-.531-.454-.885-.032a17.3,17.3,0,0,1-1.265,1.245c1.44,1.44,2.861,2.839,4.25,4.269.347.357.454.039.619-.125q3.226-3.215,6.444-6.437c.177-.177.37-.336.556-.5q.008.978.017,1.955a1.185,1.185,0,0,1-.3.021c-.764-.144-.963.159-.938.923.062,1.922,0,3.847.033,5.771.008.505-.144.625-.632.622q-5.467-.03-10.934,0c-.5,0-.628-.136-.625-.629q.031-5.467,0-10.935c0-.495.128-.633.626-.628,2.607.025,5.214.012,7.821.012,1.26,0,1.26,0,1.324-1.219" transform="translate(-270.471 -290.793)" fill="#fe7062"/>
          <path id="Trazado_750216" data-name="Trazado 750216" d="M371.837,179.8c.134.181.058.414.058.628.005,5.013,0,10.026.017,15.039,0,.546-.1.746-.693.72-1.213-.053-2.43-.034-3.645-.006-.429.01-.554-.112-.552-.547.017-3.6.01-7.19.009-10.785a.844.844,0,0,1,.215-.686c1.443-1.421,2.872-2.855,4.3-4.285.072-.072.143-.143.287-.076" transform="translate(-311.06 -152.359)" fill="#57dbd8"/>
          <path id="Trazado_750217" data-name="Trazado 750217" d="M450.78,64.387a2.736,2.736,0,0,1,.911,2.168c.01,2.934-.007,5.869.015,8.8,0,.482-.1.647-.614.63-1.238-.04-2.479-.029-3.718,0-.41.008-.561-.08-.558-.53.021-3.213.007-6.425.018-9.638a2.438,2.438,0,0,1,2.536-1.988,2.571,2.571,0,0,1,1.231.431c.032.081.066.158.178.127" transform="translate(-378.688 -54.071)" fill="#e5e9ed"/>
          <path id="Trazado_750218" data-name="Trazado 750218" d="M337.549,226.965v1.787c0,2.249-.01,4.5.009,6.746,0,.417-.1.551-.539.559-1.9.035-1.9.05-1.9-1.84,0-1.516.013-3.032-.009-4.548a1.175,1.175,0,0,1,.377-.925c.62-.622,1.2-1.279,1.8-1.922l.262.142" transform="translate(-284.01 -192.238)" fill="#57dbd8"/>
          <path id="Trazado_750219" data-name="Trazado 750219" d="M303.245,228.247a4.7,4.7,0,0,1,2.458,5.215,20.274,20.274,0,0,0-.015,3.257c.012.438-.136.537-.555.544-1.889.031-1.889.044-1.889-1.854Z" transform="translate(-257.007 -193.445)" fill="#57dbd8"/>
          <path id="Trazado_750220" data-name="Trazado 750220" d="M273.758,243.75c0,2.052-.005,4.117.005,6.181,0,.314-.074.486-.418.437a.4.4,0,0,0-.076,0c-1.945.087-1.945.087-1.945-1.858,0-2.756,0-2.756,2.007-4.631a.334.334,0,0,1,.426-.128" transform="translate(-229.953 -206.559)" fill="#57dbd8"/>
          <path id="Trazado_750221" data-name="Trazado 750221" d="M199.181,201.288c0,1-.005,2,0,3,0,.308-.189.3-.4.3-1.254,0-2.508,0-3.967,0a16.362,16.362,0,0,0,4.158-3.4l.206.094" transform="translate(-165.112 -170.517)" fill="#fe7062"/>
          <path id="Trazado_750222" data-name="Trazado 750222" d="M47.871,201.149a18.768,18.768,0,0,0,4.267,3.4c-1.4,0-2.684,0-3.972,0-.236,0-.3-.112-.3-.325.005-.977,0-1.953,0-3.079" transform="translate(-40.57 -170.478)" fill="#fe7062"/>
          <path id="Trazado_750223" data-name="Trazado 750223" d="M377.27,100.689c-.535-.565-.924-1.027-1.368-1.427-.341-.306-.055-.36.127-.48a.243.243,0,0,1,.073-.016c1.58-.383,1.679-.277,1.23,1.3a4.54,4.54,0,0,0-.062.622" transform="translate(-318.451 -83.549)" fill="#ff6983"/>
          <path id="Trazado_750224" data-name="Trazado 750224" d="M302.245,124.367c.046-.072.087-.2.137-.2.159-.011.147.135.163.245l-.3-.041" transform="translate(-256.16 -105.23)" fill="#f3cdae"/>
          <path id="Trazado_750225" data-name="Trazado 750225" d="M8.44,489.566c-.115.008-.268.1-.276-.127.152-.088.28-.125.276.127" transform="translate(-6.919 -414.755)" fill="#020201"/>
          <path id="Trazado_750226" data-name="Trazado 750226" d="M407.982,78.02l.146.081-.142.2q0-.142,0-.284" transform="translate(-345.774 -66.124)"/>
          <path id="Trazado_750227" data-name="Trazado 750227" d="M471.821,66.946c-.112.031-.146-.047-.178-.127l.178.127" transform="translate(-399.728 -56.631)" fill="#020201"/>
          <path id="Trazado_750228" data-name="Trazado 750228" d="M59.74,26.19c.025-.082.058-.154.167-.117l-.167.117" transform="translate(-50.631 -22.089)" fill="#020201"/>
          <path id="Trazado_750229" data-name="Trazado 750229" d="M67.66,20.238c.032-.079.061-.162.176-.118l-.176.118" transform="translate(-57.343 -17.042)" fill="#020201"/>
          <path id="Trazado_750230" data-name="Trazado 750230" d="M439.891,475l-.18.129c.033-.08.066-.161.18-.129" transform="translate(-372.665 -402.568)" fill="#fff"/>
          <path id="Trazado_750231" data-name="Trazado 750231" d="M315.375,336.3c-.063,1.219-.063,1.219-1.324,1.219-2.607,0-5.214.013-7.821-.012-.5,0-.629.134-.626.628q.031,5.468,0,10.935c0,.493.125.632.625.629q5.467-.032,10.934,0c.488,0,.64-.117.632-.622-.03-1.923.029-3.849-.033-5.771-.025-.764.174-1.067.938-.923a1.184,1.184,0,0,0,.3-.021c1.214.063,1.214.063,1.214,1.322,0,2.61-.014,5.219.012,7.829.005.5-.137.622-.628.62q-7.9-.027-15.808,0c-.5,0-.625-.13-.623-.625q.027-7.9,0-15.81c0-.493.123-.629.622-.626,3.547.022,7.094.037,10.64-.008.757-.01,1.068.166.921.933a1.167,1.167,0,0,0,.021.3" transform="translate(-256.944 -283.972)" fill="#12263f"/>
          <path id="Trazado_750232" data-name="Trazado 750232" d="M47.659,255.307c5.042,0,10.085.01,15.126-.014.566,0,.709.132.707.7q-.029,15.128,0,30.256c0,.565-.132.709-.7.707q-15.127-.029-30.253,0c-.565,0-.708-.132-.707-.7q.029-15.128,0-30.256c0-.565.132-.711.7-.708,5.042.025,10.084.014,15.126.014m1.219,8.463c0,1.85.013,3.7-.01,5.549-.005.439.067.607.566.6q5.51-.036,11.021,0c.438,0,.607-.066.6-.566q-.037-5.511,0-11.022c0-.439-.066-.607-.566-.6q-5.51.037-11.021,0c-.537,0-.605.189-.6.647.023,1.8.009,3.6.009,5.4m-8.516,6.139c1.85,0,3.7-.013,5.548.01.432.006.545-.121.543-.547q-.024-5.549,0-11.1c0-.432-.12-.545-.547-.543q-5.548.025-11.1,0c-.432,0-.545.12-.543.547q.024,5.549,0,11.1c0,.432.12.549.547.544,1.849-.023,3.7-.01,5.548-.01M55,272.343c-1.85,0-3.7.018-5.548-.012-.474-.008-.586.12-.584.587q.03,5.511,0,11.022c0,.473.12.586.587.583q5.51-.031,11.021,0c.473,0,.586-.12.584-.587q-.031-5.511,0-11.022c0-.473-.119-.591-.587-.584-1.824.029-3.648.012-5.472.012m-14.561,0c-1.875,0-3.75.013-5.624-.01-.428-.005-.549.112-.547.544q.025,5.549,0,11.1c0,.427.112.549.543.547q5.548-.025,11.1,0c.427,0,.548-.112.546-.544q-.025-5.549,0-11.1c0-.427-.112-.553-.544-.547-1.824.023-3.648.01-5.472.01" transform="translate(-26.976 -216.366)" fill="#12263f"/>
          <path id="Trazado_750233" data-name="Trazado 750233" d="M61.036,58.851c-7.677.222-12.917-6.478-13.3-12.238a13.311,13.311,0,0,1,13.053-14.5A13.392,13.392,0,0,1,74.453,45.584,13.359,13.359,0,0,1,61.036,58.851M50.159,45.4c-.326,5.719,4.956,11.512,11.614,11.008A10.941,10.941,0,1,0,50.159,45.4" transform="translate(-40.425 -27.213)" fill="#12263f"/>
          <path id="Trazado_750234" data-name="Trazado 750234" d="M143.587,277.3c0-1.8.013-3.6-.009-5.4-.006-.458.063-.651.6-.647q5.51.04,11.021,0c.5,0,.568.165.566.6q-.025,5.511,0,11.022c0,.5-.165.568-.6.566q-5.51-.025-11.021,0c-.5,0-.572-.165-.566-.6.023-1.849.01-3.7.01-5.549m6.02,1.272h1.9c1.874,0,1.857,0,1.829-1.912-.007-.448-.151-.536-.561-.53-1.645.021-3.291.009-4.936.009-1.874,0-1.857,0-1.829,1.912.007.448.151.541.561.53,1.012-.027,2.025-.009,3.037-.009" transform="translate(-121.685 -229.895)" fill="#ffe99e"/>
          <path id="Trazado_750235" data-name="Trazado 750235" d="M53.913,283.464c-1.85,0-3.7-.013-5.548.01-.427.005-.549-.112-.547-.544q.025-5.549,0-11.1c0-.427.111-.549.543-.547q5.548.025,11.1,0c.427,0,.549.111.547.543q-.025,5.549,0,11.1c0,.427-.111.553-.543.547-1.849-.023-3.7-.01-5.548-.01m-3.652-6.144c0,1.276,0,1.276,1.24,1.276a1.3,1.3,0,0,0,.228,0c.766-.138,1.028.132.987.945-.075,1.488-.019,1.44,1.459,1.511.793.037,1.011-.187.974-.976-.069-1.475-.017-1.532,1.472-1.456.818.041,1.08-.227.942-.989a.871.871,0,0,1,0-.152c0-1.314,0-1.314-1.278-1.314-1.155,0-1.155,0-1.155-1.132,0-1.3,0-1.3-1.291-1.3-1.143,0-1.143,0-1.143,1.145,0,1.289,0,1.289-1.3,1.289-1.13,0-1.13,0-1.13,1.158" transform="translate(-40.527 -229.921)" fill="#ffe99e"/>
          <path id="Trazado_750236" data-name="Trazado 750236" d="M149.7,367.049c1.824,0,3.649.017,5.472-.012.468-.007.589.111.587.584q-.032,5.511,0,11.022c0,.467-.111.589-.584.587q-5.51-.032-11.021,0c-.467,0-.589-.111-.587-.584q.032-5.511,0-11.022c0-.467.11-.595.584-.587,1.849.03,3.7.012,5.548.012m-4.6,8.92c.432.424.872.811,1.256,1.247.3.345.485.363.828.015,2.277-2.311,4.58-4.6,6.928-6.945a15.037,15.037,0,0,1-1.2-1.154c-.367-.435-.587-.424-.993-.009-2.234,2.283-4.5,4.53-6.815,6.845m2.022-4.059a1.435,1.435,0,0,0,1.322-1.18,1.416,1.416,0,0,0-1.259-1.244,1.215,1.215,0,0,0-.062,2.423m4.876,4.868a1.215,1.215,0,1,0,.045-2.424,1.215,1.215,0,0,0-.045,2.424" transform="translate(-121.674 -311.071)" fill="#ffe99e"/>
          <path id="Trazado_750237" data-name="Trazado 750237" d="M53.988,367.062c1.824,0,3.648.014,5.472-.01.432-.006.545.12.544.547q-.024,5.549,0,11.1c0,.431-.12.545-.547.544q-5.548-.025-11.1,0c-.432,0-.545-.12-.543-.547q.024-5.549,0-11.1c0-.432.119-.549.547-.544,1.875.023,3.75.01,5.625.01m4.247,8.791c-.7-.7-1.477-1.5-2.291-2.259-.35-.327-.4-.527-.016-.882.826-.76,1.6-1.576,2.408-2.382-.433-.427-.841-.776-1.183-1.181s-.591-.489-.993-.028c-.6.686-1.289,1.291-1.918,1.952-.294.309-.518.316-.811,0-.587-.629-1.226-1.21-1.792-1.857-.407-.465-.717-.574-1.152-.039a15.107,15.107,0,0,1-1.163,1.156c.448.441.891.853,1.306,1.291.483.51,1.392.963,1.348,1.528-.041.544-.875,1.03-1.365,1.537-.405.419-1.2.908-1.14,1.227.1.517.773.92,1.2,1.371a.613.613,0,0,1,.052.055c.2.278.383.231.6-.005.415-.445.855-.865,1.285-1.3,1.218-1.218,1.206-1.206,2.419-.028.538.523,1.029,1.512,1.634,1.432.576-.076,1.037-1.016,1.565-1.594" transform="translate(-40.526 -311.085)" fill="#ffe99e"/>
          <path id="Trazado_750238" data-name="Trazado 750238" d="M63.764,58.936A10.925,10.925,0,1,1,75.379,69.945c-6.659.5-11.94-5.289-11.614-11.008m9.734,7.07a4.828,4.828,0,0,1,0,.676c-.121.7.161.88.849.857,1.587-.053,1.617-.017,1.574-1.63-.017-.63.091-.947.8-.832.37.06.76-.013,1.138.017s.53-.084.518-.5c-.03-1.038.026-2.079-.021-3.116A3.769,3.769,0,0,0,77.2,58.823a4.061,4.061,0,0,0-2.635-1.044,1.038,1.038,0,0,1-1.015-.849c-.1-.5-.279-1.172.079-1.526.609-.6,2.171.219,2.3,1.133.059.411-.214.977.154,1.2.318.191.838.048,1.268.051.228,0,.456-.006.684,0,.208.007.316-.049.333-.289.091-1.3-.4-3.479-1.943-4.015a.684.684,0,0,1-.5-.8c.038-.58.016-1.165.006-1.748,0-.179.092-.449-.238-.447a5.789,5.789,0,0,0-2.084.111c-.334.14-.062.98-.106,1.5a1.374,1.374,0,0,0,0,.3c.054.382-.07.552-.49.52-.479-.037-.964.015-1.443-.016-.4-.026-.522.1-.511.5.027,1.063,0,2.128.011,3.192a3.4,3.4,0,0,0,1.611,3.006,3.464,3.464,0,0,0,1.864.612c1.033.024,1.581.781,1.367,2.046-.147.867-.908.3-1.358.34-.621.049-.967-.421-1.047-1.048-.057-.44.213-1.045-.147-1.282-.321-.211-.882-.056-1.337-.061-.2,0-.406.012-.608,0-.264-.02-.334.091-.354.349-.123,1.587.166,3.065,1.642,3.889a1.357,1.357,0,0,1,.8,1.549" transform="translate(-54.03 -40.75)" fill="#ffd55b"/>
          <path id="Trazado_750239" data-name="Trazado 750239" d="M163.083,305.656c-1.013,0-2.026-.018-3.037.009-.41.011-.555-.082-.561-.53-.028-1.912-.045-1.912,1.829-1.912,1.645,0,3.291.013,4.936-.009.41-.005.555.082.561.53.028,1.913.045,1.912-1.829,1.912h-1.9" transform="translate(-135.161 -256.981)" fill="#12263f"/>
          <path id="Trazado_750240" data-name="Trazado 750240" d="M63.841,290.9c0-1.158,0-1.158,1.13-1.158,1.3,0,1.3,0,1.3-1.289,0-1.145,0-1.145,1.143-1.145,1.291,0,1.291,0,1.291,1.3,0,1.132,0,1.132,1.155,1.132,1.278,0,1.278,0,1.278,1.314a.869.869,0,0,0,0,.152c.137.762-.125,1.031-.942.989-1.49-.076-1.542-.019-1.472,1.456.037.789-.181,1.014-.974.976-1.477-.07-1.533-.023-1.459-1.511.041-.814-.221-1.083-.987-.945a1.3,1.3,0,0,1-.228,0c-1.24,0-1.24,0-1.24-1.276" transform="translate(-54.107 -243.502)" fill="#12263f"/>
          <path id="Trazado_750241" data-name="Trazado 750241" d="M153.6,385.824c2.312-2.315,4.582-4.562,6.815-6.845.406-.415.626-.426.993.009a15.014,15.014,0,0,0,1.2,1.154c-2.348,2.348-4.651,4.634-6.928,6.945-.343.348-.525.33-.828-.015-.384-.437-.824-.823-1.256-1.247" transform="translate(-130.182 -320.927)" fill="#12263f"/>
          <path id="Trazado_750242" data-name="Trazado 750242" d="M160.731,385.525a1.215,1.215,0,0,1,.062-2.424,1.416,1.416,0,0,1,1.259,1.244,1.435,1.435,0,0,1-1.322,1.18" transform="translate(-135.288 -324.687)" fill="#12263f"/>
          <path id="Trazado_750243" data-name="Trazado 750243" d="M192.661,417.451a1.215,1.215,0,0,1,.045-2.424,1.215,1.215,0,1,1-.045,2.424" transform="translate(-162.343 -351.745)" fill="#12263f"/>
          <path id="Trazado_750244" data-name="Trazado 750244" d="M66.61,385.6c-.528.578-.989,1.518-1.565,1.594-.605.08-1.1-.909-1.634-1.432-1.213-1.179-1.2-1.191-2.419.028-.43.43-.871.851-1.285,1.3-.221.237-.4.284-.6.005a.623.623,0,0,0-.052-.055c-.43-.451-1.1-.854-1.2-1.371-.064-.319.735-.808,1.14-1.227.491-.507,1.324-.993,1.365-1.537.043-.565-.865-1.018-1.348-1.528-.415-.438-.858-.849-1.306-1.291a15.1,15.1,0,0,0,1.163-1.156c.435-.535.745-.426,1.152.039.566.646,1.2,1.228,1.792,1.857.294.314.517.307.811,0,.629-.66,1.32-1.265,1.918-1.952.4-.461.643-.385.993.028s.75.754,1.183,1.181c-.808.805-1.582,1.622-2.408,2.382-.386.355-.333.555.016.882.814.762,1.59,1.563,2.291,2.259" transform="translate(-48.901 -320.834)" fill="#12263f"/>
          <path id="Trazado_750245" data-name="Trazado 750245" d="M113.979,79.193a1.357,1.357,0,0,0-.8-1.549c-1.476-.824-1.765-2.3-1.642-3.889.02-.258.089-.369.354-.349.2.015.405,0,.608,0,.455.005,1.017-.149,1.337.061.36.236.09.841.147,1.282.081.627.426,1.1,1.047,1.048.45-.035,1.211.527,1.358-.34.215-1.264-.333-2.022-1.367-2.046a3.464,3.464,0,0,1-1.865-.612,3.4,3.4,0,0,1-1.611-3.006c-.008-1.064.016-2.129-.011-3.192-.01-.4.116-.53.511-.5.479.031.964-.021,1.443.016.42.032.544-.137.49-.52a1.376,1.376,0,0,1,0-.3c.044-.522-.228-1.362.106-1.5a5.789,5.789,0,0,1,2.084-.111c.33,0,.235.268.238.447.01.583.032,1.167-.006,1.748a.684.684,0,0,0,.5.8c1.545.536,2.034,2.713,1.943,4.015-.017.241-.125.3-.333.289-.228-.008-.456,0-.684,0-.43,0-.95.141-1.268-.051-.368-.221-.1-.787-.154-1.2-.13-.913-1.692-1.735-2.3-1.133-.358.354-.177,1.022-.079,1.526a1.038,1.038,0,0,0,1.015.849,4.061,4.061,0,0,1,2.635,1.044,3.769,3.769,0,0,1,1.154,2.658c.047,1.037-.009,2.078.021,3.116.012.414-.129.529-.518.5s-.767.043-1.138-.017c-.712-.116-.819.2-.8.832.043,1.613.012,1.577-1.574,1.63-.687.023-.969-.16-.849-.857a4.823,4.823,0,0,0,0-.676" transform="translate(-94.51 -53.937)" fill="#12263f"/>
        </g>
      </g>
    </g>
  </g>
</svg>
