<svg xmlns="http://www.w3.org/2000/svg" xmlns:xlink="http://www.w3.org/1999/xlink" width="152" height="152" viewBox="0 0 152 152">
  <defs>
    <clipPath id="clip-path">
      <rect id="Rectángulo_357889" data-name="Rectángulo 357889" width="76.867" height="76.862" fill="#12263f"/>
    </clipPath>
  </defs>
  <g id="Grupo_1020667" data-name="Grupo 1020667" transform="translate(7.173 7)">
    <g id="Grupo_1020472" data-name="Grupo 1020472">
      <circle id="Elipse_8460" data-name="Elipse 8460" cx="76" cy="76" r="76" transform="translate(-7.173 -7)" fill="#91b3fa" opacity="0.45"/>
      <circle id="Elipse_8461" data-name="Elipse 8461" cx="62" cy="62" r="62" transform="translate(6.827 7)" fill="#fff"/>
      <g id="Grupo_1021551" data-name="Grupo 1021551" transform="translate(30.394 30.569)">
        <g id="Grupo_1021550" data-name="Grupo 1021550" clip-path="url(#clip-path)">
          <path id="Trazado_750246" data-name="Trazado 750246" d="M59.5,22.353H54.58V33.415H66.932c0-.734.013-1.474,0-2.213a1.273,1.273,0,0,1,2.273-.94q3.559,3.56,7.111,7.127a1.253,1.253,0,0,1,.008,2.076q-3.543,3.576-7.113,7.125a1.267,1.267,0,0,1-1.53.4,1.32,1.32,0,0,1-.75-1.4c.019-.695,0-1.39,0-2.143H54.537v.894q0,12.9,0,25.8c0,4.146-2.569,6.722-6.7,6.723q-16.807,0-33.612,0c-4.235,0-6.784-2.558-6.784-6.8,0-2.243,0-4.487,0-6.837H4.257c-.955,0-1.911.012-2.865,0a1.252,1.252,0,0,1-1.384-1.4q-.017-3.525,0-7.049c0-1.007.462-1.459,1.474-1.464,1.957-.009,3.913,0,5.959,0v-.962q0-22.93,0-45.859A6.167,6.167,0,0,1,12.758.075,8.1,8.1,0,0,1,14.07,0q17-.006,34,0a6.2,6.2,0,0,1,6.466,6.414c.012,1.959,0,3.918,0,5.93H59.5c0-.749.011-1.49,0-2.23A1.279,1.279,0,0,1,60.245,8.8a1.222,1.222,0,0,1,1.472.351q3.618,3.611,7.223,7.234a1.219,1.219,0,0,1-.013,1.965q-3.6,3.63-7.226,7.232a1.213,1.213,0,0,1-1.4.359,1.248,1.248,0,0,1-.8-1.285c.009-.745,0-1.491,0-2.3M47.056,43.4c-.887,0-1.688.035-2.483-.011a1.086,1.086,0,0,0-1.212.746c-2.356,4.836-6.253,7.6-11.612,7.9A13.625,13.625,0,1,1,43.466,32.87c.107.225.331.548.515.558,1.019.055,2.043.026,3.069.026V22.324c-1.119,0-2.2,0-3.275,0-1.216,0-1.642-.42-1.644-1.611q0-3.37,0-6.74c0-1.154.432-1.578,1.593-1.583,1.1-.005,2.2,0,3.3,0V7.453c-2.257,0-4.461.128-6.642-.039a4.707,4.707,0,0,0-4.553,1.857,2.158,2.158,0,0,1-1.471.627c-1.545.08-3.11-.1-4.642.06A5.018,5.018,0,0,1,24.678,7.9a1.472,1.472,0,0,0-1.055-.429c-2.659-.036-5.318-.02-7.977-.02h-.707V53.255h2.408c0-.758.015-1.475,0-2.192a1.309,1.309,0,0,1,.785-1.379,1.292,1.292,0,0,1,1.527.425q3.558,3.561,7.112,7.126a1.251,1.251,0,0,1,.035,2.027q-3.6,3.631-7.225,7.231a1.228,1.228,0,0,1-1.474.344,1.279,1.279,0,0,1-.758-1.317c.015-.741,0-1.482,0-2.224H14.939v6.076H47.056ZM69.51,34.191c-.154,1.542-.46,1.8-1.961,1.8q-12-.006-24.006-.005c-1.558,0-1.644-.058-2.192-1.5a11.082,11.082,0,1,0-7.03,14.523,10.929,10.929,0,0,0,7.161-6.962c.257-.7.612-1.173,1.42-1.173q12.584,0,25.168.006a1.256,1.256,0,0,1,1.375,1.329c.008.134.022.267.019.229l4.183-4.063L69.51,34.191" transform="translate(0 0)" fill="#12263f"/>
          <path id="Trazado_750247" data-name="Trazado 750247" d="M128.566,83.711v25.973H96.449v-6.076h2.408c0,.742.011,1.483,0,2.224a1.279,1.279,0,0,0,.758,1.317,1.228,1.228,0,0,0,1.474-.344q3.617-3.611,7.225-7.231a1.251,1.251,0,0,0-.034-2.027q-3.544-3.574-7.112-7.126A1.292,1.292,0,0,0,99.638,90a1.309,1.309,0,0,0-.785,1.379c.019.717,0,1.434,0,2.192H96.449V47.761h.707c2.659,0,5.319-.016,7.977.02a1.473,1.473,0,0,1,1.055.429,5.018,5.018,0,0,0,5.043,2.063c1.532-.161,3.1.02,4.642-.06a2.158,2.158,0,0,0,1.471-.627,4.707,4.707,0,0,1,4.553-1.857c2.181.167,4.385.039,6.642.039V52.7c-1.1,0-2.2,0-3.3,0-1.161.005-1.59.43-1.593,1.583q-.009,3.37,0,6.74c0,1.191.428,1.606,1.644,1.611,1.078,0,2.156,0,3.275,0V73.767c-1.026,0-2.05.028-3.069-.026-.184-.01-.408-.333-.515-.558a13.64,13.64,0,1,0-11.717,19.159c5.359-.293,9.255-3.06,11.612-7.9a1.086,1.086,0,0,1,1.212-.746c.8.047,1.6.011,2.484.011m-7.382-26c0-1.187.009-2.375,0-3.562a1.276,1.276,0,0,0-1.422-1.442q-2.322-.023-4.645,0a1.253,1.253,0,0,0-1.38,1.4q-.018,3.562,0,7.124a1.254,1.254,0,0,0,1.381,1.4q2.322.024,4.645,0a1.273,1.273,0,0,0,1.421-1.441c.013-1.162,0-2.323,0-3.485m-3.762,47.1h-9.849v2.426h9.849ZM103.845,56.378h2.4V54h-2.4Zm4.958,0h2.408V54H108.8Zm-4.947,4.975h2.414v-2.42h-2.414Zm7.389-2.4h-2.42v2.391h2.42Z" transform="translate(-81.51 -40.313)" fill="#dee4f0"/>
          <path id="Trazado_750248" data-name="Trazado 750248" d="M178.2,183.226l4.138,4.181-4.183,4.063c0,.038-.01-.1-.019-.229a1.256,1.256,0,0,0-1.375-1.329q-12.584-.01-25.168-.006c-.808,0-1.164.476-1.42,1.173a10.929,10.929,0,0,1-7.161,6.962,11.106,11.106,0,1,1,7.03-14.523c.548,1.446.633,1.5,2.192,1.5q12,0,24.006.005c1.5,0,1.807-.261,1.961-1.8m-37.212,11.806c2.578-.576,3.684-1.824,3.69-4.129.009-3.025-.858-4.159-3.672-4.8v-3.537c1.431.327,1.01,1.5,1.153,2.4h2.476a4.9,4.9,0,0,0-.56-3.266A4.109,4.109,0,0,0,141,179.918l-.086-1.126h-2.464l-.091,1.148c-2.028.321-3.255,1.331-3.591,3.05a10.718,10.718,0,0,0-.081,2.083,3.726,3.726,0,0,0,2.589,3.487c.359.112.734.173,1.1.257v3.545c-1.478-.293-.987-1.541-1.205-2.407h-2.4c-.424,2.811.675,4.358,3.627,5.094,0,.16-.005.337,0,.514s.024.351.04.568h2.481l.07-1.1" transform="translate(-108.691 -149.035)" fill="#e6b046"/>
          <path id="Trazado_750249" data-name="Trazado 750249" d="M215.446,84.944c0,1.162.01,2.323,0,3.485a1.273,1.273,0,0,1-1.421,1.441q-2.322.02-4.645,0a1.253,1.253,0,0,1-1.381-1.4q-.018-3.562,0-7.124a1.253,1.253,0,0,1,1.38-1.4q2.322-.025,4.645,0a1.276,1.276,0,0,1,1.422,1.442c.012,1.187,0,2.375,0,3.562m-2.551-.01q0-.425,0-.851c0-1.688,0-1.673-1.718-1.6-.461.02-.648.167-.636.636.021.824,0,1.65,0,2.475,0,1.845,0,1.833,1.817,1.738.395-.021.557-.14.543-.543-.021-.618-.006-1.237-.007-1.856" transform="translate(-175.772 -67.55)" fill="#12263f"/>
          <rect id="Rectángulo_357884" data-name="Rectángulo 357884" width="9.849" height="2.426" transform="translate(26.063 64.491)" fill="#12263f"/>
          <rect id="Rectángulo_357885" data-name="Rectángulo 357885" width="2.405" height="2.38" transform="translate(22.335 13.685)" fill="#12263f"/>
          <rect id="Rectángulo_357886" data-name="Rectángulo 357886" width="2.408" height="2.381" transform="translate(27.293 13.687)" fill="#12263f"/>
          <rect id="Rectángulo_357887" data-name="Rectángulo 357887" width="2.414" height="2.42" transform="translate(22.346 18.624)" fill="#12263f"/>
          <rect id="Rectángulo_357888" data-name="Rectángulo 357888" width="2.42" height="2.391" transform="translate(27.315 18.641)" fill="#12263f"/>
          <path id="Trazado_750250" data-name="Trazado 750250" d="M174.068,208.359l-.07,1.1h-2.481c-.016-.217-.034-.392-.04-.568s0-.355,0-.515c-2.952-.737-4.051-2.284-3.627-5.094h2.4c.218.866-.273,2.114,1.205,2.407v-3.545c-.366-.084-.741-.145-1.1-.257a3.726,3.726,0,0,1-2.589-3.487,10.716,10.716,0,0,1,.081-2.083c.337-1.72,1.564-2.729,3.591-3.05l.091-1.148h2.464l.086,1.126a4.109,4.109,0,0,1,3.077,1.775,4.9,4.9,0,0,1,.56,3.266h-2.476c-.142-.891.278-2.068-1.153-2.4v3.537c2.814.642,3.681,1.777,3.672,4.8-.007,2.3-1.112,3.553-3.69,4.129m-2.644-8.874v-3.562c-.886.168-1.1.738-1.1,1.474-.015,1.529.094,1.758,1.1,2.087m2.641,6.175c1.024-.3,1.18-.612,1.138-2.146a1.255,1.255,0,0,0-1.138-1.415Z" transform="translate(-141.769 -162.362)" fill="#12263f"/>
          <path id="Trazado_750251" data-name="Trazado 750251" d="M226.832,98.743c0,.619-.016,1.238.005,1.856.014.4-.148.523-.543.543-1.819.1-1.819.108-1.817-1.738,0-.825.021-1.65,0-2.475-.012-.469.175-.616.636-.636,1.721-.074,1.72-.09,1.718,1.6q0,.425,0,.851" transform="translate(-189.707 -81.359)" fill="#57dbd8"/>
          <path id="Trazado_750252" data-name="Trazado 750252" d="M185.424,220.241c-1.01-.329-1.119-.558-1.1-2.087.007-.737.217-1.307,1.1-1.475Z" transform="translate(-155.77 -183.118)" fill="#e6b046"/>
          <path id="Trazado_750253" data-name="Trazado 750253" d="M208.5,260.11v-3.561a1.255,1.255,0,0,1,1.138,1.415c.042,1.533-.114,1.851-1.138,2.146" transform="translate(-176.208 -216.812)" fill="#e6b046"/>
        </g>
      </g>
    </g>
  </g>
</svg>
